<svg width="146" height="60" viewBox="0 0 146 60" fill="none" xmlns="http://www.w3.org/2000/svg">
<path d="M16.0379 9.40031C16.997 8.84743 18.1829 8.86861 19.1216 9.45537C21.8559 11.0589 24.5902 12.6632 27.3245 14.2683V20.2927C24.5381 18.6517 21.7649 17.0261 18.9851 15.4071C18.326 14.9893 17.5203 14.8715 16.7692 15.0833C16.2614 15.2845 15.7751 15.5361 15.3176 15.8344C10.2176 18.8227 5.11174 21.8125 0 24.8038V20.4535C0 19.3389 0.715878 18.3345 1.66744 17.8102C6.45905 14.9937 11.2492 12.1904 16.0379 9.40031Z" fill="white"/>
<path d="M29.8707 15.7749C31.0161 16.4489 32.1615 17.1244 33.3069 17.8014C34.0457 18.2015 34.6024 18.8703 34.862 19.6693C35.0383 20.2332 34.992 20.8301 34.9986 21.4116V37.5927C35.0054 38.7207 34.4034 39.7648 33.4237 40.324C30.7011 41.9496 27.9632 43.5466 25.234 45.1699C23.5335 44.1589 21.8088 43.1875 20.1304 42.1368C22.8955 40.5098 25.6614 38.8783 28.4279 37.2424C29.3209 36.7433 29.8744 35.8006 29.8751 34.7776C29.8751 28.436 29.8619 22.1055 29.8707 15.7749L29.8707 15.7749Z" fill="white"/>
<path d="M10.1567 21.9314C11.6171 21.0504 13.0929 20.2023 14.5621 19.3389C14.5621 21.3007 14.5621 23.2648 14.5621 25.2311C16.1912 24.5179 18.0243 24.4224 19.7187 24.9624C21.8929 25.6769 23.6159 27.3545 24.3884 29.5087C25.042 31.3343 24.9727 33.3407 24.1946 35.1168C23.377 36.9735 21.8354 38.4149 19.9279 39.1059C17.8429 39.8431 15.5357 39.591 13.659 38.4209C11.5514 37.0908 10.2435 34.7995 10.17 32.3084C10.1457 28.8501 10.1744 25.3897 10.1567 21.9314V21.9314ZM16.4322 29.2004C15.0388 29.7544 14.2459 31.2305 14.5533 32.6982C14.8419 34.2666 16.5071 35.4208 18.0777 35.0639C19.8046 34.7622 20.9412 32.7908 20.3663 31.1365C19.9147 29.5374 17.9873 28.5638 16.4322 29.2092V29.2004V29.2004Z" fill="white"/>
<path d="M0.0063615 27.8392C1.72006 26.8282 3.43156 25.8106 5.15187 24.8193V34.7822C5.16511 35.8373 5.7576 36.7997 6.69376 37.2866C12.0221 40.4189 17.3394 43.5731 22.6766 46.6944C21.4519 47.4286 20.2206 48.1548 18.9826 48.8728C17.8659 49.5336 16.4517 49.2473 15.4583 48.505C10.8326 45.7758 6.20696 43.0665 1.58129 40.3374C0.596423 39.7741 -0.00750891 38.7229 0.0019561 37.5884C-0.000980105 34.3357 0.000489097 31.086 0.0063615 27.8392Z" fill="white"/>
<path d="M45.1663 17.8191C45.1984 16.6994 46.0974 15.7985 47.217 15.764C48.3294 15.7309 49.3008 16.7332 49.3074 17.8301C49.3294 19.7002 49.3074 21.5747 49.3074 23.4426C51.2242 22.0908 53.5841 21.5205 55.9067 21.8478C58.6535 22.2541 61.0836 23.8453 62.5544 26.2004C64.1612 28.7612 64.5339 31.9079 63.5699 34.7733C62.7383 37.2645 60.9361 39.3145 58.572 40.4585C56.1812 41.5956 53.416 41.6454 50.9859 40.595C48.2896 39.4037 46.2784 37.0548 45.5166 34.2072C45.2443 33.1683 45.1233 32.0955 45.1575 31.0221C45.1641 26.6101 45.1443 22.2157 45.1663 17.8191H45.1663ZM53.3295 26.2334C50.7942 26.8766 49.0299 29.5661 49.3647 32.1499C49.6004 34.8129 52.0299 37.1544 54.7525 37.0311C57.3957 37.0201 59.6865 34.7116 59.9068 32.119C60.1298 29.8838 58.9933 27.7321 57.0213 26.6563C55.8863 26.0604 54.5698 25.9096 53.3295 26.2334H53.3295Z" fill="white"/>
<path d="M68.2091 15.9004C69.284 15.4467 70.5946 16.1427 70.9052 17.2441C71.2796 18.3234 70.643 19.6428 69.5329 19.9622C68.4778 20.3278 67.2531 19.6274 66.9623 18.5679C66.6175 17.4896 67.1606 16.3275 68.2091 15.9004Z" fill="white"/>
<path d="M74.4974 20.0835C74.4423 19.0108 75.2837 17.9579 76.3719 17.8698C77.5305 17.7222 78.6252 18.7377 78.6429 19.8875C78.6693 21.2091 78.6429 22.5307 78.6429 23.8523H85.0483C85.9234 23.8361 86.7154 24.3685 87.0307 25.185C87.6739 26.5969 86.4096 28.348 84.8611 28.152H78.6539C78.6671 29.5463 78.623 30.9406 78.6781 32.3371C78.8213 34.6169 80.6605 36.6963 82.9491 37.0047C84.2818 37.1765 85.5924 36.5861 86.6034 35.7535C87.4206 35.0653 88.6316 35.1289 89.3722 35.8989C90.1669 36.7412 90.1737 38.0551 89.3876 38.9056C87.4052 40.7713 84.5219 41.7559 81.8302 41.1611C79.5013 40.6615 77.4593 39.273 76.1384 37.291C75.0085 35.5992 74.4334 33.5975 74.493 31.564C74.4996 27.7313 74.4908 23.9074 74.4974 20.0835L74.4974 20.0835Z" fill="white"/>
<path d="M100.205 21.9162C101.183 21.7774 102.35 21.5175 103.174 22.2312C104.251 23.0748 104.181 24.9207 103.04 25.674C102.362 26.1982 101.458 25.9713 100.683 26.2048C98.5186 26.8094 96.9915 28.7414 96.9032 30.9869C96.8768 33.7535 96.9164 36.5245 96.8856 39.2933C96.8843 40.4368 95.9563 41.3628 94.8128 41.3615C93.671 41.3603 92.7458 40.435 92.7445 39.2933C92.7225 37.4122 92.7445 35.5289 92.7335 33.6478C92.7533 31.8856 92.6057 30.0662 93.174 28.3613C94.1168 25.1453 96.8944 22.5263 100.205 21.9162V21.9162Z" fill="white"/>
<path d="M129.072 26.2862C130.47 23.8909 132.878 22.2587 135.62 21.8477C138.088 21.4992 140.588 22.2016 142.513 23.7839C144.783 25.6515 146.068 28.4597 145.997 31.3986C145.951 32.1784 145.387 33.0485 144.519 32.9934H131.865C132.283 34.8194 133.568 36.467 135.361 37.1014C137.38 37.8315 139.64 37.2482 141.054 35.6322C141.574 34.9494 142.596 34.663 143.348 35.1388C144.356 35.7468 144.449 37.2556 143.733 38.1235C142.31 39.8115 140.32 40.9215 138.136 41.2447C136.188 41.5264 134.202 41.1504 132.493 40.1764C130.058 38.7744 128.372 36.3643 127.889 33.5969C127.495 31.1255 127.75 28.4624 129.072 26.2862ZM134.138 26.4734C133.037 27.1342 132.255 28.2356 131.781 29.4184H141.958C141.464 28.2047 140.662 27.0769 139.506 26.4183C137.846 25.4339 135.777 25.4552 134.138 26.4734Z" fill="white"/>
<path d="M108.206 21.9843C109.426 21.5768 110.787 22.5857 110.849 23.8478C110.897 26.6078 110.849 29.3722 110.877 32.1322C110.93 34.7446 113.256 37.1235 115.906 37.042C118.516 37.0552 120.768 34.6895 120.816 32.1145C120.84 29.4823 120.816 26.8479 120.829 24.2157C120.798 23.1143 121.743 22.0504 122.876 22.0614C124.032 22.0152 125.017 23.0901 124.981 24.2245V31.9339C124.974 34.5342 123.914 37.0206 122.043 38.8262C120.153 40.6538 117.555 41.5563 114.939 41.2932C112.611 41.0468 110.469 39.9056 108.966 38.1103C107.518 36.3877 106.719 34.2126 106.708 31.9626C106.699 29.3193 106.699 26.6717 106.708 24.0196C106.712 23.0879 107.317 22.2655 108.206 21.9843Z" fill="white"/>
<path d="M68.1915 22.6341C69.5131 22.0548 71.055 23.2156 71.0087 24.6166C71.0197 29.4427 71.0087 34.2688 71.0087 39.0971C71.038 39.8669 70.663 40.5961 70.0197 41.0201C69.2844 41.4922 68.329 41.438 67.6518 40.8857C67.1182 40.444 66.8216 39.7783 66.85 39.0861C66.85 34.2754 66.85 29.4647 66.85 24.654C66.8398 23.7691 67.3719 22.968 68.1915 22.6341Z" fill="white"/>
</svg>
