<svg width="97" height="96" viewBox="0 0 97 96" fill="none" xmlns="http://www.w3.org/2000/svg">
<circle cx="48.5" cy="48" r="32.5" stroke="#415566" stroke-dasharray="2 2"/>
<circle cx="48.5" cy="48" r="23.5" stroke="#1B2B38"/>
<path fill-rule="evenodd" clip-rule="evenodd" d="M59.0312 60H21.9062H20.875V59.9609C13.9528 59.4343 8.5 53.6508 8.5 46.5938C8.5 39.534 13.9569 33.7488 20.8829 33.226C20.8776 33.0419 20.875 32.8572 20.875 32.6719C20.875 22.1353 29.4166 13.5938 39.9531 13.5938C49.257 13.5938 57.0053 20.2536 58.691 29.0662C58.8041 29.0637 58.9175 29.0625 59.0312 29.0625C67.5744 29.0625 74.5 35.9881 74.5 44.5312C74.5 52.7279 68.1248 59.4355 60.0625 59.9662V60H59.0312Z" fill="#111B24"/>
<path fill-rule="evenodd" clip-rule="evenodd" d="M59.0312 60H21.9062H20.875V59.9609C13.9528 59.4343 8.5 53.6508 8.5 46.5938C8.5 39.534 13.9569 33.7488 20.8829 33.226C20.8776 33.0419 20.875 32.8572 20.875 32.6719C20.875 22.1353 29.4166 13.5938 39.9531 13.5938C49.257 13.5938 57.0053 20.2536 58.691 29.0662C58.8041 29.0637 58.9175 29.0625 59.0312 29.0625C67.5744 29.0625 74.5 35.9881 74.5 44.5312C74.5 52.7279 68.1248 59.4355 60.0625 59.9662V60H59.0312Z" fill="#00EAC7" fill-opacity="0.06"/>
<path d="M20.875 60H19.875L20.875 61V60ZM20.875 59.9609H21.875L20.9509 58.9638L20.875 59.9609ZM20.8829 33.226L20.9582 34.2231L21.8825 33.1975L20.8829 33.226ZM58.691 29.0662L57.7088 29.254L58.7126 30.0659L58.691 29.0662ZM60.0625 59.9662L59.9968 58.9683L59.0625 59.9662H60.0625ZM60.0625 60V61L61.0625 60H60.0625ZM59.0312 59H21.9062V61H59.0312V59ZM21.9062 59H20.875V61H21.9062V59ZM21.875 60V59.9609H19.875V60H21.875ZM20.9509 58.9638C14.546 58.4766 9.5 53.124 9.5 46.5938H7.5C7.5 54.1777 13.3596 60.3921 20.7991 60.958L20.9509 58.9638ZM9.5 46.5938C9.5 40.061 14.5498 34.7069 20.9582 34.2231L20.8076 32.2288C13.364 32.7907 7.5 39.0069 7.5 46.5938H9.5ZM21.8825 33.1975C21.8775 33.0229 21.875 32.8477 21.875 32.6719H19.875C19.875 32.8667 19.8778 33.0609 19.8833 33.2545L21.8825 33.1975ZM21.875 32.6719C21.875 22.6876 29.9689 14.5938 39.9531 14.5938V12.5938C28.8643 12.5938 19.875 21.583 19.875 32.6719H21.875ZM39.9531 14.5938C48.7682 14.5938 56.1116 20.904 57.7088 29.254L59.6732 28.8783C57.8991 19.6033 49.7458 12.5938 39.9531 12.5938V14.5938ZM58.7126 30.0659C58.8185 30.0637 58.9247 30.0625 59.0312 30.0625V28.0625C58.9103 28.0625 58.7897 28.0638 58.6694 28.0664L58.7126 30.0659ZM59.0312 30.0625C67.0221 30.0625 73.5 36.5404 73.5 44.5312H75.5C75.5 35.4358 68.1267 28.0625 59.0312 28.0625V30.0625ZM73.5 44.5312C73.5 52.1976 67.537 58.472 59.9968 58.9683L60.1282 60.964C68.7127 60.399 75.5 53.2582 75.5 44.5312H73.5ZM59.0625 59.9662V60H61.0625V59.9662H59.0625ZM60.0625 59H59.0312V61H60.0625V59Z" fill="#00EAC7"/>
<path d="M59.5 47H78.5L80.5 84H57.5L59.5 47Z" fill="#111B24"/>
<path d="M70.5 47C70.5 46.0717 70.1313 45.1815 69.4749 44.5251C68.8185 43.8687 67.9283 43.5 67 43.5C66.0717 43.5 65.1815 43.8687 64.5251 44.5251C63.8687 45.1815 63.5 46.0717 63.5 47L67 47H70.5Z" fill="#111B24"/>
<path d="M70.5 47C70.5 46.0717 70.1313 45.1815 69.4749 44.5251C68.8185 43.8687 67.9283 43.5 67 43.5C66.0717 43.5 65.1815 43.8687 64.5251 44.5251C63.8687 45.1815 63.5 46.0717 63.5 47L67 47H70.5Z" fill="#00EAC7" fill-opacity="0.06"/>
<path d="M70.5 47C70.5 46.0717 70.1313 45.1815 69.4749 44.5251C68.8185 43.8687 67.9283 43.5 67 43.5C66.0717 43.5 65.1815 43.8687 64.5251 44.5251C63.8687 45.1815 63.5 46.0717 63.5 47L67 47H70.5Z" stroke="#00EAC7" stroke-linejoin="bevel"/>
<path d="M80.5 84L78.5 47H59.5L57.5 84" stroke="white" stroke-linejoin="bevel"/>
<path d="M52.5 47.5H49V46.5L52 44.5V42.5H48.5" stroke="#00EAC7" stroke-linejoin="bevel"/>
<path d="M40 36.5H46V45.5H40V36.5Z" stroke="#00EAC7" stroke-linejoin="bevel"/>
<path d="M37.4999 45.5L32 45.5L32 36.5L37.5 36.5" stroke="#00EAC7" stroke-linejoin="bevel"/>
<circle cx="61" cy="27.5" r="7.5" fill="#111B24"/>
<circle cx="61" cy="27.5" r="7.5" fill="#00EAC7" fill-opacity="0.06"/>
<circle cx="61" cy="27.5" r="7.5" stroke="#00EAC7" stroke-linejoin="bevel"/>
<circle cx="73" cy="36.5" r="4.5" fill="#111B24"/>
<circle cx="73" cy="36.5" r="4.5" fill="#00EAC7" fill-opacity="0.06"/>
<circle cx="73" cy="36.5" r="4.5" stroke="#00EAC7" stroke-linejoin="bevel"/>
<path d="M83 13.5L78.5 17L74 13.5" stroke="#1B2B38" stroke-linecap="square"/>
<path d="M83 16.5L78.5 20L74 16.5" stroke="#1B2B38" stroke-linecap="square"/>
<path d="M18.5 81C18.5 81.7956 18.1839 82.5587 17.6213 83.1213C17.0587 83.6839 16.2956 84 15.5 84C14.7044 84 13.9413 83.6839 13.3787 83.1213C12.8161 82.5587 12.5 81.7956 12.5 81L15.5 81H18.5Z" fill="#1B2B38"/>
<path d="M12.5 78C12.5 77.2043 12.8161 76.4413 13.3787 75.8787C13.9413 75.3161 14.7044 75 15.5 75C16.2956 75 17.0587 75.3161 17.6213 75.8787C18.1839 76.4413 18.5 77.2044 18.5 78L15.5 78L12.5 78Z" fill="#1B2B38"/>
<line x1="78.7572" y1="47.4287" x2="58.7572" y2="59.4287" stroke="white" stroke-linejoin="bevel"/>
<line x1="79.2572" y1="58.4287" x2="58.2487" y2="71.0339" stroke="white" stroke-linejoin="bevel"/>
<line x1="79.7544" y1="69.4305" x2="57.7544" y2="82.4305" stroke="white" stroke-linejoin="bevel"/>
<rect x="57.5" y="47" width="23" height="6" fill="#111B24" stroke="white" stroke-linejoin="bevel"/>
</svg>
