<svg width="97" height="97" viewBox="0 0 97 97" fill="none" xmlns="http://www.w3.org/2000/svg">
<circle cx="48.5" cy="48.5" r="23.5" stroke="#1B2B38"/>
<path d="M68.8121 21.2343C62.6723 16.6604 55.1685 14.2926 47.5155 14.5143C39.8625 14.7359 32.5083 17.5342 26.6436 22.4558C20.7789 27.3775 16.747 34.1346 15.2007 41.633C13.6544 49.1314 14.6841 56.9323 18.1233 63.7726C21.5624 70.613 27.2096 76.0923 34.1505 79.3236C41.0915 82.5548 48.9198 83.3488 56.3682 81.577C63.8166 79.8053 70.449 75.5714 75.1915 69.5609C79.9341 63.5504 82.5092 56.1152 82.5 48.459L80.4229 48.4615C80.4316 55.65 78.0138 62.631 73.5609 68.2743C69.1081 73.9176 62.8809 77.8928 55.8875 79.5564C48.8942 81.2199 41.544 80.4744 35.0271 77.4405C28.5102 74.4067 23.208 69.2621 19.979 62.8396C16.7499 56.4172 15.7831 49.0929 17.2349 42.0525C18.6868 35.0122 22.4724 28.6679 27.9788 24.0469C33.4852 19.4259 40.3902 16.7986 47.5756 16.5905C54.7611 16.3823 61.8065 18.6055 67.5712 22.9L68.8121 21.2343Z" fill="#111B24" stroke="white" stroke-linejoin="bevel"/>
<path d="M67.5 43.5L44.5 88.5L49.5 53.5H29.5L52.5 8.5L47.5 43.5H67.5Z" fill="#111B24"/>
<path d="M67.5 43.5L44.5 88.5L49.5 53.5H29.5L52.5 8.5L47.5 43.5H67.5Z" fill="#00EAC7" fill-opacity="0.06"/>
<path d="M67.5 43.5L44.5 88.5L49.5 53.5H29.5L52.5 8.5L47.5 43.5H67.5Z" stroke="#00EAC7" stroke-width="2" stroke-linejoin="bevel"/>
<path d="M19 21H15V17" stroke="#1B2B38" stroke-linecap="square"/>
<path d="M9 23H13V27" stroke="#1B2B38" stroke-linecap="square"/>
<path d="M77.5 78.5L80.3532 80.5729L79.2634 83.9271H75.7366L74.6468 80.5729L77.5 78.5Z" fill="#1B2B38"/>
<path d="M74.8978 21.8372C73.9104 20.9521 72.6117 20.4955 71.2876 20.5679C69.9635 20.6403 68.7224 21.2357 67.8373 22.2232C66.9522 23.2106 66.4956 24.5093 66.568 25.8334C66.6404 27.1575 67.2358 28.3986 68.2232 29.2837L70.4572 31.2861L77.1318 23.8396L74.8978 21.8372Z" fill="#111B24" stroke="white" stroke-linejoin="bevel"/>
<line x1="72.1258" y1="29.4244" x2="75.1044" y2="32.0943" stroke="white" stroke-linejoin="bevel"/>
<line x1="75.4631" y1="25.7013" x2="78.4417" y2="28.3711" stroke="white" stroke-linejoin="bevel"/>
</svg>
