<svg width="97" height="96" viewBox="0 0 97 96" fill="none" xmlns="http://www.w3.org/2000/svg">
<circle cx="48.5" cy="48" r="32.5" stroke="#415566" stroke-dasharray="2 2"/>
<circle cx="48.5" cy="48" r="23.5" stroke="#1B2B38"/>
<path d="M38.1863 37.6862C36.065 37.6862 34.6508 38.3933 34.1159 40.6868C30.7617 39.454 26.8726 43.3431 27.5798 46.1715C23.6907 45.818 20.1551 47.2322 19.0945 51.1212" stroke="white" stroke-linejoin="bevel"/>
<path d="M27.7641 54.7197C31.6532 53.6591 33.0674 50.1235 32.7139 46.2344C35.5423 46.9416 39.4314 43.0525 38.1986 39.6983" stroke="white" stroke-linejoin="bevel"/>
<path d="M58.8137 58.3135C58.8136 60.4348 58.1066 61.8491 55.8131 62.384C57.0459 65.7382 53.1568 69.6273 50.3284 68.9201C50.6819 72.8092 49.2677 76.3448 45.3786 77.4054" stroke="white" stroke-linejoin="bevel"/>
<path d="M41.78 68.7356C42.8407 64.8465 46.3762 63.4323 50.2653 63.7859C49.5582 60.9574 53.4473 57.0684 56.8014 58.3012" stroke="white" stroke-linejoin="bevel"/>
<path d="M67.4706 46.707L65.3493 48.8284L66.0564 55.1923L71.0061 50.2426L67.4706 46.707Z" fill="#111B24"/>
<path d="M67.4706 46.707L65.3493 48.8284L66.0564 55.1923L71.0061 50.2426L67.4706 46.707Z" fill="#00EAC7" fill-opacity="0.06"/>
<path d="M67.4706 46.707L65.3493 48.8284L66.0564 55.1923L71.0061 50.2426L67.4706 46.707Z" stroke="#00EAC7" stroke-linejoin="bevel"/>
<path d="M46.2573 25.4937L41.3076 30.4434L47.6715 31.1505L49.7929 29.0292L46.2573 25.4937Z" fill="#111B24"/>
<path d="M46.2573 25.4937L41.3076 30.4434L47.6715 31.1505L49.7929 29.0292L46.2573 25.4937Z" fill="#00EAC7" fill-opacity="0.06"/>
<path d="M46.2573 25.4937L41.3076 30.4434L47.6715 31.1505L49.7929 29.0292L46.2573 25.4937Z" stroke="#00EAC7" stroke-linejoin="bevel"/>
<path d="M27.8726 72.1628L31.4753 78.7677C31.795 79.3538 32.5882 79.468 33.0603 78.996L34.9342 77.1221C35.3847 76.6716 35.5936 76.0335 35.4967 75.4038L34.2366 67.2131L51.9143 51.6567L54.0356 53.778L67.8242 78.1732L69.8242 76.1732C70.7818 75.2156 71.1899 73.8384 70.9085 72.5136L63.9264 39.6446L75.2487 28.3222C78.0771 25.4938 78.3129 21.4868 76.663 19.8369C75.013 18.187 71.0061 18.4228 68.1777 21.2512L56.8554 32.5735L23.9863 25.5915C22.6615 25.3101 21.2844 25.7181 20.3267 26.6757L18.3266 28.6758L42.7219 42.4643L44.8432 44.5857L29.2868 62.2633L21.0961 61.0032C20.4665 60.9063 19.8283 61.1153 19.3778 61.5658L17.504 63.4396C17.0319 63.9117 17.1461 64.7049 17.7322 65.0246L24.3371 68.6273L23.9835 72.5164L27.8726 72.1628Z" fill="#111B24"/>
<path d="M27.8726 72.1628L31.4753 78.7677C31.795 79.3538 32.5882 79.468 33.0603 78.996L34.9342 77.1221C35.3847 76.6716 35.5936 76.0335 35.4967 75.4038L34.2366 67.2131L51.9143 51.6567L54.0356 53.778L67.8242 78.1732L69.8242 76.1732C70.7818 75.2156 71.1899 73.8384 70.9085 72.5136L63.9264 39.6446L75.2487 28.3222C78.0771 25.4938 78.3129 21.4868 76.663 19.8369C75.013 18.187 71.0061 18.4228 68.1777 21.2512L56.8554 32.5735L23.9863 25.5915C22.6615 25.3101 21.2844 25.7181 20.3267 26.6757L18.3266 28.6758L42.7219 42.4643L44.8432 44.5857L29.2868 62.2633L21.0961 61.0032C20.4665 60.9063 19.8283 61.1153 19.3778 61.5658L17.504 63.4396C17.0319 63.9117 17.1461 64.7049 17.7322 65.0246L24.3371 68.6273L23.9835 72.5164L27.8726 72.1628Z" fill="#00EAC7" fill-opacity="0.06"/>
<path d="M27.8726 72.1628L31.4753 78.7677C31.795 79.3538 32.5882 79.468 33.0603 78.996L34.9342 77.1221C35.3847 76.6716 35.5936 76.0335 35.4967 75.4038L34.2366 67.2131L51.9143 51.6567L54.0356 53.778L67.8242 78.1732L69.8242 76.1732C70.7818 75.2156 71.1899 73.8384 70.9085 72.5136L63.9264 39.6446L75.2487 28.3222C78.0771 25.4938 78.3129 21.4868 76.663 19.8369C75.013 18.187 71.0061 18.4228 68.1777 21.2512L56.8554 32.5735L23.9863 25.5915C22.6615 25.3101 21.2844 25.7181 20.3267 26.6757L18.3266 28.6758L42.7219 42.4643L44.8432 44.5857L29.2868 62.2633L21.0961 61.0032C20.4665 60.9063 19.8283 61.1153 19.3778 61.5658L17.504 63.4396C17.0319 63.9117 17.1461 64.7049 17.7322 65.0246L24.3371 68.6273L23.9835 72.5164L27.8726 72.1628Z" stroke="#00EAC7" stroke-width="2" stroke-linejoin="bevel"/>
<path d="M32.6508 63.8491L24.8726 71.6273" stroke="#00EAC7" stroke-linejoin="bevel"/>
<path d="M57.571 32.5649L47.8431 42.2929" stroke="#00EAC7" stroke-linejoin="bevel"/>
<path d="M63.9351 38.9287L54.2071 48.6566" stroke="#00EAC7" stroke-linejoin="bevel"/>
<path d="M73.481 27.2616C73.481 27.2616 73.8345 25.4938 72.4203 24.0796C71.0061 22.6654 69.2383 23.0189 69.2383 23.0189" stroke="#00EAC7" stroke-linejoin="bevel"/>
<path d="M14 13.5L18.5 17L23 13.5" stroke="#1B2B38" stroke-linecap="square"/>
<path d="M14 16.5L18.5 20L23 16.5" stroke="#1B2B38" stroke-linecap="square"/>
<path d="M78.5 81C78.5 81.7956 78.8161 82.5587 79.3787 83.1213C79.9413 83.6839 80.7044 84 81.5 84C82.2956 84 83.0587 83.6839 83.6213 83.1213C84.1839 82.5587 84.5 81.7956 84.5 81L81.5 81H78.5Z" fill="#1B2B38"/>
<path d="M84.5 78C84.5 77.2043 84.1839 76.4413 83.6213 75.8787C83.0587 75.3161 82.2956 75 81.5 75C80.7044 75 79.9413 75.3161 79.3787 75.8787C78.8161 76.4413 78.5 77.2044 78.5 78L81.5 78L84.5 78Z" fill="#1B2B38"/>
</svg>
