<svg width="97" height="96" viewBox="0 0 97 96" fill="none" xmlns="http://www.w3.org/2000/svg">
<circle cx="49" cy="48.5" r="32.5" stroke="#415566" stroke-dasharray="2 2"/>
<circle cx="49" cy="48.5" r="23.5" stroke="#1B2B38"/>
<path d="M16.5001 55.2414C16.5001 62.2452 20.2144 71 35.0715 71C49.9286 71 55.6873 63.9979 64.7858 58.7433C71.5434 54.8406 81.5 55.2414 81.5 49.9885V37.7317C81.5 31.8293 71.2369 27 47.2896 27C30.7545 27 16.5 34.5122 16.5 43.0975C16.4999 49.5366 16.5001 53.0575 16.5001 55.2414Z" fill="#111B24"/>
<path d="M16.5001 55.2414C16.5001 62.2452 20.2144 71 35.0715 71C49.9286 71 55.6873 63.9979 64.7858 58.7433C71.5434 54.8406 81.5 55.2414 81.5 49.9885V37.7317C81.5 31.8293 71.2369 27 47.2896 27C30.7545 27 16.5 34.5122 16.5 43.0975C16.4999 49.5366 16.5001 53.0575 16.5001 55.2414Z" fill="#00EAC7" fill-opacity="0.06"/>
<path d="M16.5001 55.2414C16.5001 62.2452 20.2144 71 35.0715 71C49.9286 71 55.6873 63.9979 64.7858 58.7433C71.5434 54.8406 81.5 55.2414 81.5 49.9885V37.7317C81.5 31.8293 71.2369 27 47.2896 27C30.7545 27 16.5 34.5122 16.5 43.0975C16.4999 49.5366 16.5001 53.0575 16.5001 55.2414Z" stroke="#00EAC7" stroke-width="2" stroke-linejoin="bevel"/>
<path d="M81.5 38C81.5 43.25 71.5434 42.8494 64.7857 46.75C55.6872 52.0017 49.9286 59 35.0714 59C20.2143 59 16.5 50.25 16.5 43.25" stroke="#00EAC7" stroke-width="2" stroke-linejoin="bevel"/>
<ellipse cx="37.5" cy="45" rx="9" ry="5" fill="#111B24"/>
<ellipse cx="37.5" cy="45" rx="9" ry="5" fill="#00EAC7" fill-opacity="0.06"/>
<ellipse cx="37.5" cy="45" rx="9" ry="5" stroke="#00EAC7" stroke-width="2" stroke-linejoin="bevel"/>
<path d="M66 36.5C66 26 75 19 75 19V76.5H71.0001V54.5H66V36.5Z" fill="#111B24" stroke="white" stroke-linejoin="bevel"/>
<path d="M51 20.5H63V35.5C63 37.7091 61.2091 39.5 59 39.5V76.5H55.0001V39.5C52.791 39.5 51 37.7091 51 35.5V20.5Z" fill="#111B24" stroke="white" stroke-linejoin="bevel"/>
<path d="M55 20.5V33M59 20.5V33" stroke="white" stroke-linejoin="bevel"/>
<path d="M19 20.5H15V16.5" stroke="#1B2B38" stroke-linecap="square"/>
<path d="M9 22.5H13V26.5" stroke="#1B2B38" stroke-linecap="square"/>
<path d="M77.5 78L80.3532 80.0729L79.2634 83.4271H75.7366L74.6468 80.0729L77.5 78Z" fill="#1B2B38"/>
</svg>
