<svg width="295" height="105" viewBox="0 0 295 105" fill="none" xmlns="http://www.w3.org/2000/svg">
<g clip-path="url(#clip0_1713_5831)">
<path d="M17.7094 72.1217V67.8353L0 78.0436V82.3864L3.72237 84.5296L21.4318 74.3213L17.7094 72.1781V72.1217Z" fill="white"/>
<path d="M54.5388 49.9004V9.6875L38.1265 19.1626V59.3755L54.5388 49.9004Z" fill="white"/>
<path d="M35.9825 60.6164V20.4035L19.683 29.8222V70.0351L35.9825 60.6164Z" fill="white"/>
<path d="M71.8529 82.6122L37.0544 62.4775L20.7549 71.8963L55.6098 92.0309L71.8529 82.6122Z" fill="white"/>
<path d="M91.5361 31.0631L57.7528 50.5209L91.5361 70.0352V31.0631Z" fill="white"/>
<path d="M56.6818 9.6875V48.6596L90.4087 29.2017L56.6818 9.6875Z" fill="white"/>
<path d="M90.4646 71.8962L55.6097 51.7616L39.1975 61.2367L74.0524 81.3713L90.4646 71.8962Z" fill="white"/>
<path d="M112.646 33.8043H109.209C107.759 33.8043 106.631 33.3872 105.825 32.6051C105.02 31.8231 104.644 30.7282 104.644 29.3204V19.8314C104.644 18.4236 105.02 17.3288 105.825 16.5467C106.631 15.7646 107.759 15.3997 109.209 15.3997H112.646C114.096 15.3997 115.223 15.7646 116.029 16.5467C116.835 17.3288 117.264 18.4236 117.264 19.8314V21.187C117.264 21.5519 117.103 21.7083 116.727 21.7083H114.848C114.525 21.7083 114.364 21.5519 114.364 21.187V19.9356C114.364 18.5279 113.666 17.798 112.216 17.798H109.638C108.242 17.798 107.49 18.5279 107.49 19.9356V29.2683C107.49 30.676 108.188 31.406 109.638 31.406H112.216C113.612 31.406 114.364 30.676 114.364 29.2683V28.017C114.364 27.652 114.525 27.4956 114.848 27.4956H116.727C117.103 27.4956 117.264 27.652 117.264 28.017V29.3726C117.264 30.7803 116.835 31.8752 116.029 32.6573C115.17 33.4393 114.096 33.8043 112.646 33.8043Z" fill="white"/>
<path d="M122.684 33.7523H120.882C120.573 33.7523 120.419 33.5963 120.419 33.2844V15.8676C120.419 15.5556 120.573 15.3997 120.882 15.3997H127.522C128.912 15.3997 129.993 15.8156 130.765 16.5954C131.537 17.3753 131.949 18.4671 131.949 19.8708V22.2624C131.949 24.446 131.074 25.8497 129.273 26.4216V26.5256L132.412 33.2324C132.618 33.5963 132.515 33.8043 132.052 33.8043H130.302C129.839 33.8043 129.581 33.6483 129.427 33.3364L126.39 26.6816H123.507C123.302 26.6816 123.147 26.7856 123.147 26.9415V33.2324C123.199 33.5963 122.993 33.7523 122.684 33.7523ZM123.507 24.394H127.111C128.5 24.394 129.221 23.7181 129.221 22.3144V19.9228C129.221 18.5191 128.5 17.7912 127.111 17.7912H123.507C123.302 17.7912 123.199 17.8952 123.199 18.1032V24.1341C123.199 24.29 123.302 24.394 123.507 24.394Z" fill="white"/>
<path d="M141.518 33.8043H139.759C139.457 33.8043 139.306 33.6483 139.306 33.3364V26.9935L134.128 15.9196C134.078 15.7636 134.078 15.6596 134.128 15.5556C134.178 15.4517 134.279 15.3997 134.43 15.3997H136.642C136.893 15.3997 137.044 15.5556 137.195 15.8676L140.613 23.7181H140.764L144.132 15.8676C144.233 15.5556 144.434 15.3997 144.685 15.3997H146.897C147.048 15.3997 147.149 15.4517 147.199 15.5556C147.249 15.6596 147.249 15.7636 147.199 15.9196L142.021 26.9935V33.3364C142.021 33.6483 141.87 33.8043 141.518 33.8043Z" fill="white"/>
<path d="M152.221 33.8043H150.348C150.027 33.8043 149.867 33.6479 149.867 33.3351V15.8689C149.867 15.5561 150.027 15.3997 150.348 15.3997H157.359C158.804 15.3997 159.927 15.7646 160.73 16.5467C161.533 17.3288 161.961 18.4236 161.961 19.8314V22.8032C161.961 24.2109 161.533 25.3058 160.73 26.0879C159.927 26.87 158.804 27.2871 157.359 27.2871H153.077C152.863 27.2871 152.703 27.3913 152.703 27.5478V33.3351C152.703 33.6479 152.542 33.8043 152.221 33.8043ZM153.024 24.7845H156.931C158.322 24.7845 159.018 24.0545 159.018 22.6468V19.9356C159.018 18.5279 158.322 17.798 156.931 17.798H153.024C152.81 17.798 152.703 17.9023 152.703 18.1108V24.5238C152.703 24.6802 152.81 24.7845 153.024 24.7845Z" fill="white"/>
<path d="M170.778 33.8043H168.97C168.609 33.8043 168.454 33.6479 168.454 33.3351V18.1108C168.454 17.9023 168.351 17.798 168.144 17.798H164.581C164.219 17.798 164.064 17.6416 164.064 17.3288V15.8689C164.064 15.5561 164.219 15.3997 164.581 15.3997H175.116C175.478 15.3997 175.633 15.5561 175.633 15.8689V17.3288C175.633 17.6416 175.478 17.798 175.116 17.798H171.553C171.346 17.798 171.243 17.9023 171.243 18.1108V33.3351C171.243 33.6479 171.088 33.8043 170.778 33.8043Z" fill="white"/>
<path d="M185.405 33.8043H182.111C180.721 33.8043 179.641 33.3872 178.869 32.6051C178.097 31.8231 177.736 30.7282 177.736 29.3204V19.8314C177.736 18.4236 178.097 17.3288 178.869 16.5467C179.641 15.7646 180.721 15.3997 182.111 15.3997H185.405C186.794 15.3997 187.875 15.7646 188.647 16.5467C189.419 17.3288 189.831 18.4236 189.831 19.8314V29.3726C189.831 30.7803 189.419 31.8752 188.647 32.6573C187.927 33.4393 186.846 33.8043 185.405 33.8043ZM182.523 31.3538H184.993C186.383 31.3538 187.052 30.6239 187.052 29.2162V19.9356C187.052 18.5279 186.383 17.798 184.993 17.798H182.523C181.185 17.798 180.464 18.5279 180.464 19.9356V29.2683C180.515 30.676 181.185 31.3538 182.523 31.3538Z" fill="white"/>
<path d="M208.016 33.8043H204.722C203.333 33.8043 202.252 33.3872 201.48 32.6051C200.708 31.8231 200.348 30.7282 200.348 29.3204V19.8314C200.348 18.4236 200.708 17.3288 201.48 16.5467C202.252 15.7646 203.333 15.3997 204.722 15.3997H208.016C209.406 15.3997 210.486 15.7646 211.258 16.5467C212.03 17.3288 212.442 18.4236 212.442 19.8314V21.187C212.442 21.5519 212.288 21.7083 211.928 21.7083H210.126C209.817 21.7083 209.663 21.5519 209.663 21.187V19.9356C209.663 18.5279 208.994 17.798 207.604 17.798H205.134C203.796 17.798 203.075 18.5279 203.075 19.9356V29.2683C203.075 30.676 203.744 31.406 205.134 31.406H207.604C208.943 31.406 209.663 30.676 209.663 29.2683V28.017C209.663 27.652 209.817 27.4956 210.126 27.4956H211.928C212.288 27.4956 212.442 27.652 212.442 28.017V29.3726C212.442 30.7803 212.03 31.8752 211.258 32.6573C210.486 33.4393 209.406 33.8043 208.016 33.8043Z" fill="white"/>
<path d="M225.607 33.8043H216.579C216.275 33.8043 216.123 33.6479 216.123 33.3351V15.8689C216.123 15.5561 216.275 15.3997 216.579 15.3997H218.354C218.659 15.3997 218.811 15.5561 218.811 15.8689V31.041C218.811 31.2495 218.912 31.3017 219.166 31.3017H225.658C225.962 31.3017 226.114 31.4581 226.114 31.8231V33.3351C226.063 33.6479 225.911 33.8043 225.607 33.8043Z" fill="white"/>
<path d="M231.898 15.8767V33.3353C231.898 33.6479 231.749 33.8043 231.452 33.8043H229.715C229.418 33.8043 229.269 33.6479 229.269 33.3353V15.8767C229.269 15.564 229.418 15.4076 229.715 15.4076H231.452C231.749 15.3555 231.898 15.564 231.898 15.8767Z" fill="white"/>
<path d="M248.709 15.3997H251.938C252.25 15.3997 252.406 15.5561 252.406 15.8689V33.3351C252.406 33.6479 252.25 33.8043 251.938 33.8043H250.167C249.854 33.8043 249.698 33.6479 249.698 33.3351V18.8929H249.542L245.792 29.3726C245.688 29.6854 245.48 29.8418 245.167 29.8418H243.344C243.084 29.8418 242.876 29.6854 242.719 29.3726L238.917 18.8408H238.813V33.3351C238.813 33.5436 238.761 33.6479 238.709 33.7C238.657 33.7522 238.501 33.8043 238.345 33.8043H236.574C236.261 33.8043 236.105 33.6479 236.105 33.3351V15.921C236.105 15.6082 236.261 15.4518 236.574 15.4518H239.803C240.011 15.4518 240.167 15.5561 240.272 15.7646L244.178 26.8178H244.334L248.292 15.7646C248.292 15.5039 248.448 15.3997 248.709 15.3997Z" fill="white"/>
<path d="M257.319 33.8043H255.323C255.074 33.8043 254.974 33.6479 255.074 33.3351L259.864 15.8689C259.964 15.5561 260.163 15.3997 260.513 15.3997H263.257C263.606 15.3997 263.855 15.5561 263.905 15.8689L268.695 33.3351C268.745 33.6479 268.645 33.8043 268.396 33.8043H266.45C266.3 33.8043 266.151 33.7522 266.101 33.7C266.051 33.6479 266.001 33.4915 265.951 33.3351L264.903 29.5811H258.866L257.818 33.3351C257.768 33.6479 257.619 33.8043 257.319 33.8043ZM261.86 18.1108L259.465 27.2871H264.454L262.009 18.1108H261.86Z" fill="white"/>
<path d="M277.25 33.8043H275.36C274.982 33.8043 274.82 33.6479 274.82 33.3351V18.1108C274.82 17.9023 274.712 17.798 274.55 17.798H270.825C270.447 17.798 270.285 17.6416 270.285 17.3288V15.8689C270.285 15.5561 270.447 15.3997 270.825 15.3997H281.839C282.217 15.3997 282.379 15.5561 282.379 15.8689V17.3288C282.379 17.6416 282.217 17.798 281.839 17.798H278.114C277.898 17.798 277.79 17.9023 277.79 18.1108V33.3351C277.79 33.6479 277.628 33.8043 277.25 33.8043Z" fill="white"/>
<path d="M294.512 33.8043H284.971C284.646 33.8043 284.483 33.6479 284.483 33.3351V15.8689C284.483 15.5561 284.646 15.3997 284.971 15.3997H294.512C294.838 15.3997 295 15.5561 295 15.8689V17.3288C295 17.6416 294.838 17.798 294.512 17.798H287.736C287.519 17.798 287.356 17.9023 287.356 18.1108V22.9596C287.356 23.1682 287.465 23.2203 287.736 23.2203H293.482C293.862 23.2203 294.024 23.3767 294.024 23.6896V25.1494C294.024 25.4623 293.862 25.6187 293.482 25.6187H287.736C287.519 25.6187 287.356 25.7229 287.356 25.8794V30.9889C287.356 31.1974 287.465 31.3017 287.736 31.3017H294.512C294.838 31.3017 295 31.4581 295 31.7709V33.2308C294.946 33.6479 294.838 33.8043 294.512 33.8043Z" fill="white"/>
<path d="M115.974 83.6448H112.045C111.554 83.6448 111.358 83.3502 111.554 82.7609L120.983 49.8605C121.179 49.2712 121.572 48.9766 122.259 48.9766H127.661C128.348 48.9766 128.839 49.2712 128.938 49.8605L138.366 82.7609C138.464 83.3502 138.268 83.6448 137.777 83.6448H133.946C133.652 83.6448 133.357 83.5466 133.259 83.4484C133.161 83.3502 133.062 83.0556 132.964 82.7609L130.902 75.6898H119.018L116.956 82.7609C116.858 83.3502 116.563 83.6448 115.974 83.6448ZM124.911 54.0835L120.197 71.3685H130.018L125.206 54.0835H124.911Z" fill="white"/>
<path d="M158.28 83.6448H151.994C149.343 83.6448 147.28 82.8591 145.807 81.386C144.334 79.9128 143.646 77.8504 143.646 75.1987V57.3244C143.646 54.6728 144.334 52.6103 145.807 51.1372C147.28 49.664 149.343 48.9766 151.994 48.9766H158.28C160.931 48.9766 162.994 49.664 164.467 51.1372C165.94 52.6103 166.726 54.6728 166.726 57.3244V59.8779C166.726 60.5654 166.431 60.86 165.744 60.86H162.306C161.717 60.86 161.422 60.5654 161.422 59.8779V57.5209C161.422 54.8692 160.146 53.4942 157.494 53.4942H152.78C150.227 53.4942 148.852 54.8692 148.852 57.5209V75.1005C148.852 77.7522 150.128 79.1271 152.78 79.1271H157.494C160.048 79.1271 161.422 77.7522 161.422 75.1005V72.7435C161.422 72.056 161.717 71.7614 162.306 71.7614H165.744C166.431 71.7614 166.726 72.056 166.726 72.7435V75.2969C166.726 77.9486 165.94 80.011 164.467 81.4842C162.994 82.9574 160.931 83.6448 158.28 83.6448Z" fill="white"/>
<path d="M188.443 83.6448H182.158C179.506 83.6448 177.444 82.8591 175.97 81.386C174.497 79.9128 173.81 77.8504 173.81 75.1987V57.3244C173.81 54.6728 174.497 52.6103 175.97 51.1372C177.444 49.664 179.506 48.9766 182.158 48.9766H188.443C191.095 48.9766 193.157 49.664 194.63 51.1372C196.104 52.6103 196.889 54.6728 196.889 57.3244V59.8779C196.889 60.5654 196.595 60.86 195.907 60.86H192.47C191.881 60.86 191.586 60.5654 191.586 59.8779V57.5209C191.586 54.8692 190.309 53.4942 187.658 53.4942H182.943C180.39 53.4942 179.015 54.8692 179.015 57.5209V75.1005C179.015 77.7522 180.292 79.1271 182.943 79.1271H187.658C190.211 79.1271 191.586 77.7522 191.586 75.1005V72.7435C191.586 72.056 191.881 71.7614 192.47 71.7614H195.907C196.595 71.7614 196.889 72.056 196.889 72.7435V75.2969C196.889 77.9486 196.104 80.011 194.63 81.4842C193.157 82.9574 191.095 83.6448 188.443 83.6448Z" fill="white"/>
<path d="M217.554 83.6448H211.269C208.617 83.6448 206.555 82.8591 205.082 81.386C203.608 79.9128 202.921 77.8504 202.921 75.1987V57.3244C202.921 54.6728 203.608 52.6103 205.082 51.1372C206.555 49.664 208.617 48.9766 211.269 48.9766H217.554C220.206 48.9766 222.268 49.664 223.742 51.1372C225.215 52.6103 226 54.6728 226 57.3244V75.2969C226 77.9486 225.215 80.011 223.742 81.4842C222.268 82.9574 220.206 83.6448 217.554 83.6448ZM212.055 79.0289H216.769C219.42 79.0289 220.697 77.654 220.697 75.0023V57.5209C220.697 54.8692 219.42 53.4942 216.769 53.4942H212.055C209.501 53.4942 208.126 54.8692 208.126 57.5209V75.1005C208.126 77.7522 209.501 79.0289 212.055 79.0289Z" fill="white"/>
<path d="M238.584 83.6448H235.147C234.558 83.6448 234.263 83.3502 234.263 82.7609V49.8605C234.263 49.2712 234.558 48.9766 235.147 48.9766H247.816C250.468 48.9766 252.53 49.7622 254.003 51.2354C255.477 52.7086 256.262 54.771 256.262 57.4227V61.9403C256.262 66.0652 254.593 68.7168 251.155 69.7972V69.9936L257.146 82.6627C257.539 83.3502 257.343 83.743 256.459 83.743H253.119C252.236 83.743 251.745 83.4484 251.45 82.8591L245.656 70.2882H240.156C239.763 70.2882 239.468 70.4846 239.468 70.7793V82.6627C239.566 83.3502 239.174 83.6448 238.584 83.6448ZM240.156 65.967H247.03C249.682 65.967 251.057 64.6902 251.057 62.0385V57.5209C251.057 54.8692 249.682 53.4942 247.03 53.4942H240.156C239.763 53.4942 239.566 53.6907 239.566 54.0835V65.4759C239.566 65.7705 239.763 65.967 240.156 65.967Z" fill="white"/>
<path d="M264.524 82.7609V49.8605C264.524 49.2712 264.819 48.9766 265.408 48.9766H278.666C281.318 48.9766 283.38 49.664 284.853 51.1372C286.327 52.6103 287.112 54.6728 287.112 57.3244V75.2969C287.112 77.9486 286.327 80.011 284.853 81.4842C283.38 82.9574 281.318 83.743 278.666 83.743H265.408C264.819 83.6448 264.524 83.3502 264.524 82.7609ZM270.417 79.0289H278.077C280.63 79.0289 282.005 77.654 282.005 75.0023V57.5209C282.005 54.8692 280.729 53.4942 278.077 53.4942H270.417C270.024 53.4942 269.827 53.6907 269.827 54.0835V78.5379C269.827 78.8325 270.024 79.0289 270.417 79.0289Z" fill="white"/>
</g>
<defs>
<clipPath id="clip0_1713_5831">
<rect width="295" height="104.118" fill="white"/>
</clipPath>
</defs>
</svg>
