<svg width="160" height="60" viewBox="0 0 160 60" fill="none" xmlns="http://www.w3.org/2000/svg">
<path d="M17.907 18V22.1148H9.41861C7.03489 22.1148 5.06744 23.9145 4.79999 26.2297C4.77907 26.4072 4.76744 26.587 4.76744 26.7711V30.8859C4.76744 31.07 4.77907 31.2497 4.79999 31.4273C5.06744 33.7425 7.03489 35.5422 9.41861 35.5422H16.9698L16.0349 39.657H9.41861C7.7279 39.657 6.13953 39.2412 4.76744 38.5157C3.4093 37.7945 2.26279 36.7723 1.43488 35.5422C0.623254 34.3359 0.116279 32.9325 0.0185954 31.4273C0.00696977 31.2476 0 31.0678 0 30.8859V26.7711C0 26.5892 0.00696977 26.4094 0.0185954 26.2297C0.116279 24.7245 0.623256 23.3211 1.43488 22.1148C2.26279 20.8847 3.4093 19.8625 4.76745 19.1413C6.13953 18.4158 7.7279 18 9.41861 18H17.907Z" fill="white"/>
<path d="M38.565 31.4273C37.9071 28.5333 36.4463 22.1041 35.6696 18.6855C35.5786 18.2851 35.1994 18 34.7599 18H25.1771C24.7376 18 24.3585 18.2847 24.2675 18.6851C22.7317 25.4423 21.0286 32.9528 19.5046 39.657H24.3767L25.2697 35.5422H34.6674L35.5604 39.657H40.4348L38.565 31.4273ZM26.1627 31.4273C26.6622 29.1276 27.6892 24.3913 28.1813 22.1148H31.7557C32.2481 24.3836 33.2795 29.1361 33.7767 31.4273H26.1627Z" fill="white"/>
<path d="M141.721 31.4273C141.063 28.5333 139.602 22.1041 138.826 18.6855C138.735 18.2851 138.356 18 137.916 18H128.333C127.894 18 127.515 18.2847 127.424 18.6851C125.888 25.4423 124.185 32.9528 122.661 39.657H127.533L128.426 35.5422H137.824L138.717 39.657H143.591L141.721 31.4273V31.4273ZM129.319 31.4273C129.818 29.1276 130.845 24.3913 131.338 22.1148H134.912C135.404 24.3836 136.436 29.1361 136.933 31.4273H129.319Z" fill="white"/>
<path d="M57.8792 30.704C63.4889 28.0268 62.9956 20.4152 57.0605 18.3942C56.2978 18.1386 55.4768 18 54.6187 18H43.6885V39.657H48.4559V33.9092L53.3699 32.2655C54.5421 34.3165 56.4247 37.6132 57.5908 39.657H62.9908L57.8792 30.704L57.8792 30.704ZM48.4559 29.5302V22.1148H54.6187C55.9675 22.1148 57.0606 23.2778 57.0606 24.7137C57.0582 25.8021 56.4239 26.833 55.335 27.1977L48.4559 29.5302V29.5302Z" fill="white"/>
<path d="M85.2185 26.2297C85.1208 24.7245 84.6139 23.3211 83.8022 22.1148C82.9743 20.8847 81.8278 19.8625 80.4697 19.1413C79.0976 18.4158 77.5092 18 75.8185 18H66.3999V39.657H75.8185C77.5092 39.657 79.0976 39.2412 80.4697 38.5157C81.8278 37.7945 82.9743 36.7723 83.8022 35.5422C84.6139 34.3359 85.1208 32.9325 85.2185 31.4273C85.2302 31.2476 85.2371 31.0678 85.2371 30.8859V26.7711C85.2371 26.5892 85.2302 26.4094 85.2185 26.2297ZM80.4697 30.8859C80.4697 31.07 80.4581 31.2497 80.4371 31.4273C80.172 33.7425 78.2046 35.5422 75.8185 35.5422H71.1674V22.1148H75.8185C78.2046 22.1148 80.172 23.9145 80.4371 26.2297C80.4581 26.4072 80.4697 26.587 80.4697 26.7711V30.8859Z" fill="white"/>
<path d="M94.1814 18H89.4139V39.657H94.1814V18Z" fill="white"/>
<path d="M121.151 39.657H116.135C115.838 39.657 115.56 39.5257 115.384 39.3026C112.437 35.5483 108.55 30.6016 105.663 26.9205C104.804 30.7042 103.628 35.878 102.77 39.657H97.8953C99.0435 34.6019 101.884 22.1083 101.884 22.1083L98.6581 18H103.674C103.971 18 104.249 18.131 104.424 18.3543C107.223 21.9217 110.809 26.482 113.556 29.985C114.107 27.5605 115.706 20.5234 116.279 18H121.151C119.962 23.2308 118.525 29.5659 117.337 34.7972L121.151 39.657Z" fill="white"/>
<path d="M160 35.5422L159.065 39.657H147.442C146.928 39.657 146.512 39.2691 146.512 38.7907V18H151.279V35.5422H160Z" fill="white"/>
</svg>
