<svg width="281" height="39" viewBox="0 0 281 39" fill="none" xmlns="http://www.w3.org/2000/svg">
<path d="M31.4491 0.612549V7.83921H16.5414C12.355 7.83921 8.89969 10.9999 8.42998 15.0659C8.39323 15.3778 8.37282 15.6934 8.37282 16.0168V23.2434C8.37282 23.5667 8.39324 23.8824 8.42998 24.1943C8.89968 28.2602 12.355 31.421 16.5414 31.421H29.8031L28.1612 38.6476H16.5414C13.5721 38.6476 10.7825 37.9173 8.37282 36.6432C5.98758 35.3766 3.97402 33.5813 2.52001 31.421C1.09459 29.3024 0.204215 26.8377 0.0326581 24.1943C0.0122407 23.8786 0 23.5629 0 23.2434V16.0168C0 15.6972 0.0122407 15.3816 0.0326581 15.0659C0.204215 12.4224 1.09459 9.95777 2.52001 7.83921C3.97402 5.67882 5.98758 3.88356 8.37283 2.61698C10.7825 1.34281 13.5721 0.612549 16.5414 0.612549H31.4491Z" fill="white"/>
<path d="M67.7299 24.1943C66.5743 19.1116 64.0088 7.82042 62.6448 1.81652C62.485 1.1132 61.819 0.612549 61.0471 0.612549H44.2174C43.4455 0.612549 42.7796 1.11247 42.6198 1.81572C39.9226 13.6831 36.9315 26.8735 34.255 38.6476H42.8116L44.38 31.421H60.8846L62.453 38.6476H71.0137L67.7299 24.1943ZM45.9483 24.1943C46.8255 20.1554 48.6293 11.8373 49.4935 7.83921H55.7711C56.6359 11.8238 58.4471 20.1703 59.3203 24.1943H45.9483Z" fill="white"/>
<path d="M248.898 24.1943C247.742 19.1116 245.177 7.82042 243.813 1.81652C243.653 1.1132 242.987 0.612549 242.215 0.612549H225.385C224.613 0.612549 223.948 1.11247 223.788 1.81572C221.091 13.6831 218.099 26.8735 215.423 38.6476H223.98L225.548 31.421H242.053L243.621 38.6476H252.182L248.898 24.1943V24.1943ZM227.116 24.1943C227.994 20.1554 229.797 11.8373 230.662 7.83921H236.939C237.804 11.8238 239.615 20.1703 240.488 24.1943H227.116Z" fill="white"/>
<path d="M101.65 22.9239C111.502 18.2221 110.636 4.85428 100.212 1.30479C98.8729 0.855981 97.4312 0.612549 95.9241 0.612549H76.7278V38.6476H85.1007V28.5531L93.7308 25.6662C95.7895 29.2685 99.0958 35.0583 101.144 38.6476H110.628L101.65 22.9239L101.65 22.9239ZM85.1007 20.8624V7.83922H95.9241C98.293 7.83922 100.213 9.8817 100.213 12.4034C100.208 14.315 99.0945 16.1254 97.1821 16.7661L85.1007 20.8624V20.8624Z" fill="white"/>
<path d="M149.665 15.0659C149.494 12.4224 148.603 9.95777 147.178 7.83921C145.724 5.67882 143.71 3.88356 141.325 2.61698C138.915 1.34281 136.126 0.612549 133.156 0.612549H116.615V38.6476H133.156C136.126 38.6476 138.915 37.9173 141.325 36.6432C143.71 35.3766 145.724 33.5813 147.178 31.421C148.603 29.3024 149.494 26.8377 149.665 24.1943C149.685 23.8786 149.698 23.5629 149.698 23.2434V16.0168C149.698 15.6972 149.685 15.3816 149.665 15.0659ZM141.325 23.2434C141.325 23.5667 141.304 23.8824 141.268 24.1943C140.802 28.2602 137.347 31.421 133.156 31.421H124.988V7.83921H133.156C137.347 7.83921 140.802 10.9999 141.268 15.0659C141.304 15.3778 141.325 15.6934 141.325 16.0168V23.2434Z" fill="white"/>
<path d="M165.406 0.612549H157.033V38.6476H165.406V0.612549Z" fill="white"/>
<path d="M212.772 38.6476H203.962C203.441 38.6476 202.952 38.417 202.644 38.0252C197.467 31.4317 190.642 22.7442 185.57 16.2792C184.062 22.9242 181.997 32.0107 180.489 38.6476H171.929C173.945 29.7696 178.933 7.82779 178.933 7.82779L173.268 0.612549H182.078C182.599 0.612549 183.088 0.842653 183.395 1.23475C188.311 7.50006 194.609 15.5091 199.432 21.6611C200.4 17.4033 203.208 5.04428 204.215 0.612549H212.772C210.683 9.79916 208.159 20.9252 206.073 30.1125L212.772 38.6476Z" fill="white"/>
<path d="M281 31.421L279.358 38.6476H258.945C258.042 38.6476 257.311 37.9665 257.311 37.1262V0.612549H265.684V31.421H281Z" fill="white"/>
</svg>
