<svg width="581" height="416" viewBox="0 0 581 416" fill="none" xmlns="http://www.w3.org/2000/svg">
<path opacity="0.3" d="M82 30H134V298H82V30Z" fill="url(#paint0_linear_2039_19099)"/>
<path opacity="0.3" d="M290 119H342V387H290V119Z" fill="url(#paint1_linear_2039_19099)"/>
<path opacity="0.3" d="M446 48H498V316H446V48Z" fill="url(#paint2_linear_2039_19099)"/>
<g filter="url(#filter0_f_2039_19099)">
<line x1="2.50016" y1="2" x2="2.50018" y2="414" stroke="url(#paint3_linear_2039_19099)" stroke-width="1.00032"/>
</g>
<g filter="url(#filter1_f_2039_19099)">
<line x1="54.8631" y1="2" x2="54.8631" y2="414" stroke="url(#paint4_linear_2039_19099)" stroke-width="1.00032"/>
</g>
<g filter="url(#filter2_f_2039_19099)">
<line x1="107.226" y1="2" x2="107.226" y2="414" stroke="url(#paint5_linear_2039_19099)" stroke-width="1.00032"/>
</g>
<g filter="url(#filter3_f_2039_19099)">
<line x1="159.589" y1="2" x2="159.589" y2="414" stroke="url(#paint6_linear_2039_19099)" stroke-width="1.00032"/>
</g>
<g filter="url(#filter4_f_2039_19099)">
<line x1="211.952" y1="2" x2="211.952" y2="414" stroke="url(#paint7_linear_2039_19099)" stroke-width="1.00032"/>
</g>
<g filter="url(#filter5_f_2039_19099)">
<line x1="264.315" y1="2" x2="264.315" y2="414" stroke="url(#paint8_linear_2039_19099)" stroke-width="1.00032"/>
</g>
<g filter="url(#filter6_f_2039_19099)">
<line x1="316.678" y1="2" x2="316.678" y2="414" stroke="url(#paint9_linear_2039_19099)" stroke-width="1.00032"/>
</g>
<g filter="url(#filter7_f_2039_19099)">
<line x1="369.041" y1="2" x2="369.041" y2="414" stroke="url(#paint10_linear_2039_19099)" stroke-width="1.00032"/>
</g>
<g filter="url(#filter8_f_2039_19099)">
<line x1="421.403" y1="2" x2="421.404" y2="414" stroke="url(#paint11_linear_2039_19099)" stroke-width="1.00032"/>
</g>
<g filter="url(#filter9_f_2039_19099)">
<line x1="473.767" y1="2" x2="473.767" y2="414" stroke="url(#paint12_linear_2039_19099)" stroke-width="1.00032"/>
</g>
<g filter="url(#filter10_f_2039_19099)">
<line x1="526.129" y1="2" x2="526.129" y2="414" stroke="url(#paint13_linear_2039_19099)" stroke-width="1.00032"/>
</g>
<g filter="url(#filter11_f_2039_19099)">
<line x1="578.492" y1="2" x2="578.492" y2="414" stroke="url(#paint14_linear_2039_19099)" stroke-width="1.00032"/>
</g>
<line x1="29.4998" y1="2" x2="29.4998" y2="414" stroke="url(#paint15_linear_2039_19099)" stroke-width="1.00032"/>
<line x1="81.5991" y1="2" x2="81.5991" y2="414" stroke="url(#paint16_linear_2039_19099)" stroke-width="1.00032"/>
<line x1="133.698" y1="2" x2="133.698" y2="414" stroke="url(#paint17_linear_2039_19099)" stroke-width="1.00032"/>
<line x1="185.798" y1="2" x2="185.798" y2="414" stroke="url(#paint18_linear_2039_19099)" stroke-width="1.00032"/>
<line x1="237.897" y1="2" x2="237.897" y2="414" stroke="url(#paint19_linear_2039_19099)" stroke-width="1.00032"/>
<line x1="289.996" y1="2" x2="289.996" y2="414" stroke="url(#paint20_linear_2039_19099)" stroke-width="1.00032"/>
<line x1="342.096" y1="2" x2="342.096" y2="414" stroke="url(#paint21_linear_2039_19099)" stroke-width="1.00032"/>
<line x1="394.195" y1="2" x2="394.195" y2="414" stroke="url(#paint22_linear_2039_19099)" stroke-width="1.00032"/>
<line x1="446.294" y1="2" x2="446.294" y2="414" stroke="url(#paint23_linear_2039_19099)" stroke-width="1.00032"/>
<line x1="498.393" y1="2" x2="498.393" y2="414" stroke="url(#paint24_linear_2039_19099)" stroke-width="1.00032"/>
<line x1="550.493" y1="2" x2="550.493" y2="414" stroke="url(#paint25_linear_2039_19099)" stroke-width="1.00032"/>
<path d="M203 113.3L210.886 105.415C211.667 104.633 212.934 104.633 213.715 105.415L221.601 113.3" stroke="#415566" stroke-width="1.00032"/>
<path opacity="0.8" d="M203 128.181L210.886 120.295C211.667 119.514 212.934 119.514 213.715 120.295L221.6 128.181" stroke="#415566" stroke-width="1.00032"/>
<path opacity="0.6" d="M203 143.061L210.886 135.175C211.667 134.394 212.934 134.394 213.715 135.175L221.6 143.061" stroke="#415566" stroke-width="1.00032"/>
<path opacity="0.4" d="M203 157.941L210.886 150.056C211.667 149.274 212.934 149.274 213.715 150.056L221.6 157.941" stroke="#415566" stroke-width="1.00032"/>
<path opacity="0.2" d="M203 172.822L210.886 164.936C211.667 164.155 212.934 164.155 213.715 164.936L221.6 172.822" stroke="#415566" stroke-width="1.00032"/>
<path d="M360 236.3L367.886 228.415C368.667 227.633 369.934 227.633 370.715 228.415L378.601 236.3" stroke="#415566" stroke-width="1.00032"/>
<path opacity="0.8" d="M360 251.181L367.886 243.295C368.667 242.514 369.934 242.514 370.715 243.295L378.601 251.181" stroke="#415566" stroke-width="1.00032"/>
<path opacity="0.6" d="M360 266.061L367.886 258.175C368.667 257.394 369.934 257.394 370.715 258.175L378.601 266.061" stroke="#415566" stroke-width="1.00032"/>
<path opacity="0.4" d="M360 280.941L367.886 273.056C368.667 272.274 369.934 272.274 370.715 273.056L378.601 280.941" stroke="#415566" stroke-width="1.00032"/>
<path opacity="0.2" d="M360 295.822L367.886 287.936C368.667 287.155 369.934 287.155 370.715 287.936L378.601 295.822" stroke="#415566" stroke-width="1.00032"/>
<line y1="-0.500159" x2="21.0067" y2="-0.500159" transform="matrix(1.62355e-07 -1 -1 -1.12922e-07 268.425 363.007)" stroke="#415566" stroke-width="1.00032"/>
<line opacity="0.8" y1="-0.500159" x2="21.0067" y2="-0.500159" transform="matrix(1.62355e-07 -1 -1 -1.12922e-07 260.65 363.007)" stroke="#415566" stroke-width="1.00032"/>
<line opacity="0.6" y1="-0.500159" x2="21.0067" y2="-0.500159" transform="matrix(1.62354e-07 -1 -1 -1.12923e-07 252.875 363.007)" stroke="#415566" stroke-width="1.00032"/>
<line opacity="0.4" y1="-0.500159" x2="21.0067" y2="-0.500159" transform="matrix(1.62354e-07 -1 -1 -1.12923e-07 245.1 363.007)" stroke="#415566" stroke-width="1.00032"/>
<line opacity="0.2" y1="-0.500159" x2="21.0067" y2="-0.500159" transform="matrix(1.62354e-07 -1 -1 -1.12923e-07 229.55 363.007)" stroke="#415566" stroke-width="1.00032"/>
<line opacity="0.2" y1="-0.500159" x2="21.0067" y2="-0.500159" transform="matrix(1.62354e-07 -1 -1 -1.12923e-07 214 363.007)" stroke="#415566" stroke-width="1.00032"/>
<g filter="url(#filter12_f_2039_19099)">
<circle r="5.00159" transform="matrix(-4.37108e-08 1 1 4.3712e-08 55.0032 165.016)" fill="#1B2B38"/>
</g>
<g filter="url(#filter13_f_2039_19099)">
<circle r="9.00287" transform="matrix(-4.37114e-08 1 1 4.37114e-08 55.0028 214.032)" fill="#1B2B38"/>
</g>
<g filter="url(#filter14_f_2039_19099)">
<circle r="3.00096" transform="matrix(-4.37114e-08 1 1 4.37114e-08 55.0028 117.001)" fill="#1B2B38"/>
</g>
<line x1="529.154" y1="251.825" x2="513.001" y2="251.825" stroke="#1B2B38" stroke-width="1.00032"/>
<line x1="537.231" y1="244.05" x2="521.077" y2="244.05" stroke="#1B2B38" stroke-width="1.00032"/>
<line x1="529.154" y1="236.275" x2="513" y2="236.275" stroke="#1B2B38" stroke-width="1.00032"/>
<line x1="537.231" y1="228.5" x2="521.077" y2="228.5" stroke="#1B2B38" stroke-width="1.00032"/>
<rect x="459" y="284" width="25.2608" height="2.9378" fill="#00EAC7"/>
<rect x="459" y="291.834" width="25.2608" height="2.9378" fill="#00EAC7"/>
<path d="M108.003 131.015C102.479 131.015 98.0001 126.537 98.0001 121.012L98.0001 120.34C98.0001 117.874 98.9109 115.495 100.558 113.66L103.992 109.833C105.413 108.249 105.346 105.83 103.839 104.327L100.94 101.436C99.0578 99.5596 98.0001 97.011 98.0001 94.3531L98.0001 94.0033C98.0001 88.4787 102.479 84.0002 108.003 84.0002C113.528 84.0002 118.006 88.4787 118.006 94.0033L118.006 94.3531C118.006 97.011 116.949 99.5596 115.067 101.436L112.168 104.327C110.661 105.83 110.594 108.249 112.015 109.833L115.449 113.66C117.096 115.495 118.006 117.874 118.006 120.34L118.006 121.012C118.006 126.537 113.528 131.015 108.003 131.015Z" fill="#00EAC7"/>
<g filter="url(#filter15_f_2039_19099)">
<path d="M525.004 131C521.82 131 518.767 132.265 516.516 134.516C514.265 136.767 513 139.82 513 143.004C513 146.188 514.265 149.241 516.516 151.492C518.767 153.743 521.82 155.008 525.004 155.008L525.004 143.004L525.004 131Z" fill="#1B2B38"/>
</g>
<rect x="93.5" y="250.5" width="81.9989" height="82" fill="#111B24" stroke="#1B2B38"/>
<path d="M328.496 208C328.496 230.92 309.916 249.5 286.996 249.5C264.077 249.5 245.497 230.92 245.497 208C245.497 185.08 264.077 166.5 286.996 166.5C309.916 166.5 328.496 185.08 328.496 208Z" fill="#111B24" stroke="#1B2B38"/>
<path d="M408.389 109.289L445.994 87.5774L483.599 109.289V152.711L445.994 174.423L408.389 152.711V109.289Z" fill="#111B24" stroke="#1B2B38"/>
<path d="M446 107L466.785 119V143L446 155L425.215 143V119L446 107Z" fill="#00EAC7"/>
<circle cx="286.996" cy="208" r="22" fill="#00EAC7"/>
<rect x="114" y="271" width="41" height="41" fill="#00EAC7"/>
<defs>
<filter id="filter0_f_2039_19099" x="-0.00063777" y="-0.00063777" width="5.00164" height="416.001" filterUnits="userSpaceOnUse" color-interpolation-filters="sRGB">
<feFlood flood-opacity="0" result="BackgroundImageFix"/>
<feBlend mode="normal" in="SourceGraphic" in2="BackgroundImageFix" result="shape"/>
<feGaussianBlur stdDeviation="1.00032" result="effect1_foregroundBlur_2039_19099"/>
</filter>
<filter id="filter1_f_2039_19099" x="52.3623" y="-0.00063777" width="5.00164" height="416.001" filterUnits="userSpaceOnUse" color-interpolation-filters="sRGB">
<feFlood flood-opacity="0" result="BackgroundImageFix"/>
<feBlend mode="normal" in="SourceGraphic" in2="BackgroundImageFix" result="shape"/>
<feGaussianBlur stdDeviation="1.00032" result="effect1_foregroundBlur_2039_19099"/>
</filter>
<filter id="filter2_f_2039_19099" x="104.725" y="-0.00063777" width="5.00164" height="416.001" filterUnits="userSpaceOnUse" color-interpolation-filters="sRGB">
<feFlood flood-opacity="0" result="BackgroundImageFix"/>
<feBlend mode="normal" in="SourceGraphic" in2="BackgroundImageFix" result="shape"/>
<feGaussianBlur stdDeviation="1.00032" result="effect1_foregroundBlur_2039_19099"/>
</filter>
<filter id="filter3_f_2039_19099" x="157.088" y="-0.00063777" width="5.00164" height="416.001" filterUnits="userSpaceOnUse" color-interpolation-filters="sRGB">
<feFlood flood-opacity="0" result="BackgroundImageFix"/>
<feBlend mode="normal" in="SourceGraphic" in2="BackgroundImageFix" result="shape"/>
<feGaussianBlur stdDeviation="1.00032" result="effect1_foregroundBlur_2039_19099"/>
</filter>
<filter id="filter4_f_2039_19099" x="209.451" y="-0.00063777" width="5.00164" height="416.001" filterUnits="userSpaceOnUse" color-interpolation-filters="sRGB">
<feFlood flood-opacity="0" result="BackgroundImageFix"/>
<feBlend mode="normal" in="SourceGraphic" in2="BackgroundImageFix" result="shape"/>
<feGaussianBlur stdDeviation="1.00032" result="effect1_foregroundBlur_2039_19099"/>
</filter>
<filter id="filter5_f_2039_19099" x="261.814" y="-0.00063777" width="5.00164" height="416.001" filterUnits="userSpaceOnUse" color-interpolation-filters="sRGB">
<feFlood flood-opacity="0" result="BackgroundImageFix"/>
<feBlend mode="normal" in="SourceGraphic" in2="BackgroundImageFix" result="shape"/>
<feGaussianBlur stdDeviation="1.00032" result="effect1_foregroundBlur_2039_19099"/>
</filter>
<filter id="filter6_f_2039_19099" x="314.177" y="-0.00063777" width="5.00164" height="416.001" filterUnits="userSpaceOnUse" color-interpolation-filters="sRGB">
<feFlood flood-opacity="0" result="BackgroundImageFix"/>
<feBlend mode="normal" in="SourceGraphic" in2="BackgroundImageFix" result="shape"/>
<feGaussianBlur stdDeviation="1.00032" result="effect1_foregroundBlur_2039_19099"/>
</filter>
<filter id="filter7_f_2039_19099" x="366.54" y="-0.00063777" width="5.00164" height="416.001" filterUnits="userSpaceOnUse" color-interpolation-filters="sRGB">
<feFlood flood-opacity="0" result="BackgroundImageFix"/>
<feBlend mode="normal" in="SourceGraphic" in2="BackgroundImageFix" result="shape"/>
<feGaussianBlur stdDeviation="1.00032" result="effect1_foregroundBlur_2039_19099"/>
</filter>
<filter id="filter8_f_2039_19099" x="418.903" y="-0.00063777" width="5.00164" height="416.001" filterUnits="userSpaceOnUse" color-interpolation-filters="sRGB">
<feFlood flood-opacity="0" result="BackgroundImageFix"/>
<feBlend mode="normal" in="SourceGraphic" in2="BackgroundImageFix" result="shape"/>
<feGaussianBlur stdDeviation="1.00032" result="effect1_foregroundBlur_2039_19099"/>
</filter>
<filter id="filter9_f_2039_19099" x="471.266" y="-0.00063777" width="5.00164" height="416.001" filterUnits="userSpaceOnUse" color-interpolation-filters="sRGB">
<feFlood flood-opacity="0" result="BackgroundImageFix"/>
<feBlend mode="normal" in="SourceGraphic" in2="BackgroundImageFix" result="shape"/>
<feGaussianBlur stdDeviation="1.00032" result="effect1_foregroundBlur_2039_19099"/>
</filter>
<filter id="filter10_f_2039_19099" x="523.629" y="-0.00063777" width="5.00164" height="416.001" filterUnits="userSpaceOnUse" color-interpolation-filters="sRGB">
<feFlood flood-opacity="0" result="BackgroundImageFix"/>
<feBlend mode="normal" in="SourceGraphic" in2="BackgroundImageFix" result="shape"/>
<feGaussianBlur stdDeviation="1.00032" result="effect1_foregroundBlur_2039_19099"/>
</filter>
<filter id="filter11_f_2039_19099" x="575.992" y="-0.00063777" width="5.00164" height="416.001" filterUnits="userSpaceOnUse" color-interpolation-filters="sRGB">
<feFlood flood-opacity="0" result="BackgroundImageFix"/>
<feBlend mode="normal" in="SourceGraphic" in2="BackgroundImageFix" result="shape"/>
<feGaussianBlur stdDeviation="1.00032" result="effect1_foregroundBlur_2039_19099"/>
</filter>
<filter id="filter12_f_2039_19099" x="46.0003" y="156.013" width="18.0057" height="18.006" filterUnits="userSpaceOnUse" color-interpolation-filters="sRGB">
<feFlood flood-opacity="0" result="BackgroundImageFix"/>
<feBlend mode="normal" in="SourceGraphic" in2="BackgroundImageFix" result="shape"/>
<feGaussianBlur stdDeviation="2.00064" result="effect1_foregroundBlur_2039_19099"/>
</filter>
<filter id="filter13_f_2039_19099" x="41.9987" y="201.028" width="26.0083" height="26.0084" filterUnits="userSpaceOnUse" color-interpolation-filters="sRGB">
<feFlood flood-opacity="0" result="BackgroundImageFix"/>
<feBlend mode="normal" in="SourceGraphic" in2="BackgroundImageFix" result="shape"/>
<feGaussianBlur stdDeviation="2.00064" result="effect1_foregroundBlur_2039_19099"/>
</filter>
<filter id="filter14_f_2039_19099" x="48.0006" y="109.999" width="14.0044" height="14.0045" filterUnits="userSpaceOnUse" color-interpolation-filters="sRGB">
<feFlood flood-opacity="0" result="BackgroundImageFix"/>
<feBlend mode="normal" in="SourceGraphic" in2="BackgroundImageFix" result="shape"/>
<feGaussianBlur stdDeviation="2.00064" result="effect1_foregroundBlur_2039_19099"/>
</filter>
<filter id="filter15_f_2039_19099" x="508.999" y="126.999" width="20.0063" height="32.0104" filterUnits="userSpaceOnUse" color-interpolation-filters="sRGB">
<feFlood flood-opacity="0" result="BackgroundImageFix"/>
<feBlend mode="normal" in="SourceGraphic" in2="BackgroundImageFix" result="shape"/>
<feGaussianBlur stdDeviation="2.00064" result="effect1_foregroundBlur_2039_19099"/>
</filter>
<linearGradient id="paint0_linear_2039_19099" x1="108" y1="30" x2="108" y2="298" gradientUnits="userSpaceOnUse">
<stop stop-color="#1B2B38" stop-opacity="0"/>
<stop offset="0.488163" stop-color="#1B2B38" stop-opacity="0.5"/>
<stop offset="1" stop-color="#1B2B38" stop-opacity="0"/>
</linearGradient>
<linearGradient id="paint1_linear_2039_19099" x1="316" y1="119" x2="316" y2="387" gradientUnits="userSpaceOnUse">
<stop stop-color="#1B2B38" stop-opacity="0"/>
<stop offset="0.488163" stop-color="#1B2B38" stop-opacity="0.5"/>
<stop offset="1" stop-color="#1B2B38" stop-opacity="0"/>
</linearGradient>
<linearGradient id="paint2_linear_2039_19099" x1="472" y1="48" x2="472" y2="316" gradientUnits="userSpaceOnUse">
<stop stop-color="#1B2B38" stop-opacity="0"/>
<stop offset="0.488163" stop-color="#1B2B38" stop-opacity="0.5"/>
<stop offset="1" stop-color="#1B2B38" stop-opacity="0"/>
</linearGradient>
<linearGradient id="paint3_linear_2039_19099" x1="2" y1="2" x2="2" y2="414" gradientUnits="userSpaceOnUse">
<stop offset="0.194175" stop-color="#1B2B38" stop-opacity="0"/>
<stop offset="0.385456" stop-color="#1B2B38" stop-opacity="0.3"/>
<stop offset="0.627329" stop-color="#1B2B38" stop-opacity="0.3"/>
<stop offset="0.805825" stop-color="#1B2B38" stop-opacity="0"/>
</linearGradient>
<linearGradient id="paint4_linear_2039_19099" x1="54.3629" y1="2" x2="54.3629" y2="414" gradientUnits="userSpaceOnUse">
<stop stop-color="#1B2B38" stop-opacity="0"/>
<stop offset="0.191281" stop-color="#1B2B38" stop-opacity="0.3"/>
<stop offset="0.821504" stop-color="#1B2B38" stop-opacity="0.3"/>
<stop offset="1" stop-color="#1B2B38" stop-opacity="0"/>
</linearGradient>
<linearGradient id="paint5_linear_2039_19099" x1="106.726" y1="2" x2="106.726" y2="414" gradientUnits="userSpaceOnUse">
<stop stop-color="#1B2B38" stop-opacity="0"/>
<stop offset="0.191281" stop-color="#1B2B38" stop-opacity="0.3"/>
<stop offset="0.821504" stop-color="#1B2B38" stop-opacity="0.3"/>
<stop offset="1" stop-color="#1B2B38" stop-opacity="0"/>
</linearGradient>
<linearGradient id="paint6_linear_2039_19099" x1="159.089" y1="2" x2="159.089" y2="414" gradientUnits="userSpaceOnUse">
<stop stop-color="#1B2B38" stop-opacity="0"/>
<stop offset="0.191281" stop-color="#1B2B38" stop-opacity="0.3"/>
<stop offset="0.821504" stop-color="#1B2B38" stop-opacity="0.3"/>
<stop offset="1" stop-color="#1B2B38" stop-opacity="0"/>
</linearGradient>
<linearGradient id="paint7_linear_2039_19099" x1="211.452" y1="2" x2="211.452" y2="414" gradientUnits="userSpaceOnUse">
<stop stop-color="#1B2B38" stop-opacity="0"/>
<stop offset="0.191281" stop-color="#1B2B38" stop-opacity="0.3"/>
<stop offset="0.821504" stop-color="#1B2B38" stop-opacity="0.3"/>
<stop offset="1" stop-color="#1B2B38" stop-opacity="0"/>
</linearGradient>
<linearGradient id="paint8_linear_2039_19099" x1="263.815" y1="2" x2="263.815" y2="414" gradientUnits="userSpaceOnUse">
<stop stop-color="#1B2B38" stop-opacity="0"/>
<stop offset="0.191281" stop-color="#1B2B38" stop-opacity="0.3"/>
<stop offset="0.821504" stop-color="#1B2B38" stop-opacity="0.3"/>
<stop offset="1" stop-color="#1B2B38" stop-opacity="0"/>
</linearGradient>
<linearGradient id="paint9_linear_2039_19099" x1="316.177" y1="2" x2="316.177" y2="414" gradientUnits="userSpaceOnUse">
<stop stop-color="#1B2B38" stop-opacity="0"/>
<stop offset="0.191281" stop-color="#1B2B38" stop-opacity="0.3"/>
<stop offset="0.821504" stop-color="#1B2B38" stop-opacity="0.3"/>
<stop offset="1" stop-color="#1B2B38" stop-opacity="0"/>
</linearGradient>
<linearGradient id="paint10_linear_2039_19099" x1="368.541" y1="2" x2="368.541" y2="414" gradientUnits="userSpaceOnUse">
<stop stop-color="#1B2B38" stop-opacity="0"/>
<stop offset="0.191281" stop-color="#1B2B38" stop-opacity="0.3"/>
<stop offset="0.821504" stop-color="#1B2B38" stop-opacity="0.3"/>
<stop offset="1" stop-color="#1B2B38" stop-opacity="0"/>
</linearGradient>
<linearGradient id="paint11_linear_2039_19099" x1="420.903" y1="2" x2="420.903" y2="414" gradientUnits="userSpaceOnUse">
<stop stop-color="#1B2B38" stop-opacity="0"/>
<stop offset="0.191281" stop-color="#1B2B38" stop-opacity="0.3"/>
<stop offset="0.821504" stop-color="#1B2B38" stop-opacity="0.3"/>
<stop offset="1" stop-color="#1B2B38" stop-opacity="0"/>
</linearGradient>
<linearGradient id="paint12_linear_2039_19099" x1="473.266" y1="2" x2="473.266" y2="414" gradientUnits="userSpaceOnUse">
<stop stop-color="#1B2B38" stop-opacity="0"/>
<stop offset="0.191281" stop-color="#1B2B38" stop-opacity="0.3"/>
<stop offset="0.821504" stop-color="#1B2B38" stop-opacity="0.3"/>
<stop offset="1" stop-color="#1B2B38" stop-opacity="0"/>
</linearGradient>
<linearGradient id="paint13_linear_2039_19099" x1="525.629" y1="2" x2="525.629" y2="414" gradientUnits="userSpaceOnUse">
<stop stop-color="#1B2B38" stop-opacity="0"/>
<stop offset="0.191281" stop-color="#1B2B38" stop-opacity="0.3"/>
<stop offset="0.821504" stop-color="#1B2B38" stop-opacity="0.3"/>
<stop offset="1" stop-color="#1B2B38" stop-opacity="0"/>
</linearGradient>
<linearGradient id="paint14_linear_2039_19099" x1="577.992" y1="2" x2="577.992" y2="414" gradientUnits="userSpaceOnUse">
<stop offset="0.194175" stop-color="#1B2B38" stop-opacity="0"/>
<stop offset="0.385456" stop-color="#1B2B38" stop-opacity="0.3"/>
<stop offset="0.627329" stop-color="#1B2B38" stop-opacity="0.3"/>
<stop offset="0.805825" stop-color="#1B2B38" stop-opacity="0"/>
</linearGradient>
<linearGradient id="paint15_linear_2039_19099" x1="28.9996" y1="2" x2="28.9996" y2="414" gradientUnits="userSpaceOnUse">
<stop offset="0.139197" stop-color="#1B2B38" stop-opacity="0"/>
<stop offset="0.269408" stop-color="#1B2B38"/>
<stop offset="0.738169" stop-color="#1B2B38"/>
<stop offset="0.857963" stop-color="#1B2B38" stop-opacity="0"/>
</linearGradient>
<linearGradient id="paint16_linear_2039_19099" x1="81.0989" y1="2" x2="81.0989" y2="414" gradientUnits="userSpaceOnUse">
<stop offset="0.0970874" stop-color="#1B2B38" stop-opacity="0"/>
<stop offset="0.20681" stop-color="#1B2B38"/>
<stop offset="0.804302" stop-color="#1B2B38"/>
<stop offset="0.902913" stop-color="#1B2B38" stop-opacity="0"/>
</linearGradient>
<linearGradient id="paint17_linear_2039_19099" x1="133.198" y1="2" x2="133.198" y2="414" gradientUnits="userSpaceOnUse">
<stop stop-color="#1B2B38" stop-opacity="0"/>
<stop offset="0.109722" stop-color="#1B2B38"/>
<stop offset="0.901389" stop-color="#1B2B38"/>
<stop offset="1" stop-color="#1B2B38" stop-opacity="0"/>
</linearGradient>
<linearGradient id="paint18_linear_2039_19099" x1="185.297" y1="2" x2="185.297" y2="414" gradientUnits="userSpaceOnUse">
<stop stop-color="#1B2B38" stop-opacity="0"/>
<stop offset="0.109722" stop-color="#1B2B38"/>
<stop offset="0.901389" stop-color="#1B2B38"/>
<stop offset="1" stop-color="#1B2B38" stop-opacity="0"/>
</linearGradient>
<linearGradient id="paint19_linear_2039_19099" x1="237.397" y1="2" x2="237.397" y2="414" gradientUnits="userSpaceOnUse">
<stop stop-color="#1B2B38" stop-opacity="0"/>
<stop offset="0.109722" stop-color="#1B2B38"/>
<stop offset="0.901389" stop-color="#1B2B38"/>
<stop offset="1" stop-color="#1B2B38" stop-opacity="0"/>
</linearGradient>
<linearGradient id="paint20_linear_2039_19099" x1="289.496" y1="2" x2="289.496" y2="414" gradientUnits="userSpaceOnUse">
<stop stop-color="#1B2B38" stop-opacity="0"/>
<stop offset="0.109722" stop-color="#1B2B38"/>
<stop offset="0.901389" stop-color="#1B2B38"/>
<stop offset="1" stop-color="#1B2B38" stop-opacity="0"/>
</linearGradient>
<linearGradient id="paint21_linear_2039_19099" x1="341.595" y1="2" x2="341.595" y2="414" gradientUnits="userSpaceOnUse">
<stop stop-color="#1B2B38" stop-opacity="0"/>
<stop offset="0.109722" stop-color="#1B2B38"/>
<stop offset="0.901389" stop-color="#1B2B38"/>
<stop offset="1" stop-color="#1B2B38" stop-opacity="0"/>
</linearGradient>
<linearGradient id="paint22_linear_2039_19099" x1="393.695" y1="2" x2="393.695" y2="414" gradientUnits="userSpaceOnUse">
<stop stop-color="#1B2B38" stop-opacity="0"/>
<stop offset="0.109722" stop-color="#1B2B38"/>
<stop offset="0.901389" stop-color="#1B2B38"/>
<stop offset="1" stop-color="#1B2B38" stop-opacity="0"/>
</linearGradient>
<linearGradient id="paint23_linear_2039_19099" x1="445.794" y1="2" x2="445.794" y2="414" gradientUnits="userSpaceOnUse">
<stop stop-color="#1B2B38" stop-opacity="0"/>
<stop offset="0.109722" stop-color="#1B2B38"/>
<stop offset="0.901389" stop-color="#1B2B38"/>
<stop offset="1" stop-color="#1B2B38" stop-opacity="0"/>
</linearGradient>
<linearGradient id="paint24_linear_2039_19099" x1="497.893" y1="2" x2="497.893" y2="414" gradientUnits="userSpaceOnUse">
<stop offset="0.0970874" stop-color="#1B2B38" stop-opacity="0"/>
<stop offset="0.20681" stop-color="#1B2B38"/>
<stop offset="0.804302" stop-color="#1B2B38"/>
<stop offset="0.902913" stop-color="#1B2B38" stop-opacity="0"/>
</linearGradient>
<linearGradient id="paint25_linear_2039_19099" x1="549.993" y1="2" x2="549.993" y2="414" gradientUnits="userSpaceOnUse">
<stop offset="0.139197" stop-color="#1B2B38" stop-opacity="0"/>
<stop offset="0.269408" stop-color="#1B2B38"/>
<stop offset="0.738169" stop-color="#1B2B38"/>
<stop offset="0.857963" stop-color="#1B2B38" stop-opacity="0"/>
</linearGradient>
</defs>
</svg>
