<svg width="162" height="60" viewBox="0 0 162 60" fill="none" xmlns="http://www.w3.org/2000/svg">
<g clip-path="url(#clip0_615_16)">
<path fill-rule="evenodd" clip-rule="evenodd" d="M0 30.3442C0 17.9763 9.9177 7.94191 22.2856 8.00025C34.6536 8.00025 44.6296 17.9763 44.6296 30.4026C44.6296 42.6538 34.5369 52.7466 22.1106 52.6882C10.0927 52.5715 0 42.6538 0 30.3442ZM26.1944 50.588C27.6529 50.3546 29.053 49.8879 30.4532 49.3045C35.0036 47.321 38.4457 44.1123 40.6625 39.6785C42.1794 36.7032 42.8794 33.6112 42.8794 30.4026C42.8794 29.3525 42.8211 28.244 42.6461 27.1356C42.0044 23.0518 40.3125 19.4348 37.5122 16.3428C33.7202 12.2007 28.9363 9.92545 23.3358 9.57542C20.8272 9.45874 18.3186 9.80877 15.9267 10.5672C12.0179 11.8507 8.75091 14.0675 6.18397 17.2762C3.20867 20.9516 1.75018 25.152 1.57516 29.8192V30.6943C1.57516 31.5334 1.66946 32.2782 1.77328 33.0983L1.80852 33.3779C2.15856 36.0032 3.03365 38.5117 4.37545 40.787L4.55047 40.962C4.72549 41.312 4.95885 41.6621 5.25054 41.9538L5.30888 42.0121C5.30888 42.2054 5.38896 42.3187 5.48277 42.4514L5.48284 42.4514C5.50225 42.4789 5.52224 42.5072 5.54224 42.5372C6.41733 43.7623 7.4091 44.9291 8.57589 45.9208C9.10094 46.3876 9.626 46.8543 10.2094 47.2627C11.8429 48.3128 13.5347 49.3045 15.4016 49.9463C16.9184 50.4713 18.4936 50.8797 20.0687 51.0547C21.2939 51.1714 22.5773 51.2297 23.8025 51.0547C24.0072 51.0206 24.217 50.9964 24.4288 50.9721L24.4289 50.972C24.9413 50.9131 25.4658 50.8527 25.961 50.6463C26.0368 50.6842 26.0879 50.6483 26.1305 50.6185C26.1535 50.6024 26.1739 50.588 26.1944 50.588ZM40.1189 21.9453C39.3684 20.427 38.3829 19.0262 37.1622 17.7429C35.9505 16.4808 34.6078 15.3934 33.2474 14.2917L33.2474 14.2917L33.2472 14.2915L33.2462 14.2907L33.2452 14.2899C33.0343 14.1191 32.823 13.948 32.6117 13.7759C31.2116 12.6091 29.6948 11.734 27.9446 11.2673C26.2528 10.8589 24.6192 10.6255 22.8691 10.9172C22.7524 10.9172 22.6357 10.9172 22.6357 11.0339C22.6357 11.086 22.659 11.1149 22.6952 11.1308C22.6944 11.137 22.694 11.1436 22.694 11.1506C22.694 11.2673 22.8106 11.2673 22.9273 11.2673C25.4943 11.6756 27.8862 12.5507 30.3364 13.4842C32.7283 14.4176 34.6535 15.7594 36.112 17.8596C36.2403 18.0377 36.3668 18.2167 36.4913 18.3967C37.3189 19.6545 38.0916 20.9608 38.7374 22.3517C39.7291 24.5686 40.4876 26.8439 40.9543 29.1775C40.9911 29.3248 41.0265 29.4679 41.0605 29.6074C41.1546 30.186 41.275 30.7421 41.4001 31.3193L41.4002 31.32C41.4264 31.4409 41.4528 31.5628 41.4792 31.686L41.4793 31.686L41.6543 31.8027C41.8876 30.9276 41.8876 30.0525 41.8876 29.2358C41.8876 28.244 41.7709 27.2523 41.5959 26.2605C41.2896 24.7291 40.7973 23.2907 40.1189 21.9453ZM19.3686 22.4101C20.2371 22.4101 21.0291 22.8309 21.5475 23.4863C21.9379 23.9666 22.169 24.5847 22.169 25.2687L22.1689 25.2707C22.1679 26.7866 20.9431 28.069 19.427 28.069H19.372L19.3687 28.069L19.3686 28.069L19.3104 28.069C18.3087 28.069 17.4343 27.5093 16.9558 26.6924C16.7104 26.2781 16.5683 25.7927 16.5683 25.2687V25.2104C16.5683 23.6352 17.8518 22.4101 19.3686 22.4101ZM32.6117 22.8185C34.1869 23.2852 35.762 23.8102 37.1038 24.802C38.7957 26.0855 39.2624 27.719 38.504 29.7025C38.0373 30.9276 37.1622 31.8611 36.2871 32.7945C35.657 33.4479 35.0083 34.0826 34.3595 34.7174C33.3864 35.6695 32.4133 36.6216 31.5033 37.6367C29.7531 39.6785 28.1779 41.7788 27.0695 44.229C26.136 46.2709 25.611 48.3711 25.961 50.588C25.3659 50.8856 24.7285 50.9302 24.1207 50.9727C24.0136 50.9802 23.9074 50.9876 23.8025 50.9964C22.5773 51.1714 21.2939 51.1131 20.0687 50.9964C18.4936 50.8214 16.9184 50.413 15.4016 49.8879C13.5347 49.2462 11.8429 48.2544 10.2094 47.2043C9.62598 46.7959 9.10093 46.3292 8.57588 45.8625C7.40909 44.8707 6.41732 43.704 5.54223 42.4788C5.42555 42.3038 5.30887 42.1288 5.30887 41.9538C6.70901 38.8035 7.23407 35.4781 7.52577 32.0944C7.5491 31.7794 7.57011 31.4644 7.59111 31.1493C7.67512 29.8892 7.75912 28.6291 7.99248 27.3689C8.28418 25.5604 8.98425 23.9269 10.2677 22.5268C11.4345 21.3016 12.893 20.4849 14.4682 19.9015C15.7516 19.3764 17.0934 18.9097 18.5519 18.8514C19.8824 18.7935 21.1555 18.9651 22.4282 19.2524C23.6455 18.9081 24.9195 18.7963 26.136 19.2598C27.0371 19.5977 27.7208 20.2075 28.0295 21.1416L28.1196 21.185C29.5781 21.7683 31.0949 22.3517 32.6117 22.8185ZM34.5369 29.1191C34.5369 28.6524 34.1285 28.244 33.6035 28.3024C33.1368 28.3024 32.7867 28.7107 32.7867 29.1775C32.7867 29.7025 33.1368 30.0525 33.6618 30.0525C34.1285 30.0525 34.5369 29.6442 34.5369 29.1191ZM15.3432 25.2104C15.3432 27.4273 17.0934 29.2358 19.3103 29.2358C20.4188 29.2358 21.4105 28.7691 22.169 28.069C22.869 27.3106 23.3357 26.3188 23.3357 25.2104C23.3357 22.9935 21.5856 21.2433 19.3687 21.2433C17.1518 21.2433 15.3432 22.9935 15.3432 25.2104ZM28.9363 34.9531C31.6199 34.428 34.1285 33.4946 36.4038 31.9777C36.4449 31.9366 36.5005 31.91 36.5578 31.8825C36.6632 31.8321 36.7744 31.7788 36.8121 31.6277C36.6955 31.5694 36.6371 31.6277 36.5788 31.686C35.8204 32.1528 35.0036 32.5028 34.1869 32.8528C32.0866 33.7279 29.8697 34.3113 27.5362 34.428C25.8443 34.5447 24.1525 34.428 22.6357 33.4946C22.9857 34.0196 23.6274 34.4863 24.3858 34.7197C25.9027 35.2447 27.4195 35.2447 28.9363 34.9531ZM36.9288 31.6277C36.9872 31.6277 37.0455 31.5694 37.0455 31.511L37.2205 31.3943C37.1622 31.3943 37.1038 31.3943 37.0455 31.511C36.9872 31.4527 36.9288 31.511 36.9288 31.5694V31.6277ZM110.582 36.5866C110.611 36.572 110.641 36.5574 110.67 36.5282C110.67 36.5807 110.682 36.6449 110.695 36.7156C110.71 36.8022 110.728 36.8986 110.728 36.9949C110.766 37.1486 110.78 37.3148 110.792 37.4771C110.819 37.8078 110.843 38.1218 111.078 38.2784C111.329 38.4039 111.7 38.3794 112.062 38.3555C112.205 38.3461 112.346 38.3367 112.478 38.3367C112.712 38.3367 112.77 38.2784 112.77 38.045V30.4026C112.77 30.1692 112.653 30.1109 112.42 30.1109H106.411C106.178 30.1109 106.061 30.1692 106.061 30.4609V31.8027C106.061 32.0944 106.119 32.2111 106.469 32.2111H109.911C109.937 32.2111 109.962 32.2099 109.987 32.2086C110.134 32.2015 110.261 32.1953 110.261 32.4445C110.145 33.8446 109.736 35.0697 108.453 35.8281C106.178 37.1699 103.144 36.3532 101.919 34.0196C101.394 32.9695 101.16 31.8027 101.16 30.5776C101.16 28.9441 101.452 27.3689 102.502 26.0855C103.669 24.6853 105.186 24.3353 106.936 24.6853C108.453 24.977 109.503 25.8521 109.853 27.4273C109.911 27.6023 109.97 27.6606 110.145 27.6606H112.303C112.478 27.6606 112.595 27.6023 112.537 27.3689C112.362 26.2021 111.895 25.152 111.078 24.2769C109.97 23.1102 108.511 22.5851 106.936 22.3517C103.494 21.885 100.46 23.6352 99.1185 26.8439C98.3601 28.6524 98.2435 30.5776 98.6518 32.5028C99.2936 35.4781 100.927 37.6367 103.961 38.3951C106.411 39.0368 108.686 38.6868 110.495 36.6449C110.524 36.6157 110.553 36.6011 110.582 36.5866ZM63.3565 27.6606H64.465C64.5516 27.6606 64.6418 27.6571 64.7329 27.6534C65.01 27.6425 65.2955 27.6312 65.5151 27.719C65.7484 27.719 65.8068 27.6606 65.7484 27.4273C65.5734 26.2605 65.1067 25.2104 64.2899 24.3353C63.1231 23.1685 61.6647 22.6434 60.0895 22.4101C56.7642 22.0017 53.7888 23.6352 52.447 26.6689C51.6886 28.4774 51.5136 30.3442 51.8053 32.2694C52.5054 36.6449 56.1224 39.3285 60.4979 38.6284C63.5315 38.1617 65.5151 35.7698 65.8068 32.6778C65.8651 32.4445 65.8068 32.3861 65.5734 32.3861H63.8232C63.5042 32.3861 63.3438 32.3861 63.2488 32.465C63.1527 32.5447 63.1235 32.7051 63.0648 33.0278C62.7148 34.603 61.9564 35.8281 60.3229 36.2949C58.456 36.8199 56.4141 36.0615 55.4807 34.3697C54.0805 31.8611 54.0222 29.2358 55.4224 26.6689C56.3558 24.977 57.9309 24.3936 59.7978 24.5686C61.4897 24.7437 62.5398 25.7354 63.0065 27.3689C63.0648 27.6023 63.1231 27.6606 63.3565 27.6606ZM147.54 38.2784H150.341C150.316 38.2419 150.292 38.2079 150.269 38.1754C150.18 38.0521 150.107 37.9502 150.107 37.8117L145.907 31.511C145.673 31.161 145.673 30.986 145.965 30.7526C146.821 29.9748 147.624 29.197 148.428 28.4191C148.83 28.0302 149.232 27.6412 149.64 27.2522C149.662 27.2086 149.7 27.1732 149.74 27.1367C149.805 27.0756 149.874 27.0118 149.874 26.9022H147.074C146.898 26.9022 146.782 27.0189 146.665 27.1356L146.665 27.1359C145.44 28.3609 144.273 29.5276 143.106 30.7526C143.019 30.8693 142.917 30.986 142.815 31.1027C142.713 31.2193 142.611 31.336 142.523 31.4527L142.406 31.3943V30.9276V23.0518C142.406 22.7601 142.348 22.6434 141.998 22.6434C141.473 22.7018 140.948 22.7018 140.423 22.6434C140.014 22.5851 139.898 22.7018 139.898 23.1102V30.6943V37.9284C139.898 38.2201 139.956 38.3367 140.248 38.3367H141.998C142.231 38.3367 142.348 38.2784 142.348 37.9867C142.348 37.7511 142.361 37.5156 142.374 37.2822C142.4 36.8221 142.425 36.3706 142.348 35.9448C142.173 34.7197 142.581 33.7863 143.573 33.0862C143.865 32.8528 143.923 32.8528 144.098 33.1445C144.594 33.9612 145.104 34.7633 145.615 35.5654C146.125 36.3676 146.636 37.1699 147.132 37.9867C147.19 38.1617 147.307 38.2784 147.54 38.2784ZM117.729 33.2612H121.521H121.521C122.804 33.2612 124.088 33.2612 125.313 33.3195C125.546 33.3195 125.663 33.2612 125.663 32.9695C125.721 32.1528 125.663 31.3943 125.43 30.6359C124.788 28.5357 123.446 27.1356 121.229 26.7272C119.129 26.3772 117.32 27.0189 115.979 28.7691C114.929 30.1692 114.695 31.7444 114.812 33.3779C114.929 34.7197 115.337 36.0032 116.27 36.9949C117.612 38.3951 119.362 38.8034 121.229 38.5117C123.329 38.2201 124.73 37.1116 125.371 35.0697C125.488 34.778 125.43 34.7197 125.138 34.7197H123.504C123.271 34.7197 123.096 34.778 122.979 35.0697C122.746 35.7115 122.279 36.1782 121.696 36.4115C119.596 37.2866 117.495 35.8865 117.379 33.6112C117.379 33.3195 117.437 33.2612 117.729 33.2612ZM122.863 31.6277H120.296C119.421 31.6277 118.604 31.6277 117.729 31.5694C117.379 31.5694 117.32 31.4527 117.379 31.161C117.612 29.5858 118.837 28.5357 120.354 28.5941C121.813 28.6524 122.921 29.7608 123.154 31.2777C123.213 31.5694 123.154 31.6277 122.863 31.6277ZM67.7903 30.4609C67.6153 31.161 67.4986 31.9194 67.4986 32.6195C67.4986 36.1198 69.4821 38.3951 72.8075 38.5701C75.0244 38.6868 76.9496 38.045 78.058 36.0032C79.2832 33.8446 79.2832 31.511 78.1164 29.2941C77.1246 27.4856 75.4328 26.7855 73.3909 26.6689C70.7073 26.4938 68.5487 28.0107 67.7903 30.4609ZM70.7656 35.3031C70.1822 34.4863 70.0072 33.6112 70.0072 32.6195C70.0072 31.686 70.1822 30.7526 70.7073 29.9942C71.8741 28.1857 74.441 28.1857 75.6661 29.9359C76.7162 31.4527 76.6579 33.9029 75.6661 35.3614C75.4328 35.6531 75.1411 35.8865 74.8494 36.1198C73.5076 37.0533 71.699 36.6449 70.7656 35.3031ZM152.441 28.3607C151.332 29.5858 150.982 31.0443 150.982 32.6778C150.982 32.7361 150.997 32.8237 151.011 32.9112C151.026 32.9987 151.041 33.0862 151.041 33.1445C151.216 36.2949 153.199 38.3367 156.349 38.5117C159.033 38.6868 161.133 37.4033 162.008 35.1281C162.242 34.5447 162.358 33.9029 162.417 33.2612C162.533 31.4527 162.242 29.7608 161.017 28.3607C159.85 27.0772 158.333 26.6105 156.7 26.6105C155.066 26.6105 153.549 27.0772 152.441 28.3607ZM159.208 29.9359C159.616 30.6359 159.908 31.6277 159.908 32.7945C159.908 33.5529 159.733 34.4863 159.15 35.2447C158.916 35.5948 158.683 35.8281 158.333 36.0615C156.991 36.9949 155.183 36.5865 154.249 35.2447C153.316 33.8446 153.257 31.3943 154.249 29.9359C154.483 29.5858 154.774 29.2941 155.124 29.0608C156.466 28.1857 158.333 28.5357 159.208 29.9359ZM91.2427 26.7272C90.1343 27.0189 89.3175 27.6606 88.6175 28.5357C88.6175 28.1273 88.6175 27.719 88.6758 27.3106C88.7341 27.0189 88.6175 26.9606 88.3258 26.9606C88.1485 26.9606 87.9779 26.9672 87.8095 26.9738C87.479 26.9866 87.1568 26.9992 86.8089 26.9606C86.4006 26.9022 86.2839 27.0189 86.2839 27.4273V33.0278V37.87C86.2839 38.2201 86.4006 38.2784 86.6923 38.2784C87.2173 38.2201 87.8007 38.2201 88.3258 38.2784C88.7341 38.3367 88.7925 38.1617 88.7925 37.8117V31.4527C88.7925 30.1109 89.5509 29.0608 90.7177 28.7107C92.0595 28.3607 93.1679 28.8274 93.518 29.9942C93.6347 30.4026 93.693 30.8693 93.693 31.336V37.87C93.693 38.2201 93.8097 38.2784 94.1014 38.2784H95.8515C96.1432 38.2784 96.2016 38.2201 96.2016 37.9284C96.2016 37.0727 96.2081 36.2171 96.2145 35.3614C96.2275 33.6501 96.2405 31.9388 96.2016 30.2276C96.1432 28.7691 95.5598 27.5439 94.1597 26.9606C93.2263 26.5522 92.2345 26.4938 91.2427 26.7272ZM136.281 30.7526H136.456C136.806 30.7526 137.097 30.7526 137.331 30.8109C137.623 30.8693 137.739 30.7526 137.681 30.4609C137.506 29.5858 137.156 28.7691 136.514 28.1273C135.464 27.1356 134.181 26.7855 132.78 26.7272C130.447 26.6105 128.463 27.7773 127.588 29.8192C127.063 31.0443 126.946 32.3278 127.063 33.6112C127.296 36.5865 129.222 38.5117 132.139 38.6868C135.056 38.8618 137.039 37.2866 137.623 34.4863C137.681 34.253 137.623 34.1363 137.331 34.1363H135.639C135.289 34.078 135.114 34.1946 135.056 34.5447C134.764 35.7698 134.005 36.4699 132.897 36.6449C131.555 36.8199 130.505 36.2365 129.922 34.953C129.455 33.9029 129.455 32.7945 129.572 31.686C129.688 30.986 129.863 30.3442 130.272 29.8192C131.439 28.1857 134.239 28.244 134.939 29.9942C135.231 30.7526 135.639 30.811 136.281 30.7526ZM83.5419 37.7533V32.6778C83.5419 30.9276 83.5419 29.1774 83.6003 27.4273C83.6003 27.0189 83.4836 26.9606 83.1336 26.9606H81.3834C81.0917 26.9606 81.0333 27.0189 81.0333 27.3106V28.7107V37.8117C81.0333 38.2201 81.15 38.2784 81.5001 38.2784C82.0251 38.2201 82.4918 38.2201 83.0169 38.2784C83.4253 38.3367 83.5419 38.2201 83.5419 37.7533ZM82.8312 22.6243C82.671 22.6451 82.5101 22.6659 82.3751 22.6434H82.0251C81.0333 22.6434 81.0333 22.6434 81.0333 23.6352C81.0333 23.7547 81.0183 23.8892 81.003 24.027C80.9659 24.3601 80.9266 24.7123 81.0917 24.9187C81.2955 25.0818 81.6419 25.0454 81.9913 25.0087C82.1418 24.9929 82.2929 24.977 82.4335 24.977C82.5375 24.977 82.6517 24.9925 82.7671 25.0081C83.0402 25.045 83.3196 25.0827 83.4836 24.9187C83.6476 24.7546 83.6099 24.4753 83.573 24.2022C83.5574 24.0868 83.5419 23.9725 83.5419 23.8686C83.5419 23.7455 83.5578 23.6119 83.5736 23.4788C83.6103 23.1703 83.6466 22.8648 83.4836 22.7018C83.3402 22.5584 83.0866 22.5912 82.8312 22.6243Z" fill="white"/>
</g>
<defs>
<clipPath id="clip0_615_16">
<rect width="162" height="60" fill="white"/>
</clipPath>
</defs>
</svg>
