<?xml version="1.0" encoding="utf-8"?>
<!-- Generator: Adobe Illustrator 26.5.0, SVG Export Plug-In . SVG Version: 6.00 Build 0)  -->
<svg version="1.1" id="Layer_1" xmlns="http://www.w3.org/2000/svg" xmlns:xlink="http://www.w3.org/1999/xlink" x="0px" y="0px"
	 viewBox="0 0 141.1 26.2" style="enable-background:new 0 0 141.1 26.2;" xml:space="preserve">
<style type="text/css">
	.st0{clip-path:url(#SVGID_00000112594631204134975750000004691432767999025085_);}
	.st1{fill:#FFFFFF;}
</style>
<g>
	<defs>
		<rect id="SVGID_1_" width="141" height="26.2"/>
	</defs>
	<clipPath id="SVGID_00000173865180641086383050000002500878726578331061_">
		<use xlink:href="#SVGID_1_"  style="overflow:visible;"/>
	</clipPath>
	<g style="clip-path:url(#SVGID_00000173865180641086383050000002500878726578331061_);">
		<path class="st1" d="M79.8,0.4H61.5c-0.2,0-0.4,0.2-0.4,0.4v3c0,0.2,0.2,0.4,0.4,0.4h18.3c0.2,0,0.4-0.2,0.4-0.4v-3
			C80.2,0.6,80,0.4,79.8,0.4z"/>
		<path class="st1" d="M79.8,22H61.5c-0.2,0-0.4,0.2-0.4,0.4v3c0,0.2,0.2,0.4,0.4,0.4h18.3c0.2,0,0.4-0.2,0.4-0.4v-3
			C80.2,22.2,80,22,79.8,22z"/>
		<path class="st1" d="M79.8,11.2H61.5c-0.2,0-0.4,0.2-0.4,0.4v3c0,0.2,0.2,0.4,0.4,0.4h18.3c0.2,0,0.4-0.2,0.4-0.4v-3
			C80.2,11.4,80,11.2,79.8,11.2z"/>
		<path class="st1" d="M22.1,15h4.2c0.1,0,0.2,0,0.3-0.1c0.1-0.1,0.1-0.2,0.1-0.3v-3c0-0.1,0-0.2-0.1-0.3s-0.2-0.1-0.3-0.1h-5.9
			L15.7,0.7c0-0.1-0.1-0.2-0.2-0.2s-0.2-0.1-0.3-0.1h-3.8c-0.1,0-0.2,0-0.3,0.1C11.1,0.6,11,0.6,11,0.7L6.3,11.2H0.4
			c-0.1,0-0.2,0-0.3,0.1C0,11.4,0,11.5,0,11.6v3c0,0.1,0,0.2,0.1,0.3C0.2,15,0.3,15,0.4,15h4.2L0,25.3c0,0.1,0,0.1,0,0.2
			c0,0.1,0,0.1,0.1,0.2c0,0.1,0.1,0.1,0.1,0.1c0.1,0,0.1,0,0.2,0h3.4c0.1,0,0.2,0,0.3-0.1c0.1-0.1,0.1-0.1,0.2-0.2l9.1-20.4
			l9.1,20.4c0,0.1,0.1,0.2,0.2,0.2c0.1,0.1,0.2,0.1,0.3,0.1h3.4c0.1,0,0.1,0,0.2,0c0.1,0,0.1-0.1,0.1-0.1c0-0.1,0.1-0.1,0.1-0.2
			c0-0.1,0-0.1,0-0.2L22.1,15z"/>
		<path class="st1" d="M108.2,14.8c1-1.5,1.6-3.3,1.6-5.2v0c0-1.2-0.2-2.4-0.7-3.5c-0.5-1.1-1.1-2.1-2-3c-0.9-0.9-1.9-1.5-3-2
			c-1.1-0.5-2.3-0.7-3.5-0.7l-10.7,0c-0.1,0-0.2,0-0.3,0.1c-0.1,0.1-0.1,0.2-0.1,0.3v3c0,0.1,0,0.2,0.1,0.3c0.1,0.1,0.2,0.1,0.3,0.1
			h10.7c0.7,0,1.4,0.1,2.1,0.4c0.7,0.3,1.3,0.7,1.8,1.2c0.5,0.5,0.9,1.1,1.2,1.8c0.3,0.7,0.4,1.4,0.4,2.1v0c0,0.7-0.1,1.4-0.4,2.1
			c-0.3,0.7-0.7,1.3-1.2,1.8c-0.5,0.5-1.1,0.9-1.8,1.2c-0.7,0.3-1.4,0.4-2.1,0.4l-10.7,0c-0.1,0-0.2,0-0.3,0.1
			c-0.1,0.1-0.1,0.2-0.1,0.3v10c0,0.1,0,0.2,0.1,0.3c0.1,0.1,0.2,0.1,0.3,0.1h3c0.1,0,0.1,0,0.1,0c0,0,0.1,0,0.1-0.1
			s0.1-0.1,0.1-0.1c0,0,0-0.1,0-0.1v-6.6l7.3,0c0.6,0,1.3-0.1,1.9-0.2l3.1,7c0,0.1,0.1,0.1,0.1,0.2c0.1,0,0.1,0.1,0.2,0.1h3.5
			c0.1,0,0.1,0,0.2,0s0.1-0.1,0.1-0.1c0-0.1,0.1-0.1,0.1-0.2c0-0.1,0-0.1,0-0.2l-3.7-8.3C106.9,16.4,107.7,15.6,108.2,14.8z"/>
		<path class="st1" d="M52.7,0.4H34.4c-0.1,0-0.2,0-0.3,0.1c-0.1,0.1-0.1,0.2-0.1,0.3v3c0,0.1,0,0.2,0.1,0.3
			c0.1,0.1,0.2,0.1,0.3,0.1h13l-5.1,6.5c0,0-0.1,0.1-0.1,0.2c0,0.1,0,0.1,0,0.2c0,0.1,0.1,0.1,0.1,0.1c0.1,0,0.1,0.1,0.2,0.1h3.8
			c0.1,0,0.2,0,0.3-0.1c0.1-0.1,0.2-0.1,0.3-0.2L53,3.5c0.1-0.1,0.2-0.3,0.2-0.5V0.8c0-0.1,0-0.2-0.1-0.3
			C52.9,0.5,52.8,0.4,52.7,0.4z"/>
		<path class="st1" d="M52.7,22H38.4l5.1-6.4c0,0,0.1-0.1,0.1-0.2c0-0.1,0-0.1,0-0.2c0-0.1-0.1-0.1-0.1-0.1c-0.1,0-0.1-0.1-0.2-0.1
			h-3.8c-0.1,0-0.2,0-0.3,0.1c-0.1,0.1-0.2,0.1-0.3,0.2L33,22.7c-0.1,0.1-0.2,0.3-0.2,0.5v2.2c0,0.1,0,0.2,0.1,0.3
			c0.1,0.1,0.2,0.1,0.3,0.1h19.6c0.1,0,0.2,0,0.3-0.1c0.1-0.1,0.1-0.2,0.1-0.3v-3c0-0.1,0-0.2-0.1-0.3C52.9,22.1,52.8,22,52.7,22z"
			/>
		<path class="st1" d="M137.3,15c-0.1,0-0.2,0-0.2,0.1c-0.1,0.1-0.1,0.1-0.1,0.2c-0.1,0.6-0.3,1.2-0.5,1.7c-0.6,1.6-1.6,2.9-3,3.9
			c-1.4,0.9-3,1.4-4.6,1.4c-1.1,0-2.2-0.2-3.2-0.6c-1.5-0.6-2.7-1.7-3.6-3.1c-0.6-1-1-2.1-1.2-3.3c0-0.1-0.1-0.2-0.1-0.2
			c-0.1-0.1-0.2-0.1-0.2-0.1h-3.1c-0.1,0-0.1,0-0.2,0s-0.1,0.1-0.1,0.1c0,0-0.1,0.1-0.1,0.1c0,0.1,0,0.1,0,0.2c0.1,1,0.4,2,0.8,3
			c0.8,2.3,2.3,4.3,4.3,5.7c2,1.4,4.4,2.1,6.8,2.1c1.6,0,3.2-0.3,4.7-0.9c2.2-0.9,4.1-2.5,5.4-4.6c1-1.6,1.6-3.4,1.9-5.2
			c0-0.1,0-0.1,0-0.2c0-0.1,0-0.1-0.1-0.1c0,0-0.1-0.1-0.1-0.1c0,0-0.1,0-0.2,0H137.3z"/>
		<path class="st1" d="M120.4,11.2c0.1,0,0.2,0,0.2-0.1c0.1-0.1,0.1-0.1,0.1-0.2c0.1-0.6,0.3-1.2,0.5-1.8c0.6-1.6,1.6-2.9,3-3.9
			c1.4-0.9,3-1.4,4.6-1.4c1.1,0,2.2,0.2,3.2,0.6c1.5,0.6,2.7,1.7,3.6,3.1c0.6,1,1,2.2,1.2,3.3c0,0.1,0.1,0.2,0.1,0.2
			c0.1,0.1,0.2,0.1,0.2,0.1h3.1c0.1,0,0.1,0,0.2,0c0.1,0,0.1-0.1,0.1-0.1c0,0,0.1-0.1,0.1-0.1c0-0.1,0-0.1,0-0.2c-0.1-1-0.4-2-0.8-3
			c-0.8-2.3-2.3-4.3-4.3-5.7c-2-1.4-4.4-2.1-6.8-2.1c-1.6,0-3.2,0.3-4.7,0.9c-2.2,0.9-4.1,2.5-5.4,4.6c-1,1.6-1.6,3.4-1.9,5.2
			c0,0.1,0,0.1,0,0.2c0,0.1,0,0.1,0.1,0.1c0,0,0.1,0.1,0.1,0.1c0.1,0,0.1,0,0.2,0H120.4z"/>
	</g>
</g>
</svg>
