<svg width="221" height="60" viewBox="0 0 221 60" fill="none" xmlns="http://www.w3.org/2000/svg">
<g clip-path="url(#clip0_615_51)">
<path d="M59.9476 36.2352C58.4803 34.6288 57.7466 32.1319 57.7466 28.7437C57.7466 22.2255 60.8049 18.9664 66.9215 18.9664C67.7556 18.9664 68.6205 19.049 69.5164 19.2136C70.4123 19.3786 71.1614 19.6077 71.7638 19.9007C72.3662 20.1946 72.6674 20.5216 72.6674 20.8817C72.6674 21.1395 72.5643 21.4762 72.3584 21.8937C72.1524 22.3103 71.9079 22.6788 71.6248 22.9978C71.3414 23.3173 71.0919 23.4767 70.8756 23.4767C70.824 23.4767 70.685 23.4255 70.4586 23.3222C69.9643 23.1165 69.4469 22.944 68.9063 22.8045C68.3657 22.666 67.6783 22.5962 66.8442 22.5962C65.2275 22.5962 64.0304 23.1086 63.2531 24.1329C62.4755 25.1581 62.0869 26.7049 62.0869 28.7746C62.0869 30.8446 62.4781 32.4046 63.2608 33.455C64.0432 34.5053 65.2171 35.0304 66.7825 35.0304C67.5958 35.0304 68.3039 34.9484 68.9063 34.7833C69.5087 34.6187 70.098 34.4077 70.6748 34.15C70.7057 34.1399 70.7984 34.1015 70.9529 34.0344C71.1073 33.9673 71.2205 33.9338 71.2927 33.9338C71.5603 33.9338 71.8178 34.0909 72.065 34.4051C72.3121 34.7193 72.5129 35.0746 72.6674 35.4704C72.8218 35.8672 72.8991 36.1531 72.8991 36.3279C72.8991 36.8328 72.5617 37.2599 71.8873 37.6099C71.2128 37.9603 70.3992 38.2198 69.4469 38.3901C68.4943 38.5596 67.6062 38.6448 66.7825 38.6448C63.6933 38.6448 61.415 37.8416 59.9476 36.2352L59.9476 36.2352Z" fill="white"/>
<path d="M75.3579 37.5945V28.8827C75.3579 27.565 75.2703 26.4683 75.0953 25.5928C75.0437 25.3147 75.0181 25.1192 75.0181 25.0058C75.0181 24.8002 75.2111 24.6329 75.5973 24.5036C75.9834 24.3752 76.421 24.2798 76.9102 24.2181C77.3992 24.1563 77.793 24.1254 78.0918 24.1254C78.4109 24.1254 78.6349 24.2441 78.7637 24.4806C78.8924 24.7176 79.0082 25.0627 79.1112 25.5155L79.2039 25.9171C79.5539 25.279 79.9581 24.7719 80.4164 24.3959C80.8745 24.0199 81.4641 23.8319 82.185 23.8319C82.7821 23.8319 83.1941 23.9842 83.4207 24.2873C83.6471 24.5914 83.7605 24.9339 83.7605 25.3147C83.7605 25.5208 83.7243 25.8116 83.6524 26.1876C83.5802 26.5636 83.4772 26.8955 83.3434 27.1837C83.2095 27.4723 83.0601 27.6162 82.8955 27.6162C82.7821 27.6162 82.6122 27.5853 82.3858 27.5235C82.0769 27.4414 81.8143 27.3999 81.598 27.3999C81.0934 27.3999 80.6532 27.5416 80.2774 27.8249C79.9014 28.1082 79.6157 28.4247 79.4202 28.7746V37.5945C79.4202 38.1713 78.8641 38.4594 77.752 38.4594H76.9952C75.9036 38.4594 75.3579 38.1713 75.3579 37.5945L75.3579 37.5945Z" fill="white"/>
<path d="M86.8836 43.4948C86.8836 43.3404 86.9196 43.1753 86.9917 43.0006L88.7371 38.4131L84.196 25.0985C84.1856 25.0367 84.1651 24.952 84.1342 24.8434C84.1033 24.7357 84.0879 24.6559 84.0879 24.6042C84.0879 24.3986 84.2216 24.2468 84.4895 24.1488C84.7571 24.0508 85.1793 24.0018 85.7561 24.0018H86.6519C87.0844 24.0018 87.4319 24.046 87.6945 24.1329C87.9571 24.2207 88.1193 24.3677 88.1811 24.5733L89.7874 29.6398C89.8903 29.9593 90.0191 30.4717 90.1736 31.1765C90.3281 31.8821 90.4207 32.3018 90.4516 32.4355L90.5597 32.9607H90.6833C90.6935 32.8888 90.7193 32.7806 90.7605 32.6363C91.1004 30.9889 91.332 29.9902 91.4556 29.6398L93.062 24.5733C93.1339 24.3571 93.3014 24.2079 93.564 24.1254C93.8266 24.0433 94.1741 24.0018 94.6066 24.0018H95.2708C95.837 24.0018 96.2516 24.0508 96.5142 24.1488C96.7767 24.2468 96.908 24.3986 96.908 24.6042C96.908 24.7075 96.8822 24.8721 96.8308 25.0985L90.5289 43.4948C90.3949 43.8858 89.8852 44.0818 88.9997 44.0818H88.5363C87.4344 44.0818 86.8836 43.8858 86.8836 43.4948H86.8836Z" fill="white"/>
<path d="M99.475 43.858C99.2071 43.7084 99.0734 43.4842 99.0734 43.1859V28.8827C99.0734 28.0592 99.0502 27.4132 99.0039 26.9441C98.9575 26.4758 98.8982 26.0252 98.8263 25.5928C98.7746 25.3147 98.749 25.1192 98.749 25.0058C98.749 24.8002 98.9395 24.6329 99.3205 24.5036C99.7014 24.3752 100.137 24.2798 100.626 24.2181C101.115 24.1563 101.509 24.1254 101.807 24.1254C102.137 24.1254 102.366 24.2467 102.495 24.4886C102.623 24.7304 102.739 25.0782 102.842 25.531L102.919 25.8862C103.238 25.279 103.725 24.7847 104.379 24.4034C105.033 24.0226 105.772 23.8319 106.596 23.8319C107.594 23.8319 108.48 24.1205 109.252 24.6969C110.025 25.2737 110.629 26.1206 111.067 27.238C111.505 28.3554 111.724 29.6914 111.724 31.2462C111.724 32.7396 111.497 34.0419 111.044 35.154C110.591 36.2661 109.932 37.1262 109.067 37.7335C108.202 38.3412 107.162 38.6448 105.947 38.6448C104.907 38.6448 103.964 38.3566 103.12 37.7798V43.1859C103.12 43.4842 102.989 43.7084 102.726 43.858C102.464 44.0067 102.049 44.0818 101.483 44.0818H100.726C100.16 44.0818 99.7426 44.0067 99.475 43.858L99.475 43.858ZM107.6 31.2462C107.6 28.5173 106.863 27.1528 105.391 27.1528C104.526 27.1528 103.769 27.6934 103.12 28.7746V34.8914C103.759 35.2418 104.402 35.4166 105.051 35.4166C106.75 35.4166 107.6 34.0265 107.6 31.2462V31.2462Z" fill="white"/>
<path d="M116.152 37.5402C115.467 36.8046 115.125 35.6845 115.125 34.181V27.261H114.693C114.404 27.261 114.196 27.1528 114.067 26.9366C113.938 26.7204 113.874 26.3704 113.874 25.8863V25.4229C113.874 24.9392 113.938 24.5888 114.067 24.3726C114.196 24.1563 114.404 24.0482 114.693 24.0482H115.125L115.48 21.4378C115.562 20.8615 116.057 20.5729 116.963 20.5729H117.828C118.302 20.5729 118.649 20.6453 118.871 20.7891C119.092 20.9334 119.203 21.1497 119.203 21.4379V24.0482H120.547C120.835 24.0482 121.043 24.1563 121.172 24.3726C121.301 24.5888 121.365 24.9392 121.365 25.4229V25.8863C121.365 26.3704 121.301 26.7204 121.172 26.9366C121.043 27.1529 120.835 27.261 120.547 27.261H119.203V34.2273C119.203 34.6497 119.277 34.9533 119.427 35.1386C119.576 35.324 119.826 35.4167 120.176 35.4167C120.279 35.4167 120.418 35.399 120.593 35.3628C120.768 35.3266 120.876 35.3085 120.917 35.3085C121.082 35.3085 121.228 35.4453 121.357 35.7176C121.486 35.9908 121.589 36.2922 121.666 36.6214C121.744 36.9511 121.782 37.1726 121.782 37.2856C121.782 38.1921 120.902 38.6449 119.141 38.6449C117.833 38.6449 116.837 38.2768 116.152 37.5402H116.152Z" fill="white"/>
<path d="M125.407 36.7295C124.269 35.4528 123.7 33.6147 123.7 31.2153C123.7 28.8262 124.269 26.9983 125.407 25.7318C126.545 24.4652 128.2 23.8319 130.373 23.8319C132.546 23.8319 134.196 24.463 135.323 25.7243C136.451 26.9855 137.015 28.8161 137.015 31.2153C137.015 33.6147 136.451 35.4528 135.323 36.7295C134.196 38.0067 132.546 38.6448 130.373 38.6448C128.2 38.6448 126.545 38.0067 125.407 36.7295ZM132.281 34.3663C132.687 33.6663 132.891 32.616 132.891 31.2153C132.891 29.8252 132.687 28.7799 132.281 28.0795C131.873 27.3796 131.238 27.0292 130.373 27.0292C128.663 27.0292 127.809 28.4247 127.809 31.2153C127.809 32.6054 128.018 33.6535 128.435 34.3583C128.852 35.064 129.497 35.4166 130.373 35.4166C131.238 35.4166 131.873 35.0666 132.281 34.3663V34.3663Z" fill="white"/>
<path d="M151.695 38.3285C151.437 38.2411 151.278 38.0941 151.216 37.888L145.285 20.2331C145.202 19.9859 145.161 19.8213 145.161 19.7388C145.161 19.3271 145.722 19.121 146.845 19.121H147.741C148.657 19.121 149.197 19.3941 149.362 19.9396L153.069 31.8178L153.378 32.7754H153.487L153.795 31.8178L157.595 19.9396C157.78 19.3941 158.326 19.121 159.232 19.121H160.066C161.168 19.121 161.719 19.3271 161.719 19.7388C161.719 19.9242 161.688 20.0892 161.627 20.2331L155.695 37.888C155.633 38.0941 155.472 38.2411 155.209 38.3285C154.946 38.4154 154.599 38.4595 154.166 38.4595H152.745C152.302 38.4595 151.952 38.4154 151.695 38.3285V38.3285Z" fill="white"/>
<path d="M163.414 37.5402C162.759 36.8045 162.433 35.8288 162.433 34.6134C162.433 33.6972 162.623 32.8707 163.004 32.1341C163.385 31.3984 164.157 30.7779 165.321 30.2731C166.484 29.7687 168.148 29.516 170.31 29.516V28.6047C170.31 28.0694 170.14 27.6731 169.8 27.4154C169.461 27.1581 168.92 27.0292 168.179 27.0292C167.561 27.0292 167.03 27.0937 166.588 27.2221C166.144 27.3514 165.666 27.5235 165.151 27.7397C164.883 27.8633 164.719 27.9251 164.657 27.9251C164.471 27.9251 164.268 27.7861 164.046 27.508C163.825 27.23 163.632 26.911 163.467 26.5504C163.302 26.1903 163.22 25.9171 163.22 25.7318C163.22 25.4127 163.449 25.1064 163.908 24.8125C164.366 24.5195 164.997 24.2825 165.8 24.102C166.603 23.9224 167.494 23.8319 168.472 23.8319C170.531 23.8319 172.029 24.2414 172.967 25.0596C173.904 25.8787 174.372 26.9983 174.372 28.4194V33.5631C174.372 34.4179 174.395 35.0821 174.442 35.5556C174.488 36.0296 174.552 36.4978 174.635 36.9612C174.686 37.2392 174.712 37.4352 174.712 37.5481C174.712 37.7542 174.519 37.9241 174.133 38.0579C173.747 38.192 173.307 38.2895 172.812 38.3513C172.318 38.4131 171.921 38.444 171.623 38.444C171.303 38.444 171.075 38.3076 170.935 38.0345C170.797 37.7622 170.686 37.3888 170.604 36.9148C170.593 36.8531 170.583 36.7913 170.573 36.7295C170.562 36.6677 170.547 36.6059 170.526 36.5441C170.423 36.7401 170.204 37.0027 169.87 37.3319C169.535 37.6615 169.079 37.963 168.503 38.2357C167.926 38.508 167.257 38.6448 166.495 38.6448C165.094 38.6448 164.067 38.2767 163.414 37.5402L163.414 37.5402ZM169.291 34.9303C169.743 34.6055 170.083 34.1915 170.31 33.6866V32.1729C167.746 32.1729 166.464 32.8477 166.464 34.1964C166.464 34.5569 166.585 34.8504 166.827 35.0768C167.069 35.3036 167.406 35.4166 167.839 35.4166C168.353 35.4166 168.837 35.2542 169.291 34.9303Z" fill="white"/>
<path d="M179.125 37.5403C178.44 36.8046 178.098 35.6846 178.098 34.181V18.5958C178.098 17.9987 178.648 17.7 179.75 17.7H180.523C181.089 17.7 181.504 17.775 181.766 17.9237C182.029 18.0733 182.16 18.2975 182.16 18.5958V34.2273C182.16 34.6497 182.237 34.9533 182.392 35.1386C182.546 35.324 182.803 35.4167 183.164 35.4167C183.257 35.4167 183.396 35.3964 183.581 35.3549C183.632 35.3447 183.684 35.3346 183.735 35.324C183.787 35.3138 183.844 35.3085 183.905 35.3085C184.06 35.3085 184.201 35.4454 184.33 35.7176C184.459 35.9908 184.559 36.2949 184.631 36.6294C184.703 36.9639 184.739 37.1828 184.739 37.2856C184.739 38.1921 183.864 38.6449 182.114 38.6449C180.806 38.6449 179.81 38.2768 179.125 37.5403V37.5403Z" fill="white"/>
<path d="M187.422 37.5403C186.737 36.8046 186.395 35.6846 186.395 34.181V18.5958C186.395 17.9987 186.946 17.7 188.048 17.7H188.82C189.386 17.7 189.801 17.775 190.063 17.9237C190.326 18.0733 190.457 18.2975 190.457 18.5958V34.2273C190.457 34.6497 190.535 34.9533 190.689 35.1386C190.843 35.324 191.101 35.4167 191.461 35.4167C191.554 35.4167 191.693 35.3964 191.878 35.3549C191.93 35.3447 191.981 35.3346 192.033 35.324C192.084 35.3138 192.141 35.3085 192.203 35.3085C192.357 35.3085 192.498 35.4454 192.627 35.7176C192.756 35.9908 192.856 36.2949 192.929 36.6294C193.001 36.9639 193.037 37.1828 193.037 37.2856C193.037 38.1921 192.161 38.6449 190.411 38.6449C189.103 38.6449 188.107 38.2768 187.422 37.5403V37.5403Z" fill="white"/>
<path d="M195.897 36.7061C194.712 35.4144 194.121 33.62 194.121 31.3234C194.121 28.7389 194.712 26.8439 195.897 25.6391C197.081 24.4343 198.713 23.8319 200.793 23.8319C202.173 23.8319 203.303 24.1461 204.184 24.7741C205.064 25.4025 205.707 26.2468 206.114 27.3072C206.521 28.3682 206.725 29.5677 206.725 30.9064C206.725 31.0608 206.634 31.2669 206.454 31.5242C206.274 31.7819 206.07 32.0136 205.844 32.2193C205.617 32.4254 205.442 32.5282 205.319 32.5282H198.322C198.415 33.5785 198.726 34.3226 199.256 34.7599C199.787 35.1981 200.525 35.4166 201.473 35.4166C201.987 35.4166 202.454 35.3575 202.871 35.2392C203.288 35.1209 203.733 34.9638 204.207 34.7679C204.495 34.6341 204.69 34.5671 204.794 34.5671C204.979 34.5671 205.182 34.6981 205.404 34.9612C205.625 35.2233 205.815 35.5247 205.976 35.8645C206.135 36.2043 206.215 36.4669 206.215 36.6523C206.215 37.0746 205.929 37.4352 205.358 37.7335C204.786 38.0323 204.111 38.2586 203.334 38.4131C202.556 38.5676 201.874 38.6448 201.288 38.6448C198.878 38.6448 197.081 37.9987 195.897 36.7061V36.7061ZM202.77 29.8252C202.77 28.9807 202.605 28.3033 202.276 27.794C201.946 27.2839 201.452 27.0292 200.793 27.0292C199.434 27.0292 198.61 27.9613 198.322 29.8252H202.77Z" fill="white"/>
<path d="M210.976 43.4948C210.976 43.3404 211.012 43.1753 211.084 43.0006L212.829 38.4131L208.288 25.0985C208.278 25.0367 208.257 24.952 208.227 24.8434C208.196 24.7357 208.18 24.6559 208.18 24.6042C208.18 24.3986 208.314 24.2468 208.582 24.1488C208.849 24.0508 209.272 24.0018 209.848 24.0018H210.744C211.177 24.0018 211.524 24.046 211.787 24.1329C212.05 24.2207 212.212 24.3677 212.273 24.5733L213.88 29.6398C213.983 29.9593 214.111 30.4717 214.266 31.1765C214.42 31.8821 214.513 32.3018 214.544 32.4355L214.652 32.9607H214.776C214.786 32.8888 214.811 32.7806 214.853 32.6363C215.193 30.9889 215.424 29.9902 215.548 29.6398L217.154 24.5733C217.226 24.3571 217.394 24.2079 217.656 24.1254C217.919 24.0433 218.266 24.0018 218.699 24.0018H219.363C219.929 24.0018 220.344 24.0508 220.607 24.1488C220.869 24.2468 221 24.3986 221 24.6042C221 24.7075 220.974 24.8721 220.923 25.0985L214.621 43.4948C214.487 43.8858 213.977 44.0818 213.092 44.0818H212.629C211.527 44.0818 210.976 43.8858 210.976 43.4948V43.4948Z" fill="white"/>
<path d="M26.8216 34.7761C25.5551 35.9468 23.878 36.6576 22.0172 36.6585C20.0587 36.6577 18.3018 35.8697 17.0164 34.5872C15.7339 33.3018 14.946 31.5449 14.9451 29.5865C14.946 27.628 15.7339 25.8711 17.0164 24.5858C18.3018 23.3033 20.0587 22.5153 22.0172 22.5144C23.9623 22.5153 25.7084 23.2925 26.9916 24.5596L29.462 22.0634C27.5553 20.1737 24.9143 19.0016 22.0172 19.0024C19.1 19.0016 16.4429 20.1898 14.5331 22.1024C12.6205 24.0122 11.4322 26.6693 11.4331 29.5865C11.4322 32.5036 12.6205 35.1607 14.5331 37.0705C16.4429 38.9831 19.1 40.1714 22.0172 40.1705C24.7876 40.1714 27.3254 39.0991 29.2082 37.3525L26.8216 34.7761L26.8216 34.7761V34.7761Z" fill="white"/>
<path d="M4.51907 29.5233C4.51957 27.4098 4.90346 25.3911 5.60186 23.5264L1.64662 21.2428C0.587417 23.7954 -0.000523849 26.593 3.59609e-07 29.5233C-0.000632307 33.0112 0.833556 36.31 2.30421 39.2317L6.22133 36.9702C5.13095 34.7207 4.51971 32.1971 4.51907 29.5233Z" fill="white"/>
<path d="M23.6553 12.5454C27.567 13.0084 31.0647 14.7831 33.7149 17.4301C34.4746 18.1907 35.1617 19.0219 35.7679 19.9117L39.6876 17.6486C38.8768 16.417 37.9478 15.2712 36.9104 14.2347C33.454 10.7752 28.8107 8.48193 23.6553 8.00012V12.5454Z" fill="white"/>
<path d="M38.7238 29.5233C38.7231 32.1971 38.1119 34.7207 37.0215 36.9702L40.9386 39.2317C42.4093 36.31 43.2435 33.0112 43.2428 29.5233C43.2434 26.593 42.6554 23.7954 41.5962 21.2428L37.6409 23.5263C38.3393 25.3911 38.7233 27.4098 38.7238 29.5233V29.5233Z" fill="white"/>
<path d="M7.47492 19.9116C8.08109 19.0218 8.76819 18.1907 9.52791 17.4301C12.178 14.783 15.6758 13.0083 19.5875 12.5454V8C14.4318 8.48161 9.789 10.7749 6.33241 14.2346C5.295 15.2711 4.36592 16.417 3.55518 17.6486L7.47492 19.9116Z" fill="white"/>
<path d="M19.5877 46.5012C15.676 46.0383 12.1783 44.2636 9.52815 41.6165C9.13977 41.2277 8.77017 40.8206 8.42057 40.3967L4.46729 42.6791C5.04386 43.43 5.66473 44.1447 6.33266 44.812C9.78902 48.2715 14.4323 50.5647 19.5877 51.0465V46.5012H19.5877Z" fill="white"/>
<path d="M34.8224 40.3967C34.4728 40.8206 34.1032 41.2277 33.7149 41.6165C31.0647 44.2636 27.567 46.0383 23.6553 46.5012V51.0465C28.811 50.5648 33.4538 48.2717 36.9104 44.812C37.5783 44.1447 38.1991 43.43 38.7757 42.6791L34.8224 40.3967H34.8224Z" fill="white"/>
</g>
<defs>
<clipPath id="clip0_615_51">
<rect width="221" height="60" fill="white"/>
</clipPath>
</defs>
</svg>
