<?xml version="1.0" encoding="utf-8"?>
<!-- Generator: Adobe Illustrator 27.0.1, SVG Export Plug-In . SVG Version: 6.00 Build 0)  -->
<svg version="1.1" id="Layer_1" xmlns="http://www.w3.org/2000/svg" xmlns:xlink="http://www.w3.org/1999/xlink" x="0px" y="0px"
	 viewBox="0 0 973 314.6" style="enable-background:new 0 0 973 314.6;" xml:space="preserve">
<style type="text/css">
	.st0{display:none;}
	.st1{enable-background:new    ;}
	.st2{fill:#FFFFFF;}
</style>
<g id="Layer_2_00000069399281715646359180000011710754494863142797_" class="st0">
	
		<image style="display:inline;overflow:visible;enable-background:new    ;" width="1280" height="414" xlink:href="IMAGE 2022-12-12 10:01:06.jpg"  transform="matrix(0.7599 0 0 0.7599 1.8826 1.537890e-05)">
	</image>
</g>
<g id="Layer_1_00000152946681731917130120000017277789935543018113_">
	<g class="st1">
		<path class="st2" d="M58,254.6H34.4l-6.8-11.3H58c2.7,0,5.2-0.5,7.4-1.4c2.2-0.9,4.2-2.4,6.2-4.4l0,0c1.9-1.9,3.4-4,4.3-6.2
			s1.4-4.6,1.4-7.4c0-4-1-7.5-3.1-10.5c-1.5-2.2-3.4-4.1-5.5-5.5c-3.2-2.1-6.7-3.1-10.5-3.1h-39v24.4H8v-35.7h50
			c5.7,0,10.8,1.4,15.3,4.1c4.6,2.8,8.3,6.5,11,11l0,0c2.7,4.5,4.1,9.5,4.1,15.3c0,3.9-0.6,7.6-1.9,10.9c-1.3,3.3-3.1,6.3-5.3,8.9
			C75,251,67.3,254.6,58,254.6z"/>
	</g>
	<g class="st1">
		<path class="st2" d="M58,254.6H34.4l-6.8-11.3H58c2.7,0,5.2-0.5,7.4-1.4c2.2-0.9,4.2-2.4,6.2-4.4l0,0c1.9-1.9,3.4-4,4.3-6.2
			s1.4-4.6,1.4-7.4c0-4-1-7.5-3.1-10.5c-1.5-2.2-3.4-4.1-5.5-5.5c-3.2-2.1-6.7-3.1-10.5-3.1h-39v24.4H8v-35.7h50
			c5.7,0,10.8,1.4,15.3,4.1c4.6,2.8,8.3,6.5,11,11l0,0c2.7,4.5,4.1,9.5,4.1,15.3c0,3.9-0.6,7.6-1.9,10.9c-1.3,3.3-3.1,6.3-5.3,8.9
			C75,251,67.3,254.6,58,254.6z"/>
	</g>
	<g class="st1">
		<path class="st2" d="M113.5,254.6h-11.2v-61h11.2V254.6z"/>
	</g>
	<g class="st1">
		<path class="st2" d="M113.5,254.6h-11.2v-61h11.2V254.6z"/>
	</g>
	<g class="st1">
		<path class="st2" d="M200.4,254.6h-13.2l-27.9-47L138,243.3h19.3l6.7,11.3h-46.1c15.8-26.5,28-46.9,36.5-61h9.6L200.4,254.6z"/>
		<path class="st2" d="M289.8,254.6h-11.2v-37.8l-21.1,34.9h-8.3l-0.1,0.1l-0.1-0.1h-8.4l-21.1-34.9v37.8h-11.2v-61h10.4l30.4,50.4
			l30.4-50.4h10.4L289.8,254.6L289.8,254.6z"/>
	</g>
	<g class="st1">
		<path class="st2" d="M200.4,254.6h-13.2l-27.9-47L138,243.3h19.3l6.7,11.3h-46.1c15.8-26.5,28-46.9,36.5-61h9.6L200.4,254.6z"/>
		<path class="st2" d="M289.8,254.6h-11.2v-37.8l-21.1,34.9h-8.3l-0.1,0.1l-0.1-0.1h-8.4l-21.1-34.9v37.8h-11.2v-61h10.4l30.4,50.4
			l30.4-50.4h10.4L289.8,254.6L289.8,254.6z"/>
	</g>
	<g class="st1">
		<path class="st2" d="M354.4,254.6h-29.2l-6.7-11.2h35.9c3.4,0,6.1-0.9,8.3-2.7c2.3-1.9,4-4.3,5.1-7.2c1.2-3,1.8-6.2,1.8-9.5
			s-0.6-6.4-1.8-9.4c-1.1-2.9-2.8-5.3-5.1-7.2c-2.2-1.8-4.9-2.7-8.3-2.7h-29.5c-2.1,0-4,0.3-5.6,1s-3.2,1.8-4.7,3.3
			s-2.6,3.1-3.3,4.7c-0.7,1.6-1,3.5-1,5.6v9.8H299v-9.8c0-4.8,1.2-9.1,3.5-13s5.5-7,9.4-9.4c3.9-2.3,8.3-3.5,13-3.5h29.5
			c4.1,0,7.9,0.8,11.2,2.5c3.4,1.6,6.2,4,8.6,7.2c4.3,5.8,6.5,12.7,6.5,20.8s-2.2,15-6.5,20.8c-2.4,3.2-5.2,5.6-8.6,7.3
			C362.3,253.8,358.5,254.6,354.4,254.6z"/>
	</g>
	<g class="st1">
		<path class="st2" d="M354.4,254.6h-29.2l-6.7-11.2h35.9c3.4,0,6.1-0.9,8.3-2.7c2.3-1.9,4-4.3,5.1-7.2c1.2-3,1.8-6.2,1.8-9.5
			s-0.6-6.4-1.8-9.4c-1.1-2.9-2.8-5.3-5.1-7.2c-2.2-1.8-4.9-2.7-8.3-2.7h-29.5c-2.1,0-4,0.3-5.6,1s-3.2,1.8-4.7,3.3
			s-2.6,3.1-3.3,4.7c-0.7,1.6-1,3.5-1,5.6v9.8H299v-9.8c0-4.8,1.2-9.1,3.5-13s5.5-7,9.4-9.4c3.9-2.3,8.3-3.5,13-3.5h29.5
			c4.1,0,7.9,0.8,11.2,2.5c3.4,1.6,6.2,4,8.6,7.2c4.3,5.8,6.5,12.7,6.5,20.8s-2.2,15-6.5,20.8c-2.4,3.2-5.2,5.6-8.6,7.3
			C362.3,253.8,358.5,254.6,354.4,254.6z"/>
	</g>
	<g class="st1">
		<path class="st2" d="M470.9,254.6h-10c-0.4-0.3-18.5-15.2-54.4-44.8v44.8h-11.3v-61h10l54.4,44.9v-44.9h11.3V254.6z"/>
	</g>
	<g class="st1">
		<path class="st2" d="M470.9,254.6h-10c-0.4-0.3-18.5-15.2-54.4-44.8v44.8h-11.3v-61h10l54.4,44.9v-44.9h11.3V254.6z"/>
	</g>
	<g class="st1">
		<path class="st2" d="M539.2,254.6h-23.6l-6.8-11.3h30.4c2.7,0,5.2-0.5,7.4-1.4s4.2-2.4,6.2-4.4l0,0c1.9-1.9,3.4-4,4.3-6.2
			c0.9-2.2,1.4-4.6,1.4-7.4c0-4-1-7.5-3.1-10.5c-1.5-2.2-3.4-4.1-5.5-5.5c-3.2-2.1-6.7-3.1-10.5-3.1h-38.8v24.4h-11.2v-35.7h50.1
			c5.7,0,10.8,1.4,15.3,4.1c4.6,2.8,8.3,6.5,11,11l0,0c2.7,4.5,4.1,9.5,4.1,15.3c0,3.9-0.6,7.6-1.9,10.9c-1.3,3.3-3.1,6.3-5.3,8.9
			C556.1,251,548.4,254.6,539.2,254.6z"/>
	</g>
	<g class="st1">
		<path class="st2" d="M539.2,254.6h-23.6l-6.8-11.3h30.4c2.7,0,5.2-0.5,7.4-1.4s4.2-2.4,6.2-4.4l0,0c1.9-1.9,3.4-4,4.3-6.2
			c0.9-2.2,1.4-4.6,1.4-7.4c0-4-1-7.5-3.1-10.5c-1.5-2.2-3.4-4.1-5.5-5.5c-3.2-2.1-6.7-3.1-10.5-3.1h-38.8v24.4h-11.2v-35.7h50.1
			c5.7,0,10.8,1.4,15.3,4.1c4.6,2.8,8.3,6.5,11,11l0,0c2.7,4.5,4.1,9.5,4.1,15.3c0,3.9-0.6,7.6-1.9,10.9c-1.3,3.3-3.1,6.3-5.3,8.9
			C556.1,251,548.4,254.6,539.2,254.6z"/>
	</g>
	<g class="st1">
		<path class="st2" d="M679.5,254.6h-13.2l-27.9-47L617,243.3h19.3l6.7,11.3h-46.1c15.8-26.5,28-46.9,36.5-61h9.6L679.5,254.6z"/>
	</g>
	<g class="st1">
		<path class="st2" d="M679.5,254.6h-13.2l-27.9-47L617,243.3h19.3l6.7,11.3h-46.1c15.8-26.5,28-46.9,36.5-61h9.6L679.5,254.6z"/>
	</g>
	<g class="st1">
		<path class="st2" d="M700.9,254.6h-11.4v-49.8h-27.6l-6.8-11.3h74.1l6.8,11.3h-35.2L700.9,254.6z"/>
	</g>
	<g class="st1">
		<path class="st2" d="M700.9,254.6h-11.4v-49.8h-27.6l-6.8-11.3h74.1l6.8,11.3h-35.2L700.9,254.6z"/>
	</g>
	<g class="st1">
		<path class="st2" d="M802.7,254.6h-54.6c-0.9,0-1.7-0.2-2.6-0.6c-1.7-0.7-3-1.9-3.7-3.7c-0.4-0.8-0.6-1.7-0.6-2.6l0,0
			c-0.1-18.1-0.1-36.1-0.1-54.2h11.2l0.1,49.8H796L802.7,254.6z"/>
	</g>
	<g class="st1">
		<path class="st2" d="M802.7,254.6h-54.6c-0.9,0-1.7-0.2-2.6-0.6c-1.7-0.7-3-1.9-3.7-3.7c-0.4-0.8-0.6-1.7-0.6-2.6l0,0
			c-0.1-18.1-0.1-36.1-0.1-54.2h11.2l0.1,49.8H796L802.7,254.6z"/>
	</g>
	<g class="st1">
		<path class="st2" d="M886.1,254.6h-13.2l-27.9-47l-21.3,35.7H843l6.7,11.3h-46.1c15.8-26.5,28-46.9,36.5-61h9.6L886.1,254.6z"/>
	</g>
	<g class="st1">
		<path class="st2" d="M886.1,254.6h-13.2l-27.9-47l-21.3,35.7H843l6.7,11.3h-46.1c15.8-26.5,28-46.9,36.5-61h9.6L886.1,254.6z"/>
	</g>
	<g class="st1">
		<path class="st2" d="M954.2,254.6h-60.3l-6.7-11.2h64.4c1.2,0,2.2-0.3,2.9-1c0.8-0.7,1.5-1.7,1.8-2.9c0.3-1,0.5-2.1,0.5-3.1
			c0-1.1-0.2-2.2-0.5-3.3s-0.9-1.9-1.8-2.5c-0.7-0.6-1.7-0.9-3-0.9h-52.9c-2.2,0-4.2-0.6-6-1.7c-1.6-1-3-2.4-4.1-4.2
			c-2.3-3.5-3.4-7.7-3.4-12.4c0-2.4,0.3-4.7,1-6.9c1.2-4.3,3.4-7.4,6.5-9.4c1.7-1,3.7-1.5,5.9-1.5h60.2c2.3,3.7,4.6,7.5,6.9,11.2
			h-64.4c-0.7,0-1.3,0.1-1.7,0.2c-0.4,0.1-0.8,0.4-1.3,0.8c-0.8,0.7-1.4,1.7-1.8,2.9v0.2c-0.4,0.9-0.6,1.9-0.6,2.9
			c0,1.1,0.2,2.1,0.5,3.1l0,0c0.3,1.1,0.9,2,1.7,2.6c0.7,0.6,1.7,0.9,3,0.9h52.9c3.2,0,6,1.2,8.4,3.7c1.9,2.1,3.3,4.7,4.2,7.9
			c0.6,2.3,0.9,4.6,0.9,7c0,2.9-0.5,5.6-1.5,8.2s-2.4,4.8-4.4,6.6C959.7,253.7,957.1,254.6,954.2,254.6z"/>
	</g>
	<g class="st1">
		<path class="st2" d="M954.2,254.6h-60.3l-6.7-11.2h64.4c1.2,0,2.2-0.3,2.9-1c0.8-0.7,1.5-1.7,1.8-2.9c0.3-1,0.5-2.1,0.5-3.1
			c0-1.1-0.2-2.2-0.5-3.3s-0.9-1.9-1.8-2.5c-0.7-0.6-1.7-0.9-3-0.9h-52.9c-2.2,0-4.2-0.6-6-1.7c-1.6-1-3-2.4-4.1-4.2
			c-2.3-3.5-3.4-7.7-3.4-12.4c0-2.4,0.3-4.7,1-6.9c1.2-4.3,3.4-7.4,6.5-9.4c1.7-1,3.7-1.5,5.9-1.5h60.2c2.3,3.7,4.6,7.5,6.9,11.2
			h-64.4c-0.7,0-1.3,0.1-1.7,0.2c-0.4,0.1-0.8,0.4-1.3,0.8c-0.8,0.7-1.4,1.7-1.8,2.9v0.2c-0.4,0.9-0.6,1.9-0.6,2.9
			c0,1.1,0.2,2.1,0.5,3.1l0,0c0.3,1.1,0.9,2,1.7,2.6c0.7,0.6,1.7,0.9,3,0.9h52.9c3.2,0,6,1.2,8.4,3.7c1.9,2.1,3.3,4.7,4.2,7.9
			c0.6,2.3,0.9,4.6,0.9,7c0,2.9-0.5,5.6-1.5,8.2s-2.4,4.8-4.4,6.6C959.7,253.7,957.1,254.6,954.2,254.6z"/>
	</g>
	<g>
		<path class="st2" d="M561.6,45.1C556.1,33.5,548.7,24,539.9,17c-8.5-6.8-19.3-10.5-30.3-10.4H407.7v90.9h13.8V84h-0.3V23h88.3
			c6,0,12,1.5,17.3,4.4c6,3.3,11.1,7.7,15.3,13.3c4.7,6.1,8.2,12.8,10.4,19.8c2.2,7.4,3.3,15.1,3.3,23.1c0.2,10.6-2,21-6.4,30.9
			l-0.4,0.9l8.2,15.2l1.7-3.4c2.8-5.5,5-10.8,6.7-16.5c2.5-8.8,3.8-18,3.7-27.3C569.3,69.2,566.7,56.4,561.6,45.1z"/>
		<path class="st2" d="M536.9,126l-4.3-8.1l-40.5-75.2h-18.3l-40.7,75.5l-22.9,42.3h99.4c1.8,0.1,3.6,0,5.9-0.2l3-0.3l-7.4-13.7
			l-1.1-2.1h-71.4l4.3-8l37.6-69.6l2.6-5l2.6,5l32,59.4l4.6,8.7l12.2,22.8l1.7,3.2H556l-3.1-4.7L536.9,126z"/>
	</g>
	<g class="st1">
		<path class="st2" d="M382.5,310.7h-30.8c-3,0-5.5-0.5-7.4-1.6c-2.1-1.2-3.9-2.7-5.3-4.5c-2.9-3.9-4.4-8.6-4.4-13.9
			c0-5.4,1.4-10.1,4.3-14c1.5-2,3.3-3.5,5.5-4.5c2.1-1,4.5-1.5,7.2-1.5h25l4.4,7.4h-29.2c-1.3,0-2.5,0.2-3.5,0.6s-1.9,1-2.8,1.9
			c-2.5,2.5-3.8,6-3.8,10.4c0,2.8,0.7,5.4,2,7.6c0.8,1.4,1.9,2.6,3.3,3.4c1.4,0.9,3,1.3,4.9,1.3h30.7v7.4H382.5z"/>
	</g>
	<g class="st1">
		<path class="st2" d="M439.5,310.7h-8.7l-18.4-30.9l-14,23.5h12.7l4.4,7.4h-30.3c10.4-17.4,18.4-30.8,24-40.1h6.3L439.5,310.7z"/>
	</g>
	<g class="st1">
		<path class="st2" d="M449.7,310.7h-7.5v-19.8h34.4c1.4,0,2.6-0.3,3.5-0.9s1.6-1.4,2.1-2.4s0.7-2,0.7-3.1s-0.2-2.1-0.7-3.1
			s-1.2-1.8-2.1-2.4s-2.1-0.9-3.5-0.9h-35.1l-4.5-7.5h39.6c3,0,5.6,0.7,7.6,2s3.5,3.1,4.5,5.2s1.5,4.3,1.5,6.5s-0.5,4.4-1.5,6.5
			s-2.5,3.8-4.5,5.2s-4.5,2-7.6,2h-26.9V310.7z"/>
	</g>
	<g class="st1">
		<path class="st2" d="M505.5,310.7h-7.4v-40.1h7.4V310.7z"/>
	</g>
	<g class="st1">
		<path class="st2" d="M538,310.7h-7.5V278h-18.1l-4.4-7.4h48.7l4.4,7.4H538V310.7z"/>
	</g>
	<g class="st1">
		<path class="st2" d="M599.9,310.7h-8.7l-18.4-30.9l-14,23.5h12.7l4.4,7.4h-30.3c10.4-17.4,18.4-30.8,24-40.1h6.3L599.9,310.7z"/>
	</g>
	<g class="st1">
		<path class="st2" d="M642.7,310.7h-35.9c-0.6,0-1.1-0.1-1.7-0.4c-1.1-0.5-1.9-1.3-2.4-2.4c-0.2-0.6-0.4-1.1-0.4-1.7l0,0
			c0-11.9-0.1-23.8-0.1-35.6h7.4l0.1,32.7h28.5L642.7,310.7z"/>
	</g>
</g>
</svg>
