<svg width="154" height="60" viewBox="0 0 154 60" fill="none" xmlns="http://www.w3.org/2000/svg">
<path fill-rule="evenodd" clip-rule="evenodd" d="M21.2575 2.11611C16.6058 2.68783 11.4863 5.07865 7.12049 8.76883C6.23692 9.49647 4.39183 11.2896 4.39183 11.3935C4.39183 11.4455 5.2754 12.381 6.36686 13.4725L8.34188 15.4735L7.51029 16.4091C4.44381 19.8654 2.36483 23.3736 1.11745 27.0898C0.337832 29.4286 0 31.3517 0 33.5086C0 35.4577 0.259871 37.0429 0.857576 38.5761L1.09146 39.1998L6.8866 44.995C11.7202 49.8286 12.8117 50.8681 13.4094 51.2579C14.6568 52.0895 16.112 52.6612 17.7233 52.999C18.7887 53.2329 21.2575 53.3109 22.4269 53.1549C27.0526 52.5832 31.8343 50.4003 36.0182 46.918C37.1097 46.0085 38.9548 44.2673 38.9548 44.1634C38.9548 44.1114 38.0452 43.1759 36.9538 42.0584L34.9528 40.0314L35.5764 39.3817C37.1097 37.7705 38.9808 35.1978 40.0722 33.1708C41.6315 30.3382 42.645 27.2717 42.9828 24.4651C43.1127 23.2437 43.0348 20.645 42.8269 19.6575C42.463 17.9943 41.8913 16.6429 41.0337 15.3436C40.592 14.6679 39.7084 13.7584 34.8228 8.8468L29.1056 3.12962L28.5079 2.89573C27.7023 2.5579 26.0391 2.16809 25.0256 2.06414C24.0121 1.96019 22.4269 1.98618 21.2575 2.11611ZM26.1691 3.64936C26.5849 3.75331 27.2605 3.90923 27.6244 4.03917C28.3 4.27305 28.326 4.27305 29.3915 5.33853C30.327 6.27407 30.457 6.404 30.2231 6.37801C28.9757 6.14413 26.9747 6.09215 25.4155 6.30005C20.4259 6.92374 15.2805 9.4445 10.5508 13.6024C10.083 14.0182 9.66723 14.3821 9.58927 14.434C9.51131 14.486 9.09551 14.1482 7.87411 12.9268L6.26291 11.3156L7.3024 10.406C11.6423 6.6119 16.4239 4.22108 21.1016 3.54541C22.349 3.3635 25.1296 3.44146 26.1691 3.64936ZM32.9777 11.9133C35.2646 12.2511 37.2656 13.2386 38.7469 14.7199C40.2022 16.1752 41.1377 18.0463 41.5795 20.3851C41.7614 21.4246 41.7614 23.7634 41.5795 24.9848C40.9818 28.753 39.2406 32.6251 36.538 36.1593C35.9143 36.9909 34.433 38.732 34.1991 38.914C34.0692 39.0179 33.9133 38.888 32.5619 37.5366C31.7303 36.7051 31.0547 36.0034 31.0547 35.9774C31.0547 35.9514 31.2886 35.6656 31.5744 35.3537C36.2781 30.1563 38.487 23.6595 36.9278 19.6315C36.3041 18.0722 35.0047 16.9028 33.3156 16.3831C32.458 16.1232 30.9507 15.9933 29.8333 16.1232C28.1181 16.2791 26.0132 16.9548 23.9862 17.9423C21.9592 18.9298 20.1141 20.1772 18.321 21.7884L17.5154 22.4901L15.9821 20.9568L14.4489 19.4236L15.0985 18.8259C19.0746 15.1097 24.35 12.459 28.8718 11.8613C29.7813 11.7833 32.1201 11.7833 32.9777 11.9133ZM11.4863 20.8789C10.9146 21.5285 10.187 22.4381 9.82315 22.9059C5.50928 28.649 3.53426 34.8859 4.33986 40.2653L4.39183 40.6031L3.32636 39.5636C2.31286 38.5761 2.26088 38.4982 2.05299 37.8745C0.0259875 32.0533 2.57273 24.0233 8.57577 17.2926L9.27742 16.513L10.8886 18.1242L12.4998 19.7354L11.4863 20.8789ZM31.7823 17.5525L31.9902 17.6045L31.9382 18.6959C31.8863 19.9953 31.7044 21.0608 31.4445 21.9703C30.6129 24.699 29.0796 27.4276 26.8448 30.0004L25.9872 30.9879L24.35 29.3507L22.7128 27.7135L23.4664 26.8819C25.0776 25.1148 26.5589 23.0618 27.4684 21.3206C27.9622 20.3851 28.6119 18.7999 28.7938 18.0722C28.8977 17.6305 28.8977 17.6305 29.2875 17.5785C29.4954 17.5525 29.7293 17.5265 29.8073 17.5005C30.0152 17.5005 31.6004 17.5005 31.7823 17.5525ZM27.1306 18.6959C26.7668 19.7094 25.9612 21.2687 25.1816 22.4381C24.324 23.7374 23.7263 24.5171 22.5309 25.8684L21.6993 26.8299L20.0621 25.1927L18.4249 23.5555L18.9706 23.0618C20.6598 21.5545 22.6348 20.2032 24.4539 19.2677C25.4414 18.7739 27.0526 18.1242 27.2865 18.0982C27.3125 18.0982 27.2605 18.3581 27.1306 18.6959ZM52.0263 19.6834C51.9484 19.7614 51.9224 21.9183 51.9224 29.8184C51.9224 39.4337 51.9224 39.8495 52.0783 39.9794C52.2082 40.1094 52.624 40.1094 56.1323 40.1094C58.2632 40.1094 60.5761 40.0574 61.2518 40.0314C63.9804 39.8495 66.0854 38.9659 67.6966 37.3547C68.97 36.0814 69.7756 34.3142 70.1914 31.9754C70.3733 30.8319 70.3733 28.4411 70.1914 27.3237C69.5157 23.5555 67.3588 21.1127 63.9025 20.1252C62.2133 19.6575 62.0834 19.6315 56.9379 19.6055C53.1178 19.6055 52.1043 19.6055 52.0263 19.6834ZM146.646 20.0213C146.568 20.0992 146.542 20.7489 146.542 22.4121V24.699H145.554C144.904 24.699 144.541 24.725 144.463 24.8029C144.333 24.9329 144.333 27.6355 144.463 27.7914C144.541 27.8694 144.904 27.8954 145.554 27.8954H146.542L146.568 32.5211C146.594 37.0429 146.594 37.1728 146.776 37.6926C147.269 39.1219 148.283 39.9015 149.92 40.1094C151.037 40.2393 152.623 40.1873 153.714 39.9794L153.948 39.9275L153.922 38.0304L153.896 36.1333L152.857 36.0814C151.739 36.0294 151.557 35.9774 151.427 35.7435C151.375 35.6396 151.349 34.0803 151.349 31.7675V27.9474L152.675 27.9214L154 27.8954V26.3102V24.725L152.675 24.699L151.349 24.673V22.4381C151.349 21.0608 151.323 20.1512 151.271 20.0473C151.193 19.8913 151.063 19.8913 148.984 19.8913C147.347 19.9433 146.724 19.9693 146.646 20.0213ZM61.5896 24.4131C63.1748 24.8289 64.2143 25.9464 64.6301 27.5836C64.942 28.8309 64.942 30.9099 64.6041 32.2093C64.2663 33.4826 63.4867 34.4961 62.4472 34.9899C61.5376 35.4317 60.9919 35.5096 59.1208 35.5616L57.4317 35.6136V29.8964V24.1792L59.2508 24.2312C60.5761 24.2572 61.2258 24.3092 61.5896 24.4131ZM77.4678 24.5171C74.8691 24.9848 72.868 26.7 71.9845 29.1948C70.8151 32.4691 71.3868 36.2113 73.3618 38.3163C74.4013 39.4077 75.3888 39.9794 76.896 40.3692C79.7806 41.0969 82.8731 40.3433 84.9261 38.4202C85.4198 37.9784 86.6932 36.3672 86.6932 36.2113C86.6932 36.0294 86.3294 35.7955 84.8481 35.0419C83.9386 34.5741 83.1849 34.1843 83.159 34.1843C83.133 34.1843 82.9771 34.4182 82.8211 34.704C82.4573 35.4057 81.7037 36.1853 81.158 36.4712C79.5208 37.2768 77.5977 36.809 76.7661 35.4057C76.5322 34.9899 76.2983 34.2623 76.2983 33.8724V33.5866H81.4958C85.4198 33.5866 86.6932 33.5606 86.7712 33.4826C86.9011 33.3527 86.9011 32.3132 86.7452 31.2737C86.3294 28.4931 85.16 26.4921 83.2889 25.3746C82.6652 25.0108 81.4698 24.595 80.6902 24.4651C79.9106 24.3352 78.2474 24.3611 77.4678 24.5171ZM94.5413 24.4131C93.8137 24.5171 93.216 24.647 92.7482 24.8029C90.1235 25.6345 88.3824 27.7914 87.8367 30.8579C87.6288 32.0274 87.7067 33.8984 87.9926 35.0159C88.3824 36.5231 88.9541 37.5107 89.9936 38.4982C90.9031 39.3557 91.9686 39.9534 93.3979 40.3433C93.8137 40.4732 94.2295 40.4992 95.295 40.4992C96.5164 40.4992 96.6983 40.4732 97.3739 40.2653C98.7253 39.8495 99.7648 39.2258 100.7 38.2383C101.324 37.5886 102.026 36.6271 102.026 36.4192C102.026 36.3412 101.896 36.2113 101.766 36.1073C101.22 35.7695 98.6993 34.5221 98.5694 34.5221C98.4914 34.5221 98.3615 34.704 98.2315 34.9639C97.9197 35.6396 97.5039 36.0814 96.8542 36.3932C96.3604 36.6271 96.2045 36.6791 95.6588 36.6531C94.9312 36.6531 94.4634 36.4712 93.8657 35.9514C92.3064 34.5741 92.2025 30.754 93.6838 29.0128C94.6193 27.9214 96.3604 27.9214 97.4779 28.9869C97.6598 29.1688 97.9197 29.5066 98.0496 29.7405C98.1796 29.9744 98.3355 30.1823 98.4134 30.1823C98.5953 30.2342 101.792 28.3892 101.844 28.2072C101.87 28.0513 101.532 27.5316 101.038 26.9079C100.233 25.9204 98.6473 24.9588 97.27 24.647C96.5683 24.4651 95.0611 24.3611 94.5413 24.4131ZM136.225 24.595C135.367 24.751 134.588 25.0628 133.964 25.5306L133.47 25.8944L133.444 25.3746L133.418 24.8549L131.417 24.8289C129.65 24.8029 129.39 24.8289 129.26 24.9588C129.104 25.0888 129.104 25.4786 129.104 35.0938C129.104 42.7601 129.13 45.0989 129.208 45.1769C129.364 45.3328 133.73 45.3328 133.86 45.1769C133.938 45.0989 133.964 44.3193 133.964 42.2143V39.3557L134.769 39.7715C135.861 40.3173 136.537 40.4472 137.81 40.3952C139.291 40.3173 140.175 40.0314 141.136 39.3038C142.488 38.2903 143.371 36.731 143.865 34.5741C144.125 33.4307 144.125 31.4296 143.865 30.2083C143.527 28.597 142.981 27.5056 141.994 26.4661C140.539 24.8549 138.408 24.2052 136.225 24.595ZM19.0226 26.1283C20.4259 27.5316 20.5039 27.6355 20.3999 27.7914C20.322 27.8694 19.9841 28.2592 19.6203 28.675C18.165 30.3382 16.8137 32.3652 15.9042 34.2363C15.2545 35.5616 14.8647 36.6531 14.4749 38.1343C13.9811 40.0834 13.9811 42.2403 14.5268 43.7476C15.5403 46.6062 18.217 47.9575 21.9592 47.5157C25.5714 47.0739 29.7293 44.995 33.2896 41.8505L34.0432 41.1748L35.5764 42.7081L37.1097 44.2413L36.46 44.839C33.1336 47.9315 28.6898 50.4523 24.8437 51.3878C23.2845 51.7776 22.193 51.9075 20.7118 51.9075C18.7368 51.9075 17.2815 51.6477 15.7482 50.972C13.7732 50.1144 11.9541 48.4253 11.0186 46.5542C9.84914 44.2413 9.51131 41.3827 10.031 38.2903C10.7587 33.9764 13.1755 29.3507 16.7357 25.3746C17.0996 24.9588 17.4374 24.621 17.4634 24.621C17.4894 24.621 18.191 25.2967 19.0226 26.1283ZM111.485 24.725C110.471 24.8809 109.198 25.3487 108.367 25.8944L108.107 26.0763V25.5306C108.107 25.2187 108.055 24.9588 108.003 24.8809C107.925 24.8029 107.327 24.7769 105.794 24.7769C103.871 24.7769 103.663 24.7769 103.559 24.9329C103.429 25.0628 103.429 25.7125 103.429 32.4691C103.429 39.5117 103.429 39.8495 103.585 39.9794C103.715 40.1094 104.001 40.1094 105.872 40.1094C107.535 40.1094 108.029 40.0834 108.107 40.0054C108.159 39.9275 108.211 38.3942 108.211 35.2498C108.237 30.8839 108.237 30.5721 108.393 30.2862C108.704 29.6625 109.25 29.4027 110.835 29.1428C111.433 29.0388 112.031 28.9349 112.161 28.9089L112.395 28.8569V26.8299C112.395 24.8029 112.369 24.569 112.109 24.621C112.005 24.647 111.745 24.673 111.485 24.725ZM113.616 24.9069C113.564 24.9848 113.538 25.1148 113.564 25.2447C113.59 25.3487 114.292 27.6355 115.123 30.2862C118.45 40.9929 118.268 40.3692 118.034 40.785C117.826 41.2008 117.462 41.2788 116.163 41.2788C115.357 41.2788 114.941 41.3048 114.889 41.3827C114.811 41.4607 114.785 41.9804 114.785 43.2538C114.785 44.5272 114.811 45.0469 114.889 45.1249C115.019 45.2548 118.32 45.2548 119.177 45.1509C120.606 44.943 121.776 43.9295 122.452 42.3183C122.607 41.9804 123.933 37.9524 125.414 33.3787C127.675 26.4661 128.117 25.0368 128.013 24.9329C127.935 24.8289 127.545 24.8029 125.492 24.8029H123.075L122.997 25.1667C122.945 25.3746 122.452 27.5316 121.88 30.0004C121.308 32.4691 120.84 34.5221 120.788 34.5481C120.762 34.5741 120.217 32.3912 119.619 29.7145L118.502 24.8029H116.085C114.084 24.8029 113.694 24.8029 113.616 24.9069ZM80.4303 28.1553C81.2099 28.5191 81.7297 29.2207 81.8856 30.0783L81.9376 30.3902H79.1569H76.3763L76.4283 30.1303C76.5322 29.6625 76.974 28.9089 77.3378 28.5971C77.9615 28.0513 78.5073 27.8694 79.3648 27.9214C79.7806 27.9474 80.0925 28.0253 80.4303 28.1553ZM137.784 28.2852C138.512 28.675 139.057 29.4806 139.317 30.5721C139.499 31.3777 139.499 33.3007 139.291 34.1063C139.109 34.808 138.746 35.5356 138.356 36.0294C137.732 36.783 136.511 36.9909 135.523 36.4972C134.38 35.9254 133.834 34.6521 133.834 32.5211C133.834 30.5461 134.354 29.1428 135.315 28.4411C136.069 27.9214 136.978 27.8694 137.784 28.2852ZM24.1161 32.4951C21.9851 34.4961 19.2565 36.2893 16.9956 37.1988C16.5278 37.3807 16.112 37.5366 16.0861 37.5366C16.0601 37.5366 16.164 37.2508 16.294 36.887C17.2815 34.1583 18.9966 31.3777 21.0496 29.1688L21.5434 28.649L23.1806 30.2602L24.8178 31.8714L24.1161 32.4951ZM27.3905 34.5221L28.9757 36.1073L28.4819 36.5751C25.8832 39.0179 21.8812 41.2268 19.0486 41.8245C18.3469 41.9804 16.7877 42.1364 16.0341 42.1364H15.5403V40.941C15.5403 40.2913 15.5663 39.5896 15.5923 39.4337L15.6443 39.1219L16.6578 38.784C19.2305 37.9524 22.5049 35.8994 24.9217 33.6126C25.3115 33.2488 25.6753 32.9369 25.7273 32.9369C25.7793 32.9369 26.5329 33.6386 27.3905 34.5221Z" fill="white"/>
</svg>
