<svg width="96" height="96" viewBox="0 0 96 96" fill="none" xmlns="http://www.w3.org/2000/svg">
<path d="M77.5 78.5V83.5" stroke="#1B2B38" stroke-linecap="square"/>
<path d="M80.5 78.5V83.5" stroke="#1B2B38" stroke-linecap="square"/>
<path d="M83.5 78.5L83.5 83.5" stroke="#1B2B38" stroke-linecap="square"/>
<rect x="12" y="12" width="5" height="5" fill="#1B2B38"/>
<circle cx="48" cy="48" r="32.5" stroke="#3C5061" stroke-linejoin="bevel" stroke-dasharray="2 2"/>
<circle cx="48" cy="48" r="23.5" stroke="#1B2B38" stroke-linejoin="bevel"/>
<path d="M25 24C25 21.2386 27.2386 19 30 19H71V69H67.0001V77H72.0001H29C26.7909 77 25 75.2091 25 73V24Z" fill="#111B24"/>
<path d="M25 24C25 21.2386 27.2386 19 30 19H71V69H67.0001V77H72.0001H29C26.7909 77 25 75.2091 25 73V24Z" fill="#00EAC7" fill-opacity="0.06"/>
<path d="M25 24C25 21.2386 27.2386 19 30 19H71V69H67.0001V77H72.0001H29C26.7909 77 25 75.2091 25 73V24Z" stroke="#00FFD9" stroke-width="2" stroke-linejoin="bevel"/>
<path d="M63.5 83.5V72.5H53.5V83.5L58.5 80.5L63.5 83.5Z" fill="#111B24" stroke="white" stroke-linejoin="bevel"/>
<path d="M55.5 72.5V79.5L58.5 77.5L61.5 79.5V72.5" stroke="white" stroke-linejoin="bevel"/>
<path d="M66 72.5H29.5" stroke="#00FFD9"/>
<path d="M25.5 72V72C25.5 70.067 27.067 68.5 29 68.5H67" stroke="#00FFD9"/>
<path d="M42.5 41.5H50.5V55.5H52.5V57.5H42.5L42.5 55.5H44.5V44.1116L42.5 43V41.5Z" stroke="#00FFD9"/>
<circle cx="47.5" cy="34.5" r="3.5" stroke="#00FFD9"/>
</svg>
