<svg width="776" height="195" viewBox="0 0 776 195" fill="none" xmlns="http://www.w3.org/2000/svg">
<path d="M725.237 15.7151C727.142 12.4155 725.248 9.93629 723.242 7.53098L726.692 1.5554C727.778 2.49423 728.267 3.74669 728.037 5.34573L730.723 5.37258C731.014 2.76912 729.933 0.620962 728.057 -0.808846L729.392 -3.12113L727.755 -4.06613L726.435 -1.77983C723.609 -3.06502 720.34 -2.56235 718.66 0.3475C716.8 3.56911 718.538 5.95834 720.57 8.37865L716.94 14.666C715.138 13.3482 714.471 11.6819 714.8 9.79302L712.031 9.78813C711.595 12.5844 712.863 15.1874 715.575 17.0302L714.255 19.3166L715.892 20.2616L717.227 17.9493C720.332 19.2915 723.572 18.5989 725.237 15.7151ZM721.05 1.7275C721.875 0.298558 723.443 -0.0777308 725.07 0.584422L721.965 5.96244C720.707 4.30096 720.255 3.10448 721.05 1.7275ZM718.607 15.559L721.862 9.92121C723.083 11.5267 723.691 12.8132 722.806 14.3461C721.996 15.749 720.446 16.2742 718.607 15.559Z" fill="#16232E"/>
<path d="M765.421 38.915C767.326 35.6155 765.432 33.1362 763.426 30.7309L766.876 24.7554C767.962 25.6942 768.451 26.9466 768.221 28.5457L770.907 28.5725C771.198 25.9691 770.117 23.8209 768.241 22.3911L769.576 20.0788L767.939 19.1338L766.619 21.4201C763.793 20.1349 760.523 20.6376 758.843 23.5475C756.983 26.7691 758.722 29.1583 760.754 31.5786L757.124 37.8659C755.321 36.5481 754.655 34.8818 754.983 32.993L752.215 32.9881C751.778 35.7844 753.047 38.3874 755.759 40.2302L754.439 42.5165L756.076 43.4615L757.411 41.1492C760.515 42.4915 763.756 41.7989 765.421 38.915ZM761.234 24.9275C762.059 23.4985 763.627 23.1222 765.254 23.7844L762.149 29.1624C760.891 27.5009 760.439 26.3044 761.234 24.9275ZM758.791 38.759L762.046 33.1212C763.266 34.7267 763.875 36.0131 762.99 37.546C762.18 38.949 760.629 39.4742 758.791 38.759Z" fill="#16232E"/>
<path d="M600.507 -6.64601C602.412 -9.94557 600.518 -12.4248 598.511 -14.8301L601.961 -20.8057C603.048 -19.8669 603.537 -18.6144 603.306 -17.0154L605.993 -16.9885C606.284 -19.592 605.203 -21.7401 603.326 -23.1699L604.661 -25.4822L603.025 -26.4272L601.705 -24.1409C598.879 -25.4261 595.609 -24.9234 593.929 -22.0136C592.069 -18.792 593.808 -16.4027 595.84 -13.9824L592.21 -7.69509C590.407 -9.01293 589.741 -10.6792 590.069 -12.5681L587.301 -12.573C586.864 -9.77665 588.133 -7.17368 590.845 -5.33084L589.525 -3.04453L591.161 -2.09953L592.496 -4.41182C595.601 -3.06957 598.842 -3.76215 600.507 -6.64601ZM596.32 -20.6336C597.145 -22.0625 598.713 -22.4388 600.34 -21.7767L597.235 -16.3986C595.977 -18.0601 595.525 -19.2566 596.32 -20.6336ZM593.876 -6.80205L597.131 -12.4399C598.352 -10.8344 598.961 -9.54789 598.076 -8.01503C597.266 -6.61207 595.715 -6.08686 593.876 -6.80205Z" fill="#16232E"/>
<path d="M640.69 16.5539C642.595 13.2544 640.701 10.7752 638.695 8.36985L642.145 2.39427C643.231 3.3331 643.72 4.58556 643.49 6.1846L646.177 6.21144C646.467 3.60798 645.387 1.45983 643.51 0.0300213L644.845 -2.28227L643.208 -3.22727L641.888 -0.940959C639.062 -2.22615 635.793 -1.72348 634.113 1.18637C632.253 4.40798 633.991 6.79721 636.023 9.21752L632.393 15.5049C630.591 14.187 629.925 12.5207 630.253 10.6319L627.485 10.627C627.048 13.4233 628.316 16.0263 631.028 17.8691L629.708 20.1554L631.345 21.1004L632.68 18.7881C635.785 20.1304 639.025 19.4378 640.69 16.5539ZM636.503 2.56637C637.328 1.13742 638.896 0.761136 640.523 1.42329L637.418 6.80131C636.16 5.13983 635.708 3.94335 636.503 2.56637ZM634.06 16.3979L637.315 10.7601C638.536 12.3656 639.144 13.6521 638.259 15.1849C637.449 16.5879 635.899 17.1131 634.06 16.3979Z" fill="#16232E"/>
<path d="M680.874 39.7539C682.779 36.4543 680.885 33.9751 678.879 31.5698L682.329 25.5942C683.415 26.533 683.904 27.7855 683.674 29.3845L686.36 29.4114C686.651 26.8079 685.57 24.6598 683.694 23.23L685.029 20.9177L683.392 19.9727L682.072 22.259C679.246 20.9738 675.976 21.4765 674.296 24.3863C672.436 27.6079 674.175 29.9972 676.207 32.4175L672.577 38.7048C670.774 37.387 670.108 35.7207 670.437 33.8318L667.668 33.827C667.231 36.6233 668.5 39.2262 671.212 41.0691L669.892 43.3554L671.529 44.3004L672.864 41.9881C675.968 43.3303 679.209 42.6378 680.874 39.7539ZM676.687 25.7663C677.512 24.3374 679.08 23.9611 680.707 24.6232L677.602 30.0013C676.344 28.3398 675.892 27.1433 676.687 25.7663ZM674.244 39.5979L677.499 33.96C678.719 35.5655 679.328 36.852 678.443 38.3849C677.633 39.7878 676.082 40.313 674.244 39.5979Z" fill="#16232E"/>
<path d="M721.058 62.9541C722.963 59.6545 721.068 57.1753 719.062 54.77L722.512 48.7944C723.598 49.7332 724.088 50.9857 723.857 52.5847L726.544 52.6116C726.834 50.0081 725.754 47.86 723.877 46.4302L725.212 44.1179L723.575 43.1729L722.255 45.4592C719.429 44.174 716.16 44.6767 714.48 47.5865C712.62 50.8081 714.358 53.1974 716.39 55.6177L712.76 61.905C710.958 60.5872 710.292 58.9209 710.62 57.032L707.852 57.0271C707.415 59.8235 708.684 62.4264 711.395 64.2693L710.075 66.5556L711.712 67.5006L713.047 65.1883C716.152 66.5305 719.393 65.838 721.058 62.9541ZM716.87 48.9665C717.695 47.5376 719.264 47.1613 720.89 47.8234L717.785 53.2015C716.528 51.54 716.075 50.3435 716.87 48.9665ZM714.427 62.798L717.682 57.1602C718.903 58.7657 719.511 60.0522 718.626 61.5851C717.816 62.988 716.266 63.5132 714.427 62.798Z" fill="#16232E"/>
<path d="M761.241 86.154C763.146 82.8545 761.252 80.3753 759.246 77.9699L762.696 71.9944C763.782 72.9332 764.271 74.1857 764.041 75.7847L766.727 75.8115C767.018 73.2081 765.937 71.0599 764.061 69.6301L765.396 67.3178L763.759 66.3728L762.439 68.6591C759.613 67.3739 756.344 67.8766 754.664 70.7865C752.804 74.0081 754.542 76.3973 756.574 78.8176L752.944 85.105C751.141 83.7871 750.475 82.1208 750.804 80.232L748.035 80.2271C747.599 83.0234 748.867 85.6264 751.579 87.4692L750.259 89.7555L751.896 90.7005L753.231 88.3882C756.336 89.7305 759.576 89.0379 761.241 86.154ZM757.054 72.1665C757.879 70.7375 759.447 70.3612 761.074 71.0234L757.969 76.4014C756.711 74.7399 756.259 73.5434 757.054 72.1665ZM754.611 85.998L757.866 80.3602C759.087 81.9657 759.695 83.2522 758.81 84.785C758 86.188 756.45 86.7132 754.611 85.998Z" fill="#16232E"/>
<path d="M521.503 -2.6067C523.408 -5.90626 521.514 -8.38549 519.508 -10.7908L522.958 -16.7664C524.044 -15.8275 524.533 -14.5751 524.303 -12.976L526.989 -12.9492C527.28 -15.5527 526.199 -17.7008 524.323 -19.1306L525.658 -21.4429L524.021 -22.3879L522.701 -20.1016C519.875 -21.3868 516.605 -20.8841 514.925 -17.9743C513.065 -14.7527 514.804 -12.3634 516.836 -9.94313L513.206 -3.65578C511.403 -4.97363 510.737 -6.63991 511.066 -8.52876L508.297 -8.53365C507.86 -5.73734 509.129 -3.13438 511.841 -1.29153L510.521 0.994775L512.158 1.93977L513.493 -0.372513C516.597 0.969738 519.838 0.27716 521.503 -2.6067ZM517.316 -16.5943C518.141 -18.0232 519.709 -18.3995 521.336 -17.7374L518.231 -12.3593C516.973 -14.0208 516.521 -15.2173 517.316 -16.5943ZM514.873 -2.76274L518.128 -8.40057C519.348 -6.79507 519.957 -5.50859 519.072 -3.97572C518.262 -2.57276 516.711 -2.04755 514.873 -2.76274Z" fill="#16232E"/>
<path d="M561.686 20.5932C563.591 17.2937 561.697 14.8145 559.691 12.4092L563.141 6.43358C564.227 7.3724 564.717 8.62487 564.486 10.2239L567.173 10.2508C567.463 7.64729 566.383 5.49914 564.506 4.06933L565.841 1.75704L564.204 0.812041L562.884 3.09835C560.058 1.81316 556.789 2.31583 555.109 5.22567C553.249 8.44729 554.987 10.8365 557.019 13.2568L553.389 19.5442C551.587 18.2263 550.921 16.56 551.249 14.6712L548.481 14.6663C548.044 17.4626 549.312 20.0656 552.024 21.9084L550.704 24.1947L552.341 25.1397L553.676 22.8274C556.781 24.1697 560.021 23.4771 561.686 20.5932ZM557.499 6.60567C558.324 5.17673 559.892 4.80044 561.519 5.4626L558.414 10.8406C557.157 9.17913 556.704 7.98265 557.499 6.60567ZM555.056 20.4372L558.311 14.7994C559.532 16.4049 560.14 17.6914 559.255 19.2242C558.445 20.6272 556.895 21.1524 555.056 20.4372Z" fill="#16232E"/>
<path d="M601.87 43.7932C603.775 40.4936 601.88 38.0144 599.874 35.6091L603.324 29.6335C604.41 30.5724 604.9 31.8248 604.669 33.4239L607.356 33.4507C607.646 30.8472 606.566 28.6991 604.689 27.2693L606.024 24.957L604.387 24.012L603.067 26.2983C600.241 25.0131 596.972 25.5158 595.292 28.4256C593.432 31.6472 595.17 34.0365 597.202 36.4568L593.572 42.7441C591.77 41.4263 591.104 39.76 591.432 37.8711L588.664 37.8663C588.227 40.6626 589.496 43.2655 592.207 45.1084L590.887 47.3947L592.524 48.3397L593.859 46.0274C596.964 47.3696 600.205 46.6771 601.87 43.7932ZM597.682 29.8056C598.507 28.3767 600.076 28.0004 601.702 28.6625L598.597 34.0406C597.34 32.3791 596.887 31.1826 597.682 29.8056ZM595.239 43.6372L598.494 37.9993C599.715 39.6048 600.323 40.8913 599.438 42.4242C598.628 43.8271 597.078 44.3524 595.239 43.6372Z" fill="#16232E"/>
<path d="M642.053 66.9931C643.958 63.6936 642.064 61.2144 640.058 58.8091L643.508 52.8335C644.594 53.7723 645.083 55.0248 644.853 56.6238L647.539 56.6507C647.83 54.0472 646.749 51.899 644.873 50.4692L646.208 48.1569L644.571 47.2119L643.251 49.4983C640.425 48.2131 637.156 48.7157 635.476 51.6256C633.616 54.8472 635.354 57.2364 637.386 59.6567L633.756 65.9441C631.953 64.6262 631.287 62.9599 631.616 61.0711L628.847 61.0662C628.411 63.8625 629.679 66.4655 632.391 68.3083L631.071 70.5946L632.708 71.5396L634.043 69.2273C637.148 70.5696 640.388 69.877 642.053 66.9931ZM637.866 53.0056C638.691 51.5766 640.259 51.2003 641.886 51.8625L638.781 57.2405C637.523 55.579 637.071 54.3826 637.866 53.0056ZM635.423 66.8371L638.678 61.1993C639.899 62.8048 640.507 64.0913 639.622 65.6241C638.812 67.0271 637.262 67.5523 635.423 66.8371Z" fill="#16232E"/>
<path d="M682.237 90.1933C684.142 86.8938 682.248 84.4146 680.242 82.0093L683.692 76.0337C684.778 76.9725 685.267 78.225 685.037 79.824L687.723 79.8508C688.014 77.2474 686.933 75.0992 685.057 73.6694L686.392 71.3571L684.755 70.4121L683.435 72.6984C680.609 71.4133 677.34 71.9159 675.66 74.8258C673.8 78.0474 675.538 80.4366 677.57 82.8569L673.94 89.1443C672.138 87.8264 671.471 86.1601 671.8 84.2713L669.031 84.2664C668.595 87.0627 669.863 89.6657 672.575 91.5085L671.255 93.7948L672.892 94.7398L674.227 92.4275C677.332 93.7698 680.572 93.0772 682.237 90.1933ZM678.05 76.2058C678.875 74.7768 680.443 74.4005 682.07 75.0627L678.965 80.4407C677.707 78.7792 677.255 77.5828 678.05 76.2058ZM675.607 90.0373L678.862 84.3995C680.083 86.005 680.691 87.2915 679.806 88.8243C678.996 90.2273 677.446 90.7525 675.607 90.0373Z" fill="#16232E"/>
<path d="M722.421 113.393C724.326 110.094 722.432 107.615 720.426 105.209L723.876 99.2336C724.962 100.172 725.451 101.425 725.221 103.024L727.907 103.051C728.198 100.447 727.117 98.2992 725.241 96.8694L726.576 94.5571L724.939 93.6121L723.619 95.8984C720.793 94.6132 717.523 95.1159 715.843 98.0257C713.983 101.247 715.722 103.637 717.754 106.057L714.124 112.344C712.321 111.026 711.655 109.36 711.983 107.471L709.215 107.466C708.778 110.263 710.047 112.866 712.759 114.708L711.439 116.995L713.076 117.94L714.411 115.627C717.515 116.97 720.756 116.277 722.421 113.393ZM718.234 99.4057C719.059 97.9768 720.627 97.6005 722.254 98.2626L719.149 103.641C717.891 101.979 717.439 100.783 718.234 99.4057ZM715.791 113.237L719.046 107.599C720.266 109.205 720.875 110.491 719.99 112.024C719.18 113.427 717.629 113.952 715.791 113.237Z" fill="#16232E"/>
<path d="M762.604 136.593C764.509 133.294 762.615 130.814 760.609 128.409L764.059 122.434C765.145 123.372 765.635 124.625 765.404 126.224L768.091 126.251C768.381 123.647 767.301 121.499 765.424 120.069L766.759 117.757L765.122 116.812L763.802 119.098C760.976 117.813 757.707 118.316 756.027 121.226C754.167 124.447 755.905 126.837 757.937 129.257L754.307 135.544C752.505 134.226 751.839 132.56 752.167 130.671L749.399 130.666C748.962 133.463 750.23 136.066 752.942 137.908L751.622 140.195L753.259 141.14L754.594 138.827C757.699 140.17 760.939 139.477 762.604 136.593ZM758.417 122.606C759.242 121.177 760.81 120.8 762.437 121.463L759.332 126.841C758.075 125.179 757.622 123.983 758.417 122.606ZM755.974 136.437L759.229 130.799C760.45 132.405 761.058 133.691 760.173 135.224C759.363 136.627 757.813 137.152 755.974 136.437Z" fill="#16232E"/>
<path d="M436.956 -1.76784C438.861 -5.06739 436.967 -7.54662 434.961 -9.95193L438.411 -15.9275C439.497 -14.9887 439.986 -13.7362 439.756 -12.1372L442.442 -12.1103C442.733 -14.7138 441.652 -16.8619 439.776 -18.2918L441.111 -20.604L439.474 -21.549L438.154 -19.2627C435.328 -20.5479 432.059 -20.0453 430.379 -17.1354C428.519 -13.9138 430.257 -11.5246 432.289 -9.10426L428.659 -2.81691C426.856 -4.13476 426.19 -5.80105 426.519 -7.68989L423.75 -7.69478C423.314 -4.89847 424.582 -2.29551 427.294 -0.452664L425.974 1.83364L427.611 2.77864L428.946 0.466354C432.051 1.80861 435.291 1.11603 436.956 -1.76784ZM432.769 -15.7554C433.594 -17.1844 435.162 -17.5606 436.789 -16.8985L433.684 -11.5205C432.426 -13.182 431.974 -14.3784 432.769 -15.7554ZM430.326 -1.92388L433.581 -7.5617C434.801 -5.9562 435.41 -4.66972 434.525 -3.13686C433.715 -1.73389 432.164 -1.20868 430.326 -1.92388Z" fill="#16232E"/>
<path d="M477.14 21.4324C479.045 18.1328 477.15 15.6536 475.144 13.2483L478.594 7.27269C479.68 8.21152 480.17 9.46398 479.939 11.063L482.626 11.0899C482.916 8.4864 481.836 6.33825 479.959 4.90844L481.294 2.59615L479.657 1.65115L478.337 3.93746C475.511 2.65227 472.242 3.15494 470.562 6.06478C468.702 9.2864 470.44 11.6756 472.472 14.0959L468.842 20.3833C467.04 19.0654 466.374 17.3991 466.702 15.5103L463.934 15.5054C463.497 18.3017 464.766 20.9047 467.477 22.7475L466.157 25.0338L467.794 25.9788L469.129 23.6665C472.234 25.0088 475.475 24.3162 477.14 21.4324ZM472.952 7.44478C473.777 6.01584 475.346 5.63955 476.972 6.30171L473.867 11.6797C472.61 10.0182 472.157 8.82177 472.952 7.44478ZM470.509 21.2763L473.764 15.6385C474.985 17.244 475.593 18.5305 474.708 20.0633C473.898 21.4663 472.348 21.9915 470.509 21.2763Z" fill="#16232E"/>
<path d="M517.323 44.6323C519.228 41.3328 517.334 38.8535 515.328 36.4482L518.778 30.4726C519.864 31.4115 520.353 32.6639 520.123 34.263L522.809 34.2898C523.1 31.6864 522.019 29.5382 520.143 28.1084L521.478 25.7961L519.841 24.8511L518.521 27.1374C515.695 25.8522 512.426 26.3549 510.746 29.2647C508.886 32.4864 510.624 34.8756 512.656 37.2959L509.026 43.5832C507.223 42.2654 506.557 40.5991 506.886 38.7103L504.117 38.7054C503.681 41.5017 504.949 44.1046 507.661 45.9475L506.341 48.2338L507.978 49.1788L509.313 46.8665C512.418 48.2088 515.658 47.5162 517.323 44.6323ZM513.136 30.6447C513.961 29.2158 515.529 28.8395 517.156 29.5017L514.051 34.8797C512.793 33.2182 512.341 32.0217 513.136 30.6447ZM510.693 44.4763L513.948 38.8384C515.169 40.4439 515.777 41.7304 514.892 43.2633C514.082 44.6663 512.532 45.1915 510.693 44.4763Z" fill="#16232E"/>
<path d="M557.507 67.8323C559.412 64.5327 557.518 62.0535 555.511 59.6482L558.961 53.6726C560.048 54.6114 560.537 55.8639 560.306 57.4629L562.993 57.4898C563.284 54.8863 562.203 52.7381 560.326 51.3083L561.661 48.9961L560.025 48.0511L558.705 50.3374C555.879 49.0522 552.609 49.5548 550.929 52.4647C549.069 55.6863 550.808 58.0755 552.84 60.4958L549.21 66.7832C547.407 65.4653 546.741 63.7991 547.069 61.9102L544.301 61.9053C543.864 64.7016 545.133 67.3046 547.845 69.1474L546.525 71.4337L548.161 72.3787L549.496 70.0665C552.601 71.4087 555.842 70.7161 557.507 67.8323ZM553.32 53.8447C554.145 52.4157 555.713 52.0395 557.34 52.7016L554.235 58.0796C552.977 56.4181 552.525 55.2217 553.32 53.8447ZM550.876 67.6762L554.131 62.0384C555.352 63.6439 555.961 64.9304 555.076 66.4632C554.266 67.8662 552.715 68.3914 550.876 67.6762Z" fill="#16232E"/>
<path d="M597.69 91.0322C599.595 87.7327 597.701 85.2534 595.695 82.8481L599.145 76.8725C600.231 77.8114 600.72 79.0638 600.49 80.6629L603.177 80.6897C603.467 78.0863 602.387 75.9381 600.51 74.5083L601.845 72.196L600.208 71.251L598.888 73.5373C596.062 72.2521 592.793 72.7548 591.113 75.6646C589.253 78.8863 590.991 81.2755 593.023 83.6958L589.393 89.9831C587.591 88.6653 586.925 86.999 587.253 85.1102L584.485 85.1053C584.048 87.9016 585.316 90.5045 588.028 92.3474L586.708 94.6337L588.345 95.5787L589.68 93.2664C592.785 94.6087 596.025 93.9161 597.69 91.0322ZM593.503 77.0446C594.328 75.6157 595.896 75.2394 597.523 75.9016L594.418 81.2796C593.16 79.6181 592.708 78.4216 593.503 77.0446ZM591.06 90.8762L594.315 85.2383C595.536 86.8438 596.144 88.1303 595.259 89.6632C594.449 91.0662 592.899 91.5914 591.06 90.8762Z" fill="#16232E"/>
<path d="M637.874 114.232C639.779 110.933 637.885 108.453 635.879 106.048L639.329 100.072C640.415 101.011 640.904 102.264 640.674 103.863L643.36 103.89C643.651 101.286 642.57 99.1381 640.694 97.7082L642.029 95.396L640.392 94.451L639.072 96.7373C636.246 95.4521 632.976 95.9547 631.296 98.8646C629.436 102.086 631.175 104.475 633.207 106.896L629.577 113.183C627.774 111.865 627.108 110.199 627.437 108.31L624.668 108.305C624.231 111.102 625.5 113.704 628.212 115.547L626.892 117.834L628.529 118.779L629.864 116.466C632.968 117.809 636.209 117.116 637.874 114.232ZM633.687 100.245C634.512 98.8156 636.08 98.4394 637.707 99.1015L634.602 104.48C633.344 102.818 632.892 101.622 633.687 100.245ZM631.244 114.076L634.499 108.438C635.719 110.044 636.328 111.33 635.443 112.863C634.633 114.266 633.082 114.791 631.244 114.076Z" fill="#16232E"/>
<path d="M678.058 137.432C679.963 134.133 678.068 131.654 676.062 129.248L679.512 123.273C680.598 124.212 681.088 125.464 680.857 127.063L683.544 127.09C683.834 124.486 682.754 122.338 680.877 120.908L682.212 118.596L680.575 117.651L679.255 119.937C676.429 118.652 673.16 119.155 671.48 122.065C669.62 125.286 671.358 127.676 673.39 130.096L669.76 136.383C667.958 135.065 667.292 133.399 667.62 131.51L664.852 131.505C664.415 134.302 665.684 136.905 668.395 138.748L667.075 141.034L668.712 141.979L670.047 139.667C673.152 141.009 676.393 140.316 678.058 137.432ZM673.87 123.445C674.695 122.016 676.264 121.64 677.89 122.302L674.785 127.68C673.528 126.018 673.075 124.822 673.87 123.445ZM671.427 137.276L674.682 131.638C675.903 133.244 676.511 134.53 675.626 136.063C674.816 137.466 673.266 137.992 671.427 137.276Z" fill="#16232E"/>
<path d="M718.241 160.632C720.146 157.333 718.252 154.854 716.246 152.448L719.696 146.473C720.782 147.411 721.271 148.664 721.041 150.263L723.727 150.29C724.018 147.686 722.937 145.538 721.061 144.108L722.396 141.796L720.759 140.851L719.439 143.137C716.613 141.852 713.344 142.355 711.664 145.265C709.804 148.486 711.542 150.876 713.574 153.296L709.944 159.583C708.141 158.265 707.475 156.599 707.804 154.71L705.035 154.705C704.599 157.502 705.867 160.105 708.579 161.947L707.259 164.234L708.896 165.179L710.231 162.867C713.336 164.209 716.576 163.516 718.241 160.632ZM714.054 146.645C714.879 145.216 716.447 144.84 718.074 145.502L714.969 150.88C713.711 149.218 713.259 148.022 714.054 146.645ZM711.611 160.476L714.866 154.838C716.087 156.444 716.695 157.73 715.81 159.263C715 160.666 713.45 161.191 711.611 160.476Z" fill="#16232E"/>
<path d="M758.425 183.832C760.33 180.533 758.436 178.053 756.429 175.648L759.879 169.673C760.966 170.611 761.455 171.864 761.224 173.463L763.911 173.49C764.202 170.886 763.121 168.738 761.244 167.308L762.579 164.996L760.943 164.051L759.623 166.337C756.797 165.052 753.527 165.555 751.847 168.465C749.987 171.686 751.726 174.076 753.758 176.496L750.128 182.783C748.325 181.465 747.659 179.799 747.987 177.91L745.219 177.905C744.782 180.702 746.051 183.305 748.763 185.147L747.443 187.434L749.079 188.379L750.414 186.066C753.519 187.409 756.76 186.716 758.425 183.832ZM754.238 169.845C755.063 168.416 756.631 168.039 758.258 168.702L755.153 174.08C753.895 172.418 753.443 171.222 754.238 169.845ZM751.794 183.676L755.049 178.038C756.27 179.644 756.878 180.93 755.993 182.463C755.183 183.866 753.633 184.391 751.794 183.676Z" fill="#16232E"/>
<path d="M357.952 2.27123C359.857 -1.02833 357.963 -3.50756 355.957 -5.91287L359.407 -11.8884C360.493 -10.9496 360.982 -9.69716 360.752 -8.09812L363.438 -8.07127C363.729 -10.6747 362.648 -12.8229 360.772 -14.2527L362.107 -16.565L360.47 -17.51L359.15 -15.2237C356.324 -16.5089 353.055 -16.0062 351.375 -13.0963C349.515 -9.87473 351.253 -7.4855 353.285 -5.0652L349.655 1.22215C347.852 -0.0956964 347.186 -1.76199 347.515 -3.65083L344.746 -3.65572C344.31 -0.859409 345.578 1.74355 348.29 3.5864L346.97 5.8727L348.607 6.8177L349.942 4.50542C353.047 5.84767 356.287 5.15509 357.952 2.27123ZM353.765 -11.7163C354.59 -13.1453 356.158 -13.5216 357.785 -12.8594L354.68 -7.48141C353.422 -9.14289 352.97 -10.3394 353.765 -11.7163ZM351.322 2.11519L354.577 -3.52264C355.798 -1.91714 356.406 -0.630658 355.521 0.902207C354.711 2.30517 353.161 2.83038 351.322 2.11519Z" fill="#16232E"/>
<path d="M398.136 25.4712C400.041 22.1716 398.146 19.6924 396.14 17.2871L399.59 11.3115C400.676 12.2503 401.166 13.5028 400.935 15.1018L403.622 15.1287C403.913 12.5252 402.832 10.3771 400.955 8.94726L402.29 6.63497L400.654 5.68997L399.334 7.97628C396.508 6.69108 393.238 7.19376 391.558 10.1036C389.698 13.3252 391.436 15.7144 393.469 18.1348L389.839 24.4221C388.036 23.1043 387.37 21.438 387.698 19.5491L384.93 19.5442C384.493 22.3405 385.762 24.9435 388.474 26.7863L387.154 29.0727L388.79 30.0177L390.125 27.7054C393.23 29.0476 396.471 28.355 398.136 25.4712ZM393.948 11.4836C394.773 10.0547 396.342 9.67837 397.969 10.3405L394.864 15.7185C393.606 14.0571 393.153 12.8606 393.948 11.4836ZM391.505 25.3151L394.76 19.6773C395.981 21.2828 396.589 22.5693 395.704 24.1022C394.894 25.5051 393.344 26.0303 391.505 25.3151Z" fill="#16232E"/>
<path d="M438.319 48.6711C440.224 45.3716 438.33 42.8923 436.324 40.487L439.774 34.5115C440.86 35.4503 441.349 36.7027 441.119 38.3018L443.805 38.3286C444.096 35.7252 443.015 33.577 441.139 32.1472L442.474 29.8349L440.837 28.8899L439.517 31.1762C436.691 29.891 433.422 30.3937 431.742 33.3036C429.882 36.5252 431.62 38.9144 433.652 41.3347L430.022 47.6221C428.22 46.3042 427.553 44.6379 427.882 42.7491L425.113 42.7442C424.677 45.5405 425.945 48.1435 428.657 49.9863L427.337 52.2726L428.974 53.2176L430.309 50.9053C433.414 52.2476 436.654 51.555 438.319 48.6711ZM434.132 34.6836C434.957 33.2546 436.525 32.8783 438.152 33.5405L435.047 38.9185C433.789 37.257 433.337 36.0605 434.132 34.6836ZM431.689 48.5151L434.944 42.8773C436.165 44.4828 436.773 45.7692 435.888 47.3021C435.078 48.7051 433.528 49.2303 431.689 48.5151Z" fill="#16232E"/>
<path d="M478.503 71.8713C480.408 68.5718 478.514 66.0925 476.508 63.6872L479.958 57.7117C481.044 58.6505 481.533 59.9029 481.303 61.502L483.989 61.5288C484.28 58.9254 483.199 56.7772 481.323 55.3474L482.658 53.0351L481.021 52.0901L479.701 54.3764C476.875 53.0912 473.605 53.5939 471.925 56.5037C470.065 59.7254 471.804 62.1146 473.836 64.5349L470.206 70.8222C468.403 69.5044 467.737 67.8381 468.066 65.9493L465.297 65.9444C464.86 68.7407 466.129 71.3437 468.841 73.1865L467.521 75.4728L469.158 76.4178L470.493 74.1055C473.597 75.4478 476.838 74.7552 478.503 71.8713ZM474.316 57.8837C475.141 56.4548 476.709 56.0785 478.336 56.7407L475.231 62.1187C473.973 60.4572 473.521 59.2607 474.316 57.8837ZM471.873 71.7153L475.128 66.0775C476.348 67.683 476.957 68.9694 476.072 70.5023C475.262 71.9053 473.711 72.4305 471.873 71.7153Z" fill="#16232E"/>
<path d="M518.686 95.0713C520.591 91.7717 518.697 89.2925 516.691 86.8872L520.141 80.9116C521.227 81.8504 521.717 83.1029 521.486 84.7019L524.173 84.7288C524.463 82.1253 523.383 79.9772 521.506 78.5474L522.841 76.2351L521.204 75.2901L519.884 77.5764C517.058 76.2912 513.789 76.7939 512.109 79.7037C510.249 82.9253 511.987 85.3145 514.019 87.7349L510.389 94.0222C508.587 92.7044 507.921 91.0381 508.249 89.1492L505.481 89.1443C505.044 91.9406 506.312 94.5436 509.024 96.3864L507.704 98.6728L509.341 99.6178L510.676 97.3055C513.781 98.6477 517.021 97.9551 518.686 95.0713ZM514.499 81.0837C515.324 79.6548 516.892 79.2785 518.519 79.9406L515.414 85.3186C514.157 83.6572 513.704 82.4607 514.499 81.0837ZM512.056 94.9152L515.311 89.2774C516.532 90.8829 517.14 92.1694 516.255 93.7023C515.445 95.1052 513.895 95.6304 512.056 94.9152Z" fill="#16232E"/>
<path d="M558.87 118.271C560.775 114.972 558.88 112.492 556.874 110.087L560.324 104.112C561.41 105.05 561.9 106.303 561.669 107.902L564.356 107.929C564.646 105.325 563.566 103.177 561.689 101.747L563.024 99.435L561.387 98.49L560.067 100.776C557.241 99.4911 553.972 99.9938 552.292 102.904C550.432 106.125 552.17 108.514 554.202 110.935L550.572 117.222C548.77 115.904 548.104 114.238 548.432 112.349L545.664 112.344C545.227 115.141 546.496 117.744 549.207 119.586L547.887 121.873L549.524 122.818L550.859 120.505C553.964 121.848 557.205 121.155 558.87 118.271ZM554.682 104.284C555.507 102.855 557.076 102.478 558.702 103.141L555.597 108.519C554.34 106.857 553.887 105.661 554.682 104.284ZM552.239 118.115L555.494 112.477C556.715 114.083 557.323 115.369 556.438 116.902C555.628 118.305 554.078 118.83 552.239 118.115Z" fill="#16232E"/>
<path d="M599.053 141.471C600.958 138.172 599.064 135.692 597.058 133.287L600.508 127.312C601.594 128.25 602.083 129.503 601.853 131.102L604.539 131.129C604.83 128.525 603.749 126.377 601.873 124.947L603.208 122.635L601.571 121.69L600.251 123.976C597.425 122.691 594.156 123.194 592.476 126.104C590.616 129.325 592.354 131.714 594.386 134.135L590.756 140.422C588.953 139.104 588.287 137.438 588.616 135.549L585.847 135.544C585.411 138.341 586.679 140.944 589.391 142.786L588.071 145.073L589.708 146.018L591.043 143.705C594.148 145.048 597.388 144.355 599.053 141.471ZM594.866 127.484C595.691 126.055 597.259 125.678 598.886 126.341L595.781 131.719C594.523 130.057 594.071 128.861 594.866 127.484ZM592.423 141.315L595.678 135.677C596.899 137.283 597.507 138.569 596.622 140.102C595.812 141.505 594.262 142.03 592.423 141.315Z" fill="#16232E"/>
<path d="M639.237 164.671C641.142 161.372 639.248 158.893 637.242 156.487L640.692 150.512C641.778 151.451 642.267 152.703 642.037 154.302L644.723 154.329C645.014 151.725 643.933 149.577 642.057 148.147L643.392 145.835L641.755 144.89L640.435 147.176C637.609 145.891 634.34 146.394 632.66 149.304C630.8 152.525 632.538 154.915 634.57 157.335L630.94 163.622C629.138 162.304 628.471 160.638 628.8 158.749L626.031 158.744C625.595 161.541 626.863 164.144 629.575 165.987L628.255 168.273L629.892 169.218L631.227 166.906C634.332 168.248 637.572 167.555 639.237 164.671ZM635.05 150.684C635.875 149.255 637.443 148.879 639.07 149.541L635.965 154.919C634.707 153.257 634.255 152.061 635.05 150.684ZM632.607 164.515L635.862 158.878C637.083 160.483 637.691 161.769 636.806 163.302C635.996 164.705 634.446 165.231 632.607 164.515Z" fill="#16232E"/>
<path d="M679.421 187.871C681.326 184.572 679.432 182.093 677.426 179.687L680.876 173.712C681.962 174.65 682.451 175.903 682.221 177.502L684.907 177.529C685.198 174.925 684.117 172.777 682.241 171.347L683.576 169.035L681.939 168.09L680.619 170.376C677.793 169.091 674.523 169.594 672.843 172.504C670.983 175.725 672.722 178.115 674.754 180.535L671.124 186.822C669.321 185.504 668.655 183.838 668.983 181.949L666.215 181.944C665.778 184.741 667.047 187.344 669.759 189.186L668.439 191.473L670.076 192.418L671.411 190.106C674.515 191.448 677.756 190.755 679.421 187.871ZM675.234 173.884C676.059 172.455 677.627 172.079 679.254 172.741L676.149 178.119C674.891 176.457 674.439 175.261 675.234 173.884ZM672.791 187.715L676.046 182.077C677.266 183.683 677.875 184.969 676.99 186.502C676.18 187.905 674.629 188.43 672.791 187.715Z" fill="#16232E"/>
<path d="M719.604 211.071C721.509 207.772 719.615 205.292 717.609 202.887L721.059 196.912C722.145 197.85 722.635 199.103 722.404 200.702L725.091 200.729C725.381 198.125 724.301 195.977 722.424 194.547L723.759 192.235L722.122 191.29L720.802 193.576C717.976 192.291 714.707 192.794 713.027 195.704C711.167 198.925 712.905 201.315 714.937 203.735L711.307 210.022C709.505 208.704 708.839 207.038 709.167 205.149L706.399 205.144C705.962 207.941 707.23 210.544 709.942 212.386L708.622 214.673L710.259 215.618L711.594 213.305C714.699 214.648 717.939 213.955 719.604 211.071ZM715.417 197.084C716.242 195.655 717.81 195.278 719.437 195.941L716.332 201.319C715.075 199.657 714.622 198.461 715.417 197.084ZM712.974 210.915L716.229 205.277C717.45 206.883 718.058 208.169 717.173 209.702C716.363 211.105 714.813 211.63 712.974 210.915Z" fill="#16232E"/>
<path d="M273.405 3.11058C275.31 -0.188976 273.416 -2.6682 271.41 -5.07351L274.86 -11.0491C275.946 -10.1103 276.435 -8.8578 276.205 -7.25876L278.891 -7.23192C279.182 -9.83538 278.101 -11.9835 276.225 -13.4133L277.56 -15.7256L275.923 -16.6706L274.603 -14.3843C271.777 -15.6695 268.508 -15.1668 266.828 -12.257C264.968 -9.03538 266.706 -6.64615 268.738 -4.22584L265.108 2.0615C263.306 0.743659 262.639 -0.92263 262.968 -2.81148L260.199 -2.81636C259.763 -0.0200537 261.031 2.58291 263.743 4.42575L262.423 6.71206L264.06 7.65706L265.395 5.34477C268.5 6.68702 271.74 5.99445 273.405 3.11058ZM269.218 -10.877C270.043 -12.3059 271.611 -12.6822 273.238 -12.0201L270.133 -6.64205C268.875 -8.30353 268.423 -9.50001 269.218 -10.877ZM266.775 2.95454L270.03 -2.68328C271.251 -1.07778 271.859 0.208697 270.974 1.74156C270.164 3.14452 268.614 3.66973 266.775 2.95454Z" fill="#16232E"/>
<path d="M313.589 26.3105C315.494 23.011 313.6 20.5317 311.593 18.1264L315.043 12.1509C316.13 13.0897 316.619 14.3422 316.389 15.9412L319.075 15.968C319.366 13.3646 318.285 11.2164 316.408 9.78661L317.743 7.47433L316.107 6.52933L314.787 8.81563C311.961 7.53044 308.691 8.03311 307.011 10.943C305.151 14.1646 306.89 16.5538 308.922 18.9741L305.292 25.2615C303.489 23.9436 302.823 22.2773 303.151 20.3885L300.383 20.3836C299.946 23.1799 301.215 25.7829 303.927 27.6257L302.607 29.912L304.243 30.857L305.578 28.5447C308.683 29.887 311.924 29.1944 313.589 26.3105ZM309.402 12.323C310.227 10.894 311.795 10.5177 313.422 11.1799L310.317 16.5579C309.059 14.8964 308.607 13.6999 309.402 12.323ZM306.958 26.1545L310.213 20.5167C311.434 22.1222 312.043 23.4086 311.158 24.9415C310.348 26.3445 308.797 26.8697 306.958 26.1545Z" fill="#16232E"/>
<path d="M353.772 49.5105C355.677 46.2109 353.783 43.7317 351.777 41.3264L355.227 35.3508C356.313 36.2896 356.803 37.5421 356.572 39.1411L359.259 39.168C359.549 36.5645 358.469 34.4164 356.592 32.9866L357.927 30.6743L356.29 29.7293L354.97 32.0156C352.144 30.7304 348.875 31.2331 347.195 34.1429C345.335 37.3645 347.073 39.7538 349.105 42.1741L345.475 48.4614C343.673 47.1436 343.007 45.4773 343.335 43.5884L340.567 43.5835C340.13 46.3798 341.398 48.9828 344.11 50.8257L342.79 53.112L344.427 54.057L345.762 51.7447C348.867 53.0869 352.107 52.3943 353.772 49.5105ZM349.585 35.5229C350.41 34.094 351.978 33.7177 353.605 34.3798L350.5 39.7579C349.243 38.0964 348.79 36.8999 349.585 35.5229ZM347.142 49.3544L350.397 43.7166C351.618 45.3221 352.226 46.6086 351.341 48.1415C350.531 49.5444 348.981 50.0696 347.142 49.3544Z" fill="#16232E"/>
<path d="M393.956 72.7104C395.861 69.4109 393.967 66.9316 391.961 64.5263L395.411 58.5508C396.497 59.4896 396.986 60.7421 396.756 62.3411L399.442 62.3679C399.733 59.7645 398.652 57.6163 396.776 56.1865L398.111 53.8742L396.474 52.9292L395.154 55.2155C392.328 53.9303 389.059 54.433 387.379 57.3429C385.519 60.5645 387.257 62.9537 389.289 65.374L385.659 71.6614C383.856 70.3435 383.19 68.6772 383.519 66.7884L380.75 66.7835C380.314 69.5798 381.582 72.1828 384.294 74.0256L382.974 76.3119L384.611 77.2569L385.946 74.9446C389.051 76.2869 392.291 75.5943 393.956 72.7104ZM389.769 58.7229C390.594 57.2939 392.162 56.9176 393.789 57.5798L390.684 62.9578C389.426 61.2963 388.974 60.0998 389.769 58.7229ZM387.326 72.5544L390.581 66.9166C391.801 68.5221 392.41 69.8086 391.525 71.3414C390.715 72.7444 389.164 73.2696 387.326 72.5544Z" fill="#16232E"/>
<path d="M434.14 95.9104C436.045 92.6108 434.15 90.1316 432.144 87.7263L435.594 81.7507C436.68 82.6895 437.17 83.942 436.939 85.541L439.626 85.5679C439.916 82.9644 438.836 80.8163 436.959 79.3865L438.294 77.0742L436.657 76.1292L435.337 78.4155C432.511 77.1303 429.242 77.633 427.562 80.5428C425.702 83.7644 427.44 86.1537 429.472 88.574L425.842 94.8613C424.04 93.5435 423.374 91.8772 423.702 89.9883L420.934 89.9834C420.497 92.7798 421.766 95.3827 424.477 97.2256L423.157 99.5119L424.794 100.457L426.129 98.1446C429.234 99.4868 432.475 98.7943 434.14 95.9104ZM429.952 81.9228C430.777 80.4939 432.346 80.1176 433.972 80.7797L430.867 86.1578C429.61 84.4963 429.157 83.2998 429.952 81.9228ZM427.509 95.7543L430.764 90.1165C431.985 91.722 432.593 93.0085 431.708 94.5414C430.898 95.9443 429.348 96.4695 427.509 95.7543Z" fill="#16232E"/>
<path d="M474.323 119.111C476.228 115.811 474.334 113.332 472.328 110.926L475.778 104.951C476.864 105.89 477.353 107.142 477.123 108.741L479.809 108.768C480.1 106.165 479.019 104.016 477.143 102.587L478.478 100.274L476.841 99.3294L475.521 101.616C472.695 100.33 469.426 100.833 467.746 103.743C465.886 106.965 467.624 109.354 469.656 111.774L466.026 118.062C464.223 116.744 463.557 115.077 463.886 113.189L461.117 113.184C460.681 115.98 461.949 118.583 464.661 120.426L463.341 122.712L464.978 123.657L466.313 121.345C469.418 122.687 472.658 121.994 474.323 119.111ZM470.136 105.123C470.961 103.694 472.529 103.318 474.156 103.98L471.051 109.358C469.793 107.696 469.341 106.5 470.136 105.123ZM467.693 118.955L470.948 113.317C472.169 114.922 472.777 116.209 471.892 117.742C471.082 119.145 469.532 119.67 467.693 118.955Z" fill="#16232E"/>
<path d="M514.507 142.311C516.412 139.011 514.518 136.532 512.511 134.126L515.961 128.151C517.048 129.09 517.537 130.342 517.306 131.941L519.993 131.968C520.284 129.365 519.203 127.216 517.326 125.787L518.661 123.474L517.025 122.529L515.705 124.816C512.879 123.53 509.609 124.033 507.929 126.943C506.069 130.165 507.808 132.554 509.84 134.974L506.21 141.261C504.407 139.944 503.741 138.277 504.069 136.388L501.301 136.384C500.864 139.18 502.133 141.783 504.845 143.626L503.525 145.912L505.161 146.857L506.496 144.545C509.601 145.887 512.842 145.194 514.507 142.311ZM510.32 128.323C511.145 126.894 512.713 126.518 514.34 127.18L511.235 132.558C509.977 130.896 509.525 129.7 510.32 128.323ZM507.876 142.154L511.131 136.517C512.352 138.122 512.961 139.409 512.076 140.942C511.266 142.344 509.715 142.87 507.876 142.154Z" fill="#16232E"/>
<path d="M554.69 165.51C556.595 162.211 554.701 159.732 552.695 157.326L556.145 151.351C557.231 152.29 557.72 153.542 557.49 155.141L560.177 155.168C560.467 152.565 559.387 150.416 557.51 148.987L558.845 146.674L557.208 145.729L555.888 148.016C553.062 146.73 549.793 147.233 548.113 150.143C546.253 153.365 547.991 155.754 550.023 158.174L546.393 164.461C544.591 163.144 543.925 161.477 544.253 159.588L541.485 159.584C541.048 162.38 542.316 164.983 545.028 166.826L543.708 169.112L545.345 170.057L546.68 167.745C549.785 169.087 553.025 168.394 554.69 165.51ZM550.503 151.523C551.328 150.094 552.896 149.718 554.523 150.38L551.418 155.758C550.16 154.096 549.708 152.9 550.503 151.523ZM548.06 165.354L551.315 159.717C552.536 161.322 553.144 162.609 552.259 164.141C551.449 165.544 549.899 166.07 548.06 165.354Z" fill="#16232E"/>
<path d="M594.874 188.71C596.779 185.411 594.885 182.932 592.879 180.526L596.329 174.551C597.415 175.49 597.904 176.742 597.674 178.341L600.36 178.368C600.651 175.764 599.57 173.616 597.694 172.187L599.029 169.874L597.392 168.929L596.072 171.216C593.246 169.93 589.976 170.433 588.296 173.343C586.436 176.564 588.175 178.954 590.207 181.374L586.577 187.661C584.774 186.344 584.108 184.677 584.437 182.788L581.668 182.783C581.231 185.58 582.5 188.183 585.212 190.026L583.892 192.312L585.529 193.257L586.864 190.945C589.968 192.287 593.209 191.594 594.874 188.71ZM590.687 174.723C591.512 173.294 593.08 172.918 594.707 173.58L591.602 178.958C590.344 177.296 589.892 176.1 590.687 174.723ZM588.244 188.554L591.499 182.917C592.719 184.522 593.328 185.809 592.443 187.341C591.633 188.744 590.082 189.27 588.244 188.554Z" fill="#16232E"/>
<path d="M635.058 211.911C636.963 208.611 635.068 206.132 633.062 203.727L636.512 197.751C637.598 198.69 638.088 199.942 637.857 201.541L640.544 201.568C640.834 198.965 639.754 196.817 637.877 195.387L639.212 193.074L637.575 192.129L636.255 194.416C633.429 193.131 630.16 193.633 628.48 196.543C626.62 199.765 628.358 202.154 630.39 204.574L626.76 210.862C624.958 209.544 624.292 207.877 624.62 205.989L621.852 205.984C621.415 208.78 622.684 211.383 625.395 213.226L624.075 215.512L625.712 216.457L627.047 214.145C630.152 215.487 633.393 214.794 635.058 211.911ZM630.87 197.923C631.695 196.494 633.264 196.118 634.89 196.78L631.785 202.158C630.528 200.497 630.075 199.3 630.87 197.923ZM628.427 211.755L631.682 206.117C632.903 207.722 633.511 209.009 632.626 210.542C631.816 211.945 630.266 212.47 628.427 211.755Z" fill="#16232E"/>
<path d="M194.401 7.14964C196.306 3.85009 194.412 1.37086 192.406 -1.03445L195.856 -7.01003C196.942 -6.0712 197.431 -4.81874 197.201 -3.2197L199.888 -3.19285C200.178 -5.79631 199.097 -7.94447 197.221 -9.37428L198.556 -11.6866L196.919 -12.6316L195.599 -10.3453C192.773 -11.6304 189.504 -11.1278 187.824 -8.21793C185.964 -4.99632 187.702 -2.60709 189.734 -0.186778L186.104 6.10057C184.302 4.78272 183.636 3.11643 183.964 1.22759L181.195 1.2227C180.759 4.01901 182.027 6.62197 184.739 8.46482L183.419 10.7511L185.056 11.6961L186.391 9.38383C189.496 10.7261 192.736 10.0335 194.401 7.14964ZM190.214 -6.83793C191.039 -8.26687 192.607 -8.64316 194.234 -7.98101L191.129 -2.60299C189.871 -4.26447 189.419 -5.46095 190.214 -6.83793ZM187.771 6.9936L191.026 1.35578C192.247 2.96128 192.855 4.24776 191.97 5.78063C191.16 7.18359 189.61 7.7088 187.771 6.9936Z" fill="#16232E"/>
<path d="M234.585 30.3496C236.49 27.05 234.596 24.5708 232.59 22.1655L236.04 16.1899C237.126 17.1288 237.615 18.3812 237.385 19.9803L240.071 20.0071C240.362 17.4036 239.281 15.2555 237.405 13.8257L238.74 11.5134L237.103 10.5684L235.783 12.8547C232.957 11.5695 229.687 12.0722 228.007 14.982C226.147 18.2036 227.886 20.5929 229.918 23.0132L226.288 29.3005C224.485 27.9827 223.819 26.3164 224.148 24.4275L221.379 24.4227C220.942 27.219 222.211 29.8219 224.923 31.6648L223.603 33.9511L225.24 34.8961L226.575 32.5838C229.679 33.926 232.92 33.2335 234.585 30.3496ZM230.398 16.362C231.223 14.9331 232.791 14.5568 234.418 15.2189L231.313 20.597C230.055 18.9355 229.603 17.739 230.398 16.362ZM227.955 30.1936L231.21 24.5557C232.43 26.1612 233.039 27.4477 232.154 28.9806C231.344 30.3835 229.793 30.9087 227.955 30.1936Z" fill="#16232E"/>
<path d="M274.768 53.5495C276.673 50.25 274.779 47.7708 272.773 45.3655L276.223 39.3899C277.309 40.3287 277.799 41.5812 277.568 43.1802L280.255 43.207C280.545 40.6036 279.465 38.4554 277.588 37.0256L278.923 34.7133L277.286 33.7683L275.966 36.0546C273.14 34.7695 269.871 35.2721 268.191 38.182C266.331 41.4036 268.069 43.7928 270.101 46.2131L266.471 52.5005C264.669 51.1826 264.003 49.5163 264.331 47.6275L261.563 47.6226C261.126 50.4189 262.394 53.0219 265.106 54.8647L263.786 57.151L265.423 58.096L266.758 55.7837C269.863 57.126 273.103 56.4334 274.768 53.5495ZM270.581 39.562C271.406 38.133 272.975 37.7567 274.601 38.4189L271.496 43.7969C270.239 42.1354 269.786 40.939 270.581 39.562ZM268.138 53.3935L271.393 47.7557C272.614 49.3612 273.222 50.6477 272.337 52.1805C271.527 53.5835 269.977 54.1087 268.138 53.3935Z" fill="#16232E"/>
<path d="M314.952 76.7495C316.857 73.4499 314.963 70.9707 312.957 68.5654L316.407 62.5898C317.493 63.5287 317.982 64.7811 317.752 66.3802L320.438 66.407C320.729 63.8035 319.648 61.6554 317.772 60.2256L319.107 57.9133L317.47 56.9683L316.15 59.2546C313.324 57.9694 310.055 58.4721 308.375 61.3819C306.515 64.6035 308.253 66.9928 310.285 69.4131L306.655 75.7004C304.852 74.3826 304.186 72.7163 304.515 70.8274L301.746 70.8226C301.31 73.6189 302.578 76.2218 305.29 78.0647L303.97 80.351L305.607 81.296L306.942 78.9837C310.047 80.3259 313.287 79.6334 314.952 76.7495ZM310.765 62.7619C311.59 61.333 313.158 60.9567 314.785 61.6188L311.68 66.9969C310.422 65.3354 309.97 64.1389 310.765 62.7619ZM308.322 76.5935L311.577 70.9556C312.798 72.5611 313.406 73.8476 312.521 75.3805C311.711 76.7834 310.161 77.3087 308.322 76.5935Z" fill="#16232E"/>
<path d="M355.136 99.9494C357.041 96.6499 355.146 94.1707 353.14 91.7654L356.59 85.7898C357.676 86.7286 358.166 87.9811 357.935 89.5801L360.622 89.607C360.913 87.0035 359.832 84.8553 357.955 83.4255L359.29 81.1132L357.654 80.1682L356.334 82.4545C353.508 81.1694 350.238 81.672 348.558 84.5819C346.698 87.8035 348.436 90.1927 350.469 92.613L346.839 98.9004C345.036 97.5825 344.37 95.9162 344.698 94.0274L341.93 94.0225C341.493 96.8188 342.762 99.4218 345.474 101.265L344.154 103.551L345.79 104.496L347.125 102.184C350.23 103.526 353.471 102.833 355.136 99.9494ZM350.948 85.9619C351.773 84.5329 353.342 84.1566 354.969 84.8188L351.864 90.1968C350.606 88.5353 350.153 87.3389 350.948 85.9619ZM348.505 99.7934L351.76 94.1556C352.981 95.7611 353.589 97.0476 352.704 98.5804C351.894 99.9834 350.344 100.509 348.505 99.7934Z" fill="#16232E"/>
<path d="M395.319 123.15C397.224 119.85 395.33 117.371 393.324 114.966L396.774 108.99C397.86 109.929 398.349 111.181 398.119 112.78L400.805 112.807C401.096 110.204 400.015 108.056 398.139 106.626L399.474 104.313L397.837 103.368L396.517 105.655C393.691 104.37 390.422 104.872 388.742 107.782C386.882 111.004 388.62 113.393 390.652 115.813L387.022 122.101C385.22 120.783 384.553 119.116 384.882 117.228L382.113 117.223C381.677 120.019 382.945 122.622 385.657 124.465L384.337 126.751L385.974 127.696L387.309 125.384C390.414 126.726 393.654 126.034 395.319 123.15ZM391.132 109.162C391.957 107.733 393.525 107.357 395.152 108.019L392.047 113.397C390.789 111.736 390.337 110.539 391.132 109.162ZM388.689 122.994L391.944 117.356C393.165 118.961 393.773 120.248 392.888 121.781C392.078 123.184 390.528 123.709 388.689 122.994Z" fill="#16232E"/>
<path d="M435.503 146.35C437.408 143.05 435.514 140.571 433.508 138.166L436.958 132.19C438.044 133.129 438.533 134.381 438.303 135.98L440.989 136.007C441.28 133.404 440.199 131.255 438.323 129.826L439.658 127.513L438.021 126.568L436.701 128.855C433.875 127.57 430.605 128.072 428.925 130.982C427.065 134.204 428.804 136.593 430.836 139.013L427.206 145.301C425.403 143.983 424.737 142.316 425.066 140.428L422.297 140.423C421.86 143.219 423.129 145.822 425.841 147.665L424.521 149.951L426.158 150.896L427.493 148.584C430.597 149.926 433.838 149.233 435.503 146.35ZM431.316 132.362C432.141 130.933 433.709 130.557 435.336 131.219L432.231 136.597C430.973 134.935 430.521 133.739 431.316 132.362ZM428.873 146.194L432.128 140.556C433.348 142.161 433.957 143.448 433.072 144.981C432.262 146.384 430.711 146.909 428.873 146.194Z" fill="#16232E"/>
<path d="M475.686 169.55C477.591 166.25 475.697 163.771 473.691 161.365L477.141 155.39C478.227 156.329 478.717 157.581 478.486 159.18L481.173 159.207C481.463 156.604 480.383 154.455 478.506 153.026L479.841 150.713L478.204 149.768L476.884 152.055C474.058 150.769 470.789 151.272 469.109 154.182C467.249 157.404 468.987 159.793 471.019 162.213L467.389 168.5C465.587 167.183 464.921 165.516 465.249 163.627L462.481 163.623C462.044 166.419 463.312 169.022 466.024 170.865L464.704 173.151L466.341 174.096L467.676 171.784C470.781 173.126 474.021 172.433 475.686 169.55ZM471.499 155.562C472.324 154.133 473.892 153.757 475.519 154.419L472.414 159.797C471.157 158.135 470.704 156.939 471.499 155.562ZM469.056 169.394L472.311 163.756C473.532 165.361 474.14 166.648 473.255 168.181C472.445 169.583 470.895 170.109 469.056 169.394Z" fill="#16232E"/>
<path d="M515.87 192.749C517.775 189.45 515.88 186.971 513.874 184.565L517.324 178.59C518.41 179.529 518.9 180.781 518.669 182.38L521.356 182.407C521.646 179.804 520.566 177.655 518.689 176.226L520.024 173.913L518.387 172.968L517.067 175.255C514.241 173.969 510.972 174.472 509.292 177.382C507.432 180.604 509.17 182.993 511.202 185.413L507.572 191.7C505.77 190.383 505.104 188.716 505.432 186.827L502.664 186.823C502.227 189.619 503.496 192.222 506.207 194.065L504.887 196.351L506.524 197.296L507.859 194.984C510.964 196.326 514.205 195.633 515.87 192.749ZM511.682 178.762C512.507 177.333 514.076 176.957 515.702 177.619L512.597 182.997C511.34 181.335 510.887 180.139 511.682 178.762ZM509.239 192.593L512.494 186.956C513.715 188.561 514.323 189.848 513.438 191.38C512.628 192.783 511.078 193.309 509.239 192.593Z" fill="#16232E"/>
<path d="M556.053 215.949C557.958 212.65 556.064 210.171 554.058 207.765L557.508 201.79C558.594 202.729 559.083 203.981 558.853 205.58L561.539 205.607C561.83 203.003 560.749 200.855 558.873 199.426L560.208 197.113L558.571 196.168L557.251 198.455C554.425 197.169 551.156 197.672 549.476 200.582C547.616 203.803 549.354 206.193 551.386 208.613L547.756 214.9C545.953 213.583 545.287 211.916 545.616 210.027L542.847 210.023C542.411 212.819 543.679 215.422 546.391 217.265L545.071 219.551L546.708 220.496L548.043 218.184C551.148 219.526 554.388 218.833 556.053 215.949ZM551.866 201.962C552.691 200.533 554.259 200.157 555.886 200.819L552.781 206.197C551.523 204.535 551.071 203.339 551.866 201.962ZM549.423 215.793L552.678 210.156C553.899 211.761 554.507 213.048 553.622 214.58C552.812 215.983 551.262 216.509 549.423 215.793Z" fill="#16232E"/>
<path d="M109.854 7.98851C111.759 4.68895 109.865 2.20973 107.859 -0.195583L111.309 -6.17116C112.395 -5.23233 112.885 -3.97987 112.654 -2.38083L115.341 -2.35399C115.631 -4.95745 114.551 -7.1056 112.674 -8.53541L114.009 -10.8477L112.372 -11.7927L111.052 -9.50639C108.226 -10.7916 104.957 -10.2889 103.277 -7.37906C101.417 -4.15745 103.155 -1.76822 105.187 0.652089L101.557 6.93943C99.7547 5.62159 99.0887 3.9553 99.4171 2.06645L96.6486 2.06157C96.212 4.85788 97.4804 7.46084 100.192 9.30368L98.8723 11.59L100.509 12.535L101.844 10.2227C104.949 11.565 108.189 10.8724 109.854 7.98851ZM105.667 -5.99906C106.492 -7.428 108.06 -7.80429 109.687 -7.14214L106.582 -1.76412C105.325 -3.4256 104.872 -4.62208 105.667 -5.99906ZM103.224 7.83247L106.479 2.19465C107.7 3.80015 108.308 5.08663 107.423 6.61949C106.613 8.02245 105.063 8.54766 103.224 7.83247Z" fill="#16232E"/>
<path d="M150.038 31.1885C151.943 27.8889 150.049 25.4097 148.043 23.0044L151.493 17.0288C152.579 17.9676 153.068 19.2201 152.838 20.8191L155.524 20.846C155.815 18.2425 154.734 16.0944 152.858 14.6645L154.193 12.3523L152.556 11.4073L151.236 13.6936C148.41 12.4084 145.141 12.911 143.461 15.8209C141.601 19.0425 143.339 21.4317 145.371 23.852L141.741 30.1394C139.938 28.8215 139.272 27.1553 139.601 25.2664L136.832 25.2615C136.396 28.0578 137.664 30.6608 140.376 32.5036L139.056 34.7899L140.693 35.7349L142.028 33.4227C145.133 34.7649 148.373 34.0723 150.038 31.1885ZM145.851 17.2009C146.676 15.7719 148.244 15.3957 149.871 16.0578L146.766 21.4358C145.508 19.7743 145.056 18.5779 145.851 17.2009ZM143.408 31.0324L146.663 25.3946C147.884 27.0001 148.492 28.2866 147.607 29.8194C146.797 31.2224 145.246 31.7476 143.408 31.0324Z" fill="#16232E"/>
<path d="M190.222 54.3887C192.127 51.0891 190.232 48.6099 188.226 46.2046L191.676 40.229C192.762 41.1678 193.252 42.4203 193.021 44.0193L195.708 44.0462C195.999 41.4427 194.918 39.2945 193.041 37.8647L194.376 35.5525L192.74 34.6075L191.42 36.8938C188.593 35.6086 185.324 36.1112 183.644 39.0211C181.784 42.2427 183.522 44.6319 185.555 47.0522L181.925 53.3396C180.122 52.0217 179.456 50.3554 179.784 48.4666L177.016 48.4617C176.579 51.258 177.848 53.861 180.56 55.7038L179.24 57.9901L180.876 58.9351L182.211 56.6228C185.316 57.9651 188.557 57.2725 190.222 54.3887ZM186.034 40.4011C186.859 38.9721 188.428 38.5959 190.055 39.258L186.95 44.636C185.692 42.9745 185.239 41.7781 186.034 40.4011ZM183.591 54.2326L186.846 48.5948C188.067 50.2003 188.675 51.4868 187.79 53.0196C186.98 54.4226 185.43 54.9478 183.591 54.2326Z" fill="#16232E"/>
<path d="M230.405 77.5886C232.31 74.2891 230.416 71.8098 228.41 69.4045L231.86 63.4289C232.946 64.3678 233.435 65.6202 233.205 67.2193L235.891 67.2461C236.182 64.6427 235.101 62.4945 233.225 61.0647L234.56 58.7524L232.923 57.8074L231.603 60.0937C228.777 58.8085 225.508 59.3112 223.828 62.221C221.968 65.4426 223.706 67.8319 225.738 70.2522L222.108 76.5395C220.306 75.2217 219.639 73.5554 219.968 71.6666L217.199 71.6617C216.763 74.458 218.031 77.0609 220.743 78.9038L219.423 81.1901L221.06 82.1351L222.395 79.8228C225.5 81.1651 228.74 80.4725 230.405 77.5886ZM226.218 63.601C227.043 62.1721 228.611 61.7958 230.238 62.458L227.133 67.836C225.875 66.1745 225.423 64.978 226.218 63.601ZM223.775 77.4326L227.03 71.7947C228.251 73.4002 228.859 74.6867 227.974 76.2196C227.164 77.6226 225.614 78.1478 223.775 77.4326Z" fill="#16232E"/>
<path d="M270.589 100.789C272.494 97.489 270.6 95.0098 268.593 92.6045L272.043 86.6289C273.13 87.5677 273.619 88.8202 273.389 90.4192L276.075 90.4461C276.366 87.8426 275.285 85.6944 273.408 84.2646L274.743 81.9524L273.107 81.0074L271.787 83.2937C268.961 82.0085 265.691 82.5111 264.011 85.421C262.151 88.6426 263.89 91.0318 265.922 93.4521L262.292 99.7395C260.489 98.4216 259.823 96.7553 260.151 94.8665L257.383 94.8616C256.946 97.6579 258.215 100.261 260.927 102.104L259.607 104.39L261.243 105.335L262.578 103.023C265.683 104.365 268.924 103.672 270.589 100.789ZM266.402 86.801C267.227 85.372 268.795 84.9958 270.422 85.6579L267.317 91.0359C266.059 89.3744 265.607 88.178 266.402 86.801ZM263.958 100.633L267.213 94.9947C268.434 96.6002 269.043 97.8867 268.158 99.4195C267.348 100.823 265.797 101.348 263.958 100.633Z" fill="#16232E"/>
<path d="M310.772 123.989C312.677 120.689 310.783 118.21 308.777 115.804L312.227 109.829C313.313 110.768 313.803 112.02 313.572 113.619L316.259 113.646C316.549 111.043 315.469 108.894 313.592 107.465L314.927 105.152L313.29 104.207L311.97 106.494C309.144 105.208 305.875 105.711 304.195 108.621C302.335 111.843 304.073 114.232 306.105 116.652L302.475 122.939C300.673 121.622 300.007 119.955 300.335 118.066L297.567 118.062C297.13 120.858 298.398 123.461 301.11 125.304L299.79 127.59L301.427 128.535L302.762 126.223C305.867 127.565 309.107 126.872 310.772 123.989ZM306.585 110.001C307.41 108.572 308.978 108.196 310.605 108.858L307.5 114.236C306.243 112.574 305.79 111.378 306.585 110.001ZM304.142 123.832L307.397 118.195C308.618 119.8 309.226 121.087 308.341 122.619C307.531 124.022 305.981 124.548 304.142 123.832Z" fill="#16232E"/>
<path d="M350.956 147.188C352.861 143.889 350.967 141.41 348.961 139.004L352.411 133.029C353.497 133.968 353.986 135.22 353.756 136.819L356.442 136.846C356.733 134.243 355.652 132.094 353.776 130.665L355.111 128.352L353.474 127.407L352.154 129.694C349.328 128.408 346.059 128.911 344.379 131.821C342.519 135.043 344.257 137.432 346.289 139.852L342.659 146.139C340.856 144.822 340.19 143.155 340.519 141.266L337.75 141.262C337.314 144.058 338.582 146.661 341.294 148.504L339.974 150.79L341.611 151.735L342.946 149.423C346.051 150.765 349.291 150.072 350.956 147.188ZM346.769 133.201C347.594 131.772 349.162 131.396 350.789 132.058L347.684 137.436C346.426 135.774 345.974 134.578 346.769 133.201ZM344.326 147.032L347.581 141.395C348.801 143 349.41 144.287 348.525 145.819C347.715 147.222 346.164 147.748 344.326 147.032Z" fill="#16232E"/>
<path d="M391.14 170.388C393.045 167.089 391.15 164.61 389.144 162.204L392.594 156.229C393.68 157.168 394.17 158.42 393.939 160.019L396.626 160.046C396.916 157.442 395.836 155.294 393.959 153.864L395.294 151.552L393.657 150.607L392.337 152.894C389.511 151.608 386.242 152.111 384.562 155.021C382.702 158.242 384.44 160.632 386.472 163.052L382.842 169.339C381.04 168.021 380.374 166.355 380.702 164.466L377.934 164.461C377.497 167.258 378.766 169.861 381.477 171.704L380.157 173.99L381.794 174.935L383.129 172.623C386.234 173.965 389.475 173.272 391.14 170.388ZM386.952 156.401C387.777 154.972 389.346 154.596 390.972 155.258L387.867 160.636C386.61 158.974 386.157 157.778 386.952 156.401ZM384.509 170.232L387.764 164.595C388.985 166.2 389.593 167.487 388.708 169.019C387.898 170.422 386.348 170.948 384.509 170.232Z" fill="#16232E"/>
<path d="M431.323 193.589C433.228 190.289 431.334 187.81 429.328 185.405L432.778 179.429C433.864 180.368 434.353 181.62 434.123 183.219L436.809 183.246C437.1 180.643 436.019 178.494 434.143 177.065L435.478 174.752L433.841 173.807L432.521 176.094C429.695 174.809 426.426 175.311 424.746 178.221C422.886 181.443 424.624 183.832 426.656 186.252L423.026 192.54C421.223 191.222 420.557 189.555 420.886 187.667L418.117 187.662C417.681 190.458 418.949 193.061 421.661 194.904L420.341 197.19L421.978 198.135L423.313 195.823C426.418 197.165 429.658 196.472 431.323 193.589ZM427.136 179.601C427.961 178.172 429.529 177.796 431.156 178.458L428.051 183.836C426.793 182.174 426.341 180.978 427.136 179.601ZM424.693 193.433L427.948 187.795C429.169 189.4 429.777 190.687 428.892 192.22C428.082 193.623 426.532 194.148 424.693 193.433Z" fill="#16232E"/>
<path d="M471.507 216.789C473.412 213.489 471.518 211.01 469.511 208.604L472.961 202.629C474.048 203.568 474.537 204.82 474.306 206.419L476.993 206.446C477.284 203.843 476.203 201.694 474.326 200.265L475.661 197.952L474.025 197.007L472.705 199.294C469.879 198.008 466.609 198.511 464.929 201.421C463.069 204.643 464.808 207.032 466.84 209.452L463.21 215.739C461.407 214.422 460.741 212.755 461.069 210.867L458.301 210.862C457.864 213.658 459.133 216.261 461.845 218.104L460.525 220.39L462.161 221.335L463.496 219.023C466.601 220.365 469.842 219.672 471.507 216.789ZM467.32 202.801C468.145 201.372 469.713 200.996 471.34 201.658L468.235 207.036C466.977 205.374 466.525 204.178 467.32 202.801ZM464.876 216.633L468.131 210.995C469.352 212.6 469.961 213.887 469.076 215.42C468.266 216.823 466.715 217.348 464.876 216.633Z" fill="#16232E"/>
<path d="M30.8505 12.0278C32.7555 8.72826 30.8613 6.24903 28.8552 3.84372L32.3052 -2.13185C33.3913 -1.19302 33.8806 0.0594364 33.6502 1.65847L36.3367 1.68532C36.6274 -0.91814 35.5467 -3.06629 33.6702 -4.4961L35.0052 -6.80839L33.3684 -7.75339L32.0484 -5.46708C29.2224 -6.75227 25.9531 -6.2496 24.2731 -3.33976C22.4131 -0.118142 24.1513 2.27109 26.1834 4.6914L22.5534 10.9787C20.7508 9.6609 20.0847 7.99461 20.4132 6.10576L17.6447 6.10088C17.2081 8.89718 18.4765 11.5001 21.1884 13.343L19.8684 15.6293L21.5052 16.5743L22.8402 14.262C25.945 15.6043 29.1855 14.9117 30.8505 12.0278ZM26.6633 -1.95976C27.4883 -3.3887 29.0565 -3.76499 30.6834 -3.10283L27.5784 2.27518C26.3206 0.613704 25.8683 -0.582776 26.6633 -1.95976ZM24.2202 11.8718L27.4752 6.23395C28.696 7.83945 29.3043 9.12593 28.4193 10.6588C27.6093 12.0618 26.059 12.587 24.2202 11.8718Z" fill="#16232E"/>
<path d="M71.0341 35.2278C72.9391 31.9282 71.0449 29.449 69.0388 27.0437L72.4888 21.0681C73.5749 22.0069 74.0642 23.2594 73.8338 24.8584L76.5203 24.8853C76.811 22.2818 75.7303 20.1337 73.8538 18.7038L75.1888 16.3916L73.552 15.4466L72.232 17.7329C69.406 16.4477 66.1366 16.9503 64.4566 19.8602C62.5966 23.0818 64.3349 25.471 66.367 27.8913L62.737 34.1787C60.9344 32.8608 60.2683 31.1946 60.5968 29.3057L57.8283 29.3008C57.3916 32.0971 58.6601 34.7001 61.372 36.5429L60.052 38.8292L61.6888 39.7742L63.0238 37.462C66.1286 38.8042 69.3691 38.1116 71.0341 35.2278ZM66.8469 21.2402C67.6719 19.8113 69.2401 19.435 70.867 20.0971L67.762 25.4751C66.5042 23.8137 66.0519 22.6172 66.8469 21.2402ZM64.4038 35.0717L67.6588 29.4339C68.8796 31.0394 69.4879 32.3259 68.6029 33.8588C67.7929 35.2617 66.2425 35.7869 64.4038 35.0717Z" fill="#16232E"/>
<path d="M111.218 58.4277C113.123 55.1282 111.229 52.6489 109.222 50.2436L112.672 44.2681C113.758 45.2069 114.248 46.4593 114.017 48.0584L116.704 48.0852C116.995 45.4818 115.914 43.3336 114.037 41.9038L115.372 39.5915L113.736 38.6465L112.416 40.9328C109.59 39.6476 106.32 40.1503 104.64 43.0601C102.78 46.2818 104.519 48.671 106.551 51.0913L102.921 57.3786C101.118 56.0608 100.452 54.3945 100.78 52.5057L98.0119 52.5008C97.5752 55.2971 98.8437 57.9 101.556 59.7429L100.236 62.0292L101.872 62.9742L103.207 60.6619C106.312 62.0042 109.553 61.3116 111.218 58.4277ZM107.03 44.4401C107.855 43.0112 109.424 42.6349 111.051 43.2971L107.946 48.6751C106.688 47.0136 106.235 45.8171 107.03 44.4401ZM104.587 58.2717L107.842 52.6339C109.063 54.2394 109.671 55.5258 108.786 57.0587C107.976 58.4617 106.426 58.9869 104.587 58.2717Z" fill="#16232E"/>
<path d="M151.401 81.6279C153.306 78.3284 151.412 75.8491 149.406 73.4438L152.856 67.4682C153.942 68.4071 154.431 69.6595 154.201 71.2586L156.888 71.2854C157.178 68.682 156.097 66.5338 154.221 65.104L155.556 62.7917L153.919 61.8467L152.599 64.133C149.773 62.8478 146.504 63.3505 144.824 66.2603C142.964 69.482 144.702 71.8712 146.734 74.2915L143.104 80.5788C141.302 79.261 140.636 77.5947 140.964 75.7059L138.195 75.701C137.759 78.4973 139.027 81.1002 141.739 82.9431L140.419 85.2294L142.056 86.1744L143.391 83.8621C146.496 85.2044 149.736 84.5118 151.401 81.6279ZM147.214 67.6403C148.039 66.2114 149.607 65.8351 151.234 66.4973L148.129 71.8753C146.871 70.2138 146.419 69.0173 147.214 67.6403ZM144.771 81.4719L148.026 75.8341C149.247 77.4396 149.855 78.726 148.97 80.2589C148.16 81.6619 146.61 82.1871 144.771 81.4719Z" fill="#16232E"/>
<path d="M191.585 104.828C193.49 101.528 191.596 99.0491 189.59 96.6438L193.04 90.6682C194.126 91.607 194.615 92.8595 194.385 94.4585L197.071 94.4854C197.362 91.8819 196.281 89.7338 194.405 88.3039L195.74 85.9917L194.103 85.0467L192.783 87.333C189.957 86.0478 186.687 86.5504 185.007 89.4603C183.147 92.6819 184.886 95.0711 186.918 97.4914L183.288 103.779C181.485 102.461 180.819 100.795 181.148 98.9058L178.379 98.9009C177.942 101.697 179.211 104.3 181.923 106.143L180.603 108.429L182.24 109.374L183.575 107.062C186.679 108.404 189.92 107.712 191.585 104.828ZM187.398 90.8403C188.223 89.4114 189.791 89.0351 191.418 89.6972L188.313 95.0752C187.055 93.4138 186.603 92.2173 187.398 90.8403ZM184.955 104.672L188.21 99.034C189.43 100.64 190.039 101.926 189.154 103.459C188.344 104.862 186.793 105.387 184.955 104.672Z" fill="#16232E"/>
<path d="M231.768 128.028C233.673 124.728 231.779 122.249 229.773 119.844L233.223 113.868C234.309 114.807 234.799 116.059 234.568 117.658L237.255 117.685C237.545 115.082 236.465 112.934 234.588 111.504L235.923 109.192L234.286 108.247L232.966 110.533C230.14 109.248 226.871 109.75 225.191 112.66C223.331 115.882 225.069 118.271 227.101 120.691L223.471 126.979C221.669 125.661 221.003 123.995 221.331 122.106L218.563 122.101C218.126 124.897 219.394 127.5 222.106 129.343L220.786 131.629L222.423 132.574L223.758 130.262C226.863 131.604 230.103 130.912 231.768 128.028ZM227.581 114.04C228.406 112.611 229.975 112.235 231.601 112.897L228.496 118.275C227.239 116.614 226.786 115.417 227.581 114.04ZM225.138 127.872L228.393 122.234C229.614 123.839 230.222 125.126 229.337 126.659C228.527 128.062 226.977 128.587 225.138 127.872Z" fill="#16232E"/>
<path d="M271.952 151.228C273.857 147.928 271.963 145.449 269.957 143.044L273.407 137.068C274.493 138.007 274.982 139.259 274.752 140.858L277.438 140.885C277.729 138.282 276.648 136.134 274.772 134.704L276.107 132.392L274.47 131.447L273.15 133.733C270.324 132.448 267.055 132.95 265.375 135.86C263.515 139.082 265.253 141.471 267.285 143.891L263.655 150.179C261.852 148.861 261.186 147.195 261.515 145.306L258.746 145.301C258.31 148.097 259.578 150.7 262.29 152.543L260.97 154.829L262.607 155.774L263.942 153.462C267.047 154.804 270.287 154.112 271.952 151.228ZM267.765 137.24C268.59 135.811 270.158 135.435 271.785 136.097L268.68 141.475C267.422 139.814 266.97 138.617 267.765 137.24ZM265.322 151.072L268.577 145.434C269.798 147.039 270.406 148.326 269.521 149.859C268.711 151.262 267.161 151.787 265.322 151.072Z" fill="#16232E"/>
<path d="M312.136 174.428C314.041 171.128 312.146 168.649 310.14 166.244L313.59 160.268C314.676 161.207 315.166 162.459 314.935 164.058L317.622 164.085C317.913 161.482 316.832 159.334 314.955 157.904L316.29 155.592L314.654 154.647L313.334 156.933C310.508 155.648 307.238 156.15 305.558 159.06C303.698 162.282 305.436 164.671 307.469 167.091L303.839 173.379C302.036 172.061 301.37 170.395 301.698 168.506L298.93 168.501C298.493 171.297 299.762 173.9 302.474 175.743L301.154 178.029L302.79 178.974L304.125 176.662C307.23 178.004 310.471 177.312 312.136 174.428ZM307.948 160.44C308.773 159.011 310.342 158.635 311.969 159.297L308.864 164.675C307.606 163.014 307.153 161.817 307.948 160.44ZM305.505 174.272L308.76 168.634C309.981 170.239 310.589 171.526 309.704 173.059C308.894 174.462 307.344 174.987 305.505 174.272Z" fill="#16232E"/>
<path d="M352.319 197.628C354.224 194.328 352.33 191.849 350.324 189.444L353.774 183.468C354.86 184.407 355.349 185.659 355.119 187.258L357.805 187.285C358.096 184.682 357.015 182.534 355.139 181.104L356.474 178.791L354.837 177.846L353.517 180.133C350.691 178.848 347.422 179.35 345.742 182.26C343.882 185.482 345.62 187.871 347.652 190.291L344.022 196.579C342.22 195.261 341.553 193.594 341.882 191.706L339.113 191.701C338.677 194.497 339.945 197.1 342.657 198.943L341.337 201.229L342.974 202.174L344.309 199.862C347.414 201.204 350.654 200.512 352.319 197.628ZM348.132 183.64C348.957 182.211 350.525 181.835 352.152 182.497L349.047 187.875C347.789 186.214 347.337 185.017 348.132 183.64ZM345.689 197.472L348.944 191.834C350.165 193.439 350.773 194.726 349.888 196.259C349.078 197.662 347.528 198.187 345.689 197.472Z" fill="#16232E"/>
<path d="M26.6708 59.2668C28.5758 55.9673 26.6816 53.488 24.6755 51.0827L28.1255 45.1072C29.2116 46.046 29.7009 47.2985 29.4706 48.8975L32.1571 48.9243C32.4477 46.3209 31.367 44.1727 29.4905 42.7429L30.8255 40.4306L29.1887 39.4856L27.8687 41.7719C25.0427 40.4867 21.7734 40.9894 20.0934 43.8993C18.2334 47.1209 19.9716 49.5101 22.0037 51.9304L18.3737 58.2178C16.5712 56.8999 15.9051 55.2336 16.2335 53.3448L13.465 53.3399C13.0284 56.1362 14.2968 58.7392 17.0087 60.582L15.6887 62.8683L17.3255 63.8133L18.6605 61.501C21.7654 62.8433 25.0058 62.1507 26.6708 59.2668ZM22.4836 45.2793C23.3086 43.8503 24.8768 43.474 26.5037 44.1362L23.3987 49.5142C22.141 47.8527 21.6886 46.6562 22.4836 45.2793ZM20.0405 59.1108L23.2955 53.473C24.5163 55.0785 25.1246 56.3649 24.2396 57.8978C23.4296 59.3008 21.8793 59.826 20.0405 59.1108Z" fill="#16232E"/>
<path d="M66.8544 82.4668C68.7594 79.1672 66.8652 76.688 64.8591 74.2827L68.3091 68.3071C69.3952 69.2459 69.8845 70.4984 69.6541 72.0974L72.3406 72.1243C72.6313 69.5208 71.5506 67.3727 69.6741 65.9429L71.0091 63.6306L69.3723 62.6856L68.0523 64.9719C65.2263 63.6867 61.957 64.1894 60.277 67.0992C58.417 70.3208 60.1552 72.7101 62.1873 75.1304L58.5573 81.4177C56.7547 80.0999 56.0887 78.4336 56.4171 76.5447L53.6486 76.5398C53.212 79.3361 54.4804 81.9391 57.1923 83.782L55.8723 86.0683L57.5091 87.0133L58.8441 84.701C61.949 86.0432 65.1894 85.3506 66.8544 82.4668ZM62.6672 68.4792C63.4922 67.0503 65.0604 66.674 66.6873 67.3361L63.5823 72.7141C62.3246 71.0527 61.8722 69.8562 62.6672 68.4792ZM60.2241 82.3107L63.4791 76.6729C64.6999 78.2784 65.3082 79.5649 64.4232 81.0978C63.6132 82.5007 62.0629 83.0259 60.2241 82.3107Z" fill="#16232E"/>
<path d="M107.038 105.667C108.943 102.367 107.049 99.8879 105.043 97.4826L108.493 91.5071C109.579 92.4459 110.068 93.6984 109.838 95.2974L112.524 95.3242C112.815 92.7208 111.734 90.5726 109.858 89.1428L111.193 86.8305L109.556 85.8855L108.236 88.1718C105.41 86.8866 102.141 87.3893 100.461 90.2992C98.6006 93.5208 100.339 95.91 102.371 98.3303L98.7409 104.618C96.9383 103.3 96.2722 101.634 96.6007 99.7447L93.8322 99.7398C93.3956 102.536 94.664 105.139 97.3759 106.982L96.0559 109.268L97.6927 110.213L99.0277 107.901C102.133 109.243 105.373 108.551 107.038 105.667ZM102.851 91.6792C103.676 90.2502 105.244 89.8739 106.871 90.5361L103.766 95.9141C102.508 94.2526 102.056 93.0561 102.851 91.6792ZM100.408 105.511L103.663 99.8729C104.884 101.478 105.492 102.765 104.607 104.298C103.797 105.701 102.246 106.226 100.408 105.511Z" fill="#16232E"/>
<path d="M147.222 128.867C149.127 125.567 147.232 123.088 145.226 120.683L148.676 114.707C149.762 115.646 150.252 116.899 150.021 118.498L152.708 118.524C152.999 115.921 151.918 113.773 150.041 112.343L151.376 110.031L149.74 109.086L148.42 111.372C145.593 110.087 142.324 110.59 140.644 113.499C138.784 116.721 140.522 119.11 142.555 121.531L138.925 127.818C137.122 126.5 136.456 124.834 136.784 122.945L134.016 122.94C133.579 125.736 134.848 128.339 137.56 130.182L136.24 132.468L137.876 133.413L139.211 131.101C142.316 132.443 145.557 131.751 147.222 128.867ZM143.034 114.879C143.859 113.45 145.428 113.074 147.055 113.736L143.95 119.114C142.692 117.453 142.239 116.256 143.034 114.879ZM140.591 128.711L143.846 123.073C145.067 124.679 145.675 125.965 144.79 127.498C143.98 128.901 142.43 129.426 140.591 128.711Z" fill="#16232E"/>
<path d="M187.405 152.067C189.31 148.767 187.416 146.288 185.41 143.883L188.86 137.907C189.946 138.846 190.435 140.098 190.205 141.698L192.891 141.724C193.182 139.121 192.101 136.973 190.225 135.543L191.56 133.231L189.923 132.286L188.603 134.572C185.777 133.287 182.508 133.789 180.828 136.699C178.968 139.921 180.706 142.31 182.738 144.73L179.108 151.018C177.306 149.7 176.639 148.034 176.968 146.145L174.199 146.14C173.763 148.936 175.031 151.539 177.743 153.382L176.423 155.668L178.06 156.613L179.395 154.301C182.5 155.643 185.74 154.951 187.405 152.067ZM183.218 138.079C184.043 136.65 185.611 136.274 187.238 136.936L184.133 142.314C182.875 140.653 182.423 139.456 183.218 138.079ZM180.775 151.911L184.03 146.273C185.251 147.879 185.859 149.165 184.974 150.698C184.164 152.101 182.614 152.626 180.775 151.911Z" fill="#16232E"/>
<path d="M227.589 175.267C229.494 171.967 227.6 169.488 225.593 167.083L229.043 161.107C230.13 162.046 230.619 163.298 230.389 164.897L233.075 164.924C233.366 162.321 232.285 160.173 230.408 158.743L231.743 156.431L230.107 155.486L228.787 157.772C225.961 156.487 222.691 156.989 221.011 159.899C219.151 163.121 220.89 165.51 222.922 167.93L219.292 174.218C217.489 172.9 216.823 171.234 217.151 169.345L214.383 169.34C213.946 172.136 215.215 174.739 217.927 176.582L216.607 178.868L218.243 179.813L219.578 177.501C222.683 178.843 225.924 178.151 227.589 175.267ZM223.402 161.279C224.227 159.85 225.795 159.474 227.422 160.136L224.317 165.514C223.059 163.853 222.607 162.656 223.402 161.279ZM220.958 175.111L224.213 169.473C225.434 171.078 226.043 172.365 225.158 173.898C224.348 175.301 222.797 175.826 220.958 175.111Z" fill="#16232E"/>
<path d="M267.772 198.467C269.677 195.167 267.783 192.688 265.777 190.283L269.227 184.307C270.313 185.246 270.803 186.498 270.572 188.097L273.259 188.124C273.549 185.521 272.469 183.373 270.592 181.943L271.927 179.631L270.29 178.686L268.97 180.972C266.144 179.687 262.875 180.189 261.195 183.099C259.335 186.321 261.073 188.71 263.105 191.13L259.475 197.418C257.673 196.1 257.007 194.434 257.335 192.545L254.567 192.54C254.13 195.336 255.398 197.939 258.11 199.782L256.79 202.068L258.427 203.013L259.762 200.701C262.867 202.043 266.107 201.351 267.772 198.467ZM263.585 184.479C264.41 183.05 265.978 182.674 267.605 183.336L264.5 188.714C263.243 187.053 262.79 185.856 263.585 184.479ZM261.142 198.311L264.397 192.673C265.618 194.278 266.226 195.565 265.341 197.098C264.531 198.501 262.981 199.026 261.142 198.311Z" fill="#16232E"/>
<path d="M28.0341 109.706C29.9391 106.406 28.0449 103.927 26.0388 101.522L29.4888 95.5461C30.5749 96.485 31.0642 97.7374 30.8338 99.3365L33.5203 99.3633C33.811 96.7598 32.7303 94.6117 30.8538 93.1819L32.1888 90.8696L30.552 89.9246L29.232 92.2109C26.406 90.9257 23.1366 91.4284 21.4566 94.3382C19.5966 97.5598 21.3349 99.9491 23.367 102.369L19.737 108.657C17.9344 107.339 17.2683 105.673 17.5968 103.784L14.8283 103.779C14.3916 106.575 15.6601 109.178 18.372 111.021L17.052 113.307L18.6888 114.252L20.0238 111.94C23.1286 113.282 26.3691 112.59 28.0341 109.706ZM23.8469 95.7182C24.6719 94.2893 26.2401 93.913 27.867 94.5751L24.762 99.9532C23.5042 98.2917 23.0519 97.0952 23.8469 95.7182ZM21.4038 109.55L24.6588 103.912C25.8796 105.517 26.4879 106.804 25.6029 108.337C24.7929 109.74 23.2425 110.265 21.4038 109.55Z" fill="#16232E"/>
<path d="M68.2177 132.906C70.1227 129.606 68.2285 127.127 66.2224 124.722L69.6724 118.746C70.7585 119.685 71.2478 120.937 71.0174 122.536L73.7039 122.563C73.9946 119.96 72.9139 117.812 71.0374 116.382L72.3724 114.07L70.7356 113.125L69.4156 115.411C66.5896 114.126 63.3202 114.628 61.6402 117.538C59.7802 120.76 61.5185 123.149 63.5506 125.569L59.9206 131.857C58.118 130.539 57.4519 128.873 57.7804 126.984L55.0119 126.979C54.5752 129.775 55.8437 132.378 58.5556 134.221L57.2356 136.507L58.8724 137.452L60.2074 135.14C63.3122 136.482 66.5527 135.79 68.2177 132.906ZM64.0305 118.918C64.8555 117.489 66.4237 117.113 68.0506 117.775L64.9456 123.153C63.6878 121.492 63.2355 120.295 64.0305 118.918ZM61.5874 132.75L64.8424 127.112C66.0632 128.717 66.6714 130.004 65.7864 131.537C64.9764 132.94 63.4261 133.465 61.5874 132.75Z" fill="#16232E"/>
<path d="M108.401 156.106C110.306 152.806 108.412 150.327 106.406 147.922L109.856 141.946C110.942 142.885 111.431 144.138 111.201 145.737L113.888 145.763C114.178 143.16 113.097 141.012 111.221 139.582L112.556 137.27L110.919 136.325L109.599 138.611C106.773 137.326 103.504 137.829 101.824 140.738C99.9638 143.96 101.702 146.349 103.734 148.77L100.104 155.057C98.3016 153.739 97.6355 152.073 97.9639 150.184L95.1955 150.179C94.7588 152.975 96.0273 155.578 98.7392 157.421L97.4192 159.707L99.056 160.652L100.391 158.34C103.496 159.682 106.736 158.99 108.401 156.106ZM104.214 142.118C105.039 140.689 106.607 140.313 108.234 140.975L105.129 146.353C103.871 144.692 103.419 143.495 104.214 142.118ZM101.771 155.95L105.026 150.312C106.247 151.918 106.855 153.204 105.97 154.737C105.16 156.14 103.61 156.665 101.771 155.95Z" fill="#16232E"/>
<path d="M148.585 179.306C150.49 176.006 148.596 173.527 146.59 171.122L150.04 165.146C151.126 166.085 151.615 167.338 151.385 168.937L154.071 168.963C154.362 166.36 153.281 164.212 151.405 162.782L152.74 160.47L151.103 159.525L149.783 161.811C146.957 160.526 143.687 161.028 142.007 163.938C140.147 167.16 141.886 169.549 143.918 171.969L140.288 178.257C138.485 176.939 137.819 175.273 138.148 173.384L135.379 173.379C134.942 176.175 136.211 178.778 138.923 180.621L137.603 182.907L139.24 183.852L140.575 181.54C143.679 182.882 146.92 182.19 148.585 179.306ZM144.398 165.318C145.223 163.889 146.791 163.513 148.418 164.175L145.313 169.553C144.055 167.892 143.603 166.695 144.398 165.318ZM141.955 179.15L145.21 173.512C146.43 175.118 147.039 176.404 146.154 177.937C145.344 179.34 143.793 179.865 141.955 179.15Z" fill="#16232E"/>
<path d="M188.768 202.506C190.673 199.206 188.779 196.727 186.773 194.322L190.223 188.346C191.309 189.285 191.799 190.537 191.568 192.137L194.255 192.163C194.545 189.56 193.465 187.412 191.588 185.982L192.923 183.67L191.286 182.725L189.966 185.011C187.14 183.726 183.871 184.228 182.191 187.138C180.331 190.36 182.069 192.749 184.101 195.169L180.471 201.457C178.669 200.139 178.003 198.473 178.331 196.584L175.563 196.579C175.126 199.375 176.394 201.978 179.106 203.821L177.786 206.107L179.423 207.052L180.758 204.74C183.863 206.082 187.103 205.39 188.768 202.506ZM184.581 188.518C185.406 187.089 186.975 186.713 188.601 187.375L185.496 192.753C184.239 191.092 183.786 189.895 184.581 188.518ZM182.138 202.35L185.393 196.712C186.614 198.317 187.222 199.604 186.337 201.137C185.527 202.54 183.977 203.065 182.138 202.35Z" fill="#16232E"/>
<path d="M23.8544 156.945C25.7594 153.645 23.8652 151.166 21.8591 148.761L25.3091 142.785C26.3952 143.724 26.8845 144.977 26.6541 146.576L29.3406 146.603C29.6313 143.999 28.5506 141.851 26.6741 140.421L28.0091 138.109L26.3723 137.164L25.0523 139.45C22.2263 138.165 18.957 138.668 17.277 141.577C15.417 144.799 17.1552 147.188 19.1873 149.609L15.5573 155.896C13.7547 154.578 13.0887 152.912 13.4171 151.023L10.6486 151.018C10.212 153.814 11.4804 156.417 14.1923 158.26L12.8723 160.547L14.5091 161.492L15.8441 159.179C18.949 160.521 22.1894 159.829 23.8544 156.945ZM19.6672 142.957C20.4922 141.529 22.0604 141.152 23.6873 141.814L20.5823 147.192C19.3246 145.531 18.8722 144.334 19.6672 142.957ZM17.2241 156.789L20.4791 151.151C21.6999 152.757 22.3082 154.043 21.4232 155.576C20.6132 156.979 19.0629 157.504 17.2241 156.789Z" fill="#16232E"/>
<path d="M64.038 180.145C65.943 176.845 64.0488 174.366 62.0427 171.961L65.4927 165.985C66.5788 166.924 67.0681 168.177 66.8377 169.776L69.5242 169.803C69.8149 167.199 68.7342 165.051 66.8577 163.621L68.1927 161.309L66.5559 160.364L65.2359 162.65C62.4099 161.365 59.1406 161.868 57.4606 164.777C55.6006 167.999 57.3388 170.388 59.3709 172.809L55.7409 179.096C53.9383 177.778 53.2722 176.112 53.6007 174.223L50.8322 174.218C50.3956 177.014 51.664 179.617 54.3759 181.46L53.0559 183.746L54.6927 184.691L56.0277 182.379C59.1325 183.721 62.373 183.029 64.038 180.145ZM59.8508 166.157C60.6758 164.728 62.244 164.352 63.8709 165.014L60.7659 170.392C59.5081 168.731 59.0558 167.534 59.8508 166.157ZM57.4077 179.989L60.6627 174.351C61.8835 175.957 62.4918 177.243 61.6068 178.776C60.7968 180.179 59.2465 180.704 57.4077 179.989Z" fill="#16232E"/>
<path d="M104.222 203.345C106.127 200.046 104.232 197.566 102.226 195.161L105.676 189.186C106.762 190.124 107.252 191.377 107.021 192.976L109.708 193.003C109.999 190.399 108.918 188.251 107.041 186.821L108.376 184.509L106.74 183.564L105.42 185.85C102.593 184.565 99.3241 185.068 97.6441 187.978C95.7841 191.199 97.5224 193.588 99.5545 196.009L95.9245 202.296C94.1219 200.978 93.4558 199.312 93.7843 197.423L91.0158 197.418C90.5791 200.215 91.8476 202.818 94.5595 204.66L93.2395 206.947L94.8763 207.892L96.2113 205.579C99.3161 206.922 102.557 206.229 104.222 203.345ZM100.034 189.358C100.859 187.929 102.428 187.552 104.055 188.215L100.95 193.593C99.6917 191.931 99.2394 190.735 100.034 189.358ZM97.5913 203.189L100.846 197.551C102.067 199.157 102.675 200.443 101.79 201.976C100.98 203.379 99.43 203.904 97.5913 203.189Z" fill="#16232E"/>
<path d="M25.2177 207.384C27.1227 204.084 25.2285 201.605 23.2224 199.2L26.6724 193.224C27.7585 194.163 28.2478 195.416 28.0174 197.015L30.7039 197.042C30.9946 194.438 29.9139 192.29 28.0374 190.86L29.3724 188.548L27.7356 187.603L26.4156 189.889C23.5896 188.604 20.3202 189.107 18.6402 192.016C16.7802 195.238 18.5185 197.627 20.5506 200.048L16.9206 206.335C15.118 205.017 14.4519 203.351 14.7804 201.462L12.0119 201.457C11.5752 204.253 12.8437 206.856 15.5556 208.699L14.2356 210.985L15.8724 211.93L17.2074 209.618C20.3122 210.96 23.5527 210.268 25.2177 207.384ZM21.0305 193.396C21.8555 191.968 23.4237 191.591 25.0506 192.253L21.9456 197.631C20.6878 195.97 20.2355 194.773 21.0305 193.396ZM18.5874 207.228L21.8424 201.59C23.0632 203.196 23.6714 204.482 22.7864 206.015C21.9764 207.418 20.4261 207.943 18.5874 207.228Z" fill="#16232E"/>
</svg>
