<svg width="151" height="1242" viewBox="0 0 151 1242" fill="none" xmlns="http://www.w3.org/2000/svg">
<path d="M0 980C0 978.895 0.895431 978 2 978H151V1032H0V980Z" fill="#00EAC7"/>
<path d="M33.5099 998.8H25.4299V1000.21H28.7259V1010H30.1979V1000.21H33.5099V998.8ZM38.1054 1010.21C40.4414 1010.21 42.3294 1008.37 42.3294 1006C42.3294 1003.63 40.4414 1001.79 38.1054 1001.79C35.7694 1001.79 33.8974 1003.63 33.8974 1006C33.8974 1008.37 35.7694 1010.21 38.1054 1010.21ZM38.1054 1008.85C36.5214 1008.85 35.2894 1007.62 35.2894 1006C35.2894 1004.38 36.5214 1003.15 38.1054 1003.15C39.7054 1003.15 40.9374 1004.38 40.9374 1006C40.9374 1007.62 39.7054 1008.85 38.1054 1008.85ZM49.1105 1003.34V1002H46.9825V999.76L45.5905 1000.18V1002H44.0065V1003.34H45.5905V1007.68C45.5905 1009.68 46.7105 1010.32 49.1105 1010V1008.75C47.6865 1008.82 46.9825 1008.9 46.9825 1007.68V1003.34H49.1105ZM57.9362 1002V1003.38C57.2962 1002.4 56.2722 1001.79 54.9122 1001.79C52.6882 1001.79 50.8642 1003.63 50.8642 1006C50.8642 1008.37 52.6882 1010.21 54.9122 1010.21C56.2722 1010.21 57.2962 1009.6 57.9362 1008.62V1010H59.3282V1002H57.9362ZM55.0882 1008.86C53.4882 1008.86 52.2562 1007.63 52.2562 1006C52.2562 1004.37 53.4882 1003.14 55.0882 1003.14C56.7042 1003.14 57.9362 1004.37 57.9362 1006C57.9362 1007.63 56.7042 1008.86 55.0882 1008.86ZM62.3973 1010H63.7893V998.32H62.3973V1010ZM75.5929 1010.21C77.8809 1010.21 79.4649 1008.96 79.4649 1006.99C79.4649 1004.83 77.6249 1004.26 75.6729 1003.62C74.1049 1003.12 73.3209 1002.74 73.3209 1001.7C73.3209 1000.67 74.1529 1000.03 75.3529 1000.03C76.7129 1000.03 77.4969 1000.8 77.8969 1001.76L79.1449 1001.04C78.5209 999.632 77.1929 998.592 75.3529 998.592C73.4809 998.592 71.8329 999.744 71.8329 1001.76C71.8329 1003.84 73.5609 1004.4 75.3529 1004.98C77.0009 1005.49 77.9929 1005.87 77.9929 1007.02C77.9929 1008.03 77.2089 1008.75 75.6249 1008.75C73.9929 1008.75 73.0329 1007.95 72.6329 1006.72L71.3529 1007.46C71.9449 1009.14 73.4649 1010.21 75.5929 1010.21ZM87.5629 1002V1006.24C87.5629 1008.13 86.5229 1008.88 85.2429 1008.88C84.0109 1008.88 83.2589 1008.14 83.2589 1006.83V1002H81.8669V1006.91C81.8669 1008.96 83.0989 1010.21 84.9709 1010.21C86.0909 1010.21 86.9709 1009.79 87.5629 1008.85V1010H88.9549V1002H87.5629ZM96.4501 1001.79C95.0901 1001.79 94.0661 1002.4 93.4261 1003.38V1002H92.0341V1013.2H93.4261V1008.62C94.0661 1009.6 95.0901 1010.21 96.4501 1010.21C98.6741 1010.21 100.498 1008.37 100.498 1006C100.498 1003.63 98.6741 1001.79 96.4501 1001.79ZM96.2741 1008.86C94.6581 1008.86 93.4261 1007.63 93.4261 1006C93.4261 1004.37 94.6581 1003.14 96.2741 1003.14C97.8741 1003.14 99.1061 1004.37 99.1061 1006C99.1061 1007.63 97.8741 1008.86 96.2741 1008.86ZM107.535 1001.79C106.175 1001.79 105.151 1002.4 104.511 1003.38V1002H103.119V1013.2H104.511V1008.62C105.151 1009.6 106.175 1010.21 107.535 1010.21C109.759 1010.21 111.583 1008.37 111.583 1006C111.583 1003.63 109.759 1001.79 107.535 1001.79ZM107.359 1008.86C105.743 1008.86 104.511 1007.63 104.511 1006C104.511 1004.37 105.743 1003.14 107.359 1003.14C108.959 1003.14 110.191 1004.37 110.191 1006C110.191 1007.63 108.959 1008.86 107.359 1008.86ZM114.204 1010H115.596V998.32H114.204V1010ZM124.264 1002L121.96 1008.27L119.24 1002H117.752L121.24 1009.97L121.096 1010.27C120.68 1011.33 120.008 1011.98 118.936 1011.9V1013.2C120.568 1013.31 121.816 1012.29 122.488 1010.5L125.752 1002H124.264Z" fill="#111B24"/>
<path d="M92.2849 128.8H84.2049V130.208H87.5009V140H88.9729V130.208H92.2849V128.8ZM94.0964 136.64H100.8C100.832 136.432 100.848 136.224 100.848 136.016C100.848 133.776 99.2804 131.792 96.8644 131.792C94.3684 131.792 92.6724 133.632 92.6724 136C92.6724 138.4 94.3844 140.208 96.9604 140.208C98.5604 140.208 99.7764 139.488 100.48 138.4L99.2964 137.728C98.8964 138.384 98.0964 138.896 96.9924 138.896C95.5044 138.896 94.3684 138.08 94.0964 136.64ZM96.8644 133.104C98.0644 133.104 99.2004 133.84 99.4404 135.424H94.0964C94.3204 134.032 95.3604 133.104 96.8644 133.104ZM110.017 132V133.376C109.377 132.4 108.353 131.792 106.993 131.792C104.769 131.792 102.945 133.632 102.945 136C102.945 138.368 104.769 140.208 106.993 140.208C108.353 140.208 109.377 139.6 110.017 138.624V140H111.409V132H110.017ZM107.169 138.864C105.569 138.864 104.337 137.632 104.337 136C104.337 134.368 105.569 133.136 107.169 133.136C108.785 133.136 110.017 134.368 110.017 136C110.017 137.632 108.785 138.864 107.169 138.864ZM123.118 131.792C122.078 131.792 121.166 132.24 120.606 133.152C120.142 132.288 119.342 131.792 118.254 131.792C117.278 131.792 116.446 132.176 115.87 133.072V132H114.478V140H115.87V135.552C115.87 133.824 116.846 133.12 117.918 133.12C118.958 133.12 119.614 133.808 119.614 135.072V140H121.006V135.552C121.006 133.824 121.854 133.12 122.974 133.12C124.03 133.12 124.734 133.808 124.734 135.072V140H126.126V135.024C126.126 133.024 124.894 131.792 123.118 131.792Z" fill="white"/>
<path d="M-1 97C-1 95.3431 0.343146 94 2 94H151V96H2C1.44772 96 1 96.4477 1 97H-1ZM151 176H2C0.343146 176 -1 174.657 -1 173H1C1 173.552 1.44772 174 2 174H151V176ZM2 176C0.343146 176 -1 174.657 -1 173V97C-1 95.3431 0.343146 94 2 94V96C1.44772 96 1 96.4477 1 97V173C1 173.552 1.44772 174 2 174V176ZM151 95V175V95Z" fill="#1B2B38" mask="url(#path-3-inside-1_2028_8790)"/>
<path d="M41.6486 226.208V224.8H35.2006V236H36.6886V231.248H41.4406V229.84H36.6886V226.208H41.6486ZM48.0266 236.208C50.3626 236.208 52.2506 234.368 52.2506 232C52.2506 229.632 50.3626 227.792 48.0266 227.792C45.6906 227.792 43.8186 229.632 43.8186 232C43.8186 234.368 45.6906 236.208 48.0266 236.208ZM48.0266 234.848C46.4426 234.848 45.2106 233.616 45.2106 232C45.2106 230.384 46.4426 229.152 48.0266 229.152C49.6266 229.152 50.8586 230.384 50.8586 232C50.8586 233.616 49.6266 234.848 48.0266 234.848ZM60.3716 228V232.24C60.3716 234.128 59.3316 234.88 58.0516 234.88C56.8196 234.88 56.0676 234.144 56.0676 232.832V228H54.6756V232.912C54.6756 234.96 55.9076 236.208 57.7796 236.208C58.8996 236.208 59.7796 235.792 60.3716 234.848V236H61.7636V228H60.3716ZM68.8269 227.792C67.7069 227.792 66.8269 228.208 66.2349 229.152V228H64.8429V236H66.2349V231.76C66.2349 229.872 67.2749 229.12 68.5549 229.12C69.7869 229.12 70.5389 229.856 70.5389 231.168V236H71.9309V231.088C71.9309 229.04 70.6989 227.792 68.8269 227.792ZM81.4581 224.8V229.376C80.8181 228.4 79.7941 227.792 78.4341 227.792C76.2101 227.792 74.3861 229.632 74.3861 232C74.3861 234.368 76.2101 236.208 78.4341 236.208C79.7941 236.208 80.8181 235.6 81.4581 234.624V236H82.8501V224.8H81.4581ZM78.6101 234.864C77.0101 234.864 75.7781 233.632 75.7781 232C75.7781 230.368 77.0101 229.136 78.6101 229.136C80.2261 229.136 81.4581 230.368 81.4581 232C81.4581 233.632 80.2261 234.864 78.6101 234.864ZM92.5431 228V229.376C91.9031 228.4 90.8791 227.792 89.5191 227.792C87.2951 227.792 85.4711 229.632 85.4711 232C85.4711 234.368 87.2951 236.208 89.5191 236.208C90.8791 236.208 91.9031 235.6 92.5431 234.624V236H93.9351V228H92.5431ZM89.6951 234.864C88.0951 234.864 86.8631 233.632 86.8631 232C86.8631 230.368 88.0951 229.136 89.6951 229.136C91.3111 229.136 92.5431 230.368 92.5431 232C92.5431 233.632 91.3111 234.864 89.6951 234.864ZM101.356 229.344V228H99.2281V225.76L97.8361 226.176V228H96.2521V229.344H97.8361V233.68C97.8361 235.68 98.9561 236.32 101.356 236V234.752C99.9321 234.816 99.2281 234.896 99.2281 233.68V229.344H101.356ZM104.668 226.544C105.18 226.544 105.596 226.128 105.596 225.616C105.596 225.104 105.18 224.672 104.668 224.672C104.14 224.672 103.724 225.104 103.724 225.616C103.724 226.128 104.14 226.544 104.668 226.544ZM103.964 236H105.356V228H103.964V236ZM112.2 236.208C114.536 236.208 116.424 234.368 116.424 232C116.424 229.632 114.536 227.792 112.2 227.792C109.864 227.792 107.992 229.632 107.992 232C107.992 234.368 109.864 236.208 112.2 236.208ZM112.2 234.848C110.616 234.848 109.384 233.616 109.384 232C109.384 230.384 110.616 229.152 112.2 229.152C113.8 229.152 115.032 230.384 115.032 232C115.032 233.616 113.8 234.848 112.2 234.848ZM123.009 227.792C121.889 227.792 121.009 228.208 120.417 229.152V228H119.025V236H120.417V231.76C120.417 229.872 121.457 229.12 122.737 229.12C123.969 229.12 124.721 229.856 124.721 231.168V236H126.113V231.088C126.113 229.04 124.881 227.792 123.009 227.792Z" fill="white"/>
<path d="M-1 193C-1 191.343 0.343146 190 2 190H151V192H2C1.44772 192 1 192.448 1 193H-1ZM151 272H2C0.343146 272 -1 270.657 -1 269H1C1 269.552 1.44772 270 2 270H151V272ZM2 272C0.343146 272 -1 270.657 -1 269V193C-1 191.343 0.343146 190 2 190V192C1.44772 192 1 192.448 1 193V269C1 269.552 1.44772 270 2 270V272ZM151 191V271V191Z" fill="#1B2B38" mask="url(#path-6-inside-2_2028_8790)"/>
<path d="M83.089 704.8H79.025V716H80.513V712H83.089C85.153 712 86.705 710.432 86.705 708.4C86.705 706.352 85.153 704.8 83.089 704.8ZM83.089 710.608H80.513V706.192H83.089C84.321 706.192 85.233 707.12 85.233 708.4C85.233 709.664 84.321 710.608 83.089 710.608ZM94.7985 708V712.24C94.7985 714.128 93.7585 714.88 92.4785 714.88C91.2465 714.88 90.4945 714.144 90.4945 712.832V708H89.1025V712.912C89.1025 714.96 90.3345 716.208 92.2065 716.208C93.3265 716.208 94.2065 715.792 94.7985 714.848V716H96.1905V708H94.7985ZM103.686 707.792C102.326 707.792 101.302 708.4 100.662 709.376V704.8H99.2698V716H100.662V714.624C101.302 715.6 102.326 716.208 103.686 716.208C105.91 716.208 107.734 714.368 107.734 712C107.734 709.632 105.91 707.792 103.686 707.792ZM103.51 714.864C101.894 714.864 100.662 713.632 100.662 712C100.662 710.368 101.894 709.136 103.51 709.136C105.11 709.136 106.342 710.368 106.342 712C106.342 713.632 105.11 714.864 103.51 714.864ZM110.355 716H111.747V704.32H110.355V716ZM115.534 706.544C116.046 706.544 116.462 706.128 116.462 705.616C116.462 705.104 116.046 704.672 115.534 704.672C115.006 704.672 114.59 705.104 114.59 705.616C114.59 706.128 115.006 706.544 115.534 706.544ZM114.83 716H116.222V708H114.83V716ZM123.066 716.208C124.634 716.208 125.994 715.376 126.666 714.128L125.482 713.44C125.034 714.272 124.154 714.832 123.066 714.832C121.466 714.832 120.25 713.6 120.25 712C120.25 710.384 121.466 709.152 123.066 709.152C124.138 709.152 125.034 709.712 125.434 710.56L126.602 709.888C125.994 708.624 124.65 707.792 123.066 707.792C120.65 707.792 118.858 709.632 118.858 712C118.858 714.368 120.65 716.208 123.066 716.208Z" fill="white"/>
<path d="M-1 673C-1 671.343 0.343146 670 2 670H151V672H2C1.44772 672 1 672.448 1 673H-1ZM151 752H2C0.343146 752 -1 750.657 -1 749H1C1 749.552 1.44772 750 2 750H151V752ZM2 752C0.343146 752 -1 750.657 -1 749V673C-1 671.343 0.343146 670 2 670V672C1.44772 672 1 672.448 1 673V749C1 749.552 1.44772 750 2 750V752ZM151 671V751V671Z" fill="#1B2B38" mask="url(#path-9-inside-3_2028_8790)"/>
<path d="M58.044 320.8H53.98V332H55.468V328H58.044C60.108 328 61.66 326.432 61.66 324.4C61.66 322.352 60.108 320.8 58.044 320.8ZM58.044 326.608H55.468V322.192H58.044C59.276 322.192 60.188 323.12 60.188 324.4C60.188 325.664 59.276 326.608 58.044 326.608ZM65.4536 325.344V324H64.0616V332H65.4536V327.76C65.4536 325.872 66.7496 325.264 67.9496 325.312V323.856C66.9416 323.856 65.9656 324.224 65.4536 325.344ZM70.8101 328.64H77.5141C77.5461 328.432 77.5621 328.224 77.5621 328.016C77.5621 325.776 75.9941 323.792 73.5781 323.792C71.0821 323.792 69.3861 325.632 69.3861 328C69.3861 330.4 71.0981 332.208 73.6741 332.208C75.2741 332.208 76.4901 331.488 77.1941 330.4L76.0101 329.728C75.6101 330.384 74.8101 330.896 73.7061 330.896C72.2181 330.896 71.0821 330.08 70.8101 328.64ZM73.5781 325.104C74.7781 325.104 75.9141 325.84 76.1541 327.424H70.8101C71.0341 326.032 72.0741 325.104 73.5781 325.104ZM80.2662 327.76H86.1062V326.416H80.2662V327.76ZM90.5166 326.16C90.5166 325.44 91.2206 325.088 91.9406 325.088C92.6446 325.088 93.3486 325.392 93.6526 326.112L94.8206 325.456C94.3086 324.416 93.2526 323.792 91.9406 323.792C90.3246 323.792 89.1086 324.768 89.1086 326.176C89.1086 329.072 93.5886 328.096 93.5886 329.808C93.5886 330.592 92.8526 330.896 92.0046 330.896C91.0126 330.896 90.2766 330.416 90.0206 329.648L88.8206 330.336C89.2846 331.44 90.4046 332.208 92.0046 332.208C93.7166 332.208 94.9966 331.296 94.9966 329.808C94.9966 326.864 90.5166 327.872 90.5166 326.16ZM98.362 328.64H105.066C105.098 328.432 105.114 328.224 105.114 328.016C105.114 325.776 103.546 323.792 101.13 323.792C98.634 323.792 96.938 325.632 96.938 328C96.938 330.4 98.65 332.208 101.226 332.208C102.826 332.208 104.042 331.488 104.746 330.4L103.562 329.728C103.162 330.384 102.362 330.896 101.258 330.896C99.77 330.896 98.634 330.08 98.362 328.64ZM101.13 325.104C102.33 325.104 103.466 325.84 103.706 327.424H98.362C98.586 326.032 99.626 325.104 101.13 325.104ZM108.634 328.64H115.338C115.37 328.432 115.386 328.224 115.386 328.016C115.386 325.776 113.818 323.792 111.402 323.792C108.906 323.792 107.21 325.632 107.21 328C107.21 330.4 108.922 332.208 111.498 332.208C113.098 332.208 114.314 331.488 115.018 330.4L113.834 329.728C113.434 330.384 112.634 330.896 111.53 330.896C110.042 330.896 108.906 330.08 108.634 328.64ZM111.402 325.104C112.602 325.104 113.738 325.84 113.978 327.424H108.634C108.858 326.032 109.898 325.104 111.402 325.104ZM124.555 320.8V325.376C123.915 324.4 122.891 323.792 121.531 323.792C119.307 323.792 117.483 325.632 117.483 328C117.483 330.368 119.307 332.208 121.531 332.208C122.891 332.208 123.915 331.6 124.555 330.624V332H125.947V320.8H124.555ZM121.707 330.864C120.107 330.864 118.875 329.632 118.875 328C118.875 326.368 120.107 325.136 121.707 325.136C123.323 325.136 124.555 326.368 124.555 328C124.555 329.632 123.323 330.864 121.707 330.864Z" fill="white"/>
<path d="M-1 289C-1 287.343 0.343146 286 2 286H151V288H2C1.44772 288 1 288.448 1 289H-1ZM151 368H2C0.343146 368 -1 366.657 -1 365H1C1 365.552 1.44772 366 2 366H151V368ZM2 368C0.343146 368 -1 366.657 -1 365V289C-1 287.343 0.343146 286 2 286V288C1.44772 288 1 288.448 1 289V365C1 365.552 1.44772 366 2 366V368ZM151 287V367V287Z" fill="#1B2B38" mask="url(#path-12-inside-4_2028_8790)"/>
<path d="M90.7485 428.208C93.0365 428.208 94.6205 426.96 94.6205 424.992C94.6205 422.832 92.7805 422.256 90.8285 421.616C89.2605 421.12 88.4765 420.736 88.4765 419.696C88.4765 418.672 89.3085 418.032 90.5085 418.032C91.8685 418.032 92.6525 418.8 93.0525 419.76L94.3005 419.04C93.6765 417.632 92.3485 416.592 90.5085 416.592C88.6365 416.592 86.9885 417.744 86.9885 419.76C86.9885 421.84 88.7165 422.4 90.5085 422.976C92.1565 423.488 93.1485 423.872 93.1485 425.024C93.1485 426.032 92.3645 426.752 90.7805 426.752C89.1485 426.752 88.1885 425.952 87.7885 424.72L86.5085 425.456C87.1005 427.136 88.6205 428.208 90.7485 428.208ZM98.362 424.64H105.066C105.098 424.432 105.114 424.224 105.114 424.016C105.114 421.776 103.546 419.792 101.13 419.792C98.634 419.792 96.938 421.632 96.938 424C96.938 426.4 98.65 428.208 101.226 428.208C102.826 428.208 104.042 427.488 104.746 426.4L103.562 425.728C103.162 426.384 102.362 426.896 101.258 426.896C99.77 426.896 98.634 426.08 98.362 424.64ZM101.13 421.104C102.33 421.104 103.466 421.84 103.706 423.424H98.362C98.586 422.032 99.626 421.104 101.13 421.104ZM108.634 424.64H115.338C115.37 424.432 115.386 424.224 115.386 424.016C115.386 421.776 113.818 419.792 111.402 419.792C108.906 419.792 107.21 421.632 107.21 424C107.21 426.4 108.922 428.208 111.498 428.208C113.098 428.208 114.314 427.488 115.018 426.4L113.834 425.728C113.434 426.384 112.634 426.896 111.53 426.896C110.042 426.896 108.906 426.08 108.634 424.64ZM111.402 421.104C112.602 421.104 113.738 421.84 113.978 423.424H108.634C108.858 422.032 109.898 421.104 111.402 421.104ZM124.555 416.8V421.376C123.915 420.4 122.891 419.792 121.531 419.792C119.307 419.792 117.483 421.632 117.483 424C117.483 426.368 119.307 428.208 121.531 428.208C122.891 428.208 123.915 427.6 124.555 426.624V428H125.947V416.8H124.555ZM121.707 426.864C120.107 426.864 118.875 425.632 118.875 424C118.875 422.368 120.107 421.136 121.707 421.136C123.323 421.136 124.555 422.368 124.555 424C124.555 425.632 123.323 426.864 121.707 426.864Z" fill="white"/>
<path d="M-1 385C-1 383.343 0.343146 382 2 382H151V384H2C1.44772 384 1 384.448 1 385H-1ZM151 464H2C0.343146 464 -1 462.657 -1 461H1C1 461.552 1.44772 462 2 462H151V464ZM2 464C0.343146 464 -1 462.657 -1 461V385C-1 383.343 0.343146 382 2 382V384C1.44772 384 1 384.448 1 385V461C1 461.552 1.44772 462 2 462V464ZM151 383V463V383Z" fill="#1B2B38" mask="url(#path-15-inside-5_2028_8790)"/>
<path d="M95.3424 800.8H87.1024V802.912H90.1104V812H92.3184V802.912H95.3424V800.8ZM99.7939 812.224C102.146 812.224 104.034 810.384 104.034 808C104.034 805.616 102.146 803.776 99.7939 803.776C97.4419 803.776 95.5699 805.616 95.5699 808C95.5699 810.384 97.4419 812.224 99.7939 812.224ZM99.7939 810.208C98.5779 810.208 97.6339 809.296 97.6339 808C97.6339 806.704 98.5779 805.792 99.7939 805.792C101.026 805.792 101.97 806.704 101.97 808C101.97 809.296 101.026 810.208 99.7939 810.208ZM110.85 805.984V804H109.042V801.76L106.978 802.384V804H105.586V805.984H106.978V809.312C106.978 811.472 107.954 812.32 110.85 812V810.128C109.666 810.192 109.042 810.176 109.042 809.312V805.984H110.85ZM119.095 804V804.944C118.519 804.224 117.655 803.776 116.487 803.776C114.359 803.776 112.599 805.616 112.599 808C112.599 810.384 114.359 812.224 116.487 812.224C117.655 812.224 118.519 811.776 119.095 811.056V812H121.159V804H119.095ZM116.871 810.256C115.607 810.256 114.663 809.344 114.663 808C114.663 806.656 115.607 805.744 116.871 805.744C118.151 805.744 119.095 806.656 119.095 808C119.095 809.344 118.151 810.256 116.871 810.256ZM123.991 812H126.055V800.32H123.991V812Z" fill="white"/>
<path d="M82.129 502.8H78.065V514H79.553V510H82.129C84.193 510 85.745 508.432 85.745 506.4C85.745 504.352 84.193 502.8 82.129 502.8ZM82.129 508.608H79.553V504.192H82.129C83.361 504.192 84.273 505.12 84.273 506.4C84.273 507.664 83.361 508.608 82.129 508.608ZM93.8385 506V510.24C93.8385 512.128 92.7985 512.88 91.5185 512.88C90.2865 512.88 89.5345 512.144 89.5345 510.832V506H88.1425V510.912C88.1425 512.96 89.3745 514.208 91.2465 514.208C92.3665 514.208 93.2465 513.792 93.8385 512.848V514H95.2305V506H93.8385ZM102.726 505.792C101.366 505.792 100.342 506.4 99.7018 507.376V502.8H98.3098V514H99.7018V512.624C100.342 513.6 101.366 514.208 102.726 514.208C104.95 514.208 106.774 512.368 106.774 510C106.774 507.632 104.95 505.792 102.726 505.792ZM102.55 512.864C100.934 512.864 99.7018 511.632 99.7018 510C99.7018 508.368 100.934 507.136 102.55 507.136C104.15 507.136 105.382 508.368 105.382 510C105.382 511.632 104.15 512.864 102.55 512.864ZM109.395 514H110.787V502.32H109.395V514ZM114.574 504.544C115.086 504.544 115.502 504.128 115.502 503.616C115.502 503.104 115.086 502.672 114.574 502.672C114.046 502.672 113.63 503.104 113.63 503.616C113.63 504.128 114.046 504.544 114.574 504.544ZM113.87 514H115.262V506H113.87V514ZM122.106 514.208C123.674 514.208 125.034 513.376 125.706 512.128L124.522 511.44C124.074 512.272 123.194 512.832 122.106 512.832C120.506 512.832 119.29 511.6 119.29 510C119.29 508.384 120.506 507.152 122.106 507.152C123.178 507.152 124.074 507.712 124.474 508.56L125.642 507.888C125.034 506.624 123.69 505.792 122.106 505.792C119.69 505.792 117.898 507.632 117.898 510C117.898 512.368 119.69 514.208 122.106 514.208ZM73.3321 522.8H69.2681V534H70.7561V530H73.3321C75.3961 530 76.9481 528.432 76.9481 526.4C76.9481 524.352 75.3961 522.8 73.3321 522.8ZM73.3321 528.608H70.7561V524.192H73.3321C74.5641 524.192 75.4761 525.12 75.4761 526.4C75.4761 527.664 74.5641 528.608 73.3321 528.608ZM80.7418 527.344V526H79.3498V534H80.7418V529.76C80.7418 527.872 82.0378 527.264 83.2378 527.312V525.856C82.2298 525.856 81.2538 526.224 80.7418 527.344ZM86.0983 530.64H92.8023C92.8343 530.432 92.8503 530.224 92.8503 530.016C92.8503 527.776 91.2823 525.792 88.8663 525.792C86.3703 525.792 84.6743 527.632 84.6743 530C84.6743 532.4 86.3863 534.208 88.9623 534.208C90.5623 534.208 91.7783 533.488 92.4823 532.4L91.2983 531.728C90.8983 532.384 90.0983 532.896 88.9943 532.896C87.5063 532.896 86.3703 532.08 86.0983 530.64ZM88.8663 527.104C90.0663 527.104 91.2023 527.84 91.4423 529.424H86.0983C86.3223 528.032 87.3623 527.104 88.8663 527.104ZM96.2979 528.16C96.2979 527.44 97.0019 527.088 97.7219 527.088C98.4259 527.088 99.1299 527.392 99.4339 528.112L100.602 527.456C100.09 526.416 99.0339 525.792 97.7219 525.792C96.1059 525.792 94.8899 526.768 94.8899 528.176C94.8899 531.072 99.3699 530.096 99.3699 531.808C99.3699 532.592 98.6339 532.896 97.7859 532.896C96.7939 532.896 96.0579 532.416 95.8019 531.648L94.6019 532.336C95.0659 533.44 96.1859 534.208 97.7859 534.208C99.4979 534.208 100.778 533.296 100.778 531.808C100.778 528.864 96.2979 529.872 96.2979 528.16ZM109.791 526V527.376C109.151 526.4 108.127 525.792 106.767 525.792C104.543 525.792 102.719 527.632 102.719 530C102.719 532.368 104.543 534.208 106.767 534.208C108.127 534.208 109.151 533.6 109.791 532.624V534H111.183V526H109.791ZM106.943 532.864C105.343 532.864 104.111 531.632 104.111 530C104.111 528.368 105.343 527.136 106.943 527.136C108.559 527.136 109.791 528.368 109.791 530C109.791 531.632 108.559 532.864 106.943 532.864ZM114.252 534H115.644V522.32H114.252V534ZM119.704 530.64H126.408C126.44 530.432 126.456 530.224 126.456 530.016C126.456 527.776 124.888 525.792 122.472 525.792C119.976 525.792 118.28 527.632 118.28 530C118.28 532.4 119.992 534.208 122.568 534.208C124.168 534.208 125.384 533.488 126.088 532.4L124.904 531.728C124.504 532.384 123.704 532.896 122.6 532.896C121.112 532.896 119.976 532.08 119.704 530.64ZM122.472 527.104C123.672 527.104 124.808 527.84 125.048 529.424H119.704C119.928 528.032 120.968 527.104 122.472 527.104Z" fill="white"/>
<path d="M-1 481C-1 479.343 0.343146 478 2 478H151V480H2C1.44772 480 1 480.448 1 481H-1ZM151 560H2C0.343146 560 -1 558.657 -1 557H1C1 557.552 1.44772 558 2 558H151V560ZM2 560C0.343146 560 -1 558.657 -1 557V481C-1 479.343 0.343146 478 2 478V480C1.44772 480 1 480.448 1 481V557C1 557.552 1.44772 558 2 558V560ZM151 479V559V479Z" fill="#1B2B38" mask="url(#path-20-inside-6_2028_8790)"/>
<mask id="path-23-inside-7_2028_8790" fill="white">
<path d="M0 1032H151V1145H2C0.895433 1145 0 1144.1 0 1143V1032Z"/>
</mask>
<path d="M0 1032H151V1145H2C0.895433 1145 0 1144.1 0 1143V1032Z" fill="#111B24"/>
<path d="M16.1442 1075.09V1071.54H20.8642V1070.15H16.1442V1066.71H21.2642V1065.3H14.6562V1076.5H21.3442V1075.09H16.1442ZM25.1566 1070.66C25.1566 1069.94 25.8606 1069.59 26.5806 1069.59C27.2846 1069.59 27.9886 1069.89 28.2926 1070.61L29.4606 1069.96C28.9486 1068.92 27.8926 1068.29 26.5806 1068.29C24.9646 1068.29 23.7486 1069.27 23.7486 1070.68C23.7486 1073.57 28.2286 1072.6 28.2286 1074.31C28.2286 1075.09 27.4926 1075.4 26.6446 1075.4C25.6526 1075.4 24.9166 1074.92 24.6606 1074.15L23.4606 1074.84C23.9246 1075.94 25.0446 1076.71 26.6446 1076.71C28.3566 1076.71 29.6366 1075.8 29.6366 1074.31C29.6366 1071.36 25.1566 1072.37 25.1566 1070.66ZM36.2842 1069.84V1068.5H34.1562V1066.26L32.7642 1066.68V1068.5H31.1802V1069.84H32.7642V1074.18C32.7642 1076.18 33.8842 1076.82 36.2842 1076.5V1075.25C34.8602 1075.32 34.1562 1075.4 34.1562 1074.18V1069.84H36.2842ZM39.8191 1076.68C40.4111 1076.68 40.8591 1076.21 40.8591 1075.64C40.8591 1075.06 40.4111 1074.6 39.8191 1074.6C39.2431 1074.6 38.7791 1075.06 38.7791 1075.64C38.7791 1076.21 39.2431 1076.68 39.8191 1076.68ZM54.1577 1076.71C56.2377 1076.71 58.0617 1075.62 58.9897 1073.97L57.6937 1073.24C57.0537 1074.45 55.6937 1075.25 54.1577 1075.25C51.5337 1075.25 49.7737 1073.35 49.7737 1070.9C49.7737 1068.44 51.5337 1066.53 54.1577 1066.53C55.6937 1066.53 57.0537 1067.33 57.6937 1068.56L58.9897 1067.81C58.0457 1066.16 56.2217 1065.09 54.1577 1065.09C50.7337 1065.09 48.3017 1067.67 48.3017 1070.9C48.3017 1074.12 50.7337 1076.71 54.1577 1076.71ZM62.2419 1067.04C62.7539 1067.04 63.1699 1066.63 63.1699 1066.12C63.1699 1065.6 62.7539 1065.17 62.2419 1065.17C61.7139 1065.17 61.2979 1065.6 61.2979 1066.12C61.2979 1066.63 61.7139 1067.04 62.2419 1067.04ZM61.5379 1076.5H62.9299V1068.5H61.5379V1076.5ZM67.4055 1069.84V1068.5H66.0135V1076.5H67.4055V1072.26C67.4055 1070.37 68.7015 1069.76 69.9015 1069.81V1068.36C68.8935 1068.36 67.9175 1068.72 67.4055 1069.84ZM75.546 1076.71C77.114 1076.71 78.474 1075.88 79.146 1074.63L77.962 1073.94C77.514 1074.77 76.634 1075.33 75.546 1075.33C73.946 1075.33 72.73 1074.1 72.73 1072.5C72.73 1070.88 73.946 1069.65 75.546 1069.65C76.618 1069.65 77.514 1070.21 77.914 1071.06L79.082 1070.39C78.474 1069.12 77.13 1068.29 75.546 1068.29C73.13 1068.29 71.338 1070.13 71.338 1072.5C71.338 1074.87 73.13 1076.71 75.546 1076.71ZM87.016 1068.5V1072.74C87.016 1074.63 85.976 1075.38 84.696 1075.38C83.464 1075.38 82.712 1074.64 82.712 1073.33V1068.5H81.32V1073.41C81.32 1075.46 82.552 1076.71 84.424 1076.71C85.544 1076.71 86.424 1076.29 87.016 1075.35V1076.5H88.408V1068.5H87.016ZM91.4872 1076.5H92.8792V1064.82H91.4872V1076.5ZM102.587 1068.5V1069.88C101.947 1068.9 100.923 1068.29 99.5629 1068.29C97.3389 1068.29 95.5149 1070.13 95.5149 1072.5C95.5149 1074.87 97.3389 1076.71 99.5629 1076.71C100.923 1076.71 101.947 1076.1 102.587 1075.12V1076.5H103.979V1068.5H102.587ZM99.7389 1075.36C98.1389 1075.36 96.9069 1074.13 96.9069 1072.5C96.9069 1070.87 98.1389 1069.64 99.7389 1069.64C101.355 1069.64 102.587 1070.87 102.587 1072.5C102.587 1074.13 101.355 1075.36 99.7389 1075.36ZM111.4 1069.84V1068.5H109.272V1066.26L107.88 1066.68V1068.5H106.296V1069.84H107.88V1074.18C107.88 1076.18 109 1076.82 111.4 1076.5V1075.25C109.976 1075.32 109.272 1075.4 109.272 1074.18V1069.84H111.4ZM114.712 1067.04C115.224 1067.04 115.64 1066.63 115.64 1066.12C115.64 1065.6 115.224 1065.17 114.712 1065.17C114.184 1065.17 113.768 1065.6 113.768 1066.12C113.768 1066.63 114.184 1067.04 114.712 1067.04ZM114.008 1076.5H115.4V1068.5H114.008V1076.5ZM122.468 1068.29C121.348 1068.29 120.468 1068.71 119.876 1069.65V1068.5H118.484V1076.5H119.876V1072.26C119.876 1070.37 120.916 1069.62 122.196 1069.62C123.428 1069.62 124.18 1070.36 124.18 1071.67V1076.5H125.572V1071.59C125.572 1069.54 124.34 1068.29 122.468 1068.29ZM135.115 1068.5V1069.88C134.475 1068.9 133.451 1068.29 132.107 1068.29C129.835 1068.29 128.027 1070.13 128.027 1072.45C128.027 1074.79 129.835 1076.63 132.107 1076.63C133.451 1076.63 134.475 1076 135.115 1075.03V1076.16C135.115 1077.67 134.107 1078.61 132.443 1078.61C130.875 1078.61 130.203 1078.02 129.835 1077.27L128.619 1077.96C129.275 1079.22 130.619 1079.91 132.411 1079.91C134.491 1079.91 136.491 1078.66 136.491 1076.16V1068.5H135.115ZM132.267 1075.3C130.651 1075.3 129.419 1074.07 129.419 1072.45C129.419 1070.85 130.651 1069.62 132.267 1069.62C133.883 1069.62 135.115 1070.85 135.115 1072.45C135.115 1074.07 133.883 1075.3 132.267 1075.3Z" fill="#00EAC7"/>
<path d="M14.2812 1094.5V1086.47H15.0352V1094.5H14.2812ZM23.0052 1094.5V1090.87C23.0052 1090.21 22.847 1089.71 22.5307 1089.36C22.2187 1089.02 21.7875 1088.84 21.2372 1088.84C20.8342 1088.84 20.4854 1088.96 20.1907 1089.18C19.9004 1089.4 19.6772 1089.71 19.5212 1090.11C19.3695 1090.5 19.2937 1090.97 19.2937 1091.5H18.9622C18.9622 1090.83 19.0532 1090.24 19.2352 1089.75C19.4215 1089.25 19.6945 1088.87 20.0542 1088.6C20.4182 1088.32 20.8689 1088.19 21.4062 1088.19C21.8829 1088.19 22.2945 1088.29 22.6412 1088.51C22.9922 1088.72 23.263 1089.03 23.4537 1089.43C23.6444 1089.83 23.7397 1090.31 23.7397 1090.87V1094.5H23.0052ZM18.5397 1094.5V1088.33H19.1767L19.2937 1089.85V1094.5H18.5397ZM29.1184 1094.64C28.6374 1094.64 28.1868 1094.51 27.7664 1094.25C27.3461 1093.98 27.0059 1093.61 26.7459 1093.12C26.4903 1092.64 26.3624 1092.06 26.3624 1091.4C26.3624 1090.73 26.4903 1090.15 26.7459 1089.68C27.0059 1089.2 27.3461 1088.83 27.7664 1088.57C28.1868 1088.32 28.6374 1088.19 29.1184 1088.19C29.4391 1088.19 29.7294 1088.24 29.9894 1088.33C30.2538 1088.42 30.4856 1088.55 30.6849 1088.72C30.8886 1088.89 31.0619 1089.08 31.2049 1089.3C31.3479 1089.52 31.4584 1089.75 31.5364 1090L30.7499 1090.12C30.6243 1089.72 30.4184 1089.41 30.1324 1089.18C29.8464 1088.96 29.5041 1088.84 29.1054 1088.84C28.7674 1088.84 28.4489 1088.94 28.1499 1089.14C27.8553 1089.33 27.6148 1089.62 27.4284 1090C27.2421 1090.38 27.1489 1090.84 27.1489 1091.4C27.1489 1091.9 27.2313 1092.35 27.3959 1092.74C27.5649 1093.12 27.7968 1093.43 28.0914 1093.65C28.3861 1093.87 28.7241 1093.97 29.1054 1093.97C29.6298 1093.97 30.0349 1093.84 30.3209 1093.58C30.6069 1093.32 30.7499 1092.96 30.7499 1092.48H31.5364C31.5364 1092.91 31.4346 1093.28 31.2309 1093.61C31.0273 1093.93 30.7434 1094.19 30.3794 1094.37C30.0154 1094.55 29.5951 1094.64 29.1184 1094.64ZM34.4327 1094.5V1085.66H35.1867V1094.5H34.4327ZM42.9292 1088.32H43.6832V1094.5H42.9292V1088.32ZM38.4832 1088.32H39.2372V1092.2C39.2372 1092.77 39.3759 1093.21 39.6532 1093.51C39.9349 1093.81 40.34 1093.96 40.8687 1093.96C41.302 1093.96 41.6725 1093.84 41.9802 1093.61C42.2879 1093.38 42.5219 1093.06 42.6822 1092.67C42.8469 1092.27 42.9292 1091.84 42.9292 1091.36H43.2867C43.2867 1092.02 43.1849 1092.59 42.9812 1093.08C42.7775 1093.57 42.4894 1093.95 42.1167 1094.22C41.744 1094.48 41.302 1094.62 40.7907 1094.62C40.314 1094.62 39.9024 1094.53 39.5557 1094.35C39.2134 1094.17 38.949 1093.91 38.7627 1093.56C38.5764 1093.2 38.4832 1092.76 38.4832 1092.24V1088.32ZM49.3802 1094.64C48.7822 1094.64 48.2882 1094.56 47.8982 1094.38C47.5125 1094.21 47.2222 1093.98 47.0272 1093.68C46.8322 1093.39 46.726 1093.06 46.7087 1092.69H47.4627C47.4887 1093.13 47.6642 1093.46 47.9892 1093.69C48.3185 1093.91 48.767 1094.02 49.3347 1094.02C49.6293 1094.02 49.9023 1093.97 50.1537 1093.88C50.405 1093.78 50.6065 1093.64 50.7582 1093.47C50.9142 1093.3 50.9922 1093.1 50.9922 1092.89C50.9922 1092.61 50.8903 1092.39 50.6867 1092.24C50.483 1092.08 50.1602 1091.95 49.7182 1091.83L48.5937 1091.5C48.052 1091.34 47.6382 1091.12 47.3522 1090.83C47.0662 1090.54 46.9232 1090.2 46.9232 1089.79C46.9232 1089.31 47.1333 1088.92 47.5537 1088.63C47.974 1088.34 48.5222 1088.19 49.1982 1088.19C49.9348 1088.19 50.509 1088.33 50.9207 1088.62C51.3323 1088.91 51.549 1089.28 51.5707 1089.71H50.7907C50.743 1089.4 50.5848 1089.17 50.3162 1089.03C50.0475 1088.88 49.6748 1088.8 49.1982 1088.8C48.7258 1088.8 48.3597 1088.91 48.0997 1089.12C47.8397 1089.34 47.7097 1089.58 47.7097 1089.83C47.7097 1090.33 48.1343 1090.69 48.9837 1090.92L50.0887 1091.26C50.6433 1091.42 51.0658 1091.63 51.3562 1091.89C51.6508 1092.15 51.7982 1092.48 51.7982 1092.89C51.7982 1093.19 51.7007 1093.47 51.5057 1093.74C51.315 1094.01 51.0398 1094.23 50.6802 1094.4C50.3205 1094.56 49.8872 1094.64 49.3802 1094.64ZM55.2095 1086.71C55.0492 1086.71 54.9192 1086.66 54.8195 1086.56C54.7199 1086.46 54.67 1086.33 54.67 1086.18C54.67 1086.03 54.7199 1085.92 54.8195 1085.83C54.9192 1085.74 55.0492 1085.69 55.2095 1085.69C55.3785 1085.69 55.5107 1085.74 55.606 1085.83C55.7014 1085.92 55.749 1086.03 55.749 1086.18C55.749 1086.33 55.7014 1086.46 55.606 1086.56C55.5107 1086.66 55.3785 1086.71 55.2095 1086.71ZM54.8325 1094.5V1088.32H55.5865V1094.5H54.8325ZM58.1697 1088.33H59.0212L61.1922 1093.85H61.0362L63.2072 1088.33H64.0587L61.5107 1094.5H60.7177L58.1697 1088.33ZM68.526 1094.64C67.9887 1094.64 67.5142 1094.51 67.1025 1094.23C66.6952 1093.96 66.3745 1093.58 66.1405 1093.1C65.9065 1092.61 65.7895 1092.06 65.7895 1091.44C65.7895 1090.76 65.9043 1090.18 66.134 1089.7C66.368 1089.21 66.6887 1088.84 67.096 1088.58C67.5077 1088.32 67.9843 1088.19 68.526 1088.19C68.981 1088.19 69.3667 1088.28 69.683 1088.47C70.0037 1088.65 70.2615 1088.9 70.4565 1089.22C70.6515 1089.53 70.788 1089.89 70.866 1090.29C70.9483 1090.69 70.9808 1091.1 70.9635 1091.52H66.407V1091H70.502L70.203 1091.2C70.216 1090.92 70.1987 1090.64 70.151 1090.36C70.1077 1090.08 70.0232 1089.82 69.8975 1089.59C69.7762 1089.35 69.605 1089.16 69.384 1089.02C69.163 1088.88 68.8792 1088.81 68.5325 1088.81C68.0905 1088.81 67.7222 1088.92 67.4275 1089.15C67.1328 1089.38 66.9118 1089.67 66.7645 1090.03C66.6215 1090.39 66.55 1090.78 66.55 1091.19V1091.51C66.55 1091.98 66.6215 1092.41 66.7645 1092.78C66.9118 1093.16 67.1307 1093.46 67.421 1093.68C67.7157 1093.9 68.084 1094.01 68.526 1094.01C68.981 1094.01 69.3515 1093.9 69.6375 1093.68C69.9278 1093.46 70.1012 1093.13 70.1575 1092.69H70.9635C70.8985 1093.1 70.7533 1093.46 70.528 1093.75C70.307 1094.04 70.0253 1094.26 69.683 1094.42C69.3407 1094.57 68.955 1094.64 68.526 1094.64ZM79.7044 1094.64C79.154 1094.64 78.6687 1094.52 78.2484 1094.27C77.828 1094.03 77.4965 1093.66 77.2539 1093.18C77.0155 1092.7 76.8964 1092.11 76.8964 1091.41C76.8964 1090.71 77.0155 1090.13 77.2539 1089.65C77.4965 1089.17 77.828 1088.81 78.2484 1088.56C78.6687 1088.31 79.154 1088.19 79.7044 1088.19C80.2547 1088.19 80.74 1088.31 81.1604 1088.56C81.5807 1088.81 81.91 1089.17 82.1484 1089.65C82.3867 1090.13 82.5059 1090.71 82.5059 1091.41C82.5059 1092.11 82.3867 1092.7 82.1484 1093.18C81.91 1093.66 81.5807 1094.03 81.1604 1094.27C80.74 1094.52 80.2547 1094.64 79.7044 1094.64ZM79.6914 1093.99C80.1464 1093.99 80.5255 1093.88 80.8289 1093.67C81.1322 1093.45 81.3575 1093.15 81.5049 1092.76C81.6565 1092.38 81.7324 1091.93 81.7324 1091.41C81.7324 1090.64 81.5655 1090.01 81.2319 1089.54C80.9025 1089.07 80.3977 1088.83 79.7174 1088.83C79.2624 1088.83 78.8832 1088.94 78.5799 1089.16C78.2809 1089.37 78.0555 1089.67 77.9039 1090.06C77.7565 1090.45 77.6829 1090.9 77.6829 1091.41C77.6829 1092.18 77.8475 1092.81 78.1769 1093.28C78.5105 1093.75 79.0154 1093.99 79.6914 1093.99ZM85.6471 1094.5V1087.27C85.6471 1086.88 85.7208 1086.56 85.8681 1086.31C86.0154 1086.06 86.2169 1085.87 86.4726 1085.76C86.7283 1085.64 87.0164 1085.58 87.3371 1085.58C87.4974 1085.58 87.6599 1085.59 87.8246 1085.61C87.9893 1085.64 88.1539 1085.68 88.3186 1085.73L88.1756 1086.35C88.0369 1086.29 87.9004 1086.25 87.7661 1086.23C87.6318 1086.2 87.5039 1086.18 87.3826 1086.18C87.2353 1086.18 87.0858 1086.21 86.9341 1086.26C86.7824 1086.32 86.6546 1086.43 86.5506 1086.58C86.4466 1086.74 86.3946 1086.97 86.3946 1087.28V1094.5H85.6471ZM84.5941 1088.88V1088.33H87.7466V1088.88H84.5941ZM96.607 1094.64C96.0827 1094.64 95.6017 1094.55 95.164 1094.36C94.7264 1094.16 94.3754 1093.88 94.111 1093.51C93.8467 1093.14 93.7145 1092.69 93.7145 1092.15H94.4425C94.4425 1092.56 94.5422 1092.9 94.7415 1093.16C94.9409 1093.43 95.203 1093.62 95.528 1093.75C95.8574 1093.88 96.2127 1093.94 96.594 1093.94C97.0317 1093.94 97.4065 1093.87 97.7185 1093.73C98.0305 1093.58 98.2689 1093.39 98.4335 1093.15C98.6025 1092.92 98.687 1092.67 98.687 1092.41C98.687 1092.03 98.57 1091.72 98.336 1091.48C98.1064 1091.23 97.7727 1091.05 97.335 1090.91L96.0025 1090.48C95.3135 1090.24 94.7957 1089.98 94.449 1089.68C94.1024 1089.38 93.929 1088.96 93.929 1088.41C93.929 1087.8 94.1587 1087.31 94.618 1086.92C95.0774 1086.54 95.7382 1086.34 96.6005 1086.34C97.3762 1086.34 97.985 1086.52 98.427 1086.88C98.8734 1087.23 99.1312 1087.7 99.2005 1088.27H98.453C98.3837 1087.87 98.193 1087.57 97.881 1087.36C97.5734 1087.14 97.1465 1087.03 96.6005 1087.03C96.0112 1087.03 95.554 1087.17 95.229 1087.43C94.9084 1087.7 94.748 1088.04 94.748 1088.45C94.748 1088.78 94.8499 1089.05 95.0535 1089.24C95.2572 1089.43 95.5779 1089.6 96.0155 1089.75L97.6275 1090.27C98.1909 1090.44 98.6437 1090.7 98.986 1091.04C99.3327 1091.38 99.506 1091.83 99.506 1092.39C99.506 1092.79 99.3955 1093.16 99.1745 1093.5C98.9535 1093.84 98.6285 1094.12 98.1995 1094.33C97.7705 1094.54 97.2397 1094.64 96.607 1094.64ZM104.38 1094.64C104.059 1094.64 103.773 1094.58 103.522 1094.45C103.275 1094.33 103.08 1094.14 102.937 1093.9C102.798 1093.65 102.729 1093.34 102.729 1092.98V1086.58H103.463V1092.97C103.463 1093.67 103.788 1094.02 104.438 1094.02C104.629 1094.02 104.811 1094 104.984 1093.95C105.157 1093.91 105.352 1093.85 105.569 1093.77L105.673 1094.32C105.461 1094.42 105.248 1094.5 105.036 1094.55C104.824 1094.61 104.605 1094.64 104.38 1094.64ZM101.669 1088.88V1088.33H105.55V1088.88H101.669ZM111.883 1094.5L111.786 1093.22V1090.49C111.786 1089.87 111.652 1089.43 111.383 1089.17C111.114 1088.91 110.731 1088.78 110.232 1088.78C109.955 1088.78 109.697 1088.82 109.459 1088.9C109.221 1088.98 109.03 1089.11 108.887 1089.29C108.744 1089.46 108.672 1089.69 108.672 1089.98H107.814C107.814 1089.54 107.923 1089.19 108.139 1088.93C108.356 1088.67 108.646 1088.48 109.01 1088.36C109.379 1088.25 109.786 1088.19 110.232 1088.19C110.674 1088.19 111.069 1088.27 111.415 1088.42C111.762 1088.57 112.035 1088.82 112.234 1089.16C112.438 1089.5 112.54 1089.95 112.54 1090.5V1094.5H111.883ZM109.738 1094.64C109.244 1094.64 108.837 1094.55 108.516 1094.38C108.196 1094.19 107.957 1093.96 107.801 1093.68C107.645 1093.4 107.567 1093.11 107.567 1092.81C107.567 1092.38 107.671 1092.03 107.879 1091.77C108.092 1091.51 108.373 1091.32 108.724 1091.2C109.08 1091.09 109.468 1091.03 109.888 1091.03C110.204 1091.03 110.531 1091.07 110.869 1091.14C111.212 1091.21 111.539 1091.31 111.851 1091.43V1091.94C111.582 1091.82 111.272 1091.73 110.921 1091.66C110.57 1091.59 110.252 1091.56 109.966 1091.56C109.524 1091.56 109.147 1091.65 108.835 1091.84C108.523 1092.03 108.367 1092.35 108.367 1092.81C108.367 1093.15 108.482 1093.44 108.711 1093.68C108.945 1093.92 109.32 1094.04 109.836 1094.04C110.187 1094.04 110.51 1093.95 110.804 1093.78C111.099 1093.62 111.335 1093.41 111.513 1093.15C111.695 1092.9 111.786 1092.65 111.786 1092.39H111.974C111.974 1092.79 111.881 1093.16 111.695 1093.5C111.513 1093.84 111.253 1094.12 110.915 1094.33C110.581 1094.54 110.189 1094.64 109.738 1094.64ZM115.831 1094.5V1085.66H116.585V1094.5H115.831ZM116.455 1091.11L119.861 1088.33H120.947L116.455 1091.94V1091.11ZM120.147 1094.5L117.131 1090.62L117.944 1090.52L121.083 1094.5H120.147ZM125.819 1094.64C125.282 1094.64 124.808 1094.51 124.396 1094.23C123.989 1093.96 123.668 1093.58 123.434 1093.1C123.2 1092.61 123.083 1092.06 123.083 1091.44C123.083 1090.76 123.198 1090.18 123.427 1089.7C123.661 1089.21 123.982 1088.84 124.389 1088.58C124.801 1088.32 125.278 1088.19 125.819 1088.19C126.274 1088.19 126.66 1088.28 126.976 1088.47C127.297 1088.65 127.555 1088.9 127.75 1089.22C127.945 1089.53 128.081 1089.89 128.159 1090.29C128.242 1090.69 128.274 1091.1 128.257 1091.52H123.7V1091H127.795L127.496 1091.2C127.509 1090.92 127.492 1090.64 127.444 1090.36C127.401 1090.08 127.317 1089.82 127.191 1089.59C127.07 1089.35 126.898 1089.16 126.677 1089.02C126.456 1088.88 126.173 1088.81 125.826 1088.81C125.384 1088.81 125.016 1088.92 124.721 1089.15C124.426 1089.38 124.205 1089.67 124.058 1090.03C123.915 1090.39 123.843 1090.78 123.843 1091.19V1091.51C123.843 1091.98 123.915 1092.41 124.058 1092.78C124.205 1093.16 124.424 1093.46 124.714 1093.68C125.009 1093.9 125.377 1094.01 125.819 1094.01C126.274 1094.01 126.645 1093.9 126.931 1093.68C127.221 1093.46 127.395 1093.13 127.451 1092.69H128.257C128.192 1093.1 128.047 1093.46 127.821 1093.75C127.6 1094.04 127.319 1094.26 126.976 1094.42C126.634 1094.57 126.248 1094.64 125.819 1094.64ZM133.273 1094.64C132.784 1094.64 132.331 1094.51 131.915 1094.25C131.503 1093.98 131.174 1093.6 130.927 1093.12C130.68 1092.63 130.556 1092.06 130.556 1091.39C130.556 1090.73 130.678 1090.16 130.92 1089.68C131.167 1089.2 131.492 1088.83 131.895 1088.58C132.303 1088.32 132.747 1088.19 133.228 1088.19C133.674 1088.19 134.071 1088.3 134.417 1088.52C134.764 1088.74 135.035 1089.05 135.23 1089.46C135.425 1089.86 135.522 1090.34 135.522 1090.91H135.178C135.178 1090.46 135.089 1090.08 134.911 1089.77C134.738 1089.47 134.511 1089.23 134.229 1089.08C133.947 1088.92 133.646 1088.84 133.325 1088.84C132.974 1088.84 132.647 1088.95 132.344 1089.15C132.045 1089.35 131.802 1089.64 131.616 1090.02C131.434 1090.4 131.343 1090.86 131.343 1091.39C131.343 1091.93 131.434 1092.4 131.616 1092.78C131.798 1093.17 132.041 1093.46 132.344 1093.67C132.647 1093.87 132.977 1093.97 133.332 1093.97C133.635 1093.97 133.928 1093.9 134.209 1093.74C134.491 1093.58 134.723 1093.35 134.905 1093.05C135.087 1092.74 135.178 1092.37 135.178 1091.92H135.522C135.522 1092.49 135.423 1092.98 135.223 1093.39C135.028 1093.8 134.76 1094.11 134.417 1094.32C134.079 1094.54 133.698 1094.64 133.273 1094.64ZM135.288 1094.5L135.178 1093.1V1085.66H135.925V1094.5H135.288ZM61.5117 1111.64C60.8054 1111.64 60.1987 1111.46 59.6917 1111.1C59.1847 1110.73 58.7947 1110.23 58.5217 1109.6C58.2531 1108.96 58.1187 1108.23 58.1187 1107.42C58.1187 1106.53 58.2682 1105.79 58.5672 1105.19C58.8706 1104.58 59.2779 1104.12 59.7892 1103.81C60.3049 1103.5 60.8791 1103.34 61.5117 1103.34C62.3307 1103.34 62.9981 1103.55 63.5137 1103.97C64.0337 1104.38 64.4042 1104.92 64.6252 1105.58L63.8062 1105.77C63.6242 1105.23 63.3274 1104.8 62.9157 1104.49C62.5084 1104.17 62.0404 1104.01 61.5117 1104.01C61.0567 1104.01 60.6321 1104.14 60.2377 1104.4C59.8477 1104.66 59.5314 1105.04 59.2887 1105.55C59.0504 1106.05 58.9312 1106.68 58.9312 1107.42C58.9312 1108.08 59.0222 1108.68 59.2042 1109.22C59.3906 1109.75 59.6744 1110.18 60.0557 1110.49C60.4371 1110.8 60.9224 1110.96 61.5117 1110.96C62.2051 1110.96 62.7597 1110.77 63.1757 1110.4C63.5961 1110.03 63.8062 1109.53 63.8062 1108.91H64.6447C64.6447 1109.48 64.5104 1109.96 64.2417 1110.37C63.9731 1110.78 63.6026 1111.09 63.1302 1111.31C62.6579 1111.53 62.1184 1111.64 61.5117 1111.64ZM69.5398 1111.64C68.9894 1111.64 68.5041 1111.52 68.0838 1111.27C67.6634 1111.03 67.3319 1110.66 67.0893 1110.18C66.8509 1109.7 66.7318 1109.11 66.7318 1108.41C66.7318 1107.71 66.8509 1107.13 67.0893 1106.65C67.3319 1106.17 67.6634 1105.81 68.0838 1105.56C68.5041 1105.31 68.9894 1105.19 69.5398 1105.19C70.0901 1105.19 70.5754 1105.31 70.9958 1105.56C71.4161 1105.81 71.7454 1106.17 71.9838 1106.65C72.2221 1107.13 72.3413 1107.71 72.3413 1108.41C72.3413 1109.11 72.2221 1109.7 71.9838 1110.18C71.7454 1110.66 71.4161 1111.03 70.9958 1111.27C70.5754 1111.52 70.0901 1111.64 69.5398 1111.64ZM69.5268 1110.99C69.9818 1110.99 70.3609 1110.88 70.6643 1110.67C70.9676 1110.45 71.1929 1110.15 71.3403 1109.76C71.4919 1109.38 71.5678 1108.93 71.5678 1108.41C71.5678 1107.64 71.4009 1107.01 71.0673 1106.54C70.7379 1106.07 70.2331 1105.83 69.5528 1105.83C69.0978 1105.83 68.7186 1105.94 68.4153 1106.16C68.1163 1106.37 67.8909 1106.67 67.7393 1107.06C67.5919 1107.45 67.5183 1107.9 67.5183 1108.41C67.5183 1109.18 67.6829 1109.81 68.0123 1110.28C68.3459 1110.75 68.8508 1110.99 69.5268 1110.99ZM75.567 1103.71C75.4066 1103.71 75.2766 1103.66 75.177 1103.56C75.0773 1103.46 75.0275 1103.33 75.0275 1103.18C75.0275 1103.03 75.0773 1102.92 75.177 1102.83C75.2766 1102.74 75.4066 1102.69 75.567 1102.69C75.736 1102.69 75.8681 1102.74 75.9635 1102.83C76.0588 1102.92 76.1065 1103.03 76.1065 1103.18C76.1065 1103.33 76.0588 1103.46 75.9635 1103.56C75.8681 1103.66 75.736 1103.71 75.567 1103.71ZM75.19 1111.5V1105.32H75.944V1111.5H75.19ZM84.0846 1111.5V1107.87C84.0846 1107.21 83.9265 1106.71 83.6101 1106.36C83.2981 1106.02 82.867 1105.84 82.3166 1105.84C81.9136 1105.84 81.5648 1105.96 81.2701 1106.18C80.9798 1106.4 80.7566 1106.71 80.6006 1107.11C80.449 1107.5 80.3731 1107.97 80.3731 1108.5H80.0416C80.0416 1107.83 80.1326 1107.24 80.3146 1106.75C80.501 1106.25 80.774 1105.87 81.1336 1105.6C81.4976 1105.32 81.9483 1105.19 82.4856 1105.19C82.9623 1105.19 83.374 1105.29 83.7206 1105.51C84.0716 1105.72 84.3425 1106.03 84.5331 1106.43C84.7238 1106.83 84.8191 1107.31 84.8191 1107.87V1111.5H84.0846ZM79.6191 1111.5V1105.33H80.2561L80.3731 1106.85V1111.5H79.6191ZM90.2954 1111.64C89.6974 1111.64 89.2034 1111.56 88.8134 1111.38C88.4277 1111.21 88.1374 1110.98 87.9424 1110.68C87.7474 1110.39 87.6412 1110.06 87.6239 1109.69H88.3779C88.4039 1110.13 88.5794 1110.46 88.9044 1110.69C89.2337 1110.91 89.6822 1111.02 90.2499 1111.02C90.5445 1111.02 90.8175 1110.97 91.0689 1110.88C91.3202 1110.78 91.5217 1110.64 91.6734 1110.47C91.8294 1110.3 91.9074 1110.1 91.9074 1109.89C91.9074 1109.61 91.8055 1109.39 91.6019 1109.24C91.3982 1109.08 91.0754 1108.95 90.6334 1108.83L89.5089 1108.5C88.9672 1108.34 88.5534 1108.12 88.2674 1107.83C87.9814 1107.54 87.8384 1107.2 87.8384 1106.79C87.8384 1106.31 88.0485 1105.92 88.4689 1105.63C88.8892 1105.34 89.4374 1105.19 90.1134 1105.19C90.85 1105.19 91.4242 1105.33 91.8359 1105.62C92.2475 1105.91 92.4642 1106.28 92.4859 1106.71H91.7059C91.6582 1106.4 91.5 1106.17 91.2314 1106.03C90.9627 1105.88 90.59 1105.8 90.1134 1105.8C89.641 1105.8 89.2749 1105.91 89.0149 1106.12C88.7549 1106.34 88.6249 1106.58 88.6249 1106.83C88.6249 1107.33 89.0495 1107.69 89.8989 1107.92L91.0039 1108.26C91.5585 1108.42 91.981 1108.63 92.2714 1108.89C92.566 1109.15 92.7134 1109.48 92.7134 1109.89C92.7134 1110.19 92.6159 1110.47 92.4209 1110.74C92.2302 1111.01 91.955 1111.23 91.5954 1111.4C91.2357 1111.56 90.8024 1111.64 90.2954 1111.64Z" fill="#BCCBD6"/>
<path d="M0 1032H151H0ZM151 1146H2C0.343146 1146 -1 1144.66 -1 1143H1C1 1143.55 1.44772 1144 2 1144H151V1146ZM2 1146C0.343146 1146 -1 1144.66 -1 1143V1032H1V1143C1 1143.55 1.44772 1144 2 1144V1146ZM151 1032V1145V1032Z" fill="#00EAC7" mask="url(#path-23-inside-7_2028_8790)"/>
<path d="M89.4505 608.592V605.04H94.1705V603.648H89.4505V600.208H94.5705V598.8H87.9625V610H94.6505V608.592H89.4505ZM103.715 602V603.376C103.075 602.4 102.051 601.792 100.691 601.792C98.467 601.792 96.643 603.632 96.643 606C96.643 608.368 98.467 610.208 100.691 610.208C102.051 610.208 103.075 609.6 103.715 608.624V610H105.107V602H103.715ZM100.867 608.864C99.267 608.864 98.035 607.632 98.035 606C98.035 604.368 99.267 603.136 100.867 603.136C102.483 603.136 103.715 604.368 103.715 606C103.715 607.632 102.483 608.864 100.867 608.864ZM109.568 603.344V602H108.176V610H109.568V605.76C109.568 603.872 110.864 603.264 112.064 603.312V601.856C111.056 601.856 110.08 602.224 109.568 603.344ZM114.386 610H115.778V598.32H114.386V610ZM124.446 602L122.142 608.272L119.422 602H117.934L121.422 609.968L121.278 610.272C120.862 611.328 120.19 611.984 119.118 611.904V613.2C120.75 613.312 121.998 612.288 122.67 610.496L125.934 602H124.446ZM41.2684 630.208C43.3484 630.208 45.1724 629.12 46.1004 627.472L44.8044 626.736C44.1644 627.952 42.8044 628.752 41.2684 628.752C38.6444 628.752 36.8844 626.848 36.8844 624.4C36.8844 621.936 38.6444 620.032 41.2684 620.032C42.8044 620.032 44.1644 620.832 44.8044 622.064L46.1004 621.312C45.1564 619.664 43.3324 618.592 41.2684 618.592C37.8444 618.592 35.4124 621.168 35.4124 624.4C35.4124 627.616 37.8444 630.208 41.2684 630.208ZM52.3304 630.208C54.6664 630.208 56.5544 628.368 56.5544 626C56.5544 623.632 54.6664 621.792 52.3304 621.792C49.9944 621.792 48.1224 623.632 48.1224 626C48.1224 628.368 49.9944 630.208 52.3304 630.208ZM52.3304 628.848C50.7464 628.848 49.5144 627.616 49.5144 626C49.5144 624.384 50.7464 623.152 52.3304 623.152C53.9304 623.152 55.1624 624.384 55.1624 626C55.1624 627.616 53.9304 628.848 52.3304 628.848ZM67.7954 621.792C66.7554 621.792 65.8434 622.24 65.2834 623.152C64.8194 622.288 64.0194 621.792 62.9314 621.792C61.9554 621.792 61.1234 622.176 60.5474 623.072V622H59.1554V630H60.5474V625.552C60.5474 623.824 61.5234 623.12 62.5954 623.12C63.6354 623.12 64.2914 623.808 64.2914 625.072V630H65.6834V625.552C65.6834 623.824 66.5314 623.12 67.6514 623.12C68.7074 623.12 69.4114 623.808 69.4114 625.072V630H70.8034V625.024C70.8034 623.024 69.5714 621.792 67.7954 621.792ZM82.3335 621.792C81.2935 621.792 80.3815 622.24 79.8215 623.152C79.3575 622.288 78.5575 621.792 77.4695 621.792C76.4935 621.792 75.6615 622.176 75.0855 623.072V622H73.6935V630H75.0855V625.552C75.0855 623.824 76.0615 623.12 77.1335 623.12C78.1735 623.12 78.8295 623.808 78.8295 625.072V630H80.2215V625.552C80.2215 623.824 81.0695 623.12 82.1895 623.12C83.2455 623.12 83.9495 623.808 83.9495 625.072V630H85.3415V625.024C85.3415 623.024 84.1095 621.792 82.3335 621.792ZM93.7516 622V626.24C93.7516 628.128 92.7116 628.88 91.4316 628.88C90.1996 628.88 89.4476 628.144 89.4476 626.832V622H88.0556V626.912C88.0556 628.96 89.2876 630.208 91.1596 630.208C92.2796 630.208 93.1596 629.792 93.7516 628.848V630H95.1436V622H93.7516ZM102.207 621.792C101.087 621.792 100.207 622.208 99.6149 623.152V622H98.2229V630H99.6149V625.76C99.6149 623.872 100.655 623.12 101.935 623.12C103.167 623.12 103.919 623.856 103.919 625.168V630H105.311V625.088C105.311 623.04 104.079 621.792 102.207 621.792ZM108.918 620.544C109.43 620.544 109.846 620.128 109.846 619.616C109.846 619.104 109.43 618.672 108.918 618.672C108.39 618.672 107.974 619.104 107.974 619.616C107.974 620.128 108.39 620.544 108.918 620.544ZM108.214 630H109.606V622H108.214V630ZM117.042 623.344V622H114.914V619.76L113.522 620.176V622H111.938V623.344H113.522V627.68C113.522 629.68 114.642 630.32 117.042 630V628.752C115.618 628.816 114.914 628.896 114.914 627.68V623.344H117.042ZM125.406 622L123.102 628.272L120.382 622H118.894L122.382 629.968L122.238 630.272C121.822 631.328 121.15 631.984 120.078 631.904V633.2C121.71 633.312 122.958 632.288 123.63 630.496L126.894 622H125.406Z" fill="white"/>
<path d="M-1 577C-1 575.343 0.343146 574 2 574H151V576H2C1.44772 576 1 576.448 1 577H-1ZM151 656H2C0.343146 656 -1 654.657 -1 653H1C1 653.552 1.44772 654 2 654H151V656ZM2 656C0.343146 656 -1 654.657 -1 653V577C-1 575.343 0.343146 574 2 574V576C1.44772 576 1 576.448 1 577V653C1 653.552 1.44772 654 2 654V656ZM151 575V655V575Z" fill="#1B2B38" mask="url(#path-27-inside-8_2028_8790)"/>
<path d="M78.8004 898H80.3844L76.2084 886.8H74.5284L70.3524 898H71.9364L72.8484 895.488H77.8884L78.8004 898ZM73.3604 894.096L75.3604 888.576L77.3764 894.096H73.3604ZM86.5056 889.792C85.3856 889.792 84.5056 890.208 83.9136 891.152V890H82.5216V898H83.9136V893.76C83.9136 891.872 84.9536 891.12 86.2336 891.12C87.4656 891.12 88.2176 891.856 88.2176 893.168V898H89.6096V893.088C89.6096 891.04 88.3776 889.792 86.5056 889.792ZM96.4969 889.792C95.3769 889.792 94.4969 890.208 93.9049 891.152V890H92.5129V898H93.9049V893.76C93.9049 891.872 94.9449 891.12 96.2249 891.12C97.4569 891.12 98.2089 891.856 98.2089 893.168V898H99.6009V893.088C99.6009 891.04 98.3689 889.792 96.4969 889.792ZM108.024 890V894.24C108.024 896.128 106.984 896.88 105.704 896.88C104.472 896.88 103.72 896.144 103.72 894.832V890H102.328V894.912C102.328 896.96 103.56 898.208 105.432 898.208C106.552 898.208 107.432 897.792 108.024 896.848V898H109.416V890H108.024ZM119.119 890V891.376C118.479 890.4 117.455 889.792 116.095 889.792C113.871 889.792 112.047 891.632 112.047 894C112.047 896.368 113.871 898.208 116.095 898.208C117.455 898.208 118.479 897.6 119.119 896.624V898H120.511V890H119.119ZM116.271 896.864C114.671 896.864 113.439 895.632 113.439 894C113.439 892.368 114.671 891.136 116.271 891.136C117.887 891.136 119.119 892.368 119.119 894C119.119 895.632 117.887 896.864 116.271 896.864ZM123.58 898H124.972V886.32H123.58V898ZM61.7769 906.8V918H63.2649V906.8H61.7769ZM70.4675 909.792C69.3475 909.792 68.4675 910.208 67.8755 911.152V910H66.4835V918H67.8755V913.76C67.8755 911.872 68.9155 911.12 70.1955 911.12C71.4275 911.12 72.1795 911.856 72.1795 913.168V918H73.5715V913.088C73.5715 911.04 72.3395 909.792 70.4675 909.792ZM80.5867 906.592C78.2987 906.592 77.0827 907.632 77.0827 909.76V910H75.8027V911.344H77.0827V918H78.4747V911.344H80.1387V910H78.4747V909.76C78.4747 908.368 79.1947 907.84 80.5867 907.84C80.8587 907.84 81.1467 907.856 81.4347 907.872V918H82.8267V906.832C82.0587 906.688 81.3547 906.592 80.5867 906.592ZM92.5431 910V911.376C91.9031 910.4 90.8791 909.792 89.5191 909.792C87.2951 909.792 85.4711 911.632 85.4711 914C85.4711 916.368 87.2951 918.208 89.5191 918.208C90.8791 918.208 91.9031 917.6 92.5431 916.624V918H93.9351V910H92.5431ZM89.6951 916.864C88.0951 916.864 86.8631 915.632 86.8631 914C86.8631 912.368 88.0951 911.136 89.6951 911.136C91.3111 911.136 92.5431 912.368 92.5431 914C92.5431 915.632 91.3111 916.864 89.6951 916.864ZM101.356 911.344V910H99.2281V907.76L97.8361 908.176V910H96.2521V911.344H97.8361V915.68C97.8361 917.68 98.9561 918.32 101.356 918V916.752C99.9321 916.816 99.2281 916.896 99.2281 915.68V911.344H101.356ZM104.668 908.544C105.18 908.544 105.596 908.128 105.596 907.616C105.596 907.104 105.18 906.672 104.668 906.672C104.14 906.672 103.724 907.104 103.724 907.616C103.724 908.128 104.14 908.544 104.668 908.544ZM103.964 918H105.356V910H103.964V918ZM112.2 918.208C114.536 918.208 116.424 916.368 116.424 914C116.424 911.632 114.536 909.792 112.2 909.792C109.864 909.792 107.992 911.632 107.992 914C107.992 916.368 109.864 918.208 112.2 918.208ZM112.2 916.848C110.616 916.848 109.384 915.616 109.384 914C109.384 912.384 110.616 911.152 112.2 911.152C113.8 911.152 115.032 912.384 115.032 914C115.032 915.616 113.8 916.848 112.2 916.848ZM123.009 909.792C121.889 909.792 121.009 910.208 120.417 911.152V910H119.025V918H120.417V913.76C120.417 911.872 121.457 911.12 122.737 911.12C123.969 911.12 124.721 911.856 124.721 913.168V918H126.113V913.088C126.113 911.04 124.881 909.792 123.009 909.792Z" fill="white"/>
<path d="M-1 865C-1 863.343 0.343146 862 2 862H151V864H2C1.44772 864 1 864.448 1 865H-1ZM151 944H2C0.343146 944 -1 942.657 -1 941H1C1 941.552 1.44772 942 2 942H151V944ZM2 944C0.343146 944 -1 942.657 -1 941V865C-1 863.343 0.343146 862 2 862V864C1.44772 864 1 864.448 1 865V941C1 941.552 1.44772 942 2 942V944ZM151 863V943V863Z" fill="#1B2B38" mask="url(#path-30-inside-9_2028_8790)"/>
</svg>
