<svg width="96" height="96" viewBox="0 0 96 96" fill="none" xmlns="http://www.w3.org/2000/svg">
<circle cx="48" cy="48" r="32.5" stroke="#415566" stroke-dasharray="2 2"/>
<circle cx="48" cy="48" r="23.5" stroke="#1B2B38"/>
<circle cx="48" cy="48.0001" r="29" fill="#111B24" stroke="white" stroke-linejoin="bevel"/>
<path d="M65.5 63.5001C67.7017 54.0349 57.5059 48.2325 57.0656 46.9418C56.6253 45.6511 58.3867 40.4882 62.79 39.1975C67.1933 37.9068 69.8353 43.4999 76 40.058" stroke="white" stroke-linejoin="bevel"/>
<path d="M58.5202 21.0001C58.5202 21.0001 51.5337 29.8189 53.2803 31.5827C54.5903 32.9055 57.2102 30.7008 59.3935 30.2599C61.5768 29.8189 62.8868 31.5827 69 28.0552" stroke="white" stroke-linejoin="bevel"/>
<path d="M20 40.1534C31.4633 44.8207 29.765 49.9123 32.3124 56.7011C34.8598 63.4899 40.392 72.7839 43.7757 70.703C46.6207 68.9533 44.3176 62.3097 45.474 58.3983C46.5611 54.7215 51.1991 54.256 50.9934 50.7609C50.5688 43.5478 30.6142 45.245 29.765 41.002C28.9159 36.759 40.3792 39.7291 42.502 36.759C44.6249 33.7889 37.4072 27.0001 37.4072 27.0001" stroke="white" stroke-linejoin="bevel"/>
<path d="M21.5 28.5008C21.5001 17.5008 31.0001 13.5007 49 15.0008C39 22.5007 37.5 41.0007 21.5 28.5008Z" fill="#111B24"/>
<path d="M21.5 28.5008C21.5001 17.5008 31.0001 13.5007 49 15.0008C39 22.5007 37.5 41.0007 21.5 28.5008Z" fill="#00EAC7" fill-opacity="0.06"/>
<path d="M21.5 28.5008C21.5001 17.5008 31.0001 13.5007 49 15.0008C39 22.5007 37.5 41.0007 21.5 28.5008Z" stroke="#00EAC7" stroke-width="2" stroke-linejoin="bevel"/>
<path d="M15.0001 49.0007C15.0001 41.3016 17.5592 34.2003 21.873 28.5007" stroke="#00EAC7" stroke-width="2" stroke-linejoin="bevel"/>
<path d="M21.8729 29.5007C26 22.5007 35 20.5007 35 20.5007" stroke="#00EAC7" stroke-linejoin="bevel"/>
<path d="M74.5 67.4998C74.4999 78.4998 64.9999 82.4999 47 80.9999C57 73.4999 58.5 54.9999 74.5 67.4998Z" fill="#111B24"/>
<path d="M74.5 67.4998C74.4999 78.4998 64.9999 82.4999 47 80.9999C57 73.4999 58.5 54.9999 74.5 67.4998Z" fill="#00EAC7" fill-opacity="0.06"/>
<path d="M74.5 67.4998C74.4999 78.4998 64.9999 82.4999 47 80.9999C57 73.4999 58.5 54.9999 74.5 67.4998Z" stroke="#00EAC7" stroke-width="2" stroke-linejoin="bevel"/>
<path d="M80.9999 46.9999C80.9999 54.699 78.4408 61.8004 74.127 67.4999" stroke="#00EAC7" stroke-width="2" stroke-linejoin="bevel"/>
<path d="M74.1271 66.4999C70 73.4999 61 75.4999 61 75.4999" stroke="#00EAC7" stroke-linejoin="bevel"/>
<path d="M74 13.5L78.5 17L83 13.5" stroke="#1B2B38" stroke-linecap="square"/>
<path d="M74 16.5L78.5 20L83 16.5" stroke="#1B2B38" stroke-linecap="square"/>
<path d="M12 81C12 81.7956 12.3161 82.5587 12.8787 83.1213C13.4413 83.6839 14.2044 84 15 84C15.7956 84 16.5587 83.6839 17.1213 83.1213C17.6839 82.5587 18 81.7956 18 81L15 81H12Z" fill="#1B2B38"/>
<path d="M18 78C18 77.2043 17.6839 76.4413 17.1213 75.8787C16.5587 75.3161 15.7956 75 15 75C14.2044 75 13.4413 75.3161 12.8787 75.8787C12.3161 76.4413 12 77.2044 12 78L15 78L18 78Z" fill="#1B2B38"/>
</svg>
