<svg width="25" height="25" viewBox="0 0 25 25" fill="none" xmlns="http://www.w3.org/2000/svg">
<path fill-rule="evenodd" clip-rule="evenodd" d="M19 2.43164L7 2.43164C5.75736 2.43164 4.75 3.439 4.75 4.68164L4.75 21.1816C4.75 22.4243 5.75735 23.4317 7 23.4317L19.75 23.4317L19.75 21.9317L18.25 21.9317L18.25 20.4317L19 20.4317L19.75 19.6817L19.75 3.18164L19 2.43164ZM16.75 20.4317L16.75 21.9317L7 21.9317C6.58579 21.9317 6.25 21.5959 6.25 21.1816C6.25 20.7674 6.58578 20.4316 6.99999 20.4317L16.75 20.4317ZM6.99999 18.9317C6.73702 18.9316 6.48458 18.9768 6.25 19.0597L6.25 4.68164C6.25 4.26743 6.58579 3.93164 7 3.93164L18.25 3.93164L18.25 18.9317L6.99999 18.9317ZM9.25 8.43164L15.625 8.43164L15.625 9.93164L9.25 9.93164L9.25 8.43164ZM14.125 11.4316L9.25 11.4316L9.25 12.9316L14.125 12.9316L14.125 11.4316Z" fill="#00EAC7"/>
</svg>
