<svg width="25" height="25" viewBox="0 0 25 25" fill="none" xmlns="http://www.w3.org/2000/svg">
<path fill-rule="evenodd" clip-rule="evenodd" d="M18 3.93164C15.3012 3.93164 12.9722 5.51555 11.8921 7.8045C10.9541 6.37537 9.33724 5.43164 7.5 5.43164H6L5.25 6.18164V6.93164C5.25 9.83114 7.60051 12.1816 10.5 12.1816H11.25V12.95C9.17519 12.4822 6.99498 13.0196 5.37299 14.4098L5.34756 14.4316H3.75V15.9316H5.625L6.11309 15.7511L6.34918 15.5487C7.65818 14.4267 9.43463 14.0189 11.1019 14.4577L14.4105 15.3284L14.2838 15.7084C14.175 16.0349 13.8579 16.2454 13.5148 16.219L9.80752 15.9338L9.69248 17.4294L13.3998 17.7146C14.1621 17.7732 14.8815 17.4421 15.3361 16.8686L20.6484 15.191C21.0156 15.0751 21.4095 15.256 21.562 15.6069L14.6011 19.6228C13.3573 20.3404 11.8739 20.5172 10.4962 20.112L6.58662 18.9621L6.375 18.9316H3.75V20.4316H6.26699L10.073 21.551C11.8442 22.072 13.7515 21.8447 15.3507 20.9221L22.8748 16.5813L23.1964 15.6531L22.9633 15.0706C22.526 13.9772 21.3196 13.406 20.1967 13.7606L16.081 15.0603L16.0865 15.0438L15.5659 14.0813L12.75 13.3403V12.1816H15C18.7279 12.1816 21.75 9.15956 21.75 5.43164V4.68164L21 3.93164H18ZM12.75 10.6816H15C17.8995 10.6816 20.25 8.33114 20.25 5.43164H18C15.1005 5.43164 12.75 7.78215 12.75 10.6816ZM7.5 6.93164C9.57107 6.93164 11.25 8.61057 11.25 10.6816H10.5C8.42893 10.6816 6.75 9.00271 6.75 6.93164H7.5Z" fill="#00EAC7"/>
</svg>
