<svg width="24" height="25" viewBox="0 0 24 25" fill="none" xmlns="http://www.w3.org/2000/svg">
<path fill-rule="evenodd" clip-rule="evenodd" d="M3.75 16.5477V9.31612L9.08804 12.2076C9.03052 12.4395 9 12.6822 9 12.9319C9 13.1817 9.03052 13.4243 9.08804 13.6563L3.75 16.5477ZM4.5747 17.8069L11.25 21.4227V15.8374C10.6867 15.6924 10.1874 15.3879 9.80311 14.9749L4.5747 17.8069ZM9.8031 10.889L4.57471 8.05692L11.25 4.44114V10.0264C10.6867 10.1714 10.1873 10.476 9.8031 10.889ZM14.912 12.2076C14.9695 12.4396 15 12.6822 15 12.9319C15 13.1817 14.9695 13.4243 14.912 13.6563L20.25 16.5477V9.31622L14.912 12.2076ZM14.1969 10.889L19.4254 8.05697L12.75 4.44114V10.0264C13.3134 10.1714 13.8127 10.476 14.1969 10.889ZM12.75 15.8374C13.3134 15.6924 13.8127 15.3879 14.1969 14.9749L19.4253 17.8069L12.75 21.4227V15.8374ZM11.6428 2.52246L2.64279 7.39746L2.25 8.05693V17.8069L2.64279 18.4664L11.6428 23.3414H12.3572L21.3572 18.4664L21.75 17.8069V8.05693L21.3572 7.39746L12.3572 2.52246H11.6428ZM10.5 12.9319C10.5 12.1035 11.1716 11.4319 12 11.4319C12.8284 11.4319 13.5 12.1035 13.5 12.9319C13.5 13.7604 12.8284 14.4319 12 14.4319C11.1716 14.4319 10.5 13.7604 10.5 12.9319Z" fill="#00EAC7"/>
</svg>
