<svg width="25" height="25" viewBox="0 0 25 25" fill="none" xmlns="http://www.w3.org/2000/svg">
<path fill-rule="evenodd" clip-rule="evenodd" d="M11.75 4.68164C11.75 4.26743 12.0858 3.93164 12.5 3.93164C12.9142 3.93164 13.25 4.26743 13.25 4.68164C13.25 5.09585 12.9142 5.43164 12.5 5.43164C12.0858 5.43164 11.75 5.09585 11.75 4.68164ZM12.5 2.43164C11.2574 2.43164 10.25 3.439 10.25 4.68164C10.25 4.87243 10.2737 5.05767 10.3184 5.23457L7.09909 7.3808C6.7232 7.09875 6.25612 6.93164 5.75 6.93164C4.50736 6.93164 3.5 7.939 3.5 9.18164C3.5 10.4243 4.50736 11.4316 5.75 11.4316C6.99264 11.4316 8 10.4243 8 9.18164C8 8.99082 7.97625 8.80554 7.93153 8.62861L11.1508 6.48243C11.3314 6.61795 11.5331 6.72694 11.75 6.80361V10.8097C10.8761 11.1185 10.25 11.952 10.25 12.9316C10.25 13.0593 10.2606 13.1845 10.2811 13.3063L7.24008 14.9957C6.84322 14.6447 6.32149 14.4316 5.75 14.4316C4.50736 14.4316 3.5 15.439 3.5 16.6816C3.5 17.9243 4.50736 18.9316 5.75 18.9316C6.25613 18.9316 6.72324 18.7645 7.09913 18.4825L10.3185 20.6287C10.2737 20.8056 10.25 20.9908 10.25 21.1816C10.25 22.4243 11.2574 23.4316 12.5 23.4316C13.7426 23.4316 14.75 22.4243 14.75 21.1816C14.75 19.939 13.7426 18.9316 12.5 18.9316C11.9939 18.9316 11.5268 19.0988 11.1509 19.3808L7.93154 17.2346C7.97625 17.0577 8 16.8724 8 16.6816C8 16.5539 7.98936 16.4287 7.96891 16.3068L11.0098 14.6174C11.4066 14.9685 11.9284 15.1816 12.5 15.1816C13.0716 15.1816 13.5934 14.9685 13.9902 14.6174L17.0311 16.3068C17.0106 16.4287 17 16.5539 17 16.6816C17 17.9243 18.0074 18.9316 19.25 18.9316C20.4926 18.9316 21.5 17.9243 21.5 16.6816C21.5 15.702 20.8739 14.8685 20 14.5597L20 11.3036C20.8739 10.9947 21.5 10.1613 21.5 9.18164C21.5 7.939 20.4926 6.93164 19.25 6.93164C18.7439 6.93164 18.2768 7.09875 17.9009 7.38081L14.6816 5.23459C14.7263 5.05769 14.75 4.87244 14.75 4.68164C14.75 3.439 13.7426 2.43164 12.5 2.43164ZM13.8492 6.48244C13.6686 6.61796 13.4669 6.72694 13.25 6.80361V10.8097C14.1239 11.1185 14.75 11.952 14.75 12.9316C14.75 13.0593 14.7394 13.1845 14.7189 13.3063L17.7599 14.9957C17.9742 14.8062 18.2248 14.6569 18.5 14.5597L18.5 11.3036C17.6261 10.9947 17 10.1613 17 9.18164C17 8.99083 17.0238 8.80556 17.0685 8.62864L13.8492 6.48244ZM12.5 12.1816C12.0858 12.1816 11.75 12.5174 11.75 12.9316C11.75 13.3459 12.0858 13.6816 12.5 13.6816C12.9142 13.6816 13.25 13.3459 13.25 12.9316C13.25 12.5174 12.9142 12.1816 12.5 12.1816ZM19.25 15.9316C18.8358 15.9316 18.5 16.2674 18.5 16.6816C18.5 17.0959 18.8358 17.4316 19.25 17.4316C19.6642 17.4316 20 17.0959 20 16.6816C20 16.2674 19.6642 15.9316 19.25 15.9316ZM5 16.6816C5 16.2674 5.33579 15.9316 5.75 15.9316C6.16421 15.9316 6.5 16.2674 6.5 16.6816C6.5 17.0959 6.16421 17.4316 5.75 17.4316C5.33579 17.4316 5 17.0959 5 16.6816ZM12.5 20.4316C12.0858 20.4316 11.75 20.7674 11.75 21.1816C11.75 21.5959 12.0858 21.9316 12.5 21.9316C12.9142 21.9316 13.25 21.5959 13.25 21.1816C13.25 20.7674 12.9142 20.4316 12.5 20.4316ZM19.25 8.43164C18.8358 8.43164 18.5 8.76743 18.5 9.18164C18.5 9.59585 18.8358 9.93164 19.25 9.93164C19.6642 9.93164 20 9.59585 20 9.18164C20 8.76743 19.6642 8.43164 19.25 8.43164ZM5 9.18164C5 8.76743 5.33579 8.43164 5.75 8.43164C6.16421 8.43164 6.5 8.76743 6.5 9.18164C6.5 9.59585 6.16421 9.93164 5.75 9.93164C5.33579 9.93164 5 9.59585 5 9.18164Z" fill="#00EAC7"/>
</svg>
