<svg width="25" height="25" viewBox="0 0 25 25" fill="none" xmlns="http://www.w3.org/2000/svg">
<path fill-rule="evenodd" clip-rule="evenodd" d="M3.95741 7.1204C3.5411 7.42325 3.5 7.62236 3.5 7.68164C3.5 7.68165 3.5 7.68165 3.5 7.68166H3.50001V7.68348C3.50091 7.74696 3.54908 7.95471 3.98941 8.26582C4.4145 8.56617 5.07771 8.86593 5.96239 9.12716L6.46804 9.80369C7.23591 9.62563 8.08163 9.48186 8.98296 9.37759C9.51271 7.9494 10.8875 6.93164 12.5 6.93164C14.1125 6.93164 15.4873 7.9494 16.017 9.37759C16.9184 9.48186 17.7641 9.62563 18.532 9.80369L19.0376 9.12716C19.9223 8.86593 20.5855 8.56617 21.0106 8.26582C21.4536 7.95282 21.4997 7.74445 21.5 7.68234C21.5 7.6821 21.5 7.68187 21.5 7.68164C21.5 7.62236 21.4589 7.42325 21.0426 7.1204C20.6427 6.8295 20.0158 6.53626 19.1737 6.27715C17.4987 5.76176 15.139 5.43164 12.5 5.43164C9.861 5.43164 7.50131 5.76176 5.82627 6.27715C4.98416 6.53626 4.35729 6.8295 3.95741 7.1204ZM21.5 9.7314C21.0708 9.98088 20.5632 10.2017 20 10.3947L20 12.9316L20 12.9316L20 14.0443C20.4191 13.8737 20.7572 13.6948 21.0106 13.5158C21.4553 13.2016 21.5 12.9929 21.5 12.9316V9.7314ZM18.5 12.9316L18.5 11.3392C17.827 11.1692 17.0682 11.0259 16.2427 10.9169C16.1855 11.842 15.7928 12.6763 15.1848 13.2997C17.1268 14.07 18.5 15.9654 18.5 18.1816V21.9316H17V18.1816C17 16.1106 15.3211 14.4316 13.25 14.4316H12.5H11.75C9.67893 14.4316 8 16.1106 8 18.1816V21.9316H6.5V18.1816C6.5 15.9654 7.8732 14.07 9.81515 13.2997C9.20721 12.6763 8.81453 11.842 8.75726 10.9169C7.93182 11.0259 7.173 11.1692 6.5 11.3392V12.9316V12.9316V15.0964L5.53761 15.8157C4.57329 15.531 3.7365 15.1737 3.12384 14.7409C2.53075 14.3218 2 13.7212 2 12.9316L2.00001 7.68845C2 7.68618 2 7.68391 2 7.68164C2 6.91249 2.50455 6.32239 3.075 5.90741C3.66187 5.48048 4.46285 5.12727 5.38514 4.84349C7.23891 4.2731 9.75423 3.93164 12.5 3.93164C15.2458 3.93164 17.7611 4.2731 19.6149 4.84349C20.5371 5.12727 21.3381 5.48048 21.925 5.90741C22.4955 6.32239 23 6.91249 23 7.68164C23 7.6825 23 7.68337 23 7.68423V12.9316C23 13.7212 22.4692 14.3218 21.8762 14.7409C21.2635 15.1737 20.4267 15.531 19.4624 15.8157L18.5 15.0964L18.5 12.9316L18.5 12.9316ZM3.50001 9.7314L3.5 12.9316C3.5 12.9929 3.54474 13.2016 3.98941 13.5158C4.24282 13.6948 4.58086 13.8737 5 14.0443V12.9316V12.9316V10.3947C4.43676 10.2018 3.92918 9.98088 3.50001 9.7314ZM10.25 10.6816C10.25 9.439 11.2574 8.43164 12.5 8.43164C13.7426 8.43164 14.75 9.439 14.75 10.6816C14.75 11.9243 13.7426 12.9316 12.5 12.9316C11.2574 12.9316 10.25 11.9243 10.25 10.6816Z" fill="#00EAC7"/>
</svg>
