<svg width="25" height="25" viewBox="0 0 25 25" fill="none" xmlns="http://www.w3.org/2000/svg">
<path fill-rule="evenodd" clip-rule="evenodd" d="M18.2501 13.87L22.3931 11.3205V10.043L12.6431 4.04297L11.857 4.04297L2.10684 10.043L1.74991 10.6818L1.75 15.0894L1.02246 17.9999L1.75009 18.9318L3.25005 18.9317L3.97764 17.9998L3.25 15.0894L3.24993 12.0239L6.25005 13.8701L6.25005 14.1359L6.25006 15.2622L6.25006 18.1136C6.25006 19.3376 7.09364 20.3078 8.15932 20.9306C9.24318 21.5641 10.6912 21.9318 12.2501 21.9318C13.809 21.9318 15.2569 21.5641 16.3408 20.9306C17.4065 20.3078 18.2501 19.3376 18.2501 18.1136V18.1078V18.1019V18.096V18.09V18.0839V18.0778V18.0717V18.0655V18.0592V18.0529V18.0465V18.0401V18.0336V18.0271V18.0205V18.0139V18.0072V18.0005V17.9937V17.9869V17.98V17.973V17.966V17.959V17.9519V17.9448V17.9376V17.9304V17.9231V17.9157V17.9084V17.9009V17.8934V17.8859V17.8783V17.8707V17.8631V17.8553V17.8476V17.8398V17.8319V17.824V17.8161V17.8081V17.8001V17.792V17.7839V17.7757V17.7675V17.7593V17.751V17.7426V17.7343V17.7258V17.7174V17.7089V17.7003V17.6917V17.6831V17.6744V17.6657V17.657V17.6482V17.6394V17.6305V17.6216V17.6126V17.6037V17.5946V17.5856V17.5765V17.5674V17.5582V17.549V17.5397V17.5304V17.5211V17.5118V17.5024V17.493V17.4835V17.474V17.4645V17.4549V17.4453V17.4357V17.426V17.4163V17.4066V17.3968V17.387V17.3772V17.3673V17.3574V17.3475V17.3376V17.3276V17.3176V17.3075V17.2974V17.2873V17.2772V17.267V17.2568V17.2466V17.2363V17.2261V17.2158V17.2054V17.1951V17.1847V17.1743V17.1638V17.1533V17.1428V17.1323V17.1218V17.1112V17.1006V17.09V17.0793V17.0687V17.058V17.0472V17.0365V17.0257V17.0149V17.0041V16.9933V16.9824V16.9716V16.9607V16.9497V16.9388V16.9278V16.9168V16.9058V16.8948V16.8838V16.8727V16.8616V16.8505V16.8394V16.8283V16.8171V16.8059V16.7947V16.7835V16.7723V16.761V16.7498V16.7385V16.7272V16.7159V16.7046V16.6932V16.6819V16.6705V16.6591V16.6477V16.6363V16.6249V16.6134V16.602V16.5905V16.579V16.5675V16.556V16.5445V16.533V16.5214V16.5099V16.4983V16.4868V16.4752V16.4636V16.452V16.4404V16.4288V16.4171V16.4055V16.3938V16.3822V16.3705V16.3589V16.3472V16.3355V16.3238V16.3121V16.3004V16.2887V16.277V16.2652V16.2535V16.2418V16.23V16.2183V16.2066V16.1948V16.1831V16.1713V16.1595V16.1478V16.136V16.1242V16.1125V16.1007V16.0889V16.0771V16.0654V16.0536V16.0418V16.03V16.0182V16.0065V15.9947V15.9829V15.9711V15.9594V15.9476V15.9358V15.9241V15.9123V15.9005V15.8888V15.877V15.8652V15.8535V15.8417V15.83V15.8183V15.8065V15.7948V15.7831V15.7714V15.7596V15.7479V15.7362V15.7245V15.7129V15.7012V15.6895V15.6778V15.6662V15.6545V15.6429V15.6313V15.6196V15.608V15.5964V15.5848V15.5732V15.5617V15.5501V15.5386V15.527V15.5155V15.504V15.4925V15.481V15.4695V15.458V15.4466V15.4351V15.4237V15.4123V15.4009V15.3895V15.3781V15.3667V15.3554V15.3441V15.3328V15.3215V15.3102V15.2989V15.2877V15.2764V15.2652V15.254V15.2428V15.2317V15.2205V15.2094V15.1983V15.1872V15.1761V15.1651V15.1541V15.1431V15.1321V15.1211V15.1102V15.0992V15.0883V15.0774V15.0666V15.0557V15.0449V15.0341V15.0234V15.0126V15.0019V14.9912V14.9805V14.9699V14.9592V14.9486V14.938V14.9275V14.917V14.9065V14.896V14.8855V14.8751V14.8647V14.8543V14.844V14.8337V14.8234V14.8131V14.8029V14.7927V14.7825V14.7724V14.7623V14.7522V14.7421V14.7321V14.7221V14.7122V14.7022V14.6923V14.6825V14.6726V14.6628V14.6531V14.6433V14.6336V14.6239V14.6143V14.6047V14.5951V14.5856V14.5761V14.5666V14.5572V14.5478V14.5384V14.5291V14.5198V14.5106V14.5014V14.4922V14.483V14.4739V14.4649V14.4558V14.4468V14.4379V14.429V14.4201V14.4113V14.4025V14.3937V14.385V14.3763V14.3677V14.3591V14.3505V14.342V14.3335V14.3251V14.3167V14.3084V14.3001V14.2918V14.2836V14.2754V14.2673V14.2592V14.2512V14.2432V14.2352V14.2273V14.2195V14.2117V14.2039V14.1962V14.1885V14.1809V14.1733V14.1657V14.1583V14.1508V14.1434V14.1361V14.1288V14.1215V14.1143V14.1072V14.1001V14.093V14.086V14.0791V14.0722V14.0653V14.0585V14.0518V14.0451V14.0385V14.0319V14.0253V14.0189V14.0124V14.0061V13.9997V13.9935V13.9872V13.9811V13.975V13.9689V13.9629V13.957V13.9511V13.9453V13.9395V13.9338V13.9281V13.9225V13.917V13.9115V13.906V13.9007V13.8953V13.8901V13.8849V13.8797V13.8747V13.87ZM16.7501 14.7931L12.6431 17.3205L11.8569 17.3205L7.75005 14.7932L7.75006 15.2622L7.75006 18.1136C7.75006 18.584 8.08173 19.1479 8.91617 19.6356C9.73244 20.1126 10.9095 20.4318 12.2501 20.4318C13.5906 20.4318 14.7677 20.1126 15.5839 19.6356C16.4184 19.1479 16.7501 18.584 16.7501 18.1136V18.1078V18.1019V18.096V18.09V18.0839V18.0778V18.0717V18.0655V18.0592V18.0529V18.0465V18.0401V18.0336V18.0271V18.0205V18.0139V18.0072V18.0005V17.9937V17.9869V17.98V17.973V17.966V17.959V17.9519V17.9448V17.9376V17.9304V17.9231V17.9157V17.9084V17.9009V17.8934V17.8859V17.8783V17.8707V17.8631V17.8553V17.8476V17.8398V17.8319V17.824V17.8161V17.8081V17.8001V17.792V17.7839V17.7757V17.7675V17.7593V17.751V17.7426V17.7343V17.7258V17.7174V17.7089V17.7003V17.6917V17.6831V17.6744V17.6657V17.657V17.6482V17.6394V17.6305V17.6216V17.6126V17.6037V17.5946V17.5856V17.5765V17.5674V17.5582V17.549V17.5397V17.5304V17.5211V17.5118V17.5024V17.493V17.4835V17.474V17.4645V17.4549V17.4453V17.4357V17.426V17.4163V17.4066V17.3968V17.387V17.3772V17.3673V17.3574V17.3475V17.3376V17.3276V17.3176V17.3075V17.2974V17.2873V17.2772V17.267V17.2568V17.2466V17.2363V17.2261V17.2158V17.2054V17.1951V17.1847V17.1743V17.1638V17.1533V17.1428V17.1323V17.1218V17.1112V17.1006V17.09V17.0793V17.0687V17.058V17.0472V17.0365V17.0257V17.0149V17.0041V16.9933V16.9824V16.9716V16.9607V16.9497V16.9388V16.9278V16.9168V16.9058V16.8948V16.8838V16.8727V16.8616V16.8505V16.8394V16.8283V16.8171V16.8059V16.7947V16.7835V16.7723V16.761V16.7498V16.7385V16.7272V16.7159V16.7046V16.6932V16.6819V16.6705V16.6591V16.6477V16.6363V16.6249V16.6134V16.602V16.5905V16.579V16.5675V16.556V16.5445V16.533V16.5214V16.5099V16.4983V16.4868V16.4752V16.4636V16.452V16.4404V16.4288V16.4171V16.4055V16.3938V16.3822V16.3705V16.3589V16.3472V16.3355V16.3238V16.3121V16.3004V16.2887V16.277V16.2652V16.2535V16.2418V16.23V16.2183V16.2066V16.1948V16.1831V16.1713V16.1595V16.1478V16.136V16.1242V16.1125V16.1007V16.0889V16.0771V16.0654V16.0536V16.0418V16.03V16.0182V16.0065V15.9947V15.9829V15.9711V15.9594V15.9476V15.9358V15.9241V15.9123V15.9005V15.8888V15.877V15.8652V15.8535V15.8417V15.83V15.8183V15.8065V15.7948V15.7831V15.7714V15.7596V15.7479V15.7362V15.7245V15.7129V15.7012V15.6895V15.6778V15.6662V15.6545V15.6429V15.6313V15.6196V15.608V15.5964V15.5848V15.5732V15.5617V15.5501V15.5386V15.527V15.5155V15.504V15.4925V15.481V15.4695V15.458V15.4466V15.4351V15.4237V15.4123V15.4009V15.3895V15.3781V15.3667V15.3554V15.3441V15.3328V15.3215V15.3102V15.2989V15.2877V15.2764V15.2652V15.254V15.2428V15.2317V15.2205V15.2094V15.1983V15.1872V15.1761V15.1651V15.1541V15.1431V15.1321V15.1211V15.1102V15.0992V15.0883V15.0774V15.0666V15.0557V15.0449V15.0341V15.0234V15.0126V15.0019V14.9912V14.9805V14.9699V14.9592V14.9486V14.938V14.9275V14.917V14.9065V14.896V14.8855V14.8751V14.8647V14.8543V14.844V14.8337V14.8234V14.8131V14.8029V14.7931ZM12.25 15.8011L3.93095 10.6817L12.25 5.56235L20.569 10.6817L12.25 15.8011Z" fill="#00EAC7"/>
</svg>
