<svg width="134" height="60" viewBox="0 0 134 60" fill="none" xmlns="http://www.w3.org/2000/svg">
<mask id="mask0_615_11" style="mask-type:alpha" maskUnits="userSpaceOnUse" x="0" y="14" width="134" height="31">
<path d="M0 14H134V44.686H0V14Z" fill="white"/>
</mask>
<g mask="url(#mask0_615_11)">
<path fill-rule="evenodd" clip-rule="evenodd" d="M110.934 23.1194H114.74V19.313H110.934V23.1194ZM90.7071 29.4584C91.4343 27.5297 93.2963 26.1565 95.4798 26.1565C97.6629 26.1565 99.525 27.5297 100.252 29.4584H90.7071ZM95.4798 22.6174C90.7096 22.6174 86.8414 26.486 86.8414 31.2582C86.8414 36.0304 90.7096 39.8983 95.4798 39.8983C98.7532 39.8983 101.601 38.0778 103.067 35.3944L99.8747 33.8455C98.9878 35.3495 97.352 36.3592 95.4798 36.3592C93.1143 36.3592 91.1259 34.7485 90.5489 32.5639H100.41C100.41 32.5655 100.409 32.5677 100.409 32.5696H104.021C104.086 32.1418 104.12 31.7038 104.12 31.2582C104.12 26.486 100.252 22.6174 95.4798 22.6174ZM105.123 39.4377H108.928V35.6312H105.123V39.4377ZM110.934 39.4377H114.74V24.7928H110.934V39.4377ZM125.362 36.3592C122.545 36.3592 120.261 34.0753 120.261 31.2582C120.261 28.4404 122.545 26.1565 125.362 26.1565C128.178 26.1565 130.462 28.4404 130.462 31.2582C130.462 34.0753 128.178 36.3592 125.362 36.3592ZM125.36 22.6174C120.59 22.6174 116.722 26.486 116.722 31.2582C116.722 36.0304 120.59 39.8983 125.36 39.8983C130.132 39.8983 134 36.0304 134 31.2582C134 26.486 130.132 22.6174 125.36 22.6174ZM45.7949 28.0731V32.0088H51.1159C50.8381 33.1334 50.2888 34.1412 49.5012 34.9462C48.3132 36.1606 46.6659 36.8297 44.8625 36.8297C41.1202 36.8297 38.0753 33.7843 38.0753 30.0409C38.0753 26.2975 41.1202 23.2518 44.8625 23.2518C46.8671 23.2518 48.7097 24.11 49.9871 25.5902L53.0337 23.1003C51.0138 20.7327 48.0169 19.3159 44.8625 19.3159C38.9504 19.3159 34.1405 24.1272 34.1405 30.0409C34.1405 35.9546 38.9504 40.7657 44.8625 40.7657C47.733 40.7657 50.3792 39.7311 52.3138 37.7538C53.9372 36.094 55.0132 33.7789 55.22 31.4597C55.3209 30.3284 55.3301 29.2047 55.2706 28.0731H45.7949ZM65.1785 36.3602C62.3617 36.3602 60.078 34.0756 60.078 31.2582C60.078 28.4401 62.3617 26.1562 65.1785 26.1562C67.9956 26.1562 70.2793 28.4401 70.2793 31.2582C70.2793 34.0756 67.9956 36.3602 65.1785 36.3602ZM70.28 24.3013C68.8501 23.2528 67.087 22.6321 65.1785 22.6321C60.4083 22.6321 56.5414 26.5003 56.5414 31.2715C56.5414 36.0434 60.4083 39.911 65.1785 39.911C67.087 39.911 68.8501 39.2906 70.28 38.2421V39.4377H73.816V23.1057H70.28V24.3013ZM81.4067 19.3133H77.8704V23.1194H75.7509V26.4576H77.8704V35.1935C77.8704 36.0956 77.9837 36.8545 78.2084 37.4501C78.4299 38.0393 78.7685 38.5005 79.171 38.8609C79.579 39.2266 80.0577 39.5115 80.6251 39.6732C81.2018 39.8356 81.8379 39.8983 82.5104 39.8983C83.2064 39.8983 83.827 39.826 84.3565 39.6831C84.8482 39.551 85.3195 39.3641 85.7581 39.1267V36.4369C85.0605 36.7386 84.4084 36.8478 83.6643 36.8825C82.8789 36.9194 82.4143 36.695 82.0276 36.3264C81.6225 35.9403 81.4067 35.437 81.4067 34.5929V26.4576H85.7581V23.1194H81.4067V19.3133Z" fill="white"/>
<path fill-rule="evenodd" clip-rule="evenodd" d="M15.3397 37.7813C10.6803 37.7813 6.90303 34.0035 6.90303 29.3427C6.90303 24.6822 10.6803 20.9038 15.3397 20.9038V13.9995C6.8677 13.9995 0 20.8688 0 29.3427C0 37.8163 6.8677 44.6856 15.3397 44.6856C23.8113 44.6856 30.6793 37.8163 30.6793 29.3427H23.7763C23.7763 34.0035 19.9991 37.7813 15.3397 37.7813Z" fill="white"/>
<path fill-rule="evenodd" clip-rule="evenodd" d="M15.3396 29.3429H23.7762V20.9043H15.3396V29.3429Z" fill="white"/>
</g>
</svg>
