<svg width="134" height="60" viewBox="0 0 134 60" fill="none" xmlns="http://www.w3.org/2000/svg">
<mask id="mask0_1953_8458" style="mask-type:alpha" maskUnits="userSpaceOnUse" x="0" y="14" width="134" height="31">
<path d="M0 14H134V44.686H0V14Z" fill="white"/>
</mask>
<g mask="url(#mask0_1953_8458)">
<path fill-rule="evenodd" clip-rule="evenodd" d="M110.934 23.1194H114.74V19.313H110.934V23.1194ZM90.7072 29.4584C91.4344 27.5297 93.2964 26.1565 95.4799 26.1565C97.663 26.1565 99.5251 27.5297 100.253 29.4584H90.7072ZM95.4799 22.6174C90.7097 22.6174 86.8415 26.486 86.8415 31.2582C86.8415 36.0304 90.7097 39.8983 95.4799 39.8983C98.7533 39.8983 101.601 38.0778 103.067 35.3944L99.8748 33.8455C98.9879 35.3495 97.3521 36.3592 95.4799 36.3592C93.1144 36.3592 91.126 34.7485 90.549 32.5639H100.41C100.41 32.5655 100.409 32.5677 100.409 32.5696H104.021C104.086 32.1418 104.12 31.7038 104.12 31.2582C104.12 26.486 100.252 22.6174 95.4799 22.6174ZM105.123 39.4377H108.929V35.6312H105.123V39.4377ZM110.934 39.4377H114.74V24.7928H110.934V39.4377ZM125.362 36.3592C122.545 36.3592 120.262 34.0753 120.262 31.2582C120.262 28.4404 122.545 26.1565 125.362 26.1565C128.178 26.1565 130.462 28.4404 130.462 31.2582C130.462 34.0753 128.178 36.3592 125.362 36.3592ZM125.36 22.6174C120.59 22.6174 116.722 26.486 116.722 31.2582C116.722 36.0304 120.59 39.8983 125.36 39.8983C130.132 39.8983 134 36.0304 134 31.2582C134 26.486 130.132 22.6174 125.36 22.6174ZM45.795 28.0731V32.0088H51.1161C50.8382 33.1334 50.289 34.1412 49.5013 34.9462C48.3133 36.1606 46.6661 36.8297 44.8626 36.8297C41.1203 36.8297 38.0754 33.7843 38.0754 30.0409C38.0754 26.2975 41.1203 23.2518 44.8626 23.2518C46.8672 23.2518 48.7098 24.11 49.9873 25.5902L53.0338 23.1003C51.0139 20.7327 48.017 19.3159 44.8626 19.3159C38.9506 19.3159 34.1406 24.1272 34.1406 30.0409C34.1406 35.9546 38.9506 40.7657 44.8626 40.7657C47.7331 40.7657 50.3793 39.7311 52.3139 37.7538C53.9373 36.094 55.0133 33.7789 55.2201 31.4597C55.321 30.3284 55.3303 29.2047 55.2707 28.0731H45.795ZM65.1786 36.3602C62.3619 36.3602 60.0781 34.0756 60.0781 31.2582C60.0781 28.4401 62.3619 26.1562 65.1786 26.1562C67.9957 26.1562 70.2794 28.4401 70.2794 31.2582C70.2794 34.0756 67.9957 36.3602 65.1786 36.3602ZM70.2801 24.3013C68.8502 23.2528 67.0871 22.6321 65.1786 22.6321C60.4085 22.6321 56.5415 26.5003 56.5415 31.2715C56.5415 36.0434 60.4085 39.911 65.1786 39.911C67.0871 39.911 68.8502 39.2906 70.2801 38.2421V39.4377H73.8161V23.1057H70.2801V24.3013ZM81.4068 19.3133H77.8705V23.1194H75.751V26.4576H77.8705V35.1935C77.8705 36.0956 77.9838 36.8545 78.2085 37.4501C78.43 38.0393 78.7686 38.5005 79.1712 38.8609C79.5792 39.2266 80.0578 39.5115 80.6252 39.6732C81.2019 39.8356 81.8381 39.8983 82.5105 39.8983C83.2065 39.8983 83.8271 39.826 84.3566 39.6831C84.8483 39.551 85.3196 39.3641 85.7582 39.1267V36.4369C85.0606 36.7386 84.4085 36.8478 83.6645 36.8825C82.879 36.9194 82.4144 36.695 82.0277 36.3264C81.6226 35.9403 81.4068 35.437 81.4068 34.5929V26.4576H85.7582V23.1194H81.4068V19.3133Z" fill="white"/>
<path fill-rule="evenodd" clip-rule="evenodd" d="M15.3397 37.7813C10.6803 37.7813 6.90303 34.0035 6.90303 29.3427C6.90303 24.6822 10.6803 20.9038 15.3397 20.9038V13.9995C6.8677 13.9995 0 20.8688 0 29.3427C0 37.8163 6.8677 44.6856 15.3397 44.6856C23.8113 44.6856 30.6793 37.8163 30.6793 29.3427H23.7763C23.7763 34.0035 19.9991 37.7813 15.3397 37.7813Z" fill="white"/>
<path fill-rule="evenodd" clip-rule="evenodd" d="M15.3398 29.3429H23.7765V20.9043H15.3398V29.3429Z" fill="white"/>
</g>
</svg>
