<svg width="216" height="60" viewBox="0 0 216 60" fill="none" xmlns="http://www.w3.org/2000/svg">
<path fill-rule="evenodd" clip-rule="evenodd" d="M24.0165 3.92771L6.07325 14.2866C5.74926 14.4715 5.49564 14.7585 5.35203 15.1027C5.20841 15.447 5.18289 15.8291 5.27946 16.1894C5.37602 16.5497 5.58922 16.8679 5.88575 17.0942C6.18228 17.3205 6.54543 17.4422 6.91844 17.4403H6.91976C7.20633 17.4403 7.49687 17.3676 7.76363 17.2144L24.8617 7.34282L41.961 17.2144C42.3482 17.4247 42.8022 17.4754 43.2263 17.3559C43.6504 17.2364 44.011 16.9559 44.2314 16.5744C44.4518 16.1929 44.5145 15.7404 44.4061 15.3133C44.2978 14.8862 44.027 14.5183 43.6514 14.2879L25.7055 3.92639C25.4487 3.7775 25.1572 3.6991 24.8603 3.6991C24.5635 3.6991 24.2719 3.7775 24.0151 3.92639" fill="white"/>
<path fill-rule="evenodd" clip-rule="evenodd" d="M47.2859 18.5601L27.7197 29.8263C27.4619 29.9742 27.2478 30.1875 27.0989 30.4446C26.9501 30.7018 26.8717 30.9937 26.8718 31.2909V53.9156C26.8718 54.364 27.0499 54.7939 27.3669 55.1109C27.6839 55.4279 28.1139 55.606 28.5622 55.606C28.8541 55.606 29.1459 55.5294 29.4074 55.3789L48.9737 44.081C49.3493 43.8507 49.6201 43.4828 49.7284 43.0557C49.8368 42.6286 49.7741 42.1761 49.5537 41.7946C49.3333 41.413 48.9726 41.1326 48.5486 41.0131C48.1245 40.8935 47.6705 40.9443 47.2833 41.1545L30.2526 50.9892V32.2681L48.971 21.4906C49.2957 21.306 49.55 21.019 49.694 20.6744C49.8381 20.3299 49.8638 19.9473 49.7672 19.5866C49.6706 19.2259 49.457 18.9074 49.16 18.681C48.863 18.4546 48.4993 18.3331 48.1258 18.3356C47.8406 18.3356 47.5514 18.4069 47.2859 18.5601" fill="white"/>
<path fill-rule="evenodd" clip-rule="evenodd" d="M0.845194 18.5628C0.32091 18.8639 0 19.4212 0 20.0247V42.6191C0 43.2226 0.32223 43.7812 0.845194 44.081L20.4114 55.3789C20.6687 55.5279 20.9608 55.6063 21.2581 55.6061C21.5555 55.6059 21.8474 55.527 22.1045 55.3776C22.6274 55.0738 22.9497 54.5126 22.9457 53.9077L22.8929 42.6112C22.8918 42.3153 22.8131 42.0249 22.6645 41.769C22.516 41.5132 22.3028 41.3008 22.0464 41.1532L16.8392 38.1554C16.4506 37.9318 15.9891 37.8717 15.5561 37.9883C15.1232 38.105 14.7544 38.3888 14.5307 38.7774C14.3071 39.166 14.247 39.6276 14.3637 40.0605C14.4803 40.4934 14.7641 40.8622 15.1528 41.0859L19.5174 43.599L19.553 50.9812L3.37946 41.6419V22.9472L20.4128 32.7554C20.6053 32.8722 20.8193 32.9493 21.0421 32.9822C21.2649 33.0151 21.492 33.0031 21.7101 32.947C21.9282 32.891 22.1329 32.7919 22.3122 32.6556C22.4914 32.5193 22.6417 32.3485 22.754 32.1534C22.8664 31.9582 22.9386 31.7425 22.9665 31.5191C22.9943 31.2956 22.9773 31.0688 22.9163 30.852C22.8553 30.6353 22.7516 30.4328 22.6113 30.2567C22.4709 30.0806 22.2968 29.9342 22.0992 29.8263L2.53294 18.5601C2.27614 18.4124 1.98498 18.3349 1.68871 18.3353C1.39245 18.3358 1.10153 18.4142 0.845194 18.5628" fill="white"/>
<path fill-rule="evenodd" clip-rule="evenodd" d="M199.089 33.3642L200.681 24.1886C200.76 23.6656 200.839 23.1427 200.891 22.5933C200.97 23.1691 201.046 23.7436 201.152 24.3193L202.687 33.3656H199.089V33.3642ZM203.766 39.7164H205.126L201.779 21.1565H200.002L196.629 39.7164H197.989L198.881 34.566H202.891L203.766 39.7164V39.7164ZM208.628 39.7164V21.2621H209.909V38.5688H216V39.7177L208.628 39.7164ZM100.958 39.7164V21.2621H102.239V38.5688H108.33V39.7177L100.958 39.7164ZM69.459 22.4111V29.5213H74.7401V30.6464H69.459V38.5675H74.715V39.7164H68.2044V21.2621H74.7401V22.4111H69.459ZM83.5235 39.7164L79.2355 22.8257L79.3411 39.7164H78.1116V21.2621H79.9935L84.4123 38.4684L84.2287 21.2608H85.4833V39.7177L83.5235 39.7164ZM93.7411 38.2849H91.5449V31.1007H92.8523C94.0805 31.1007 95.4658 31.2579 95.9624 32.6168C96.0931 33.009 96.1209 33.4276 96.1209 33.8714V35.7176C96.1209 36.7701 96.0548 37.3816 95.7471 37.824C94.9746 38.3549 93.9868 38.2849 93.7398 38.2849H93.7411ZM93.7411 22.6937C93.9868 22.6937 94.9746 22.6223 95.7471 23.1546C96.0535 23.5956 96.1195 24.2084 96.1195 25.2596V27.2102C96.1195 27.6552 96.0931 28.0725 95.9624 28.4648C95.4658 29.825 94.0805 29.9808 92.8523 29.9808H91.5449V22.6937H93.7411V22.6937ZM97.4005 27.1838V24.6852C97.4005 23.692 97.2949 22.7769 96.4854 22.0439C95.5187 21.208 94.2892 21.2608 93.9234 21.2608H90.2375V39.7177H93.9234C94.2892 39.7177 95.5187 39.7706 96.4854 38.9333C97.2962 38.2003 97.4005 37.2865 97.4005 36.2921V33.8978C97.4005 32.9311 97.3741 31.8852 96.5382 31.1786C96.0826 30.793 95.4791 30.6226 95.0485 30.5408C95.4791 30.4615 96.0826 30.2885 96.5382 29.9029C97.3741 29.1964 97.4005 28.1518 97.4005 27.1838V27.1838ZM116.59 26.4627C116.59 24.9202 116.511 24.0579 116.145 23.3513C115.973 22.9766 115.678 22.6722 115.308 22.489C114.929 22.2932 114.507 22.1943 114.08 22.2011C113.348 22.2011 112.878 22.4626 112.668 22.5933C111.544 23.3262 111.597 24.7895 111.597 25.1025V35.2725C111.597 36.3185 111.65 36.8929 111.806 37.3644C111.988 37.8609 112.642 38.8025 114.106 38.8025C114.629 38.8025 115.126 38.6705 115.544 38.3575C116.538 37.651 116.59 36.5271 116.59 35.4561V26.4627V26.4627ZM117.269 38.3575C116.877 39.0376 115.909 39.9528 114.027 39.9528C113.663 39.9528 112.067 39.9264 111.152 38.829C110.421 37.9124 110.341 36.8678 110.341 35.7691V25.364C110.341 25.1566 110.341 24.1094 110.629 23.2734C111.152 21.7309 112.59 21.0257 114.158 21.0508C114.995 21.0508 115.831 21.2344 116.511 21.7309C117.819 22.724 117.819 24.3193 117.819 25.7575V35.9527C117.819 36.815 117.739 37.5995 117.269 38.3575V38.3575ZM129.085 37.9389C128.745 38.9069 127.83 40.0043 125.556 40.0043C123.36 40.0043 122.47 38.5411 122.21 37.7566C122.026 37.2072 121.948 36.6843 121.948 35.534V25.5224C121.948 24.3973 121.922 23.4042 122.628 22.4639C123.36 21.443 124.431 21.0772 125.608 21.0772C126.994 21.0772 128.327 21.6266 128.85 22.9868C129.111 23.6392 129.111 24.4501 129.111 24.6336V27.2221H127.857V25.9926C127.857 24.6059 127.83 23.8479 127.516 23.247C127.355 22.9626 127.12 22.7274 126.836 22.5669C126.473 22.3508 126.056 22.2423 125.634 22.2539C125.399 22.2539 124.85 22.2803 124.3 22.6197C123.125 23.3262 123.204 24.8423 123.204 25.1553V34.2543C123.204 35.2474 123.125 36.8163 123.673 37.7302C123.856 38.0696 124.118 38.306 124.431 38.4882C124.98 38.7761 125.53 38.8025 125.765 38.8025C126.339 38.8025 126.706 38.6441 126.915 38.5411C128.065 37.9389 128.012 36.6579 128.012 36.3185V33.3642H129.32V36.2141C129.32 37.1293 129.241 37.4951 129.085 37.9389M139.201 39.7164L135.829 30.1499L134.469 32.7119V39.7164H133.214V21.2621H134.495V30.3083L139.096 21.2621H140.535L136.612 28.6074L140.587 39.7177L139.201 39.7164ZM156.95 37.9389C156.609 38.9069 155.694 40.0043 153.42 40.0043C151.224 40.0043 150.335 38.5411 150.073 37.7566C149.891 37.2072 149.812 36.6843 149.812 35.534V25.5224C149.812 24.3973 149.785 23.4042 150.492 22.4639C151.224 21.443 152.296 21.0772 153.473 21.0772C154.858 21.0772 156.19 21.6266 156.713 22.9868C156.975 23.6392 156.975 24.4501 156.975 24.6336V27.2221H155.72V25.9926C155.72 24.6059 155.694 23.8479 155.38 23.247C155.219 22.9628 154.985 22.7276 154.701 22.5669C154.338 22.3508 153.921 22.2423 153.499 22.2539C153.263 22.2539 152.715 22.2803 152.165 22.6197C150.99 23.3262 151.068 24.8423 151.068 25.1553V34.2543C151.068 35.2474 150.989 36.8163 151.537 37.7302C151.721 38.0696 151.982 38.306 152.296 38.4882C152.844 38.7761 153.395 38.8025 153.63 38.8025C154.204 38.8025 154.57 38.6441 154.779 38.5411C155.93 37.9389 155.877 36.6579 155.877 36.3185V33.3642H157.185V36.2141C157.185 37.1293 157.106 37.4951 156.95 37.9389M178.123 25.8618C178.123 24.215 178.097 23.3262 177.364 22.7769C176.894 22.4111 176.476 22.3331 175.404 22.3331H173.443V30.2278H175.535C176.24 30.2278 176.973 30.1485 177.522 29.5741C178.228 28.8675 178.123 27.613 178.123 27.4558V25.8618ZM178.646 30.1235C177.705 31.246 176.162 31.2988 175.351 31.2988H173.469V39.7164H172.188V21.2621H175.065C176.187 21.2621 177.442 21.2093 178.383 21.9937C179.378 22.8046 179.378 24.0064 179.378 25.3666V27.4558C179.378 28.4489 179.351 29.2862 178.646 30.1235V30.1235ZM183.297 39.7164H184.631V21.2621H183.297V39.7164ZM192.16 22.4111V39.7177H190.853V22.4111H187.637V21.2608H195.429V22.4097L192.16 22.4111ZM62.9325 35.744C62.9325 36.3185 62.9061 37.1544 62.671 37.7051C62.4359 38.2268 61.843 38.8805 60.5091 38.8805C60.4299 38.8805 60.3375 38.8831 60.2067 38.8752C59.0538 38.8237 58.478 37.9785 58.3011 37.5995C58.0237 37.0461 57.9577 36.4003 57.9405 35.3623L57.9353 25.8618C57.9353 24.7116 57.8296 23.4834 58.824 22.6461C59.4513 22.1496 60.1829 22.1496 60.4444 22.1496C61.7782 22.1496 62.3527 22.8033 62.5878 23.3249C62.8229 23.8743 62.8493 24.7116 62.8493 25.286V27.1943H64.0774V24.6323C64.0774 24.528 64.0774 23.77 63.948 23.2734C63.6601 22.3331 62.8229 21.0508 60.5223 21.0508C59.2942 21.0508 58.6405 21.3123 58.1703 21.6266C57.9445 21.7592 57.7413 21.9268 57.5681 22.1232C56.7586 22.934 56.6807 24.1886 56.6807 25.2596L56.6859 35.7691C56.6859 36.2181 56.7176 36.6631 56.8074 37.1042C56.9118 37.6853 57.0887 38.1211 57.3859 38.5662C57.4334 38.6401 57.5127 38.7576 57.6341 38.9069C57.7226 39.0033 57.8019 39.0786 57.8771 39.1446C58.4886 39.6992 59.314 39.9779 60.1565 39.9779C60.1565 39.9779 60.2001 39.9779 60.1565 39.9779C60.1565 39.9779 60.5039 39.9805 60.5884 39.9779C62.9298 39.9383 63.8014 38.6969 64.0893 37.7566C64.2214 37.2601 64.2214 36.502 64.2214 36.3964L64.2082 31.2988H60.2094V32.4226H62.9285L62.9325 35.744V35.744ZM162.651 33.3642L164.242 24.1886C164.321 23.6656 164.398 23.1427 164.451 22.5933C164.53 23.1691 164.608 23.7436 164.712 24.3193L166.248 33.3656H162.651V33.3642ZM167.326 39.7164H168.686L165.341 21.1565H163.563L160.191 39.7164H161.549L162.442 34.566H166.453L167.326 39.7164V39.7164Z" fill="white"/>
</svg>
