<svg width="197" height="60" viewBox="0 0 197 60" fill="none" xmlns="http://www.w3.org/2000/svg">
<path fill-rule="evenodd" clip-rule="evenodd" d="M36.474 19.6923V28.1282H28.1499V20.7774C28.1499 20.1781 27.6636 19.6923 27.064 19.6923H24.2544V39.7953C24.2544 40.3947 24.7404 40.8807 25.3403 40.8807H28.1499V31.5304H36.474V39.7953C36.474 40.3947 36.96 40.8807 37.5599 40.8807H40.3694V20.7774C40.3694 20.1781 39.8833 19.6923 39.2834 19.6923H36.474Z" fill="white"/>
<path fill-rule="evenodd" clip-rule="evenodd" d="M52.8135 24.6876V34.7283C52.8135 35.6406 52.348 36.5055 51.5577 36.9619C49.352 38.2359 47.0693 36.6444 47.0693 34.5462V25.7728C47.0693 25.1735 46.5832 24.6876 45.9834 24.6876H43.1626V34.904C43.1626 38.1913 45.8533 40.8807 49.1419 40.8807H50.7408C54.0296 40.8807 56.7201 38.1913 56.7201 34.904V25.7728C56.7201 25.1735 56.2342 24.6876 55.6346 24.6876H52.8135Z" fill="white"/>
<path fill-rule="evenodd" clip-rule="evenodd" d="M96.1429 40.8807H98.9524V26.662C98.9524 26.0624 98.4661 25.5765 97.8666 25.5765H95.0571V39.7952C95.0571 40.3948 95.5432 40.8807 96.1429 40.8807Z" fill="white"/>
<path fill-rule="evenodd" clip-rule="evenodd" d="M97.0045 24.0356C98.2052 24.0356 99.1785 23.0627 99.1785 21.8626C99.1785 20.6624 98.2052 19.6897 97.0045 19.6897C95.8037 19.6897 94.8306 20.6624 94.8306 21.8626C94.8306 23.0627 95.8037 24.0356 97.0045 24.0356Z" fill="white"/>
<path fill-rule="evenodd" clip-rule="evenodd" d="M70.4292 34.1576C70.4292 36.0893 68.8483 37.3752 66.9156 37.3752C64.9829 37.3752 63.4018 36.0893 63.4018 34.1576V31.401C63.4018 29.4691 64.9829 28.1832 66.9156 28.1832C68.8483 28.1832 70.4292 29.4691 70.4292 31.401V34.1576ZM66.9156 24.6777C62.8295 24.6777 59.4863 27.5993 59.4863 31.6834V33.8924C59.4863 37.9765 62.8295 40.8807 66.9156 40.8807C71.0015 40.8807 74.3449 37.9765 74.3449 33.8924V31.6834C74.3449 27.5993 71.0015 24.6777 66.9156 24.6777Z" fill="white"/>
<path fill-rule="evenodd" clip-rule="evenodd" d="M88.1106 34.1574C88.1106 36.0893 86.5294 37.3751 84.5968 37.3751C82.6644 37.3751 81.0829 36.0893 81.0829 34.1574V31.4009C81.0829 29.4691 82.6644 28.1832 84.5968 28.1832C86.5294 28.1832 88.1106 29.4691 88.1106 31.4009V34.1574ZM84.5968 24.6777C83.3197 24.6777 82.1156 24.9631 81.0631 25.4802V20.7594C81.0631 20.1598 80.5767 19.674 79.9772 19.674H77.1675V33.8924C77.1675 37.9767 80.5108 40.8807 84.5968 40.8807C88.6829 40.8807 92.026 37.9767 92.026 33.8924V31.6834C92.026 27.5993 88.6829 24.6777 84.5968 24.6777Z" fill="white"/>
<path fill-rule="evenodd" clip-rule="evenodd" d="M165.785 34.2245C165.785 36.1362 164.22 37.409 162.308 37.409C160.394 37.409 158.829 36.1362 158.829 34.2245V31.4961C158.829 29.5844 160.394 28.3118 162.308 28.3118C164.22 28.3118 165.785 29.5844 165.785 31.4961V34.2245ZM162.308 24.8424C161.044 24.8424 159.851 25.1246 158.81 25.6361V20.7628C158.81 20.1696 158.329 19.6887 157.734 19.6887H154.955V33.9622C154.955 38.0043 158.263 40.8783 162.308 40.8783C166.351 40.8783 169.659 38.0043 169.659 33.9622V31.7756C169.659 27.7337 166.351 24.8424 162.308 24.8424Z" fill="white"/>
<path fill-rule="evenodd" clip-rule="evenodd" d="M197 40.8059V38.361C197 37.7822 196.531 37.3137 195.953 37.3157C195.366 37.3177 194.631 37.3196 194.011 37.3196C192.428 37.3196 192.501 36.5288 192.501 34.4784V20.752C192.501 20.1744 192.033 19.7064 191.456 19.7064H188.604V34.9471C188.604 38.6379 189.556 40.8059 193.542 40.8059C195.082 40.8059 196.198 40.7622 197 40.8061V40.8059Z" fill="white"/>
<path fill-rule="evenodd" clip-rule="evenodd" d="M122.341 28.2171H114.803V30.27C114.803 30.8872 115.304 31.3875 115.921 31.3875H119.501V33.2026C119.501 34.5417 119.167 35.53 118.475 36.2265C117.627 37.1025 116.452 37.5654 115.079 37.5654C113.842 37.5654 112.665 37.1372 111.93 36.4204C110.908 35.4197 110.688 34.3331 110.688 30.2993C110.688 26.2886 110.908 25.2068 111.929 24.2071C112.683 23.472 114.153 22.9158 115.372 22.9158C119.492 22.9158 120.876 24.3776 121.909 25.7086H122.044V22.7322C122.044 22.2922 121.833 21.8809 121.49 21.6062C119.763 20.2251 118.043 19.7205 115.079 19.7205C112.686 19.7205 110.64 20.4722 108.997 21.9545C106.73 24.0012 106.73 26.3106 106.73 30.1365V30.4621C106.73 34.2879 106.73 36.5971 108.997 38.6438C110.617 40.1059 112.72 40.8784 115.079 40.8784C117.557 40.8784 119.739 40.0447 121.387 38.4677L121.388 38.4672C122.859 37.0549 123.459 34.3505 123.459 31.5383V29.3343C123.459 28.7174 122.958 28.2171 122.341 28.2171Z" fill="white"/>
<path fill-rule="evenodd" clip-rule="evenodd" d="M134.623 40.8059V38.361C134.623 37.7822 134.155 37.3137 133.576 37.3157C132.99 37.3177 132.255 37.3196 131.634 37.3196C130.051 37.3196 130.125 36.5288 130.125 34.4784V20.752C130.125 20.1744 129.657 19.7064 129.08 19.7064H126.228V34.9471C126.228 38.6379 127.179 40.8059 131.165 40.8059C132.705 40.8059 133.822 40.7622 134.623 40.8061L134.623 40.8059Z" fill="white"/>
<path fill-rule="evenodd" clip-rule="evenodd" d="M148.265 34.2245C148.265 36.1362 146.7 37.409 144.788 37.409C142.876 37.409 141.311 36.1362 141.311 34.2245V31.4963C141.311 29.5846 142.876 28.3118 144.788 28.3118C146.7 28.3118 148.265 29.5846 148.265 31.4963V34.2245ZM144.788 24.8424C140.745 24.8424 137.435 27.7338 137.435 31.7758V33.9622C137.435 38.0044 140.745 40.8784 144.788 40.8784C148.833 40.8784 152.141 38.0044 152.141 33.9622V31.7758C152.141 27.7338 148.833 24.8424 144.788 24.8424Z" fill="white"/>
<path fill-rule="evenodd" clip-rule="evenodd" d="M181.959 33.6195V37.6432C181.659 37.7013 181.327 37.7477 180.967 37.7807C180.085 37.8636 179.294 37.8788 178.377 37.7953C178.017 37.7628 177.685 37.6712 177.39 37.525C177.105 37.3831 176.871 37.1813 176.678 36.9078C176.494 36.6487 176.401 36.2659 176.401 35.7702C176.401 34.9978 176.675 34.4448 177.243 34.0789C177.847 33.6891 178.761 33.4913 179.962 33.4913C180.285 33.4913 180.68 33.5098 181.146 33.5467C181.45 33.571 181.723 33.5953 181.959 33.6195ZM184.045 26.2051C182.889 25.2827 181.2 24.8152 179.023 24.8152C178.215 24.8152 177.363 24.8741 176.494 24.9901C175.798 25.083 174.812 25.2161 174.128 25.3736C173.851 25.4376 173.8 25.6554 173.8 25.9162V27.9961C173.8 28.3668 173.804 28.704 174.197 28.6083C174.929 28.43 176.35 28.1153 176.736 28.0517C177.346 27.9513 178.011 27.9007 178.711 27.9007C179.801 27.9007 180.632 28.0957 181.181 28.479C181.697 28.8402 181.959 29.5278 181.959 30.5224V30.6428C181.765 30.6249 181.553 30.6078 181.32 30.5922C180.885 30.5629 180.328 30.548 179.648 30.548C178.721 30.548 177.823 30.6532 176.979 30.8605C176.123 31.0716 175.352 31.3977 174.69 31.8305C174.016 32.272 173.475 32.8322 173.083 33.4972C172.687 34.1668 172.487 34.9512 172.487 35.8273C172.487 36.7172 172.659 37.492 172.997 38.1295C173.337 38.7727 173.828 39.3091 174.454 39.7231C175.069 40.1319 175.824 40.4307 176.697 40.6126C177.546 40.7889 178.508 40.8784 179.555 40.8784C180.317 40.8784 185.81 40.8011 185.81 38.1885C185.81 35.1611 185.81 30.636 185.81 30.636C185.81 28.6319 185.216 27.1411 184.045 26.2051Z" fill="white"/>
<path fill-rule="evenodd" clip-rule="evenodd" d="M12.5905 21.163C12.5905 16.9436 10.5342 13.3152 8.97009 12.1336C8.96365 12.1299 8.85037 12.0662 8.86003 12.2349L8.8578 12.2401C8.72792 20.3867 4.56415 22.5948 2.27505 25.5691C-3.00762 32.433 1.90523 39.9585 6.90803 41.3494C9.70726 42.1276 6.26158 39.9724 5.8179 35.42C5.28125 29.9177 12.5905 25.7178 12.5905 21.163Z" fill="white"/>
<path fill-rule="evenodd" clip-rule="evenodd" d="M14.991 23.9366C14.959 23.9148 14.9133 23.9 14.8819 23.952C14.7959 24.9775 13.7478 27.1711 12.4195 29.1854C7.91417 36.0179 10.4816 39.3116 11.9252 41.0806C12.7636 42.1075 11.9252 41.0806 14.0206 40.0311C14.1846 39.9489 18.1087 37.7492 18.5336 32.7376C18.945 27.8844 16.0288 24.8253 14.991 23.9366Z" fill="white"/>
</svg>
