<svg width="96" height="96" viewBox="0 0 96 96" fill="none" xmlns="http://www.w3.org/2000/svg">
<circle cx="48" cy="48" r="33" fill="#111B24" stroke="white" stroke-linejoin="bevel"/>
<mask id="mask0_1943_12656" style="mask-type:alpha" maskUnits="userSpaceOnUse" x="15" y="15" width="66" height="66">
<circle cx="48" cy="48" r="32.5" fill="white"/>
</mask>
<g mask="url(#mask0_1943_12656)">
<path fill-rule="evenodd" clip-rule="evenodd" d="M43.0548 47C49.657 46.9705 55.0001 41.6093 55.0001 35.0001C55.0001 28.3727 49.6275 23.0001 43.0001 23.0001C36.3727 23.0001 31.0001 28.3727 31.0001 35.0001C31.0001 41.6093 36.3431 46.9705 42.9454 47H33C26.3726 47 21 52.3726 21 59V84H65V59C65 52.3726 59.6274 47 53 47H43.0548Z" fill="#111B24"/>
<path fill-rule="evenodd" clip-rule="evenodd" d="M43.0548 47C49.657 46.9705 55.0001 41.6093 55.0001 35.0001C55.0001 28.3727 49.6275 23.0001 43.0001 23.0001C36.3727 23.0001 31.0001 28.3727 31.0001 35.0001C31.0001 41.6093 36.3431 46.9705 42.9454 47H33C26.3726 47 21 52.3726 21 59V84H65V59C65 52.3726 59.6274 47 53 47H43.0548Z" fill="#00EAC7" fill-opacity="0.06"/>
<path fill-rule="evenodd" clip-rule="evenodd" d="M32.0001 35.0001C32.0001 28.925 36.925 24.0001 43.0001 24.0001C49.0752 24.0001 54.0001 28.925 54.0001 35.0001C54.0001 41.0753 49.0752 46.0001 43.0001 46.0001C36.925 46.0001 32.0001 41.0753 32.0001 35.0001ZM49.9315 46.0001C53.578 43.6975 56.0001 39.6317 56.0001 35.0001C56.0001 27.8204 50.1798 22.0001 43.0001 22.0001C35.8204 22.0001 30.0001 27.8204 30.0001 35.0001C30.0001 39.6317 32.4221 43.6975 36.0687 46.0001H33C25.8203 46.0001 20 51.8204 20 59.0001V84.0001H22V59.0001C22 52.925 26.9249 48.0001 33 48.0001H43.0001H53C59.0751 48.0001 64 52.925 64 59.0001V84.0001H66V59.0001C66 51.8204 60.1797 46.0001 53 46.0001H49.9315Z" fill="#00EAC7"/>
<line x1="31.5" y1="84" x2="31.5" y2="66" stroke="#00EAC7" stroke-linejoin="bevel"/>
<line x1="55.5" y1="84" x2="55.5" y2="66" stroke="#00EAC7" stroke-linejoin="bevel"/>
<path d="M34 47.5L43 56L52 47.5" stroke="#00EAC7" stroke-linejoin="bevel"/>
<path d="M28.5 48.5L43 62L58.5 48.5" stroke="#00EAC7" stroke-linejoin="bevel"/>
</g>
<rect x="63" y="23" width="20" height="14" fill="#111B24"/>
<rect x="63" y="23" width="20" height="14" fill="#00EAC7" fill-opacity="0.06"/>
<rect x="63" y="23" width="20" height="14" stroke="#00EAC7" stroke-width="2" stroke-linejoin="bevel"/>
<path fill-rule="evenodd" clip-rule="evenodd" d="M80 18C80 17.0807 79.8189 16.1705 79.4672 15.3212C79.1154 14.4719 78.5998 13.7003 77.9497 13.0503C77.2997 12.4002 76.5281 11.8846 75.6788 11.5328C74.8295 11.1811 73.9193 11 73 11C72.0807 11 71.1705 11.1811 70.3212 11.5328C69.4719 11.8846 68.7003 12.4002 68.0503 13.0503C67.4002 13.7003 66.8846 14.4719 66.5328 15.3212C66.1811 16.1705 66 17.0807 66 18V23H70V18L70.0087 18C70.0087 17.6072 70.0861 17.2182 70.2364 16.8553C70.3867 16.4924 70.6071 16.1626 70.8848 15.8848C71.1626 15.6071 71.4924 15.3867 71.8553 15.2364C72.2182 15.0861 72.6072 15.0087 73 15.0087C73.3928 15.0087 73.7818 15.0861 74.1447 15.2364C74.5076 15.3867 74.8374 15.6071 75.1152 15.8848C75.3929 16.1626 75.6133 16.4924 75.7636 16.8553C75.9139 17.2182 75.9913 17.6072 75.9913 18H76V23H80V18Z" fill="#111B24"/>
<path fill-rule="evenodd" clip-rule="evenodd" d="M80 18C80 17.0807 79.8189 16.1705 79.4672 15.3212C79.1154 14.4719 78.5998 13.7003 77.9497 13.0503C77.2997 12.4002 76.5281 11.8846 75.6788 11.5328C74.8295 11.1811 73.9193 11 73 11C72.0807 11 71.1705 11.1811 70.3212 11.5328C69.4719 11.8846 68.7003 12.4002 68.0503 13.0503C67.4002 13.7003 66.8846 14.4719 66.5328 15.3212C66.1811 16.1705 66 17.0807 66 18V23H70V18L70.0087 18C70.0087 17.6072 70.0861 17.2182 70.2364 16.8553C70.3867 16.4924 70.6071 16.1626 70.8848 15.8848C71.1626 15.6071 71.4924 15.3867 71.8553 15.2364C72.2182 15.0861 72.6072 15.0087 73 15.0087C73.3928 15.0087 73.7818 15.0861 74.1447 15.2364C74.5076 15.3867 74.8374 15.6071 75.1152 15.8848C75.3929 16.1626 75.6133 16.4924 75.7636 16.8553C75.9139 17.2182 75.9913 17.6072 75.9913 18H76V23H80V18Z" fill="#00EAC7" fill-opacity="0.06"/>
<path d="M79.4672 15.3212L78.5433 15.7039L79.4672 15.3212ZM75.6788 11.5328L75.2961 12.4567V12.4567L75.6788 11.5328ZM70.3212 11.5328L70.7039 12.4567L70.7039 12.4567L70.3212 11.5328ZM68.0503 13.0503L68.7574 13.7574L68.0503 13.0503ZM66.5328 15.3212L67.4567 15.7039L66.5328 15.3212ZM66 23H65L66 24V23ZM70 23V24L71 23H70ZM70 18L70.0001 17L69 18H70ZM70.0087 18L70.0086 19L71.0087 18H70.0087ZM70.2364 16.8553L69.3125 16.4726L69.3125 16.4726L70.2364 16.8553ZM71.8553 15.2364L72.238 16.1603L72.238 16.1603L71.8553 15.2364ZM74.1447 15.2364L74.5274 14.3125L74.5274 14.3125L74.1447 15.2364ZM75.1152 15.8848L75.8223 15.1777V15.1777L75.1152 15.8848ZM75.7636 16.8553L74.8397 17.238V17.238L75.7636 16.8553ZM75.9913 18H74.9913L75.9913 19V18ZM76 18H77L76 17V18ZM76 23H75L76 24V23ZM80 23V24L81 23H80ZM78.5433 15.7039C78.8448 16.4319 79 17.2121 79 18H81C81 16.9494 80.7931 15.9091 80.391 14.9385L78.5433 15.7039ZM77.2426 13.7574C77.7998 14.3145 78.2417 14.9759 78.5433 15.7039L80.391 14.9385C79.989 13.9679 79.3997 13.086 78.6569 12.3431L77.2426 13.7574ZM75.2961 12.4567C76.0241 12.7583 76.6855 13.2002 77.2426 13.7574L78.6569 12.3431C77.914 11.6003 77.0321 11.011 76.0615 10.609L75.2961 12.4567ZM73 12C73.7879 12 74.5681 12.1552 75.2961 12.4567L76.0615 10.609C75.0909 10.2069 74.0506 10 73 10V12ZM70.7039 12.4567C71.4319 12.1552 72.2121 12 73 12V10C71.9494 10 70.9091 10.2069 69.9385 10.609L70.7039 12.4567ZM68.7574 13.7574C69.3145 13.2002 69.9759 12.7583 70.7039 12.4567L69.9385 10.609C68.9679 11.011 68.086 11.6003 67.3431 12.3431L68.7574 13.7574ZM67.4567 15.7039C67.7583 14.9759 68.2002 14.3145 68.7574 13.7574L67.3431 12.3431C66.6003 13.086 66.011 13.9679 65.609 14.9385L67.4567 15.7039ZM67 18C67 17.2121 67.1552 16.4319 67.4567 15.7039L65.609 14.9385C65.2069 15.9091 65 16.9494 65 18H67ZM67 23V18H65V23H67ZM70 22H66V24H70V22ZM69 18V23H71V18H69ZM70.0087 17L70.0001 17L69.9999 19H70.0086L70.0087 17ZM69.3125 16.4726C69.1119 16.9568 69.0087 17.4759 69.0087 18H71.0087C71.0087 17.7385 71.0602 17.4796 71.1603 17.238L69.3125 16.4726ZM70.1777 15.1777C69.8071 15.5483 69.5131 15.9883 69.3125 16.4726L71.1603 17.238C71.2603 16.9964 71.407 16.7768 71.5919 16.5919L70.1777 15.1777ZM71.4726 14.3125C70.9883 14.5131 70.5483 14.8071 70.1777 15.1777L71.5919 16.5919C71.7768 16.407 71.9964 16.2603 72.238 16.1603L71.4726 14.3125ZM73 14.0087C72.4759 14.0087 71.9568 14.1119 71.4726 14.3125L72.238 16.1603C72.4796 16.0602 72.7385 16.0087 73 16.0087V14.0087ZM74.5274 14.3125C74.0432 14.1119 73.5241 14.0087 73 14.0087V16.0087C73.2615 16.0087 73.5204 16.0602 73.762 16.1603L74.5274 14.3125ZM75.8223 15.1777C75.4517 14.8071 75.0117 14.5131 74.5274 14.3125L73.762 16.1603C74.0036 16.2603 74.2232 16.407 74.4081 16.5919L75.8223 15.1777ZM76.6875 16.4726C76.4869 15.9883 76.1929 15.5483 75.8223 15.1777L74.4081 16.5919C74.593 16.7768 74.7397 16.9964 74.8397 17.238L76.6875 16.4726ZM76.9913 18C76.9913 17.4759 76.8881 16.9568 76.6875 16.4726L74.8397 17.238C74.9398 17.4796 74.9913 17.7385 74.9913 18H76.9913ZM76 17H75.9913V19H76V17ZM77 23V18H75V23H77ZM80 22H76V24H80V22ZM79 18V23H81V18H79Z" fill="#00EAC7"/>
<path d="M21.5 12.5L12.5 12.5" stroke="#1B2B38" stroke-linecap="square"/>
<path d="M21.5 15.5L12.5 15.5" stroke="#1B2B38" stroke-linecap="square"/>
<circle cx="81" cy="81" r="3" fill="#1B2B38"/>
</svg>
