<svg width="96" height="96" viewBox="0 0 96 96" fill="none" xmlns="http://www.w3.org/2000/svg">
<path d="M82.5 13.5L78 17L73.5 13.5" stroke="#1B2B38" stroke-linecap="square"/>
<path d="M82.5 16.5L78 20L73.5 16.5" stroke="#1B2B38" stroke-linecap="square"/>
<path d="M18 81C18 81.7956 17.6839 82.5587 17.1213 83.1213C16.5587 83.6839 15.7956 84 15 84C14.2044 84 13.4413 83.6839 12.8787 83.1213C12.3161 82.5587 12 81.7956 12 81L15 81H18Z" fill="#1B2B38"/>
<path d="M12 78C12 77.2043 12.3161 76.4413 12.8787 75.8787C13.4413 75.3161 14.2044 75 15 75C15.7956 75 16.5587 75.3161 17.1213 75.8787C17.6839 76.4413 18 77.2044 18 78L15 78L12 78Z" fill="#1B2B38"/>
<circle cx="48" cy="48" r="32.5" stroke="#3C5061" stroke-linejoin="bevel" stroke-dasharray="2 2"/>
<circle cx="48" cy="48" r="23.5" stroke="#1B2B38" stroke-linejoin="bevel"/>
<path d="M13 21H67V61H13V21Z" fill="#111B24"/>
<path d="M13 21H67V61H13V21Z" fill="#00EAC7" fill-opacity="0.06"/>
<path d="M13 21H67V61H13V21Z" stroke="#00FFD9" stroke-width="2" stroke-linejoin="bevel"/>
<line x1="14" y1="27.5357" x2="66" y2="27.5357" stroke="#00EAC7" stroke-width="0.928571"/>
<line x1="57" y1="24.5357" x2="63" y2="24.5357" stroke="#00EAC7" stroke-width="0.928571"/>
<line x1="53" y1="24.5357" x2="55" y2="24.5357" stroke="#00EAC7" stroke-width="0.928571"/>
<path d="M32.3806 37.6L23 41.6833V43.3167L32.3806 47.4V45.6733L24.7589 42.5L32.3806 39.3267V37.6Z" fill="#00EAC7"/>
<path d="M35.8873 53L45.2679 32H44.0953L34.7147 53H35.8873Z" fill="#00EAC7"/>
<path d="M47.6194 37.6V39.3267L55.2411 42.5L47.6194 45.6733V47.4L57 43.3167V41.6833L47.6194 37.6Z" fill="#00EAC7"/>
<path d="M71.5 78.5V69.5H69M69 78.5H74" stroke="white" stroke-linejoin="bevel"/>
<path d="M78.5 50.5V41.5H76M76 50.5H81" stroke="white" stroke-linejoin="bevel"/>
<path d="M54.5 78.5V69.5H52M52 78.5H57" stroke="white" stroke-linejoin="bevel"/>
<path d="M78.5 78.5V69.5H76M76 78.5H81" stroke="white" stroke-linejoin="bevel"/>
<path d="M80.5 55.5H75.5V64.5M80.5 55.5V64.5H75.5M80.5 55.5L75.5 64.5" stroke="white" stroke-linejoin="bevel"/>
<path d="M65.5 69.5H60.5V78.5M65.5 69.5V78.5H60.5M65.5 69.5L60.5 78.5" stroke="white" stroke-linejoin="bevel"/>
</svg>
