<svg width="96" height="96" viewBox="0 0 96 96" fill="none" xmlns="http://www.w3.org/2000/svg">
<circle cx="48" cy="48" r="32.5" stroke="white" stroke-opacity="0.2" stroke-dasharray="2 2"/>
<circle cx="48" cy="48" r="23.5" stroke="white" stroke-opacity="0.1"/>
<path d="M82.5 48.5H67" stroke="white" stroke-linejoin="round"/>
<path d="M58.5 15.5V18.5H53.5V23.5" stroke="white" stroke-linejoin="round"/>
<path d="M58.5 68L58.5 81.5" stroke="white" stroke-linejoin="round"/>
<circle r="2" transform="matrix(-1 0 0 1 84.5 48.5)" fill="#111B24" stroke="white" stroke-linejoin="round"/>
<path d="M71.5 68.5H64.5V75.5H58.5" stroke="white" stroke-linejoin="round"/>
<circle r="2" transform="matrix(-1 0 0 1 73.5 68.5)" fill="#111B24" stroke="white" stroke-linejoin="round"/>
<circle r="2" transform="matrix(-1 0 0 1 58.5 13.5)" fill="#111B24" stroke="white" stroke-linejoin="round"/>
<path d="M78.5 32.5H73.5V39.5H67" stroke="white" stroke-linejoin="round"/>
<circle r="2" transform="matrix(-1 0 0 1 80.5 32.5)" fill="#111B24" stroke="white" stroke-linejoin="round"/>
<circle r="2" transform="matrix(1 8.74228e-08 8.74228e-08 -1 58.5 83.5)" fill="#111B24" stroke="white" stroke-linejoin="round"/>
<path d="M13.5 48.5L29 48.5" stroke="white" stroke-linejoin="round"/>
<path d="M37.5 81.5L37.5 72.5L44.5 72.5" stroke="white" stroke-linejoin="round"/>
<path d="M37.5 29L37.5 15.5" stroke="white" stroke-linejoin="round"/>
<circle r="2" transform="matrix(1 8.74228e-08 8.74228e-08 -1 11.5 48.5)" fill="#111B24" stroke="white" stroke-linejoin="round"/>
<path d="M21.5 32.5L29 32.5" stroke="white" stroke-linejoin="round"/>
<circle r="2" transform="matrix(1 8.74228e-08 8.74228e-08 -1 19.5 32.5)" fill="#111B24" stroke="white" stroke-linejoin="round"/>
<circle r="2" transform="matrix(1 8.74228e-08 8.74228e-08 -1 37.5 83.5)" fill="#111B24" stroke="white" stroke-linejoin="round"/>
<path d="M17.5 64.5L22.5 64.5L22.5 57.5L30 57.5" stroke="white" stroke-linejoin="round"/>
<circle r="2" transform="matrix(1 8.74228e-08 8.74228e-08 -1 15.5 64.5)" fill="#111B24" stroke="white" stroke-linejoin="round"/>
<circle r="2" transform="matrix(-1 -1.74846e-07 -1.74846e-07 1 37.5 13.5)" fill="#111B24" stroke="white" stroke-linejoin="round"/>
<path d="M30 27L48 22L66 27C66 27 66 43 66 55C66 67 48 74 48 74C48 74 30 67 30 55C30 43 30 27 30 27Z" fill="#111B24"/>
<path d="M30 27L48 22L66 27C66 27 66 43 66 55C66 67 48 74 48 74C48 74 30 67 30 55C30 43 30 27 30 27Z" fill="#00EAC7" fill-opacity="0.06"/>
<path d="M30 27L48 22L66 27C66 27 66 43 66 55C66 67 48 74 48 74C48 74 30 67 30 55C30 43 30 27 30 27Z" stroke="#00EAC7" stroke-width="2" stroke-linejoin="round"/>
<path d="M41.4722 48.4723L46.1388 52.3612L55.4722 41.4723" stroke="#00EAC7" stroke-width="2" stroke-linecap="square" stroke-linejoin="round"/>
<path d="M35.5 31.5L48 28L60.5 31.5C60.5 31.5 60.5 44.9286 60.5 53.5C60.5 62.0714 48 68 48 68C48 68 35.5 62.0714 35.5 53.5C35.5 44.9286 35.5 31.5 35.5 31.5Z" stroke="#00EAC7" stroke-linejoin="round"/>
<path d="M77.5 78.5V83.5" stroke="white" stroke-opacity="0.07" stroke-linecap="square"/>
<path d="M80.5 78.5V83.5" stroke="white" stroke-opacity="0.07" stroke-linecap="square"/>
<path d="M83.5 78.5L83.5 83.5" stroke="white" stroke-opacity="0.07" stroke-linecap="square"/>
<rect x="12" y="12" width="5" height="5" fill="white" fill-opacity="0.07"/>
</svg>
