<svg width="151" height="60" viewBox="0 0 151 60" fill="none" xmlns="http://www.w3.org/2000/svg">
<path d="M118.854 30.4586C118.854 29.5521 118.854 28.7153 118.819 27.9483C118.784 27.1813 118.715 26.4491 118.61 25.7867C118.505 25.1242 118.296 24.4967 118.017 23.904C117.738 23.3113 117.32 22.7534 116.797 22.2305C116.065 21.4983 115.263 20.9405 114.357 20.5569C113.45 20.1734 112.404 19.9642 111.219 19.9642C110.033 19.9642 108.987 20.1734 108.081 20.5569C107.174 20.9405 106.338 21.4983 105.605 22.2305C105.082 22.7534 104.699 23.3113 104.42 23.904C104.141 24.4967 103.932 25.1242 103.827 25.7867C103.723 26.4491 103.653 27.1813 103.618 27.9483C103.583 28.7153 103.583 29.5521 103.583 30.4586C103.583 31.3651 103.583 32.167 103.618 32.9689C103.653 33.7359 103.723 34.468 103.827 35.1305C103.932 35.7929 104.141 36.4205 104.42 37.0132C104.699 37.6059 105.117 38.1637 105.605 38.6867C106.338 39.4189 107.139 39.9767 108.081 40.3602C108.987 40.7437 110.033 40.9529 111.219 40.9529C112.404 40.9529 113.415 40.7437 114.357 40.3602C115.263 39.9767 116.1 39.4189 116.797 38.6867C117.32 38.1637 117.704 37.6059 118.017 37.0132C118.296 36.4205 118.505 35.7929 118.61 35.1305C118.715 34.468 118.819 33.7359 118.819 32.9689C118.854 32.167 118.854 31.3651 118.854 30.4586ZM114.845 30.4586C114.845 31.4348 114.845 32.2716 114.81 32.934C114.775 33.5964 114.74 34.1194 114.635 34.5378C114.566 34.9562 114.461 35.3048 114.322 35.5489C114.182 35.8278 114.043 36.0718 113.834 36.281C113.555 36.6297 113.171 36.8737 112.753 37.0829C112.299 37.2921 111.811 37.3618 111.254 37.3967C110.696 37.3967 110.208 37.2921 109.754 37.0829C109.301 36.8737 108.952 36.6297 108.639 36.281C108.429 36.0718 108.29 35.8278 108.151 35.5489C108.011 35.2699 107.907 34.9562 107.837 34.5378C107.767 34.1194 107.697 33.5964 107.697 32.934C107.662 32.2716 107.662 31.4697 107.662 30.4586C107.662 29.4824 107.662 28.6456 107.697 27.9832C107.732 27.3207 107.767 26.7978 107.837 26.3794C107.907 25.961 108.011 25.6124 108.151 25.3683C108.29 25.0894 108.429 24.8453 108.639 24.6361C108.918 24.2875 109.301 24.0434 109.754 23.8342C110.208 23.6251 110.696 23.5553 111.254 23.5205C111.811 23.5205 112.299 23.6251 112.753 23.8342C113.171 24.0434 113.555 24.2875 113.834 24.6361C114.043 24.8453 114.182 25.0894 114.322 25.3683C114.461 25.6472 114.566 25.961 114.635 26.3794C114.705 26.7978 114.775 27.3207 114.81 27.9832C114.81 28.6456 114.845 29.4824 114.845 30.4586Z" fill="white"/>
<path d="M151 20.4872C151 20.278 150.826 20.1385 150.651 20.1385H147.339C147.13 20.1385 146.99 20.3129 146.99 20.4872V32.7945L138.867 20.2431C138.797 20.1734 138.762 20.1385 138.658 20.1385H135.555C135.38 20.1385 135.206 20.3129 135.206 20.4872C135.206 27.1464 135.206 33.8056 135.206 40.4299C135.206 40.6391 135.38 40.7786 135.555 40.7786H138.867C139.076 40.7786 139.216 40.6043 139.216 40.4299V28.0878L147.339 40.674C147.409 40.7437 147.444 40.7786 147.548 40.7786H150.651C150.86 40.7786 151 40.6043 151 40.4299V20.4872Z" fill="white"/>
<path d="M128.686 20.4872C128.686 20.278 128.512 20.1385 128.338 20.1385H125.026C124.816 20.1385 124.677 20.3129 124.677 20.4872V40.4299C124.677 40.6391 124.851 40.7786 125.026 40.7786H128.338C128.547 40.7786 128.686 40.6043 128.686 40.4299V20.4872Z" fill="white"/>
<path d="M88.9051 30.4586C88.9051 29.4824 88.9051 28.6456 88.94 27.9832C88.9749 27.3207 89.0097 26.7978 89.0794 26.3794C89.3932 24.6013 90.753 23.5553 92.4962 23.5553C93.6468 23.5553 94.6578 23.9737 95.3203 24.9499C95.5992 25.3683 95.8084 25.8564 95.9478 26.4142C95.9478 26.484 95.9827 26.5188 96.0524 26.5188H99.9573C100.027 26.5188 100.027 26.484 100.027 26.4142C99.6087 24.0086 98.3187 21.8121 96.0176 20.7313C94.9716 20.2432 93.7513 19.9642 92.4265 19.9642C90.23 19.9642 88.3473 20.7313 86.8481 22.2305C85.9765 23.1021 85.4186 24.148 85.1746 25.3334C84.9305 26.484 84.8259 28.1924 84.8259 30.4586C84.8259 32.7248 84.9305 34.4332 85.1746 35.5837C85.4186 36.7691 86.0113 37.8151 86.8481 38.6867C88.3473 40.1859 90.23 40.9529 92.4265 40.9529C93.7513 40.9529 94.9368 40.7089 96.0176 40.1859C98.2838 39.1051 99.6087 36.9435 100.027 34.5029C100.027 34.4332 100.027 34.3983 99.9573 34.3983H96.0524C95.9827 34.3983 95.9478 34.4332 95.9478 34.5029C95.8084 35.0608 95.5992 35.5489 95.3203 35.9672C94.6578 36.9086 93.6468 37.327 92.4962 37.3618C90.753 37.3618 89.3932 36.3159 89.0794 34.5378C89.0097 34.1194 88.94 33.5964 88.94 32.934C88.9051 32.2716 88.9051 31.4348 88.9051 30.4586Z" fill="white"/>
<path d="M47.5556 20.4871C47.5556 20.278 47.3813 20.1385 47.207 20.1385H43.8948C43.6856 20.1385 43.5461 20.3128 43.5461 20.4871V40.4299C43.5461 40.6391 43.7205 40.7785 43.8948 40.7785H47.207C47.4162 40.7785 47.5556 40.6042 47.5556 40.4299V34.5726L50.2402 31.365L55.714 40.6739C55.7489 40.7437 55.8186 40.7785 55.9232 40.7785H59.9675C60.1419 40.7785 60.1767 40.6739 60.107 40.4996L52.9248 28.3318L59.5143 20.4174C59.6538 20.2431 59.584 20.1036 59.3748 20.1036H54.947C54.8773 20.1036 54.8424 20.1036 54.8075 20.1734L47.5556 28.8547V20.4871Z" fill="white"/>
<path d="M71.7866 37.3618C69.9039 37.3618 68.2304 35.6186 68.2304 33.5615V20.4872C68.2304 20.278 68.0561 20.1385 67.8818 20.1385H64.5696C64.3604 20.1385 64.2209 20.3129 64.2209 20.4872V33.5267C64.2209 38.094 67.6377 40.9878 71.8215 40.9878C76.0053 40.9878 79.4221 38.094 79.4221 33.5267V20.4872C79.4221 20.278 79.2477 20.1385 79.0734 20.1385H75.7612C75.5521 20.1385 75.4126 20.3129 75.4126 20.4872V33.5615C75.3429 35.6186 73.6345 37.3618 71.7866 37.3618Z" fill="white"/>
<path d="M10.076 30.4586L20.396 40.7786L26.9157 34.2589C28.0663 33.1084 29.949 33.1084 31.0995 34.2589C32.2501 35.4094 32.2501 37.2921 31.0995 38.4427L22.4879 47.0543C21.3373 48.2049 19.4546 48.2049 18.3041 47.0543L5.92704 34.6424V42.0338C5.92704 43.6376 4.60217 44.9973 2.96352 44.9973C1.32487 44.9973 0 43.6724 0 42.0338V18.9532C0 17.3145 1.32487 15.9897 2.96352 15.9897C4.60217 15.9897 5.92704 17.3145 5.92704 18.9532V26.2748L18.339 13.8629C19.4895 12.7124 21.3722 12.7124 22.5228 13.8629L31.1344 22.4746C32.2849 23.6251 32.2849 25.5078 31.1344 26.6583C29.9839 27.8089 28.1012 27.8089 26.9506 26.6583L20.4309 20.1386L10.076 30.4586ZM20.4309 27.4951C18.7922 27.4951 17.4673 28.82 17.4673 30.4586C17.4673 32.0973 18.7922 33.4221 20.4309 33.4221C22.0695 33.4221 23.3944 32.0973 23.3944 30.4586C23.3595 28.82 22.0346 27.4951 20.4309 27.4951Z" fill="white"/>
</svg>
