<svg width="152" height="60" viewBox="0 0 152 60" fill="none" xmlns="http://www.w3.org/2000/svg">
<path d="M119.354 30.4587C119.354 29.5522 119.354 28.7155 119.319 27.9484C119.284 27.1814 119.214 26.4492 119.11 25.7868C119.005 25.1244 118.796 24.4968 118.517 23.9041C118.238 23.3114 117.82 22.7535 117.297 22.2306C116.565 21.4984 115.763 20.9406 114.856 20.5571C113.95 20.1735 112.904 19.9644 111.718 19.9644C110.533 19.9644 109.487 20.1735 108.581 20.5571C107.674 20.9406 106.837 21.4984 106.105 22.2306C105.582 22.7535 105.199 23.3114 104.92 23.9041C104.641 24.4968 104.432 25.1244 104.327 25.7868C104.222 26.4492 104.153 27.1814 104.118 27.9484C104.083 28.7155 104.083 29.5522 104.083 30.4587C104.083 31.3652 104.083 32.1671 104.118 32.969C104.153 33.736 104.222 34.4682 104.327 35.1306C104.432 35.793 104.641 36.4206 104.92 37.0133C105.199 37.606 105.617 38.1639 106.105 38.6868C106.837 39.419 107.639 39.9768 108.581 40.3603C109.487 40.7439 110.533 40.953 111.718 40.953C112.904 40.953 113.915 40.7439 114.856 40.3603C115.763 39.9768 116.6 39.419 117.297 38.6868C117.82 38.1639 118.203 37.606 118.517 37.0133C118.796 36.4206 119.005 35.793 119.11 35.1306C119.214 34.4682 119.319 33.736 119.319 32.969C119.354 32.1671 119.354 31.3652 119.354 30.4587ZM115.344 30.4587C115.344 31.4349 115.344 32.2717 115.31 32.9341C115.275 33.5965 115.24 34.1195 115.135 34.5379C115.065 34.9563 114.961 35.3049 114.821 35.549C114.682 35.8279 114.542 36.072 114.333 36.2811C114.054 36.6298 113.671 36.8738 113.252 37.083C112.799 37.2922 112.311 37.362 111.753 37.3968C111.195 37.3968 110.707 37.2922 110.254 37.083C109.801 36.8738 109.452 36.6298 109.138 36.2811C108.929 36.072 108.79 35.8279 108.65 35.549C108.511 35.2701 108.406 34.9563 108.337 34.5379C108.267 34.1195 108.197 33.5965 108.197 32.9341C108.162 32.2717 108.162 31.4698 108.162 30.4587C108.162 29.4825 108.162 28.6457 108.197 27.9833C108.232 27.3209 108.267 26.7979 108.337 26.3795C108.406 25.9611 108.511 25.6125 108.65 25.3684C108.79 25.0895 108.929 24.8454 109.138 24.6363C109.417 24.2876 109.801 24.0436 110.254 23.8344C110.707 23.6252 111.195 23.5554 111.753 23.5206C112.311 23.5206 112.799 23.6252 113.252 23.8344C113.671 24.0436 114.054 24.2876 114.333 24.6363C114.542 24.8454 114.682 25.0895 114.821 25.3684C114.961 25.6473 115.065 25.9611 115.135 26.3795C115.205 26.7979 115.275 27.3209 115.31 27.9833C115.31 28.6457 115.344 29.4825 115.344 30.4587Z" fill="white"/>
<path d="M151.5 20.4873C151.5 20.2781 151.326 20.1387 151.151 20.1387H147.839C147.63 20.1387 147.49 20.313 147.49 20.4873V32.7946L139.367 20.2433C139.297 20.1735 139.262 20.1387 139.158 20.1387H136.055C135.88 20.1387 135.706 20.313 135.706 20.4873C135.706 27.1465 135.706 33.8057 135.706 40.4301C135.706 40.6393 135.88 40.7787 136.055 40.7787H139.367C139.576 40.7787 139.716 40.6044 139.716 40.4301V28.0879L147.839 40.6741C147.909 40.7438 147.944 40.7787 148.048 40.7787H151.151C151.36 40.7787 151.5 40.6044 151.5 40.4301V20.4873Z" fill="white"/>
<path d="M129.186 20.4873C129.186 20.2781 129.012 20.1387 128.838 20.1387H125.525C125.316 20.1387 125.177 20.313 125.177 20.4873V40.4301C125.177 40.6393 125.351 40.7787 125.525 40.7787H128.838C129.047 40.7787 129.186 40.6044 129.186 40.4301V20.4873Z" fill="white"/>
<path d="M89.4049 30.4587C89.4049 29.4825 89.4049 28.6457 89.4397 27.9833C89.4746 27.3209 89.5095 26.7979 89.5792 26.3795C89.893 24.6014 91.2527 23.5554 92.996 23.5554C94.1465 23.5554 95.1576 23.9738 95.82 24.95C96.0989 25.3684 96.3081 25.8565 96.4476 26.4144C96.4476 26.4841 96.4825 26.519 96.5522 26.519H100.457C100.527 26.519 100.527 26.4841 100.527 26.4144C100.108 24.0087 98.8184 21.8122 96.5173 20.7314C95.4714 20.2433 94.2511 19.9644 92.9262 19.9644C90.7297 19.9644 88.847 20.7314 87.3478 22.2306C86.4762 23.1022 85.9184 24.1481 85.6743 25.3336C85.4303 26.4841 85.3257 28.1925 85.3257 30.4587C85.3257 32.7249 85.4303 34.4333 85.6743 35.5838C85.9184 36.7693 86.5111 37.8152 87.3478 38.6868C88.847 40.186 90.7297 40.953 92.9262 40.953C94.2511 40.953 95.4365 40.709 96.5173 40.186C98.7835 39.1052 100.108 36.9436 100.527 34.503C100.527 34.4333 100.527 34.3984 100.457 34.3984H96.5522C96.4825 34.3984 96.4476 34.4333 96.4476 34.503C96.3081 35.0609 96.0989 35.549 95.82 35.9674C95.1576 36.9087 94.1465 37.3271 92.996 37.362C91.2527 37.362 89.893 36.316 89.5792 34.5379C89.5095 34.1195 89.4397 33.5965 89.4397 32.9341C89.4049 32.2717 89.4049 31.4349 89.4049 30.4587Z" fill="white"/>
<path d="M48.0554 20.4873C48.0554 20.2781 47.881 20.1386 47.7067 20.1386H44.3945C44.1854 20.1386 44.0459 20.3129 44.0459 20.4873V40.43C44.0459 40.6392 44.2202 40.7787 44.3945 40.7787H47.7067C47.9159 40.7787 48.0554 40.6043 48.0554 40.43V34.5727L50.74 31.3651L56.2138 40.6741C56.2486 40.7438 56.3184 40.7787 56.423 40.7787H60.4673C60.6416 40.7787 60.6765 40.6741 60.6067 40.4997L53.4246 28.3319L60.014 20.4175C60.1535 20.2432 60.0838 20.1038 59.8746 20.1038H55.4467C55.377 20.1038 55.3421 20.1038 55.3073 20.1735L48.0554 28.8549V20.4873Z" fill="white"/>
<path d="M72.2864 37.3619C70.4037 37.3619 68.7302 35.6187 68.7302 33.5617V20.4873C68.7302 20.2781 68.5558 20.1387 68.3815 20.1387H65.0694C64.8602 20.1387 64.7207 20.313 64.7207 20.4873V33.5268C64.7207 38.0941 68.1375 40.9879 72.3213 40.9879C76.505 40.9879 79.9218 38.0941 79.9218 33.5268V20.4873C79.9218 20.2781 79.7475 20.1387 79.5732 20.1387H76.261C76.0518 20.1387 75.9124 20.313 75.9124 20.4873V33.5617C75.8426 35.6187 74.1342 37.3619 72.2864 37.3619Z" fill="white"/>
<path d="M10.576 30.4586L20.896 40.7786L27.4157 34.2589C28.5663 33.1084 30.449 33.1084 31.5995 34.2589C32.7501 35.4094 32.7501 37.2921 31.5995 38.4427L22.9879 47.0543C21.8373 48.2049 19.9546 48.2049 18.8041 47.0543L6.42704 34.6424V42.0338C6.42704 43.6376 5.10217 44.9973 3.46352 44.9973C1.82487 44.9973 0.5 43.6724 0.5 42.0338V18.9532C0.5 17.3145 1.82487 15.9897 3.46352 15.9897C5.10217 15.9897 6.42704 17.3145 6.42704 18.9532V26.2748L18.839 13.8629C19.9895 12.7124 21.8722 12.7124 23.0228 13.8629L31.6344 22.4746C32.7849 23.6251 32.7849 25.5078 31.6344 26.6583C30.4839 27.8089 28.6012 27.8089 27.4506 26.6583L20.9309 20.1386L10.576 30.4586ZM20.9309 27.4951C19.2922 27.4951 17.9673 28.82 17.9673 30.4586C17.9673 32.0973 19.2922 33.4221 20.9309 33.4221C22.5695 33.4221 23.8944 32.0973 23.8944 30.4586C23.8595 28.82 22.5346 27.4951 20.9309 27.4951Z" fill="white"/>
</svg>
