<svg width="210" height="60" viewBox="0 0 210 60" fill="none" xmlns="http://www.w3.org/2000/svg">
<g clip-path="url(#clip0_1953_8463)">
<path fill-rule="evenodd" clip-rule="evenodd" d="M18.2452 18.4694L29.8466 38.5402C30.6023 39.8476 29.6589 41.4826 28.1489 41.4826H4.9506C1.1442 41.4826 -1.23397 37.361 0.670896 34.0656L9.68583 18.4694C11.589 15.1769 16.342 15.1769 18.2452 18.4694ZM110.059 31.2805C110.145 36.3478 114.336 40.3727 119.394 40.2569C122.573 40.2569 125.059 39.1565 126.88 37.0138L125.724 36.0293C124.972 35.4212 123.932 35.3922 123.151 35.9714C122.053 36.7532 120.723 37.1586 119.365 37.1296C115.81 37.1296 113.585 34.7842 113.585 31.0778C113.585 27.3714 115.723 25.1707 119.365 25.1707C120.723 25.1128 122.053 25.5182 123.151 26.329C123.932 26.9081 125.001 26.8791 125.724 26.271L126.88 25.2865C125.03 23.0859 122.486 21.9566 119.221 21.9566C116.446 21.9566 114.105 22.7963 112.515 24.3889C110.926 25.9815 110.059 28.3269 110.059 31.1357V31.2805ZM62.0231 38.1431L66.8786 29.63V39.9963H70.578V22.1304H68.2948C67.5722 22.1304 66.9075 22.5068 66.5607 23.1438L60.7514 33.7707L54.9421 23.1438C54.5953 22.5068 53.9306 22.1014 53.208 22.1304H50.8959V39.9963H54.5953V29.63L59.4508 38.1431H62.0231ZM106.243 22.1608H109.74L102.688 31.1661L109.798 40.0846H106.301C105.665 40.0846 105.058 39.795 104.653 39.3028L100.405 33.9749L96.1851 39.2449C95.7804 39.7371 95.1735 40.0267 94.5377 40.0267H91.0405L98.1215 31.1082L91.0405 22.1897H94.5377C95.1735 22.1897 95.7804 22.4793 96.1851 22.9716L100.405 28.2705L104.595 22.9426C105 22.4503 105.607 22.1608 106.243 22.1608ZM73.6421 40.0548V22.1889H88.4687V23.3182C88.4687 24.2158 87.7462 24.9397 86.8502 24.9397H77.3126V29.7175H86.8502V32.4683H77.3126V37.275H86.8502C87.7462 37.275 88.4687 37.9989 88.4687 38.8966V40.0258L73.6421 40.0548ZM205.491 39.4467C206.387 39.9679 207.428 40.2285 208.497 40.1996L210 40.2575V38.6359C210 38.4622 209.855 38.3464 209.711 38.3464H209.335C208.902 38.3464 208.468 38.1727 208.15 37.8541C207.832 37.5356 207.659 37.1302 207.63 36.6959V23.5209C207.63 22.797 207.023 22.1889 206.301 22.1889H204.306V37.1592C204.249 38.0858 204.711 38.9545 205.491 39.4467ZM160.693 38.5495C161.965 39.6499 163.641 40.2001 165.693 40.2001C167.745 40.2001 169.451 39.6499 170.636 38.5785C171.243 38.0863 171.705 37.4492 171.994 36.7253C172.254 36.0593 172.399 35.0459 172.399 33.7139C172.456 32.6715 172.312 31.658 171.994 30.6735C171.705 29.9785 171.243 29.3415 170.665 28.8782C169.393 27.7779 167.717 27.2277 165.665 27.2277C163.612 27.2277 161.936 27.7779 160.665 28.8782C160.086 29.3705 159.624 29.9785 159.335 30.6735C159.075 31.3395 158.93 32.3529 158.93 33.6849C158.93 35.0169 159.046 36.0014 159.335 36.6964C159.624 37.4203 160.086 38.0573 160.693 38.5495ZM162.312 33.7428C162.312 30.6735 163.439 29.1388 165.693 29.1388C167.919 29.1388 169.075 30.7024 169.075 33.7718C169.075 36.8411 167.948 38.3758 165.693 38.3758C163.439 38.3758 162.312 36.8122 162.312 33.7428ZM179.885 40.1996C178.179 40.2285 176.503 39.7363 175.058 38.7807C174.827 38.578 174.567 38.4043 174.307 38.2595C174.22 38.2016 174.162 38.1147 174.162 38.0279V22.1889H176.185C176.908 22.1889 177.515 22.797 177.515 23.5209V28.1538L178.122 27.8064C178.844 27.4299 179.798 27.2562 181.041 27.2562C183.208 27.2562 184.856 27.9222 185.925 29.1673C186.879 30.2966 187.37 31.8023 187.37 33.6555C187.37 35.5087 186.821 37.0144 185.723 38.1147C184.48 39.5336 182.486 40.1996 179.885 40.1996ZM180.202 29.1383C179.451 29.1383 178.584 29.4279 177.63 30.007L177.486 30.0649V37.5067L177.63 37.6225C178.411 38.1147 179.278 38.3464 180.202 38.3464C181.359 38.3753 182.457 37.7962 183.035 36.8117C183.613 35.8851 183.931 34.8137 183.902 33.7134C183.902 30.673 182.659 29.1383 180.202 29.1383ZM189.162 33.6839C189.162 37.7088 191.531 40.17 195.289 40.17C196.734 40.17 198.034 39.7647 198.844 39.0118L199.046 38.8381V39.9384H201.994V27.7479C201.994 27.6031 201.878 27.4873 201.734 27.4873H199.104V28.4718L198.901 28.327C197.832 27.5741 196.531 27.1977 195.231 27.2267C191.474 27.2267 189.162 29.659 189.162 33.6839ZM192.196 33.6839C192.196 31.2516 193.583 29.4273 195.953 29.4273C197.283 29.4273 198.352 29.7748 199.046 30.5856L199.075 30.6145V36.869L199.046 36.898C198.005 37.9404 196.705 37.9983 195.953 37.9983C193.612 37.9983 192.196 36.1162 192.196 33.6839ZM142.167 40.2277C136.416 40.2277 132.861 36.724 132.861 31.1065C132.861 25.489 136.416 21.9853 142.109 21.9853C144.855 21.9853 147.138 22.7671 148.93 24.3887L148.063 25.3442C147.456 26.0102 146.502 26.1839 145.693 25.7786C144.566 25.2284 143.352 24.9388 142.109 24.9388C138.41 24.9388 136.127 27.3132 136.127 31.1065C136.127 34.8997 138.525 37.3031 142.369 37.3031C144.219 37.3031 145.664 36.9556 146.705 36.2028L146.762 36.1738V32.4964H142.687V31.3092C142.687 30.4115 143.41 29.6876 144.306 29.6876H149.335C149.479 29.6876 149.624 29.8035 149.624 29.9772V37.9112C147.861 39.4458 145.346 40.2277 142.167 40.2277ZM153.208 39.4467C154.104 39.9679 155.144 40.2285 156.213 40.1996L157.687 40.2575V38.6359C157.687 38.4622 157.543 38.3464 157.398 38.3464H157.023C156.589 38.3464 156.156 38.1727 155.838 37.8541C155.52 37.5356 155.346 37.1302 155.318 36.6959V23.5209C155.318 22.797 154.739 22.1889 153.988 22.1889H151.994V37.1592C151.965 38.0858 152.427 38.9545 153.208 39.4467ZM23.0449 23.5467C21.0972 20.1991 23.5122 16 27.3852 16C29.1731 16 30.8263 16.9507 31.7254 18.4962L40.7086 33.9358C42.6563 37.2834 40.2413 41.4826 36.3683 41.4826C34.5803 41.4826 32.9272 40.5318 32.028 38.9864L23.0449 23.5467Z" fill="white"/>
</g>
<defs>
<clipPath id="clip0_1953_8463">
<rect width="210" height="60" fill="white"/>
</clipPath>
</defs>
</svg>
