<svg width="104" height="31" viewBox="0 0 104 31" fill="none" xmlns="http://www.w3.org/2000/svg">
<g clip-path="url(#clip0_1875_17277)">
<path fill-rule="evenodd" clip-rule="evenodd" d="M73.1976 19.8343H71.3538V16.5115L68.127 11.4024H70.2974L72.2757 14.7637L74.3116 11.3832H76.4244L73.1976 16.4539V19.8343ZM62.1537 19.8343H60.3098V11.4024H62.0192L65.9758 16.5883V11.4024H67.8005V19.8343H66.2255L62.1537 14.4755V19.8343ZM55.3736 13.5728L54.2596 16.3002H56.4876L55.3736 13.5728ZM52.8383 19.8343H50.9368L54.5477 11.3448H56.2763L59.8488 19.8343H57.9281L57.1598 17.9328H53.6066L52.8383 19.8343ZM47.1722 13.1119V15.6472V15.6664H48.632C49.5539 15.6664 50.0917 15.1286 50.0917 14.3987V14.3795C50.0917 13.5536 49.5155 13.1119 48.5936 13.1119H47.1722ZM45.3284 19.8343H45.3092L45.3284 19.8535V19.8343ZM47.1722 19.8343H45.3284V11.4216H48.7472C50.7639 11.4216 51.974 12.6125 51.974 14.3411C51.974 16.3002 50.4566 17.299 48.5743 17.299H47.1722V19.8343ZM37.5304 19.8343H35.7249V11.4024H37.7224L39.9312 14.9749L42.14 11.4024H44.1375V19.8343H42.2937V14.3411L39.9312 17.9136H39.8736L37.5304 14.3411V19.8343ZM27.9077 15.628C27.9077 17.0685 28.9641 18.2593 30.4622 18.2593C31.9411 18.2593 32.9783 17.0877 32.9783 15.6472V15.6088C32.9783 14.1682 31.9219 12.9774 30.4238 12.9774C28.9449 12.9774 27.9077 14.149 27.9077 15.5896V15.628ZM32.1336 19.6955C31.589 19.9065 31.0076 20.006 30.4238 19.9879V19.9687C27.8309 19.9687 25.9678 18.0288 25.9678 15.628C25.9678 13.2271 27.8693 11.268 30.4622 11.268C33.0551 11.268 34.9182 13.2079 34.9182 15.5896V15.628C34.9185 16.212 34.8014 16.7902 34.574 17.3281C34.3465 17.866 34.0133 18.3528 33.594 18.7595C33.1748 19.1661 32.6782 19.4844 32.1336 19.6955ZM25.9486 18.4706C25.0843 19.3925 24.1239 19.9687 22.4913 19.9687C20.0136 19.9687 18.1698 18.0672 18.1698 15.628C18.1592 15.0492 18.266 14.4744 18.4838 13.9381C18.7016 13.4018 19.0258 12.9152 19.4369 12.5077C19.8479 12.1002 20.3374 11.7802 20.8756 11.5672C21.4137 11.3541 21.9895 11.2523 22.5682 11.268C24.1623 11.268 25.1035 11.8058 25.891 12.5741L24.7001 13.9378C24.0471 13.3423 23.394 12.9774 22.5489 12.9774C21.1276 12.9774 20.1097 14.149 20.1097 15.5896V15.628C20.1097 17.0685 21.1084 18.2593 22.5489 18.2593C23.5093 18.2593 24.1047 17.8752 24.7577 17.2798L25.9486 18.4706ZM7.95167 11.5945V18.8931V19.5462C7.41388 19.4117 6.83767 19.3157 6.22305 19.2965V14.3027L3.97584 17.6447H3.93742L1.70942 14.3411V20.18C1.0948 20.4873 0.537794 20.8523 0.0576207 21.294L0 20.6218V11.5945H1.86307L3.95663 14.8981L6.05019 11.5945H7.95167ZM14.1363 11.5945H16.1338L13.0607 16.3002V19.7575H11.3321V16.3194L8.25898 11.5945H10.2757L12.1964 14.7252L14.1363 11.5945ZM78.2491 19.7575V11.268H103.333V19.7575H78.2491ZM98.7813 14.8981L98.3395 15.9737H99.223L98.7813 14.8981ZM97.7633 17.3758H97.0334H97.0142L98.4356 14.0338H99.1078L100.548 17.3758H99.78L99.4727 16.6267H98.0706L97.7633 17.3758ZM94.671 17.3758H93.9603V14.053H94.6902V15.5127L96.0347 14.053H96.899L95.5545 15.4551L96.9758 17.3758H96.0923L95.0551 15.9737L94.671 16.3578V17.3758ZM93.3073 16.3962C93.3073 17.0493 92.8079 17.4142 92.0973 17.4142C91.5823 17.418 91.0837 17.2336 90.6952 16.8956L91.1177 16.377C91.4058 16.6267 91.7323 16.7804 92.1165 16.7804C92.4046 16.7804 92.5774 16.6459 92.5774 16.4539C92.5774 16.2618 92.4622 16.1658 91.9244 16.0313C91.2522 15.8584 90.8296 15.6664 90.8296 15.0133C90.8296 14.3987 91.3098 14.0146 91.982 14.0146C92.4284 14.0083 92.8631 14.1577 93.2113 14.4371L92.8271 14.9749C92.5793 14.78 92.2776 14.666 91.9628 14.6484C91.6939 14.6484 91.5403 14.7636 91.5403 14.9557C91.5403 15.167 91.6747 15.2438 92.2509 15.3783C92.9232 15.5703 93.3073 15.82 93.3073 16.3962ZM90.3686 17.3758H87.987H87.9678V14.053H88.7168V16.7035H90.3686V17.3758ZM84.5681 15.7048C84.5681 16.281 84.9907 16.7612 85.5669 16.7612C86.1623 16.7612 86.5657 16.281 86.5657 15.7048C86.5657 15.1478 86.1431 14.6676 85.5669 14.6676C84.9715 14.6676 84.5681 15.1286 84.5681 15.7048ZM86.2402 17.313C86.026 17.3976 85.7971 17.4385 85.5669 17.4334C84.5489 17.4334 83.7999 16.6651 83.7999 15.724C83.7998 15.4937 83.8458 15.2658 83.935 15.0535C84.0243 14.8412 84.1551 14.6489 84.3197 14.4879C84.4843 14.3269 84.6794 14.2003 84.8936 14.1158C85.1078 14.0312 85.3367 13.9903 85.5669 13.9954C86.6041 13.9954 87.3339 14.7444 87.3339 15.7048C87.334 15.9351 87.288 16.163 87.1988 16.3753C87.1095 16.5876 86.9787 16.7799 86.8141 16.9409C86.6495 17.1019 86.4544 17.2284 86.2402 17.313ZM81.5334 14.7252V15.724L81.5142 15.7432H82.0904C82.4746 15.7432 82.6667 15.5319 82.6667 15.2246C82.6667 14.9173 82.4554 14.7252 82.0904 14.7252H81.5334ZM81.5142 17.3758H80.8036V14.053H82.1481C82.9356 14.053 83.4157 14.514 83.4157 15.2054V15.2246C83.4157 15.9929 82.8203 16.377 82.0712 16.377H81.5142V17.3758Z" fill="white"/>
</g>
<defs>
<clipPath id="clip0_1875_17277">
<rect width="103.333" height="31" fill="white"/>
</clipPath>
</defs>
</svg>
