<svg width="165" height="60" viewBox="0 0 165 60" fill="none" xmlns="http://www.w3.org/2000/svg">
<path d="M96.9499 35.6239C97.3194 36.5722 97.678 37.4922 98.0728 38.5054C97.5622 38.6899 97.0722 38.9162 96.5578 39.0437C94.9647 39.4385 93.3933 39.3801 91.8989 38.6398C90.308 37.8516 89.5298 36.5383 89.4915 34.773C89.4893 34.6725 89.4789 34.5722 89.3981 34.4505C89.2836 34.6836 89.1744 34.9195 89.0537 35.1494C88.1693 36.8329 86.9229 38.1669 85.1564 38.9086C84.5909 39.146 83.9174 39.1678 83.2884 39.2041C81.6229 39.3003 79.9831 39.1511 78.4189 38.5098C76.2173 37.6073 74.7938 35.9924 74.1411 33.7203C73.4744 31.3992 73.6704 29.0854 74.3474 26.7989C75.4085 23.2153 77.3949 20.241 80.3153 17.9122C82.6362 16.0615 85.2798 14.983 88.2553 14.7662C91.1895 14.5524 93.9486 15.2162 96.5889 16.4519C96.6779 16.4936 96.7689 16.6687 96.7565 16.7689C96.5633 18.3285 96.3521 19.8859 96.147 21.4441C95.8834 23.4475 95.6259 25.4517 95.3577 27.4545C95.0613 29.6679 94.7688 31.882 94.4483 34.092C94.3154 35.0079 94.7247 35.7939 95.5505 35.947C95.8431 36.0013 96.1713 35.8945 96.4774 35.8322C96.6318 35.8007 96.7731 35.7044 96.9498 35.6239L96.9499 35.6239ZM91.2295 18.6268C89.6714 17.9975 88.1078 17.8064 86.5015 18.279C84.6023 18.8378 83.1976 20.0654 82.0822 21.649C80.8144 23.4493 80.0941 25.4644 79.8027 27.6428C79.5443 29.5752 79.6793 31.4638 80.4151 33.2818C80.5661 33.6549 80.7489 34.087 81.051 34.3115C81.6216 34.7356 82.2634 35.0922 82.9224 35.3631C84.3597 35.9538 85.7214 35.7595 86.8585 34.6694C87.3459 34.2023 87.7735 33.641 88.1112 33.055C89.3859 30.8431 89.9521 28.3899 90.3687 25.906C90.6536 24.2073 90.8368 22.491 91.046 20.7802C91.133 20.0685 91.1694 19.3506 91.2295 18.6268Z" fill="white"/>
<path d="M50.4145 38.8271C51.2311 32.1415 52.0499 25.4382 52.8739 18.6925H50.0383C50.1452 17.9404 50.2356 17.2305 50.3492 16.5243C50.4739 15.7495 50.4833 15.751 51.2608 15.751C53.5432 15.751 55.8255 15.751 58.1078 15.7509C58.2239 15.7509 58.34 15.7509 58.5296 15.7509C58.3227 17.2673 58.1209 18.7456 57.9052 20.3263C58.0075 20.19 58.0671 20.132 58.1015 20.0617C59.2178 17.7792 61.0729 16.3747 63.4474 15.6219C65.0183 15.1239 66.6175 15.0345 68.2307 15.4639C70.468 16.0592 71.8701 17.6655 72.1732 19.9934C72.316 21.0907 72.1009 22.1594 71.9439 23.2341C71.7253 24.7307 71.5114 26.228 71.2952 27.7249C71.0352 29.5257 70.7762 31.3266 70.5136 33.127C70.4625 33.4773 70.3878 33.8243 70.3399 34.1749C70.2595 34.7645 70.3223 35.3192 70.8438 35.7062C71.3689 36.096 71.9261 36.0394 72.4855 35.7772C72.5797 35.733 72.6712 35.683 72.8184 35.6078C73.1917 36.5635 73.5572 37.4992 73.9351 38.4667C72.6383 38.9302 71.357 39.2708 70.011 39.32C69.2222 39.3488 68.4525 39.2506 67.7323 38.9081C66.4944 38.3195 65.9063 37.2444 65.6016 35.9797C65.217 34.383 65.2371 32.7568 65.4419 31.1491C65.7464 28.7592 66.1518 26.3823 66.5114 23.9994C66.6737 22.9239 66.8496 21.8516 66.5741 20.7629C66.2079 19.3155 65.117 18.6443 63.6523 18.9861C62.4768 19.2604 61.459 19.8447 60.5235 20.5834C59.3409 21.5173 58.3225 22.6014 57.7248 24.0034C57.5069 24.5144 57.3978 25.0872 57.3272 25.643C56.9015 28.9962 56.5017 32.3526 56.0927 35.7078C55.974 36.6815 55.8594 37.6557 55.7241 38.6271C55.7105 38.7247 55.5668 38.88 55.4824 38.8807C53.8271 38.8934 52.1716 38.8873 50.5162 38.8834C50.4959 38.8833 50.4756 38.8618 50.4145 38.8271V38.8271Z" fill="white"/>
<path d="M148.883 29.0386C148.323 31.2331 149.098 33.8792 151.49 35.2958C153.681 36.5932 157.371 36.5833 159.526 33.1955C160.449 34.0465 161.365 34.8915 162.36 35.8097C161.806 36.3206 161.303 36.847 160.737 37.2947C159.357 38.3873 157.756 38.9988 156.042 39.3392C154.539 39.6376 153.028 39.7925 151.499 39.596C147.965 39.1421 145.551 37.2265 144.237 33.9403C143.267 31.5155 143.171 28.9975 143.608 26.4454C144.058 23.8217 145.066 21.4398 146.761 19.378C148.98 16.6798 151.83 15.1638 155.339 15.0527C158.016 14.9679 160.536 15.6269 162.827 17.0353C163.899 17.6938 164.672 18.6169 164.909 19.9023C165.124 21.0725 164.78 22.1266 164.189 23.1111C163.186 24.7795 161.723 25.9616 160.053 26.8988C156.681 28.792 153.06 29.4703 149.225 29.0436C149.154 29.0357 149.084 29.0285 149.013 29.0252C148.979 29.0236 148.944 29.0319 148.883 29.0386V29.0386ZM151.049 26.0511C153.052 26.0733 154.579 25.8262 156.043 25.22C157.366 24.6721 158.492 23.877 159.087 22.5123C159.626 21.2765 159.563 20.0643 158.682 19.016C157.769 17.9306 156.566 17.7624 155.263 18.1989C153.983 18.6277 152.995 19.4749 152.092 20.4466C150.714 21.9286 149.677 23.583 149.345 25.6209C149.295 25.9233 149.328 26.0649 149.667 26.0546C150.127 26.0405 150.588 26.0511 151.049 26.0511Z" fill="white"/>
<path d="M124.09 15.7679C124.242 15.7607 124.347 15.7515 124.451 15.7514C126.249 15.7506 128.046 15.7585 129.844 15.743C130.129 15.7405 130.233 15.8489 130.303 16.0974C130.865 18.0734 131.434 20.0472 132.003 22.0211C132.898 25.1293 133.795 28.2371 134.692 31.345C134.734 31.4887 134.777 31.6319 134.851 31.8795C134.951 31.6414 135.02 31.5022 135.07 31.3567C135.906 28.9112 136.74 26.4645 137.576 24.0188C138.488 21.3503 139.4 18.6816 140.324 16.0173C140.363 15.9062 140.525 15.7628 140.631 15.7617C142.168 15.746 143.705 15.7518 145.243 15.7539C145.276 15.7539 145.31 15.7715 145.392 15.7945C145.189 16.3001 144.993 16.7994 144.789 17.2953C142.567 22.696 140.344 28.0959 138.121 33.4964C137.426 35.1867 136.728 36.8759 136.045 38.5714C135.944 38.8214 135.814 38.902 135.549 38.8987C134.366 38.8843 133.184 38.8858 132.001 38.8976C131.739 38.9003 131.609 38.8339 131.521 38.5625C130.361 34.9935 129.184 31.4301 128.015 27.8638C126.748 23.9947 125.484 20.1242 124.22 16.2538C124.173 16.11 124.141 15.9613 124.09 15.7679L124.09 15.7679Z" fill="white"/>
<path d="M110.445 35.5958C110.589 36.0852 110.738 36.5777 110.881 37.0717C111.032 37.5935 111.173 38.1181 111.328 38.6384C111.38 38.8108 111.396 38.9332 111.171 38.9767C109.875 39.2277 108.588 39.5523 107.281 39.7196C105.952 39.8898 104.634 39.7356 103.448 39.0153C102.135 38.2178 101.458 36.9731 101.052 35.5476C100.556 33.8072 100.522 32.021 100.592 30.2346C100.703 27.3721 101.166 24.5487 101.609 21.7239C101.752 20.8137 101.857 19.8974 101.995 18.9864C102.036 18.7182 101.94 18.6643 101.695 18.6665C100.584 18.6765 99.4724 18.6709 98.3609 18.6709H97.9776C98.0694 18.0102 98.1549 17.3931 98.2411 16.7762C98.2754 16.5305 98.3264 16.2859 98.3425 16.039C98.3579 15.8017 98.4528 15.7191 98.6954 15.7216C99.8067 15.7328 100.918 15.7168 102.03 15.7332C102.315 15.7374 102.419 15.6486 102.453 15.3665C102.615 14.0532 102.789 12.7412 102.981 11.4322C103.004 11.2777 103.136 11.0745 103.272 11.0115C105.015 10.2033 106.767 9.41638 108.518 8.62598C108.546 8.61324 108.585 8.62439 108.674 8.62439C108.361 10.9819 108.05 13.3273 107.731 15.726H113.724C113.614 16.6805 113.507 17.5808 113.409 18.482C113.383 18.7265 113.21 18.6698 113.066 18.6699C111.292 18.6716 109.519 18.671 107.745 18.6709C107.618 18.6709 107.491 18.6709 107.428 18.6709C107.279 19.8143 107.163 20.915 106.985 22.0054C106.755 23.4157 106.456 24.8146 106.221 26.2242C105.822 28.6243 105.355 31.0242 105.682 33.4758C105.747 33.9608 105.87 34.4619 106.084 34.8983C106.664 36.0847 107.553 36.346 108.919 36.0749C109.412 35.9768 109.886 35.7749 110.445 35.5958L110.445 35.5958Z" fill="white"/>
<path d="M115.295 18.671C115.393 17.9929 115.482 17.3756 115.572 16.7584C115.591 16.6298 115.618 16.5023 115.633 16.3733C115.683 15.9587 115.91 15.7513 116.316 15.7512C118.372 15.7512 120.429 15.7512 122.486 15.7513H122.89C122.83 16.2763 122.778 16.7635 122.718 17.2497C122.454 19.383 122.187 21.5161 121.921 23.6491C121.62 26.0528 121.318 28.4563 121.017 30.86C120.891 31.8684 120.768 32.8772 120.64 33.8853C120.601 34.1885 120.518 34.4889 120.508 34.7925C120.487 35.3825 120.677 35.9001 121.215 36.2043C121.747 36.5053 122.266 36.3429 122.761 36.0667C122.821 36.0334 122.881 36.0002 122.993 35.9376C123.171 36.3936 123.339 36.8282 123.51 37.262C123.678 37.6901 123.86 38.1132 124.009 38.5479C124.041 38.6414 123.986 38.8516 123.919 38.8793C122.25 39.5656 120.528 39.929 118.733 39.5145C117.206 39.1618 116.335 38.0957 115.867 36.6564C115.429 35.3104 115.359 33.9185 115.413 32.5211C115.522 29.6797 116.065 26.8957 116.549 24.1029C116.823 22.5216 117.012 20.9256 117.239 19.3362C117.24 19.3246 117.24 19.3127 117.241 19.3009C117.27 18.8809 117.077 18.6709 116.663 18.671C116.228 18.671 115.793 18.671 115.295 18.671L115.295 18.671Z" fill="white"/>
<path d="M123.611 9.61347C123.603 11.1022 122.206 12.4712 120.701 12.4647C119.11 12.4578 117.618 10.9431 117.634 9.35042C117.65 7.85133 119.067 6.47824 120.586 6.49081C122.141 6.50369 123.619 8.02929 123.611 9.61347Z" fill="white"/>
<path d="M5.82085 28.6223C6.76165 29.2779 7.65516 29.9131 8.5618 30.529C9.58079 31.2212 10.0082 32.2092 10.0305 33.4019C10.0391 33.8618 9.99818 34.3225 10.001 34.7826C10.0025 35.0389 9.91048 35.1098 9.66062 35.0738C8.28003 34.8748 6.99983 34.4039 5.87992 33.5754C4.61443 32.6391 4.7426 33.0243 5.00056 31.4864C5.14993 30.5959 5.46161 29.7325 5.70484 28.8582C5.72906 28.7711 5.7853 28.693 5.82085 28.6223V28.6223Z" fill="white"/>
<path d="M21.4393 41.1029C20.3399 42.5851 19.0168 43.5638 17.4281 44.2177C16.9593 44.4107 16.6202 44.3848 16.2196 44.0614C15.3143 43.3306 14.4677 42.5485 13.7537 41.6277C13.7263 41.5923 13.7093 41.5487 13.6756 41.4873C14.1427 41.2904 14.5997 41.11 15.0461 40.9064C15.6893 40.6131 16.3175 40.2858 16.9656 40.0041C17.7616 39.6582 18.5845 39.644 19.3716 40.0074C20.0621 40.3262 20.7191 40.7177 21.4393 41.1029L21.4393 41.1029Z" fill="white"/>
<path d="M20.4342 14.6558C21.6362 13.0082 23.145 11.988 24.9482 11.3817C25.0224 11.3568 25.1344 11.3795 25.2055 11.4205C26.0524 11.9087 27.5523 13.3452 28.1942 14.2869C27.8732 14.4143 27.5556 14.5239 27.2521 14.6642C26.5462 14.9905 25.8473 15.332 25.1452 15.6665C24.2315 16.1018 23.2983 16.1656 22.3786 15.7227C21.7257 15.4083 21.1049 15.027 20.4342 14.6558V14.6558Z" fill="white"/>
<path d="M36.0156 27.166C34.9298 26.3726 33.8314 25.6204 32.7919 24.7939C32.0227 24.1822 31.8701 23.2569 31.8211 22.333C31.7975 21.887 31.8429 21.4375 31.8551 20.9895C31.8614 20.7605 31.9284 20.6629 32.2005 20.6997C33.988 20.9417 35.5233 21.7138 36.8711 22.886C36.9538 22.9579 37.0177 23.1116 37.0084 23.2203C36.8958 24.5319 36.618 25.8067 36.1106 27.0259C36.0892 27.0773 36.0473 27.12 36.0156 27.166L36.0156 27.166Z" fill="white"/>
<path d="M28.9305 40.7066C29.2262 39.6113 29.2972 38.5066 29.2824 37.3932C29.2794 37.1705 29.2733 36.9478 29.2757 36.7251C29.2821 36.1392 29.5719 35.7127 30.0545 35.4164C30.8575 34.9235 31.6696 34.4455 32.5456 33.9207C32.6895 34.3293 32.8548 34.7254 32.9687 35.1357C33.3485 36.5038 33.3614 37.8885 33.0953 39.2776C33.0738 39.39 33.0028 39.5395 32.9116 39.5851C31.6874 40.1967 30.3909 40.5764 29.034 40.7498C29.0144 40.7523 28.9921 40.7331 28.9305 40.7066H28.9305Z" fill="white"/>
<path d="M12.906 15.0461C12.8285 15.5112 12.7176 15.9686 12.6832 16.4316C12.63 17.1474 12.5928 17.8683 12.6155 18.5849C12.6418 19.4169 12.3779 20.053 11.6356 20.4755C10.8697 20.9115 10.116 21.3692 9.32703 21.8351C8.99526 21.1231 8.79266 20.3795 8.67524 19.6142C8.51265 18.5545 8.55236 17.4964 8.78242 16.4491C8.80625 16.3406 8.89153 16.2043 8.98584 16.1588C10.1939 15.5762 11.4669 15.203 12.7949 15.0177C12.8259 15.0134 12.8604 15.0337 12.906 15.0461V15.0461Z" fill="white"/>
<path d="M36.9818 21.1169C36.4953 20.867 36.0178 20.5921 35.5164 20.3715C34.8803 20.0917 34.2294 19.8434 33.5767 19.6039C32.1273 19.0721 31.2443 18.0099 30.7283 16.5987C30.5837 16.2031 30.4574 15.8007 30.2878 15.2981C30.8797 15.3348 31.3919 15.3362 31.8954 15.4034C33.3182 15.5933 34.6482 16.0605 35.8549 16.8451C36.0173 16.9507 36.1723 17.1361 36.2337 17.3174C36.6126 18.4377 36.9321 19.5746 37.023 20.7621C37.0302 20.856 37.03 20.9507 37.0283 21.0449C37.028 21.0638 37.005 21.0823 36.9818 21.1169L36.9818 21.1169Z" fill="white"/>
<path d="M23.381 10.3601C22.4288 11.0773 21.4711 11.7278 20.5954 12.4747C19.2376 13.6328 17.7098 13.8942 16.0201 13.5361C15.7122 13.4708 15.4056 13.4 14.9919 13.3081C15.4207 12.7065 15.775 12.1371 16.2008 11.6275C17.0346 10.6297 18.0303 9.81728 19.2045 9.24375C19.3489 9.17323 19.5538 9.14019 19.7044 9.18274C20.8038 9.49336 21.8976 9.8243 22.9901 10.1586C23.1419 10.2051 23.2772 10.3054 23.381 10.3601Z" fill="white"/>
<path d="M18.4902 45.41C19.5813 44.5829 20.667 43.7569 21.7559 42.9352C22.7013 42.2218 23.781 41.9927 24.9363 42.1129C25.5542 42.1771 26.1652 42.3083 26.8255 42.4168C26.2647 43.484 25.5879 44.3738 24.7273 45.0994C24.1439 45.5914 23.4843 45.9931 22.8583 46.4345C22.6029 46.6146 22.3337 46.655 22.0217 46.5821C20.8827 46.3163 19.7479 46.0426 18.6899 45.524C18.5992 45.4795 18.5141 45.4237 18.4902 45.41H18.4902Z" fill="white"/>
<path d="M4.83689 34.6453C5.41155 34.9283 5.93968 35.2107 6.48612 35.4516C7.11152 35.7273 7.74921 35.9766 8.38861 36.2188C9.71582 36.7214 10.5541 37.6908 11.0542 38.985C11.2305 39.4413 11.3847 39.9063 11.5937 40.4925C10.7739 40.4124 10.0551 40.3923 9.35651 40.2629C8.14023 40.0377 6.99785 39.5907 5.96528 38.8957C5.83785 38.8099 5.70598 38.6765 5.6571 38.5368C5.23468 37.3294 4.91565 36.0965 4.81342 34.8157C4.80984 34.7708 4.8254 34.7244 4.83689 34.6453H4.83689Z" fill="white"/>
<path d="M34.7252 38.5738C34.6612 37.6965 34.6121 36.8412 34.5288 35.9892C34.503 35.7259 34.4043 35.4635 34.3045 35.2145C33.9034 34.2139 33.9371 33.239 34.54 32.3398C35.0966 31.5096 35.7141 30.7203 36.3595 29.8381C36.5814 30.2723 36.7943 30.642 36.9645 31.0304C37.5942 32.4678 37.8932 33.9697 37.7865 35.542C37.7783 35.6632 37.7381 35.8063 37.6616 35.8951C36.7963 36.8994 35.8623 37.8311 34.7526 38.5701C34.7366 38.5808 34.7098 38.5752 34.7252 38.5738Z" fill="white"/>
<path d="M7.12443 17.2151C7.20401 18.1504 7.2571 19.0663 7.37135 19.9744C7.41732 20.3397 7.61437 20.6836 7.71307 21.0452C7.95506 21.9321 7.78716 22.7645 7.27368 23.5087C6.72479 24.3043 6.13214 25.0696 5.52862 25.8888C5.46049 25.7937 5.39593 25.719 5.34835 25.6348C4.40169 23.9589 3.96624 22.1601 4.06739 20.2362C4.07371 20.116 4.11571 19.9735 4.1918 19.885C5.01725 18.9249 5.90742 18.032 6.95078 17.3044C7.01568 17.2592 7.0926 17.2312 7.12442 17.2151H7.12443Z" fill="white"/>
<path d="M8.98768 23.7441C9.65527 24.6075 10.321 25.405 10.9144 26.2531C11.556 27.17 11.4327 28.1655 10.994 29.1215C10.5151 30.165 10.8275 30.1438 9.63822 29.6422C8.45671 29.1439 7.46242 28.3779 6.604 27.4277C6.45801 27.2661 6.42104 27.147 6.5272 26.9369C7.13027 25.7434 7.93749 24.7126 8.98768 23.7441L8.98768 23.7441Z" fill="white"/>
<path d="M32.8694 32.0355C32.1856 31.1352 31.4857 30.2922 30.8757 29.3884C30.2722 28.494 30.4567 27.5284 30.8798 26.6177C31.3533 25.5985 31.0436 25.6267 32.182 26.1059C33.3707 26.6063 34.3844 27.3685 35.2467 28.3322C35.3988 28.5021 35.4375 28.6373 35.3257 28.8557C34.7221 30.0351 33.921 31.0587 32.8694 32.0355V32.0355Z" fill="white"/>
<path d="M11.0543 36.3383C12.2479 36.2083 13.3763 36.0515 14.5101 35.9736C15.3136 35.9183 15.923 36.3693 16.4247 36.9542C16.6852 37.258 16.9053 37.5962 17.1553 37.9095C17.286 38.0732 17.2325 38.1744 17.094 38.2922C15.9013 39.3068 14.5358 39.9653 13.0033 40.2716C12.8945 40.2933 12.7074 40.2334 12.6488 40.1481C11.8788 39.0287 11.3851 37.7901 11.0543 36.3383H11.0543Z" fill="white"/>
<path d="M27.6162 19.8905C26.7259 19.86 26.0183 19.5161 25.4655 18.846C25.2026 18.5274 24.9625 18.1902 24.7059 17.8664C24.5851 17.714 24.6074 17.6142 24.7575 17.4861C25.8083 16.5899 26.9967 15.9553 28.3342 15.618C29.1318 15.4169 29.1876 15.4128 29.5453 16.1593C29.982 17.0705 30.3269 18.0261 30.7018 18.9663C30.8085 19.2339 30.7502 19.3818 30.4078 19.4289C29.4738 19.5575 28.5463 19.7334 27.6162 19.8905L27.6162 19.8905Z" fill="white"/>
<path d="M14.0345 19.8256C13.7756 18.7195 13.768 17.6181 13.9468 16.516C14.0221 16.0519 14.1433 15.593 14.2779 15.142C14.3171 15.0108 14.4679 14.8254 14.5793 14.8167C15.9331 14.7108 17.2536 14.9042 18.579 15.306C18.388 15.8003 18.1998 16.2664 18.0275 16.7383C17.8298 17.2799 17.6556 17.8302 17.454 18.3703C17.1862 19.0875 16.6926 19.4926 15.8972 19.5504C15.289 19.5945 14.6872 19.7258 14.0345 19.8256L14.0345 19.8256Z" fill="white"/>
<path d="M23.2977 40.4734C23.693 39.378 24.0561 38.3102 24.4657 37.2605C24.7062 36.6443 25.1794 36.2955 25.8666 36.2313C26.4292 36.1788 26.988 36.0753 27.5447 35.9737C27.7444 35.9372 27.8426 35.9456 27.884 36.1797C28.1486 37.6728 28.052 39.1387 27.6084 40.5875C27.5281 40.8497 27.398 40.9733 27.1171 40.9818C25.8215 41.0212 24.556 40.8535 23.2977 40.4734Z" fill="white"/>
<path d="M26.7476 10.8325C28.67 10.5033 30.5091 10.5626 32.2578 11.4279C33.6733 12.1284 34.6554 13.2431 35.3268 14.7324C34.6175 14.5719 33.9774 14.4331 33.3404 14.2815C32.2408 14.0198 31.1292 13.7968 30.0482 13.472C28.7045 13.0684 27.659 12.2183 26.8595 11.0674C26.822 11.0133 26.8016 10.9474 26.7476 10.8325H26.7476Z" fill="white"/>
<path d="M15.124 44.9312C13.3719 45.2388 11.6906 45.2118 10.061 44.5533C8.41717 43.8891 7.28654 42.6919 6.52295 41.0234C7.01993 41.1465 7.45425 41.2618 7.89218 41.3611C9.11015 41.6374 10.3405 41.8664 11.5457 42.1898C13.015 42.5841 14.1469 43.4867 15.0137 44.7283C15.0454 44.7736 15.0672 44.8259 15.124 44.9312L15.124 44.9312Z" fill="white"/>
<path d="M16.9374 8.68913C15.692 9.58329 15.0158 10.9295 14.1023 12.0776C13.6068 12.7004 13.0805 13.2913 12.243 13.4669C11.5392 13.6146 10.8375 13.7725 10.137 13.9355C9.89855 13.991 9.66687 14.0757 9.35406 14.1708C9.98702 12.501 10.823 11.0453 12.216 9.96689C13.605 8.89158 15.1861 8.49553 16.9374 8.68913L16.9374 8.68913Z" fill="white"/>
<path d="M39.3374 33.8607C39.2461 32.3072 38.4368 31.0807 37.9138 29.7506C37.7547 29.3461 37.5817 28.928 37.536 28.5032C37.4907 28.0822 37.5469 27.6323 37.6489 27.2174C37.8456 26.417 38.1057 25.6322 38.3404 24.8412C38.3686 24.7461 38.4021 24.6526 38.4411 24.5342C41.0766 27.5457 41.4038 31.2312 39.3374 33.8607L39.3374 33.8607Z" fill="white"/>
<path d="M24.9352 47.0726C25.8584 46.3946 26.4737 45.4719 27.1165 44.5727C27.3567 44.2367 27.6061 43.9073 27.8515 43.5751C28.4251 42.7987 29.165 42.3347 30.1433 42.1933C30.9196 42.0811 31.6777 41.8433 32.4899 41.6504C31.7801 43.5182 30.7747 45.1586 29.0182 46.233C27.7647 46.9997 26.3987 47.2556 24.9352 47.0726H24.9352Z" fill="white"/>
<path d="M3.39735 31.2186C0.710683 28.1444 0.515798 24.4281 2.51458 21.927C2.60435 23.2226 3.19697 24.3017 3.68258 25.4209C3.91148 25.9485 4.106 26.4931 4.28161 27.0411C4.45694 27.5882 4.37355 28.1233 4.18306 28.6677C3.89236 29.4987 3.66136 30.3505 3.39735 31.2186Z" fill="white"/>
<path d="M89.6225 46.2725C90.7005 46.7722 91.0491 47.4338 90.7422 48.4334C90.5158 49.1712 89.9397 49.5684 89.2252 49.6434C88.3248 49.7379 87.411 49.7102 86.5028 49.7152C86.4315 49.7156 86.2973 49.5596 86.2968 49.4756C86.2852 47.6326 86.2865 45.7895 86.2954 43.9465C86.2958 43.8699 86.3957 43.7264 86.4467 43.7275C87.4109 43.7497 88.3784 43.7502 89.3373 43.8404C89.8515 43.8888 90.2072 44.24 90.2957 44.7903C90.3839 45.3384 90.231 45.7919 89.7747 46.1286C89.7211 46.1682 89.6769 46.2205 89.6225 46.2725H89.6225ZM87.1202 47.8782C87.1202 48.1618 87.1283 48.4456 87.1175 48.7288C87.1093 48.9468 87.2038 49.0244 87.4131 49.0149C87.9195 48.9919 88.428 48.9983 88.9324 48.9549C89.5992 48.8977 89.9672 48.4969 89.966 47.8825C89.9648 47.2403 89.635 46.8873 88.9295 46.8398C88.412 46.805 87.8907 46.8302 87.3714 46.8188C87.1644 46.8142 87.1081 46.9068 87.1174 47.0985C87.13 47.3579 87.1205 47.6183 87.1202 47.8782ZM87.9234 46.1169C88.1823 46.104 88.4416 46.0958 88.7 46.0756C88.7802 46.0693 88.86 46.0359 88.9361 46.0053C89.334 45.8459 89.516 45.4929 89.4445 45.0262C89.3921 44.6848 89.1313 44.4751 88.7068 44.4469C88.4716 44.4313 88.2353 44.4265 87.9995 44.4259C87.4134 44.4247 87.1203 44.722 87.1203 45.3179C87.1203 45.8428 87.388 46.1091 87.9234 46.1169Z" fill="white"/>
<path d="M55.5638 49.7261C55.2947 49.7261 55.0814 49.7468 54.8756 49.7163C54.7889 49.7035 54.6821 49.5969 54.6466 49.5081C54.489 49.1142 54.3422 48.7149 54.2156 48.31C54.147 48.0906 54.033 48.0169 53.8051 48.0221C53.167 48.0365 52.5282 48.0377 51.8902 48.0216C51.6437 48.0154 51.5278 48.1022 51.4621 48.3361C51.3793 48.6306 51.2585 48.9143 51.1546 49.2029C50.9482 49.7766 50.8266 49.8366 50.1584 49.666C50.3722 49.0678 50.5822 48.4714 50.7984 47.8772C51.2582 46.614 51.73 45.3551 52.1758 44.0871C52.2727 43.8116 52.3851 43.6916 52.6972 43.7037C53.3993 43.7309 53.402 43.7112 53.6583 44.4107C54.2666 46.071 54.8733 47.7319 55.4788 49.3932C55.5101 49.479 55.5247 49.5708 55.5638 49.7261H55.5638ZM52.8827 44.5832C52.8571 44.5832 52.8315 44.5831 52.806 44.5831C52.4855 45.4788 52.1651 46.3746 51.8378 47.2894H53.8475C53.5175 46.3637 53.2001 45.4735 52.8827 44.5832H52.8827Z" fill="white"/>
<path d="M18.7798 38.0253C19.2705 37.4575 19.7042 36.8837 20.2189 36.3952C20.4301 36.1946 20.8099 36.1445 21.1242 36.0871C21.4577 36.0262 21.8048 36.0157 22.1452 36.0226C22.8075 36.036 23.1344 36.3858 23.1352 37.0486C23.1365 38.1182 22.6318 39.0192 22.1595 39.9281C22.1309 39.983 21.9682 40.0244 21.9019 39.9951C20.7978 39.5078 19.7739 38.89 18.7798 38.0253L18.7798 38.0253Z" fill="white"/>
<path d="M10.942 31.4153C11.5722 31.4842 12.1726 31.5237 12.7619 31.627C13.0005 31.6689 13.2773 31.7975 13.4275 31.9778C13.7803 32.4011 14.1003 32.8606 14.3716 33.3405C14.66 33.8505 14.5082 34.2988 14.0107 34.6144C13.3815 35.0135 12.6616 35.1294 11.9458 35.1688C10.5153 35.2475 10.823 35.4625 10.7259 34.071C10.673 33.3135 10.8044 32.5427 10.8598 31.7784C10.8688 31.6535 10.9148 31.5313 10.942 31.4153Z" fill="white"/>
<path d="M23.0641 17.7292C22.6338 18.2579 22.2492 18.7634 21.8285 19.2368C21.5057 19.5999 21.0738 19.7332 20.5828 19.7023C20.3511 19.6877 20.116 19.7395 19.882 19.7473C19.0843 19.7741 18.7215 19.4263 18.7261 18.6374C18.7308 17.8222 19.0672 17.1046 19.412 16.3937C19.768 15.6596 19.7743 15.6654 20.5131 16.0344C21.4116 16.4832 22.2481 17.0232 23.0641 17.7292V17.7292Z" fill="white"/>
<path d="M31.1812 22.1062C31.1193 22.7517 31.0548 23.3969 30.9967 24.0427C30.9748 24.2872 30.9037 24.3851 30.6157 24.3297C30.1425 24.2388 29.6564 24.2126 29.1749 24.1678C28.8237 24.135 28.5416 23.9807 28.3356 23.7008C28.07 23.3398 27.8004 22.9799 27.5632 22.6003C27.1694 21.9702 27.3313 21.4062 27.9965 21.0722C28.7179 20.7099 29.5027 20.6092 30.2961 20.5739C31.0399 20.5407 31.0423 20.5492 31.1062 21.2898C31.1295 21.5599 31.1411 21.831 31.1581 22.1017C31.1658 22.1032 31.1735 22.1047 31.1812 22.1062Z" fill="white"/>
<path d="M32.0463 32.8268C31.7922 33.0057 31.5769 33.1919 31.3321 33.323C30.5547 33.7397 29.766 34.1352 28.9824 34.5404C28.7336 34.669 28.5691 34.6042 28.4424 34.352C27.8657 33.2039 27.8672 32.0502 28.4571 30.9216C28.859 30.1529 29.586 30.0107 30.2606 30.561C31.0089 31.1713 31.5232 31.9792 32.0463 32.8268L32.0463 32.8268Z" fill="white"/>
<path d="M13.8315 23.0902C13.8104 23.7309 13.7229 24.3351 13.3969 24.8784C12.9752 25.5812 12.3199 25.7386 11.6595 25.247C10.8986 24.6806 10.4053 23.8784 9.90971 23.0883C9.8765 23.0354 9.91654 22.8786 9.97253 22.8362C10.899 22.1334 11.9152 21.5898 13.0082 21.1976C13.1007 21.1644 13.3032 21.2615 13.3683 21.357C13.7267 21.8827 13.8127 22.4896 13.8315 23.0902Z" fill="white"/>
<path d="M3.21569 37.0071C2.80572 36.6263 2.36477 36.2793 1.99962 35.8654C1.01328 34.7473 0.354907 33.466 0.10656 31.974C0.01062 31.3976 -0.0857134 30.8417 0.130765 30.2835C0.176461 30.1657 0.279132 29.9983 0.369988 29.9886C0.474225 29.9774 0.629507 30.0917 0.701641 30.1944C0.972575 30.58 1.18941 31.0063 1.48069 31.3745C1.95569 31.9749 2.48007 32.5359 2.96705 33.1273C3.06702 33.2486 3.14238 33.4285 3.14715 33.584C3.18141 34.6986 3.19449 35.8139 3.21569 37.0071Z" fill="white"/>
<path d="M37.5131 38.8787C37.3988 40.3123 36.8931 41.5411 36.1147 42.6656C35.4649 43.6045 34.6568 44.374 33.601 44.8386C33.3955 44.929 33.1337 44.8914 32.8979 44.9129C32.9425 44.694 32.9366 44.4469 33.0401 44.2609C33.6008 43.2541 34.0325 42.2 34.3273 41.086C34.3673 40.9346 34.4845 40.7672 34.6148 40.6822C35.5228 40.0905 36.4437 39.5184 37.3609 38.9408C37.388 38.9238 37.4208 38.9159 37.5131 38.8787Z" fill="white"/>
<path d="M38.6508 18.8247C39.3854 19.3037 39.9851 19.959 40.4905 20.7031C41.3393 21.9529 41.8549 23.3144 41.8125 24.8495C41.8063 25.0725 41.7834 25.2999 41.7279 25.5149C41.6994 25.6253 41.5942 25.7746 41.5013 25.793C41.408 25.8115 41.2719 25.7055 41.1821 25.6238C41.0976 25.5468 41.0435 25.4335 40.9852 25.3309C40.4147 24.3268 39.6963 23.4387 38.8833 22.6222C38.7928 22.5314 38.7033 22.3895 38.7004 22.2691C38.6732 21.1287 38.6648 19.9878 38.6508 18.8247Z" fill="white"/>
<path d="M20.0111 47.9206C19.101 48.3634 18.2141 48.5662 17.291 48.6139C15.7505 48.6935 14.2816 48.4607 12.9696 47.5797C12.9012 47.5337 12.8181 47.4955 12.7733 47.4316C12.665 47.2775 12.5753 47.1103 12.4781 46.9484C12.6533 46.8735 12.8236 46.7508 13.0046 46.7323C13.6601 46.6649 14.3228 46.6599 14.976 46.578C15.4759 46.5153 15.9628 46.3538 16.4615 46.2741C16.6489 46.2441 16.878 46.2721 17.0459 46.3571C17.9484 46.8134 18.8377 47.2959 19.7314 47.7695C19.801 47.8064 19.87 47.8443 20.0111 47.9206Z" fill="white"/>
<path d="M4.36945 16.8114C4.3829 16.0088 4.6292 15.239 4.9644 14.4974C5.6538 12.9719 6.64468 11.7112 8.1865 10.9634C8.41766 10.8512 8.70199 10.6243 8.93246 10.8589C9.17461 11.1055 8.90688 11.366 8.78207 11.5855C8.21254 12.5873 7.81232 13.6537 7.50994 14.7617C7.48228 14.863 7.41677 14.9837 7.3322 15.0352C6.35796 15.6285 5.37664 16.2101 4.36945 16.8114Z" fill="white"/>
<path d="M21.8333 7.80684C22.3294 7.64405 22.7508 7.46679 23.1899 7.36851C24.9776 6.96833 26.7276 7.04359 28.3905 7.89092C28.6814 8.03917 28.9513 8.23924 29.2029 8.44897C29.3009 8.53066 29.3972 8.73894 29.3573 8.82847C29.3126 8.92875 29.1167 8.99969 28.9796 9.01349C28.5699 9.05472 28.1519 9.02909 27.746 9.08911C26.9549 9.20608 26.1705 9.36849 25.3813 9.49984C25.2317 9.52475 25.0471 9.54304 24.9219 9.47938C23.9573 8.98922 23.0031 8.47849 22.0466 7.97235C21.9976 7.9464 21.9573 7.90397 21.8333 7.80683L21.8333 7.80684Z" fill="white"/>
<path d="M70.3749 49.603C70.1366 49.6556 69.9775 49.6965 69.8162 49.725C69.5122 49.7789 69.4399 49.6331 69.4428 49.3462C69.4559 48.0348 69.4485 46.7232 69.4485 45.4117C69.4486 44.8563 69.4636 44.3005 69.4435 43.7459C69.4298 43.369 69.6788 43.4534 69.8933 43.4347C70.1286 43.4142 70.2359 43.4779 70.2284 43.7425C70.2111 44.3512 70.2229 44.9606 70.2229 45.5578C70.5871 45.4054 70.9072 45.2217 71.2517 45.1371C72.1782 44.9094 72.9195 45.3229 73.2303 46.2253C73.4792 46.9478 73.5006 47.6881 73.2621 48.4188C72.8359 49.7246 71.6442 50.1781 70.3749 49.603H70.3749ZM70.2227 47.5742C70.2227 47.9289 70.2155 48.2837 70.2275 48.638C70.2307 48.7331 70.2638 48.8632 70.3311 48.9147C71.0372 49.455 72.2693 49.086 72.4801 48.226C72.5945 47.7592 72.6022 47.2351 72.5232 46.7593C72.3998 46.0162 72.006 45.7824 71.2566 45.8566C70.531 45.9285 70.2228 46.2607 70.2228 46.9713C70.2228 47.1723 70.2228 47.3733 70.2227 47.5742V47.5742Z" fill="white"/>
<path d="M133.134 49.5222C133.134 50.0186 133.134 50.451 133.134 50.8834C133.134 51.1932 132.981 51.3465 132.674 51.3436C132.581 51.3425 132.488 51.3348 132.357 51.3283C132.351 51.2034 132.341 51.0899 132.341 50.9764C132.34 49.1807 132.338 47.3849 132.344 45.5893C132.345 45.4284 132.236 45.1619 132.564 45.1814C132.811 45.1959 133.189 45.0195 133.143 45.5668C133.444 45.422 133.702 45.2553 133.985 45.1693C135.065 44.8411 135.911 45.3222 136.192 46.4286C136.379 47.1629 136.396 47.9068 136.07 48.6123C135.571 49.6912 134.465 50.0961 133.372 49.6222C133.319 49.5995 133.267 49.5779 133.134 49.5222ZM133.134 47.5601C133.134 47.8434 133.161 48.1299 133.128 48.4092C133.083 48.7779 133.241 48.9331 133.58 49.0276C134.598 49.3113 135.331 48.8627 135.465 47.8245C135.504 47.5249 135.492 47.2127 135.459 46.911C135.367 46.0574 134.831 45.6795 134.004 45.8832C133.801 45.9331 133.613 46.044 133.422 46.1335C133.209 46.233 133.109 46.388 133.128 46.6399C133.152 46.945 133.134 47.2532 133.134 47.5601V47.5601Z" fill="white"/>
<path d="M60.1628 47.5467C60.1628 48.1827 60.1483 48.7965 60.1691 49.4091C60.1789 49.6996 60.0517 49.7573 59.8093 49.7263C59.6 49.6996 59.3214 49.8357 59.3243 49.4196C59.3371 47.611 59.3271 45.8023 59.3374 43.9936C59.3379 43.9005 59.45 43.7266 59.5081 43.7275C60.3089 43.7391 61.1248 43.6877 61.9059 43.8266C62.8783 43.9996 63.3333 44.6946 63.2815 45.6383C63.2315 46.5477 62.589 47.2846 61.6919 47.4155C61.2047 47.4866 60.7092 47.5018 60.1628 47.5467H60.1628ZM60.1626 45.5826C60.1626 45.9011 60.1449 46.2212 60.1737 46.537C60.1821 46.6294 60.3239 46.7841 60.4027 46.7829C60.8015 46.7768 61.206 46.7622 61.5962 46.6869C62.0734 46.5948 62.3946 46.1382 62.4155 45.6205C62.4388 45.0415 62.2175 44.666 61.6798 44.5213C61.3567 44.4343 61.0054 44.4381 60.666 44.4286C60.1629 44.4145 60.1626 44.4249 60.1625 44.9103C60.1624 45.1344 60.1625 45.3585 60.1626 45.5826V45.5826Z" fill="white"/>
<path d="M122.817 45.0488C122.317 44.8136 121.902 44.5543 121.449 44.4172C120.011 43.9813 118.821 44.8165 118.722 46.319C118.695 46.7264 118.708 47.154 118.802 47.5486C119.113 48.8577 120.188 49.336 121.459 49.0027C121.913 48.8834 122.328 48.6105 122.759 48.4083C122.974 48.9325 122.845 49.2963 122.324 49.5067C121.452 49.8588 120.556 49.9291 119.652 49.6625C118.846 49.4249 118.306 48.8705 118.049 48.0863C117.735 47.1288 117.726 46.1576 118.119 45.2086C118.528 44.2226 119.317 43.7387 120.335 43.624C121.046 43.5438 121.743 43.6508 122.416 43.9347C122.724 44.0647 122.872 44.2248 122.821 44.5635C122.798 44.7194 122.817 44.8819 122.817 45.0488Z" fill="white"/>
<path d="M149.288 49.7112C148.825 49.7365 148.564 49.6033 148.503 49.3116C148.325 49.4134 148.162 49.521 147.987 49.6052C147.48 49.8494 146.95 49.9277 146.407 49.7486C145.83 49.5585 145.45 48.9699 145.48 48.3444C145.517 47.5915 145.91 47.1034 146.688 46.9436C147.285 46.8209 147.896 46.7667 148.501 46.6824C148.533 46.1742 148.358 45.9495 147.875 45.8394C147.201 45.6856 146.573 45.8894 145.912 46.0971V45.2994C146.755 45.09 147.6 44.9748 148.451 45.2562C148.917 45.4104 149.254 45.7546 149.273 46.2295C149.319 47.3815 149.288 48.5367 149.288 49.7112V49.7112ZM148.551 47.2934C147.887 47.4266 147.293 47.5002 146.73 47.6745C146.355 47.7905 146.228 48.1695 146.316 48.5484C146.402 48.916 146.673 49.0544 147.015 49.0924C147.536 49.1501 147.992 48.9815 148.402 48.6759C148.47 48.6249 148.541 48.5277 148.545 48.4488C148.56 48.1106 148.551 47.7712 148.551 47.2934L148.551 47.2934Z" fill="white"/>
<path d="M95.5774 48.5792C95.5774 48.8511 95.5903 49.0601 95.5708 49.2661C95.5634 49.3441 95.4984 49.4512 95.4303 49.4836C94.567 49.8953 93.1773 49.9836 92.3792 49.388C91.737 48.9087 91.5422 48.2325 91.5475 47.4867C91.5544 46.5046 91.8542 45.6543 92.8464 45.2496C94.0482 44.7593 95.5682 45.2183 95.6314 46.8752C95.6573 47.5565 95.6866 47.5554 94.9912 47.5554C94.1313 47.5554 93.2713 47.5554 92.4192 47.5554C92.2732 48.2931 92.7889 48.9529 93.5524 49.0935C94.2836 49.2282 94.9074 48.9417 95.5774 48.5792ZM94.8661 46.9209C94.848 46.1007 94.3763 45.6776 93.5886 45.7359C92.8893 45.7877 92.3487 46.3276 92.4191 46.9209H94.8661Z" fill="white"/>
<path d="M105.657 48.5921C105.657 48.8542 105.673 49.0552 105.65 49.2517C105.64 49.3406 105.572 49.4679 105.499 49.4975C104.63 49.8462 103.742 49.9693 102.85 49.5938C102.232 49.3336 101.846 48.8524 101.717 48.1959C101.501 47.0949 101.721 46.0129 102.586 45.4276C103.471 44.8282 105.199 44.8991 105.608 46.2409C105.619 46.2747 105.643 46.3066 105.645 46.3403C105.666 46.7249 105.684 47.1097 105.703 47.4945C105.389 47.5148 105.076 47.5485 104.762 47.5527C104.089 47.5616 103.415 47.5639 102.742 47.5508C102.497 47.546 102.436 47.6385 102.459 47.8665C102.539 48.6612 103.308 49.2526 104.176 49.1131C104.586 49.0471 104.977 48.8593 105.375 48.7235C105.45 48.698 105.519 48.6569 105.657 48.5921L105.657 48.5921ZM102.479 46.9059H104.949C104.942 46.1525 104.532 45.7409 103.815 45.7262C103.225 45.7141 102.521 46.0826 102.479 46.9059Z" fill="white"/>
<path d="M125.605 45.0635C126.628 45.0493 127.439 45.7262 127.629 46.7368C127.76 47.4385 127.743 48.1274 127.422 48.7725C127.002 49.6181 126.217 49.9567 125.154 49.7945C124.392 49.6782 123.716 49.0338 123.619 48.1976C123.555 47.6468 123.552 47.0576 123.679 46.5228C123.902 45.5813 124.643 45.0768 125.605 45.0635H125.605ZM126.917 47.4925C126.874 47.2058 126.852 46.9465 126.793 46.6956C126.662 46.1294 126.221 45.7709 125.661 45.7511C125.109 45.7316 124.656 46.0369 124.473 46.5758C124.286 47.1276 124.289 47.693 124.444 48.2486C124.604 48.8198 125.059 49.1637 125.606 49.1726C126.113 49.181 126.596 48.8498 126.759 48.336C126.847 48.059 126.869 47.761 126.917 47.4925L126.917 47.4925Z" fill="white"/>
<path d="M160.098 47.3993C160.056 48.2217 159.905 48.9068 159.315 49.4006C158.132 50.3896 156.292 49.7374 155.99 48.2096C155.834 47.4208 155.852 46.6307 156.319 45.9246C156.786 45.2186 157.585 44.9347 158.497 45.1295C159.288 45.2981 159.868 45.9079 160.005 46.7229C160.048 46.9781 160.076 47.2359 160.098 47.3993ZM156.702 47.3317C156.743 47.6724 156.758 47.9203 156.805 48.1617C156.916 48.7248 157.335 49.1009 157.897 49.1655C158.406 49.2239 158.895 48.941 159.101 48.4183C159.363 47.7545 159.358 47.074 159.071 46.4197C158.872 45.9675 158.483 45.7513 157.993 45.7532C157.487 45.7552 157.093 45.9816 156.908 46.4587C156.792 46.7605 156.756 47.0937 156.702 47.3317L156.702 47.3317Z" fill="white"/>
<path d="M137.12 47.5161C137.185 46.5078 137.407 45.647 138.39 45.2296C139.7 44.6733 141.081 45.4699 141.262 46.8796C141.364 47.6819 141.334 48.4621 140.798 49.1315C140.222 49.8501 139.444 49.9578 138.62 49.7618C137.833 49.5744 137.397 49.0024 137.227 48.2275C137.172 47.9752 137.149 47.7156 137.12 47.5161ZM140.515 47.5379C140.481 47.2332 140.468 46.9968 140.424 46.7661C140.315 46.1841 139.877 45.793 139.308 45.752C138.77 45.7133 138.262 46.0321 138.093 46.539C137.897 47.1257 137.886 47.7222 138.075 48.3135C138.242 48.8378 138.683 49.1631 139.21 49.1723C139.712 49.1811 140.172 48.8795 140.347 48.3705C140.445 48.0858 140.469 47.7757 140.515 47.5379Z" fill="white"/>
<path d="M67.1823 49.3226C66.8219 49.4923 66.5294 49.6917 66.2072 49.7708C65.0209 50.0619 64.2452 49.4651 64.2005 48.2196C64.1674 47.2987 64.197 46.3757 64.1921 45.4536C64.1911 45.2643 64.2473 45.1628 64.4541 45.1752C64.6166 45.1849 64.7802 45.1772 64.9997 45.1772C64.9997 45.3887 64.9998 45.5723 64.9997 45.756C64.9996 46.5244 64.9937 47.2928 65.0009 48.0611C65.0091 48.9375 65.5376 49.2953 66.3741 49.0013C66.4075 48.9895 66.4419 48.9802 66.4748 48.9673C67.1627 48.6962 67.1951 48.6488 67.195 47.9142C67.195 47.1577 67.2013 46.401 67.1918 45.6446C67.1882 45.3604 67.1758 45.1571 67.5849 45.1612C67.9646 45.165 67.9975 45.3154 67.9939 45.6243C67.9798 46.8417 67.9934 48.0595 67.9819 49.2769C67.9803 49.4401 68.1262 49.7264 67.7683 49.7233C67.4993 49.7209 67.1217 49.8645 67.1823 49.3226V49.3226Z" fill="white"/>
<path d="M97.5529 45.5642C97.9508 45.4032 98.2844 45.2174 98.6418 45.133C99.7529 44.8708 100.518 45.5048 100.521 46.6559C100.523 47.5183 100.521 48.3808 100.522 49.2432C100.522 49.5671 100.363 49.7279 100.046 49.7259C99.9649 49.7252 99.8839 49.7187 99.7514 49.7124C99.7514 49.4466 99.7514 49.191 99.7514 48.9355C99.7515 48.2739 99.7627 47.6121 99.7491 46.9507C99.7281 45.9273 99.1872 45.5845 98.2242 45.9693C97.5904 46.2225 97.5569 46.2717 97.5569 46.9477C97.5569 47.7629 97.5402 48.5786 97.5648 49.393C97.5755 49.7488 97.382 49.7252 97.1423 49.7308C96.8994 49.7365 96.7514 49.7226 96.7562 49.401C96.7751 48.1372 96.7601 46.8729 96.7687 45.6088C96.7699 45.4398 96.6486 45.1562 97.004 45.1811C97.2527 45.1986 97.6507 45.0109 97.5529 45.5642Z" fill="white"/>
<path d="M161.982 45.1962C161.999 45.3344 162.014 45.4588 162.028 45.57C162.392 45.4175 162.732 45.2181 163.098 45.1328C164.19 44.8783 164.94 45.4659 164.972 46.5898C164.999 47.5351 164.979 48.4816 165 49.4271C165.006 49.6991 164.889 49.7536 164.661 49.7271C164.459 49.7037 164.191 49.8261 164.2 49.4336C164.217 48.677 164.206 47.9199 164.204 47.163C164.204 47.0215 164.191 46.88 164.185 46.7385C164.148 45.837 163.575 45.7255 162.808 45.9189C162.608 45.9694 162.407 46.08 162.248 46.213C162.133 46.3098 162.023 46.4872 162.02 46.6312C161.999 47.5295 162.01 48.4286 162.01 49.3274C162.01 49.4435 162.01 49.5597 162.01 49.6533C161.959 49.6897 161.941 49.7137 161.922 49.7152C161.445 49.751 161.206 49.5309 161.206 49.055C161.206 47.9315 161.206 46.808 161.206 45.6845C161.206 45.3435 161.38 45.1749 161.73 45.1785C161.81 45.1795 161.89 45.1895 161.982 45.1962V45.1962Z" fill="white"/>
<path d="M107.676 45.8528C107.676 46.0683 107.676 46.2299 107.676 46.3914C107.676 47.3954 107.665 48.3996 107.682 49.4033C107.688 49.7292 107.516 49.731 107.282 49.7298C107.051 49.7286 106.874 49.7349 106.879 49.4057C106.897 48.3547 106.886 47.3033 106.886 46.2521C106.886 46.1373 106.886 46.0225 106.886 45.8888C106.713 45.876 106.576 45.8658 106.413 45.8536V45.2045C106.555 45.1886 106.69 45.1735 106.846 45.1562C106.881 44.9414 106.905 44.7214 106.956 44.5081C107.126 43.8023 107.596 43.424 108.318 43.3992C108.412 43.396 108.507 43.3981 108.601 43.3986C109.297 43.4029 109.34 43.45 109.272 44.1774C108.801 44.1486 108.27 43.8943 107.883 44.3255C107.714 44.5144 107.683 44.8281 107.563 45.159H108.972V45.8528H107.676V45.8528Z" fill="white"/>
<path d="M150.27 45.8475V45.202C150.426 45.1871 150.562 45.174 150.738 45.157V43.9133C150.96 43.9133 151.149 43.8878 151.324 43.924C151.413 43.9422 151.534 44.066 151.544 44.153C151.573 44.4097 151.563 44.6722 151.551 44.9318C151.543 45.1191 151.621 45.1844 151.801 45.1795C152.084 45.1718 152.368 45.1778 152.651 45.1779C152.954 45.1781 153.102 45.3254 153.096 45.6199C153.095 45.6881 153.086 45.756 153.077 45.8674H151.572C151.572 46.7827 151.549 47.6539 151.582 48.523C151.597 48.9077 151.863 49.0975 152.262 49.0918C152.528 49.088 152.793 49.0395 153.059 49.0109C153.174 49.663 153.107 49.7499 152.457 49.7829C152.328 49.7894 152.198 49.7991 152.069 49.7926C151.257 49.7519 150.818 49.3531 150.775 48.5431C150.735 47.7887 150.753 47.0312 150.746 46.275C150.745 46.1582 150.746 46.0414 150.746 45.8957C150.584 45.8793 150.438 45.8645 150.27 45.8475V45.8475Z" fill="white"/>
<path d="M114.315 45.1638V45.8528H112.799V46.4775C112.799 47.0215 112.798 47.5654 112.799 48.1094C112.8 48.9652 113.145 49.2435 113.982 49.0624C114.083 49.0404 114.182 49.0061 114.283 48.9772C114.435 49.6306 114.351 49.7512 113.722 49.7818C113.522 49.7915 113.32 49.7962 113.122 49.78C112.584 49.7361 112.154 49.4042 112.094 48.8689C112.012 48.1442 112.015 47.4095 111.988 46.6789C111.978 46.4228 111.986 46.166 111.986 45.892C111.809 45.8766 111.671 45.8646 111.537 45.8529C111.406 45.275 111.441 45.2134 111.986 45.1417C111.986 44.8705 112.01 44.5886 111.98 44.3126C111.942 43.9655 112.088 43.8672 112.403 43.9104C112.517 43.9259 112.634 43.9129 112.791 43.9129V45.1638H114.315L114.315 45.1638Z" fill="white"/>
<path d="M82.378 46.3217C81.0787 45.6672 80.4119 45.6373 79.9341 46.1998C79.4693 46.747 79.4275 47.9984 79.8595 48.613C80.1644 49.0468 80.6141 49.2075 81.1033 49.1073C81.5406 49.0177 81.9543 48.8132 82.3756 48.6604C82.5405 49.3612 82.3644 49.6486 81.4952 49.7513C80.9949 49.8105 80.4607 49.7377 79.9642 49.625C79.5577 49.5327 79.2435 49.2207 79.0547 48.8311C78.6328 47.9604 78.6145 47.0647 79.0183 46.1945C79.4424 45.2806 80.6425 44.8603 81.7107 45.1964C81.7219 45.1999 81.7323 45.2061 81.7435 45.2098C82.4961 45.4597 82.5043 45.4736 82.378 46.3217Z" fill="white"/>
<path d="M142.469 49.726V45.2094C142.932 45.1495 143.193 45.3412 143.252 45.7844C143.392 45.6979 143.516 45.6265 143.635 45.5474C144.01 45.2975 144.418 45.1939 144.871 45.2028C145.204 45.2094 145.317 45.3443 145.269 45.6574C145.253 45.76 145.257 45.8655 145.25 45.9901C145.002 45.9901 144.772 45.9988 144.543 45.9882C144.076 45.9667 143.694 46.1731 143.352 46.4511C143.264 46.5225 143.222 46.6954 143.221 46.8226C143.209 47.6252 143.215 48.4281 143.215 49.231C143.215 49.5612 143.048 49.7262 142.715 49.726C142.646 49.726 142.576 49.726 142.469 49.726Z" fill="white"/>
<path d="M129.631 45.7477C130.007 45.5724 130.342 45.4136 130.681 45.2613C130.744 45.2329 130.818 45.2224 130.888 45.2181C131.742 45.1656 131.71 45.2184 131.596 46.0342C130.993 45.9428 130.407 45.9496 129.879 46.334C129.698 46.4653 129.607 46.5901 129.61 46.8213C129.623 47.6719 129.601 48.5232 129.623 49.3735C129.631 49.703 129.479 49.7301 129.217 49.7331C128.94 49.7364 128.818 49.6769 128.822 49.3611C128.839 48.0851 128.839 46.8086 128.822 45.5326C128.817 45.211 128.954 45.1703 129.223 45.1702C129.491 45.1701 129.667 45.2071 129.618 45.5313C129.608 45.5975 129.625 45.6678 129.631 45.7477V45.7477Z" fill="white"/>
<path d="M75.3427 46.6088C75.3429 47.5419 75.329 48.4754 75.3503 49.4081C75.3579 49.7376 75.1926 49.7258 74.9572 49.7323C74.7025 49.7394 74.574 49.7076 74.5764 49.396C74.5909 47.5298 74.5911 45.6633 74.5765 43.7971C74.5741 43.4815 74.6934 43.4333 74.969 43.428C75.2648 43.4223 75.3546 43.5126 75.349 43.8094C75.3315 44.7422 75.3426 45.6756 75.3427 46.6088Z" fill="white"/>
<path d="M110.543 45.1773C110.543 46.2011 110.543 47.168 110.543 48.1349C110.543 48.5836 110.533 49.0326 110.548 49.4808C110.556 49.7354 110.411 49.7561 110.233 49.7222C110.048 49.6869 109.735 49.8761 109.734 49.4771C109.73 48.1311 109.735 46.7851 109.73 45.4391C109.729 45.237 109.807 45.1626 110.003 45.1752C110.165 45.1855 110.328 45.1773 110.543 45.1773V45.1773Z" fill="white"/>
<path d="M76.8374 47.4597C76.8374 46.7984 76.8511 46.1367 76.8314 45.476C76.8221 45.1643 76.9913 45.169 77.2105 45.1749C77.4148 45.1804 77.6054 45.1371 77.6021 45.4624C77.5887 46.7848 77.5866 48.1076 77.6032 49.43C77.6076 49.7843 77.3966 49.7139 77.188 49.7298C76.9416 49.7486 76.8221 49.6952 76.831 49.408C76.8512 48.7591 76.8374 48.1092 76.8374 47.4597Z" fill="white"/>
<path d="M154.751 45.1945V49.6749C154.717 49.6957 154.698 49.7172 154.678 49.7183C154.207 49.7434 153.972 49.5203 153.972 49.049C153.972 47.9171 153.972 46.7851 153.972 45.6532C153.972 45.3344 154.132 45.1761 154.453 45.1785C154.544 45.1793 154.636 45.1881 154.751 45.1945V45.1945Z" fill="white"/>
<path d="M36.1565 12.9861C36.404 13.1594 36.6634 13.3181 36.8967 13.5087C37.687 14.1547 38.4012 14.8765 38.9732 15.7258C39.1296 15.9581 39.2694 16.2176 39.3402 16.485C39.3781 16.6283 39.2987 16.8693 39.1863 16.9634C39.1056 17.0309 38.8541 16.973 38.7277 16.8934C38.1678 16.5409 37.8353 16.0358 37.5588 15.4155C37.2083 14.6293 36.6558 13.9332 36.1897 13.1986C36.1595 13.1511 36.1232 13.1075 36.0898 13.0621C36.112 13.0367 36.1342 13.0114 36.1565 12.9861L36.1565 12.9861Z" fill="white"/>
<path d="M5.7633 42.8201C5.46897 42.6132 5.19443 42.4435 4.9462 42.2414C4.07287 41.5306 3.28719 40.7363 2.71377 39.7567C2.60947 39.5785 2.52753 39.3701 2.50457 39.1678C2.49093 39.0476 2.5813 38.8547 2.68233 38.7993C2.78472 38.7432 2.98682 38.7716 3.09423 38.8414C3.35958 39.014 3.59896 39.2277 3.84158 39.4334C3.91001 39.4914 3.97703 39.5709 4.00502 39.6538C4.38662 40.7852 4.95876 41.8039 5.76987 42.6844C5.7796 42.695 5.76884 42.7244 5.7633 42.8201H5.7633Z" fill="white"/>
<path d="M15.5577 7.04964C15.9772 6.86352 16.3814 6.61917 16.8196 6.50464C17.5118 6.32372 18.2266 6.22899 18.9322 6.09973C19.1464 6.0605 19.3632 5.99218 19.5763 6.00073C19.8622 6.0122 20.1506 6.06597 20.4285 6.13785C20.68 6.20288 20.727 6.3954 20.5124 6.54202C20.0177 6.88008 19.5587 7.24201 18.8503 7.09478C17.8201 6.88068 16.7658 6.88984 15.7309 7.15814C15.6902 7.16869 15.6443 7.15948 15.6009 7.15948C15.5865 7.12287 15.5721 7.08625 15.5577 7.04964L15.5577 7.04964Z" fill="white"/>
<path d="M41.3506 33.8987C41.3239 34.2495 41.3343 34.6079 41.2636 34.9496C41.0351 36.0546 40.6452 37.1032 40.0602 38.0723C39.9637 38.232 39.8379 38.3785 39.7054 38.5108C39.5526 38.6634 39.3729 38.6532 39.3443 38.4219C39.2726 37.8433 39.1748 37.2582 39.6074 36.7439C40.3188 35.8983 40.874 34.9592 41.2007 33.8938C41.2507 33.8954 41.3007 33.8971 41.3506 33.8987Z" fill="white"/>
<path d="M17.9073 37.3812C17.4679 36.7901 17.0124 36.2101 16.5957 35.6034C16.381 35.2907 16.5133 35.0401 16.8999 34.9716C17.3394 34.8937 17.7698 34.9519 18.1641 35.172C18.6909 35.4661 18.867 35.9262 18.6184 36.4872C18.4796 36.8006 18.249 37.0733 18.0598 37.3643C18.009 37.37 17.9582 37.3756 17.9073 37.3812H17.9073Z" fill="white"/>
<path d="M23.8933 18.4263C24.4497 18.981 24.9594 19.5767 25.3318 20.2792C25.4407 20.4845 25.3416 20.6372 25.1386 20.735C24.599 20.9949 23.5928 20.7403 23.2938 20.2243C23.1848 20.0362 23.145 19.7755 23.1615 19.5544C23.1894 19.1781 23.5234 18.707 23.8933 18.4263Z" fill="white"/>
<path d="M16.2466 20.4109C16.3902 20.4606 16.7572 20.492 16.7967 20.6226C16.8626 20.8403 16.7682 21.148 16.6498 21.3688C16.5269 21.5981 16.3182 21.7991 16.107 21.9598C15.5771 22.363 14.9879 22.2498 14.6081 21.7031C14.6013 21.6935 14.5959 21.6829 14.5893 21.6731C14.0567 20.8743 14.1237 20.7209 15.0639 20.5846C15.4243 20.5323 15.7845 20.4788 16.2466 20.4109L16.2466 20.4109Z" fill="white"/>
<path d="M11.8879 30.4565C11.0889 30.4259 11.0544 30.3819 11.3488 29.6326C11.5295 29.1729 11.7213 28.716 11.9382 28.2726C12.1166 27.9081 12.3572 27.8742 12.6289 28.1694C13.0672 28.6455 13.2204 29.2139 13.0475 29.8415C12.9333 30.2562 12.4791 30.4792 11.8879 30.4565L11.8879 30.4565Z" fill="white"/>
<path d="M0.501315 21.8472C0.533663 21.5164 0.540859 21.1808 0.602869 20.8556C0.82762 19.677 1.23511 18.5645 1.90503 17.5635C2.01516 17.3989 2.23084 17.305 2.39774 17.1785C2.45203 17.3728 2.52234 17.5644 2.55534 17.7622C2.58017 17.911 2.56168 18.068 2.55446 18.221C2.53867 18.5556 2.43496 18.8317 2.20029 19.104C1.52692 19.8853 1.01536 20.771 0.702485 21.7624C0.689939 21.8021 0.655281 21.8349 0.630925 21.8709C0.58772 21.863 0.544517 21.8551 0.501312 21.8472H0.501315Z" fill="white"/>
<path d="M30.0224 25.3197C30.7775 25.3514 30.7918 25.3579 30.5274 26.0787C30.3532 26.5532 30.1543 27.0212 29.9299 27.4739C29.723 27.8913 29.4701 27.9046 29.1702 27.5445C28.8709 27.1852 28.7298 26.7587 28.7379 26.2979C28.7496 25.6313 29.2182 25.2858 30.0224 25.3197Z" fill="white"/>
<path d="M25.7182 35.3303C25.0391 35.3384 24.8767 35.1243 25.0609 34.6683C25.2386 34.2287 25.5483 33.8871 25.9766 33.6784C26.4293 33.4577 26.8985 33.5999 27.224 34.0271C27.8232 34.8135 27.72 35.0723 26.7574 35.1968C26.3494 35.2496 25.9412 35.3017 25.7182 35.3303Z" fill="white"/>
<path d="M26.245 48.7206C25.9632 48.8667 25.6944 49.0509 25.3974 49.1522C24.2169 49.5548 23.0041 49.7706 21.7502 49.6884C21.6563 49.6823 21.5592 49.6781 21.4703 49.651C21.1759 49.5615 21.1221 49.3782 21.3759 49.209C21.8649 48.8829 22.3243 48.5298 23.0147 48.6768C24.0354 48.894 25.0772 48.8736 26.1031 48.6255C26.1338 48.618 26.1702 48.634 26.204 48.639C26.2177 48.6662 26.2313 48.6934 26.245 48.7206Z" fill="white"/>
<path d="M77.1921 44.4582C76.8728 44.5294 76.76 44.418 76.7509 44.0592C76.7406 43.6496 76.9545 43.6802 77.2317 43.6657C77.556 43.6487 77.6757 43.7294 77.6857 44.0872C77.6972 44.5017 77.4823 44.4918 77.1921 44.4582Z" fill="white"/>
<path d="M110.106 44.4574C109.801 44.5216 109.676 44.4326 109.675 44.0818C109.674 43.7202 109.808 43.6618 110.126 43.6624C110.443 43.6629 110.569 43.7212 110.58 44.0813C110.591 44.4854 110.397 44.4989 110.106 44.4574Z" fill="white"/>
<path d="M154.853 44.4496H153.942C153.962 44.2029 153.9 43.8922 154.028 43.7343C154.124 43.6159 154.549 43.5988 154.671 43.7094C154.815 43.8401 154.792 44.1565 154.853 44.4496Z" fill="white"/>
</svg>
