<svg width="115" height="61" viewBox="0 0 115 61" fill="none" xmlns="http://www.w3.org/2000/svg">
<g clip-path="url(#clip0_1354_12534)">
<path fill-rule="evenodd" clip-rule="evenodd" d="M0 30.5753C0 22.9577 0 19.1514 1.98697 16.4973C2.57776 15.7075 3.28468 15.0077 4.0825 14.4229C6.76377 12.4561 10.6089 12.4561 18.3043 12.4561C25.9997 12.4561 29.8449 12.4561 32.5262 14.4229C33.324 15.0077 34.0309 15.7075 34.6217 16.4973C36.6087 19.1489 36.6087 22.9577 36.6087 30.5753C36.6087 38.1929 36.6087 41.9992 34.6217 44.6533C34.0309 45.4431 33.324 46.1428 32.5262 46.7277C29.8474 48.6945 25.9997 48.6945 18.3043 48.6945C10.6089 48.6945 6.76377 48.6945 4.0825 46.7277C3.28468 46.1428 2.57776 45.4431 1.98697 44.6533C0 41.9992 0 38.1929 0 30.5753ZM18.5518 18.6591L20.006 26.869C20.1878 27.9011 21.0058 28.7109 22.0485 28.8908L30.3423 30.3304C30.62 30.3779 30.62 30.7727 30.3423 30.8202L22.0485 32.2598C21.0058 32.4397 20.1878 33.2494 20.006 34.2816L18.5518 42.4915C18.5038 42.7664 18.1049 42.7664 18.0569 42.4915L16.6027 34.2816C16.4209 33.2494 15.6029 32.4397 14.5602 32.2598L6.2664 30.8202C5.98867 30.7727 5.98867 30.3779 6.2664 30.3304L14.5602 28.8908C15.6029 28.7109 16.4209 27.9011 16.6027 26.869L18.0569 18.6591C18.1049 18.3842 18.5038 18.3842 18.5518 18.6591ZM74.0707 39.5225C72.2857 39.5225 70.7406 39.1726 69.4328 38.4703C68.1351 37.768 67.1302 36.7633 66.4157 35.4562C65.7113 34.1467 65.3578 32.5872 65.3578 30.7752C65.3578 28.9633 65.7138 27.3863 66.4283 26.0692C67.1504 24.7446 68.1654 23.7275 69.4732 23.0177C70.7785 22.3079 72.311 21.953 74.0707 21.953C75.8304 21.953 77.3453 22.3079 78.643 23.0177C79.9407 23.7275 80.943 24.7446 81.6474 26.0692C82.3619 27.3863 82.7179 28.9533 82.7179 30.7752C82.7179 32.5972 82.3645 34.1367 81.6601 35.4462C80.9632 36.7558 79.966 37.763 78.6683 38.4728C77.3705 39.1751 75.838 39.525 74.0707 39.525V39.5225ZM74.0707 36.6859C75.4467 36.6859 76.5399 36.2335 77.3503 35.3263C78.1684 34.4116 78.5774 32.9096 78.5774 30.8227C78.5774 28.7359 78.1684 27.1489 77.3503 26.2117C76.5323 25.267 75.4391 24.7921 74.0707 24.7921C72.7023 24.7921 71.5939 25.2645 70.7658 26.2117C69.9478 27.1564 69.5388 28.6934 69.5388 30.8227C69.5388 32.952 69.9478 34.4141 70.7658 35.3263C71.5939 36.2335 72.6947 36.6859 74.0707 36.6859ZM46.7076 38.5303C46.7076 38.8052 46.9348 39.0301 47.2126 39.0301H49.8257C50.1034 39.0301 50.3306 38.8052 50.3306 38.5303V28.2135C50.3306 27.9711 50.6437 27.8712 50.7876 28.0661L58.5789 38.6202C58.7683 38.8777 59.0713 39.0301 59.3944 39.0301H61.649C61.9267 39.0301 62.1539 38.8052 62.1539 38.5303V22.7003C62.1539 22.4254 61.9267 22.2005 61.649 22.2005H59.0233C58.7456 22.2005 58.5183 22.4254 58.5183 22.7003V32.5722C58.5183 32.8146 58.2053 32.9146 58.0614 32.7196L50.6058 22.6103C50.4165 22.3529 50.1135 22.2005 49.7903 22.2005H47.2126C46.9348 22.2005 46.7076 22.4254 46.7076 22.7003V38.5303ZM89.5221 38.3753C89.6685 38.7702 90.0472 39.0301 90.4714 39.0301H93.1804C93.6046 39.0301 93.9833 38.7677 94.1297 38.3753L99.8609 22.8727C99.9821 22.5453 99.7372 22.2005 99.3862 22.2005H97.1518C96.8337 22.2005 96.551 22.3954 96.4399 22.6903L92.067 34.4491C91.9862 34.6665 91.6757 34.6665 91.5924 34.4491L87.2574 22.8527C87.111 22.4604 86.7323 22.2005 86.3106 22.2005H84.2631C83.9121 22.2005 83.6698 22.5453 83.7884 22.8727L89.5196 38.3753H89.5221ZM98.7677 38.3553C98.644 38.6827 98.8863 39.0326 99.2398 39.0326H101.633C101.949 39.0326 102.229 38.8402 102.343 38.5478L103.466 35.6162C103.577 35.3238 103.86 35.1313 104.173 35.1313H109.609C109.924 35.1313 110.207 35.3263 110.318 35.6187L111.419 38.5428C111.53 38.8352 111.813 39.0301 112.129 39.0301H114.494C114.848 39.0301 115.093 38.6802 114.966 38.3528L108.915 22.5229C108.841 22.3279 108.652 22.2005 108.442 22.2005H105.294C105.085 22.2005 104.895 22.3279 104.822 22.5229L98.7702 38.3528L98.7677 38.3553ZM105.186 32.1648C104.837 32.1648 104.592 31.8224 104.711 31.4975L106.635 26.1392C106.716 25.9168 107.031 25.9168 107.112 26.1392L109.016 31.5C109.132 31.8249 108.887 32.1648 108.538 32.1648H105.188H105.186Z" fill="white"/>
</g>
<defs>
<clipPath id="clip0_1354_12534">
<rect width="115" height="60" fill="white" transform="translate(0 0.456055)"/>
</clipPath>
</defs>
</svg>
