<svg width="96" height="96" viewBox="0 0 96 96" fill="none" xmlns="http://www.w3.org/2000/svg">
<circle cx="48" cy="48" r="32.5" stroke="white" stroke-opacity="0.2" stroke-dasharray="2 2"/>
<circle cx="48" cy="48" r="23.5" stroke="white" stroke-opacity="0.1"/>
<path fill-rule="evenodd" clip-rule="evenodd" d="M20 37.2857C20 37.2857 20 37.2857 20 37.2857C20 28.2914 27.0767 21 35.8063 21C40.7263 21 45.1213 23.3161 48.0203 26.9479C50.9192 23.3161 55.3142 21 60.2343 21C68.9639 21 76.0406 28.2914 76.0406 37.2857C76.0406 37.564 76.0338 37.8407 76.0204 38.1156C75.1784 55.7579 48.0202 78 48.0202 78C48.0202 78 20 55.052 20 37.2857Z" fill="#111B24"/>
<path fill-rule="evenodd" clip-rule="evenodd" d="M20 37.2857C20 37.2857 20 37.2857 20 37.2857C20 28.2914 27.0767 21 35.8063 21C40.7263 21 45.1213 23.3161 48.0203 26.9479C50.9192 23.3161 55.3142 21 60.2343 21C68.9639 21 76.0406 28.2914 76.0406 37.2857C76.0406 37.564 76.0338 37.8407 76.0204 38.1156C75.1784 55.7579 48.0202 78 48.0202 78C48.0202 78 20 55.052 20 37.2857Z" fill="#00EAC7" fill-opacity="0.06"/>
<path d="M48.0203 26.9479L47.2387 27.5718C47.4285 27.8095 47.7161 27.9479 48.0203 27.9479C48.3244 27.9479 48.6121 27.8095 48.8018 27.5718L48.0203 26.9479ZM76.0204 38.1156L75.0216 38.0669L75.0215 38.0679L76.0204 38.1156ZM48.0202 78L47.3866 78.7737C47.7551 79.0755 48.2853 79.0755 48.6538 78.7737L48.0202 78ZM21 37.2857C21 37.2857 21 37.2857 21 37.2857C21 37.2857 21 37.2857 21 37.2857C21 37.2857 21 37.2857 21 37.2857V37.2857C21 37.2857 21 37.2857 21 37.2857C21 37.2857 21 37.2857 21 37.2857C21 37.2857 21 37.2857 21 37.2857C21 37.2857 21 37.2857 21 37.2857C21 37.2857 21 37.2857 21 37.2857C21 37.2857 21 37.2857 21 37.2857C21 37.2857 21 37.2857 21 37.2857C21 37.2857 21 37.2857 21 37.2857C21 37.2857 21 37.2857 21 37.2857V37.2857C21 37.2857 21 37.2857 21 37.2857C21 37.2857 21 37.2857 21 37.2857C21 37.2857 21 37.2857 21 37.2857H19C19 37.2857 19 37.2857 19 37.2857C19 37.2857 19 37.2857 19 37.2857C19 37.2857 19 37.2857 19 37.2857V37.2857C19 37.2857 19 37.2857 19 37.2857C19 37.2857 19 37.2857 19 37.2857C19 37.2857 19 37.2857 19 37.2857C19 37.2857 19 37.2857 19 37.2857C19 37.2857 19 37.2857 19 37.2857C19 37.2857 19 37.2857 19 37.2857C19 37.2857 19 37.2857 19 37.2857C19 37.2857 19 37.2857 19 37.2857C19 37.2857 19 37.2857 19 37.2857V37.2857C19 37.2857 19 37.2857 19 37.2857C19 37.2857 19 37.2857 19 37.2857C19 37.2857 19 37.2857 19 37.2857H21ZM21 37.2857C21 28.8153 27.6569 22 35.8063 22V20C26.4965 20 19 27.7675 19 37.2857H21ZM35.8063 22C40.403 22 44.5173 24.1623 47.2387 27.5718L48.8018 26.3241C45.7254 22.47 41.0496 20 35.8063 20V22ZM48.8018 27.5718C51.5233 24.1623 55.6376 22 60.2343 22V20C54.9909 20 50.3151 22.47 47.2387 26.3241L48.8018 27.5718ZM60.2343 22C68.3836 22 75.0406 28.8153 75.0406 37.2857H77.0406C77.0406 27.7675 69.5441 20 60.2343 20V22ZM75.0406 37.2857C75.0406 37.5478 75.0342 37.8082 75.0216 38.0669L77.0192 38.1642C77.0334 37.8732 77.0406 37.5803 77.0406 37.2857H75.0406ZM75.0215 38.0679C74.822 42.2495 73.0531 46.785 70.4264 51.2864C67.8068 55.7757 64.3788 60.1554 60.9567 64.0098C57.5374 67.8611 54.1412 71.1686 51.5988 73.514C50.3281 74.6861 49.2722 75.6166 48.5352 76.253C48.1668 76.5711 47.8781 76.8157 47.6823 76.9801C47.5844 77.0623 47.5097 77.1245 47.4599 77.1658C47.435 77.1865 47.4163 77.2019 47.404 77.212C47.3978 77.2171 47.3933 77.2208 47.3904 77.2232C47.3889 77.2244 47.3879 77.2253 47.3873 77.2258C47.3869 77.2261 47.3868 77.2262 47.3866 77.2263C47.3865 77.2264 47.3866 77.2264 48.0202 78C48.6538 78.7737 48.654 78.7735 48.6544 78.7732C48.6546 78.773 48.6551 78.7726 48.6556 78.7722C48.6566 78.7714 48.658 78.7702 48.6599 78.7687C48.6636 78.7657 48.6689 78.7613 48.6758 78.7556C48.6896 78.7442 48.7099 78.7275 48.7364 78.7055C48.7893 78.6616 48.8673 78.5967 48.9685 78.5117C49.1709 78.3417 49.4666 78.0912 49.8423 77.7667C50.5938 77.1178 51.6662 76.1728 52.9549 74.984C55.5309 72.6077 58.9769 69.2521 62.4523 65.3376C65.925 61.4262 69.4445 56.9374 72.1538 52.2944C74.8561 47.6635 76.7978 42.8028 77.0193 38.1633L75.0215 38.0679ZM48.0202 78C48.6538 77.2264 48.6538 77.2264 48.6538 77.2263C48.6536 77.2262 48.6534 77.2261 48.6531 77.2258C48.6524 77.2252 48.6514 77.2243 48.6498 77.2231C48.6468 77.2206 48.6422 77.2168 48.6358 77.2116C48.6231 77.2011 48.6038 77.1852 48.5781 77.1639C48.5267 77.1212 48.4497 77.0571 48.3488 76.9723C48.1469 76.8027 47.8495 76.5505 47.4701 76.2227C46.7113 75.5669 45.6252 74.6085 44.3209 73.4026C41.7111 70.9894 38.2344 67.5906 34.7607 63.6445C31.284 59.6949 27.8295 55.2185 25.2488 50.6506C22.6607 46.0695 21 41.4808 21 37.2857H19C19 41.9738 20.8418 46.916 23.5075 51.6344C26.1806 56.3659 29.7311 60.9577 33.2595 64.966C36.7909 68.9777 40.3192 72.4262 42.9631 74.871C44.2858 76.094 45.3887 77.0673 46.1623 77.7358C46.5491 78.0702 46.8537 78.3284 47.0623 78.5036C47.1666 78.5912 47.2469 78.6581 47.3015 78.7034C47.3288 78.7261 47.3497 78.7433 47.364 78.7551C47.3711 78.7609 47.3765 78.7654 47.3803 78.7685C47.3822 78.7701 47.3837 78.7713 47.3847 78.7721C47.3853 78.7726 47.3857 78.773 47.386 78.7732C47.3863 78.7735 47.3866 78.7737 48.0202 78Z" fill="#00EAC7"/>
<path d="M25.5 37.5C25.5 31.4249 30.4249 26.5 36.5 26.5" stroke="#00EAC7" stroke-linejoin="round"/>
<path d="M59.5 26.5C56.3234 26.5 53.4612 27.8466 51.4532 30" stroke="#00EAC7" stroke-linejoin="round"/>
<path d="M24 50.4696L33.1754 41.7825C34.454 40.572 36.6618 40.2293 37.4615 41.798C38.1521 43.1526 37.1943 45.9394 37.1943 45.9394L31.1154 51.7374L45.5515 37.9685C46.6942 36.8786 48.5019 36.9136 49.6015 38.047C50.6937 39.1727 50.6828 40.9659 49.577 42.0783L41.2346 50.4696L52.5214 39.1165C53.5528 38.0791 55.2278 38.0678 56.2731 39.091C57.3304 40.126 57.3414 41.8245 56.2976 42.8731L45.0336 54.1884L53.9112 45.2628C54.9882 44.1799 56.7342 44.1595 57.8364 45.2168C58.9632 46.2978 58.9885 48.0915 57.8927 49.2039L48.4615 58.7778L56.275 50.846C57.2059 49.9011 58.7215 49.874 59.6855 50.7851C60.6805 51.7255 60.7059 53.3007 59.7419 54.2727L47.6154 66.5L41.672 71.5429C35.8595 76.4746 27.1395 75.7143 22.2684 69.8509C17.8361 64.5156 18.0899 56.7096 22.8596 51.6736L24 50.4696Z" fill="#111B24" stroke="white" stroke-linejoin="bevel"/>
<path d="M22 13.5L17.5 17L13 13.5" stroke="white" stroke-opacity="0.07" stroke-linecap="square"/>
<path d="M22 16.5L17.5 20L13 16.5" stroke="white" stroke-opacity="0.07" stroke-linecap="square"/>
<path d="M84 81C84 81.7956 83.6839 82.5587 83.1213 83.1213C82.5587 83.6839 81.7956 84 81 84C80.2044 84 79.4413 83.6839 78.8787 83.1213C78.3161 82.5587 78 81.7956 78 81L81 81H84Z" fill="white" fill-opacity="0.07"/>
<path d="M78 78C78 77.2043 78.3161 76.4413 78.8787 75.8787C79.4413 75.3161 80.2044 75 81 75C81.7956 75 82.5587 75.3161 83.1213 75.8787C83.6839 76.4413 84 77.2044 84 78L81 78L78 78Z" fill="white" fill-opacity="0.07"/>
</svg>
