<svg width="116" height="37" viewBox="0 0 116 37" fill="none" xmlns="http://www.w3.org/2000/svg">
<path fill-rule="evenodd" clip-rule="evenodd" d="M6.93119 26.3588C9.41882 26.3588 10.923 24.9795 10.923 22.4432V20.1071C10.923 17.6154 9.72737 16.7254 7.91468 16.414L5.04137 15.969C4.71354 15.9245 4.5207 15.6575 4.5207 15.2571C4.5207 14.8566 4.71354 14.5896 5.04137 14.5896H9.53452C10.0166 14.5896 10.2287 14.3449 10.2287 13.7887V11.1412C10.2287 10.585 10.0166 10.3403 9.53452 10.3403H4.13502C1.62811 10.3403 0.14325 11.7196 0.14325 14.2559V16.592C0.14325 19.0837 1.31957 19.9736 3.13226 20.2851L6.02485 20.7523C6.35267 20.7968 6.52623 20.9971 6.52623 21.5088C6.52623 21.8647 6.35267 22.154 6.02485 22.154H0.837471C0.355372 22.154 0.14325 22.3987 0.14325 22.9549V25.5579C0.14325 26.1141 0.355372 26.3588 0.837471 26.3588H6.93119ZM18.9632 26.3588C19.4453 26.3588 19.6575 26.1141 19.6575 25.5579V14.6341H22.4922C22.9743 14.6341 23.1864 14.3894 23.1864 13.8332V11.1412C23.1864 10.585 22.9743 10.3403 22.4922 10.3403H12.3103C11.8282 10.3403 11.6161 10.585 11.6161 11.1412V13.8332C11.6161 14.3894 11.8282 14.6341 12.3103 14.6341H15.145V25.5579C15.145 26.1141 15.3571 26.3588 15.8392 26.3588H18.9632ZM36.2984 22.154C36.2984 24.8682 35.1413 26.6925 30.3203 26.6925C25.4994 26.6925 24.323 24.8682 24.323 22.154V14.5674C24.323 11.8531 25.4994 10.0065 30.3203 10.0065C35.1413 10.0065 36.2984 11.8531 36.2984 14.5674V22.154ZM28.7005 21.353C28.7005 21.9537 28.9319 22.3987 30.3203 22.3987C31.7281 22.3987 31.9402 21.9537 31.9402 21.353V15.3683C31.9402 14.7899 31.7281 14.3449 30.3203 14.3449C28.9319 14.3449 28.7005 14.7899 28.7005 15.3683V21.353ZM47.559 26.3588C48.0411 26.3588 48.2533 26.1141 48.2533 25.5579V22.9104C48.2533 22.3542 48.0411 22.1095 47.559 22.1095H43.683C42.873 22.1095 42.5066 21.7757 42.5066 21.0415V15.7465C42.5066 14.9901 42.873 14.6341 43.683 14.6341H47.559C48.0411 14.6341 48.2533 14.3894 48.2533 13.8332V11.1412C48.2533 10.585 48.0411 10.3403 47.559 10.3403H42.8538C39.6141 10.3403 38.1099 11.7864 38.1099 14.9011V21.8202C38.1099 24.9127 39.6141 26.3588 42.8538 26.3588H47.559ZM53.6902 26.3588C54.1723 26.3588 54.3844 26.1141 54.3844 25.5579V20.4631H56.9299C57.3349 20.4631 57.547 20.7301 57.547 21.2195V25.5579C57.547 26.1141 57.7591 26.3588 58.2412 26.3588H61.2109C61.693 26.3588 61.9052 26.1141 61.9052 25.5579V19.284C61.9052 17.5041 60.9795 16.3472 59.5332 16.2582L61.5002 11.0744C61.6737 10.6072 61.5195 10.3403 61.0759 10.3403H58.1062C57.6048 10.3403 57.3349 10.5405 57.142 11.0744L55.1558 16.2582H54.3844V11.1412C54.3844 10.585 54.1723 10.3403 53.6902 10.3403H50.7012C50.2191 10.3403 50.007 10.585 50.007 11.1412V25.5579C50.007 26.1141 50.2191 26.3588 50.7012 26.3588H53.6902ZM67.6506 26.3588C68.1327 26.3588 68.3449 26.1141 68.3449 25.5579V20.6188H71.5653V25.5579C71.5653 26.1141 71.7774 26.3588 72.2595 26.3588H75.2485C75.7306 26.3588 75.9427 26.1141 75.9427 25.5579V11.1412C75.9427 10.585 75.7306 10.3403 75.2485 10.3403H72.2595C71.7774 10.3403 71.5653 10.585 71.5653 11.1412V15.969H68.3449V11.1412C68.3449 10.585 68.1327 10.3403 67.6506 10.3403H64.6616C64.1795 10.3403 63.9674 10.585 63.9674 11.1412V25.5579C63.9674 26.1141 64.1795 26.3588 64.6616 26.3588H67.6506ZM87.8205 26.3588C88.3026 26.3588 88.5147 26.1141 88.5147 25.5579V22.9549C88.5147 22.3987 88.3026 22.154 87.8205 22.154H82.4981V20.2406H86.2585C86.7406 20.2406 86.9527 19.9959 86.9527 19.4397V17.0592C86.9527 16.503 86.7406 16.2582 86.2585 16.2582H82.4981V14.5451H87.8205C88.3026 14.5451 88.5147 14.3004 88.5147 13.7442V11.1412C88.5147 10.585 88.3026 10.3403 87.8205 10.3403H78.8727C78.3906 10.3403 78.1785 10.585 78.1785 11.1412V25.5579C78.1785 26.1141 78.3906 26.3588 78.8727 26.3588H87.8205ZM95.3979 15.0123L94.4916 18.394H97.5192L96.6128 15.0123C96.5164 14.7454 96.4007 14.6341 96.2464 14.6341H95.7643C95.6101 14.6341 95.4944 14.7454 95.3979 15.0123ZM94.2988 25.5579C94.2988 26.1141 94.0866 26.3588 93.6045 26.3588H90.7698C90.2877 26.3588 90.0756 26.1141 90.0756 25.5579V19.6844C90.0756 18.7945 90.307 17.6821 90.8277 16.1247L92.5054 11.0744C92.6596 10.5627 92.9682 10.3403 93.4888 10.3403H98.6762C99.1776 10.3403 99.4861 10.5627 99.6404 11.0744L101.318 16.1247C101.839 17.6821 102.07 18.7945 102.07 19.6844V25.5579C102.07 26.1141 101.858 26.3588 101.376 26.3588H98.4641C97.9434 26.3588 97.712 26.1141 97.712 25.5579V22.4432H94.2988V25.5579ZM111.21 26.3588H104.711C104.229 26.3588 104.017 26.1141 104.017 25.5579V11.1412C104.017 10.585 104.229 10.3403 104.711 10.3403H111.21C114.449 10.3403 115.953 11.7864 115.953 14.8788V21.8202C115.953 24.9127 114.449 26.3588 111.21 26.3588ZM108.394 14.5896V22.154H110.689C111.306 22.154 111.595 21.8202 111.595 21.0638V15.6575C111.595 14.9233 111.306 14.5896 110.689 14.5896H108.394Z" fill="white"/>
</svg>
