<svg width="164" height="60" viewBox="0 0 164 60" fill="none" xmlns="http://www.w3.org/2000/svg">
<path d="M83.9238 18.8018C84.8539 18.8018 85.7158 18.7937 86.577 18.8155C86.6553 18.8175 86.7699 19.0019 86.7981 19.1183C87.317 21.2597 87.8256 23.4036 88.3359 25.5471C89.1491 28.9634 89.9612 32.3799 90.7774 35.7955C90.8129 35.944 90.8071 36.1866 91.0563 36.1082C91.1595 36.0757 91.2633 35.9051 91.2873 35.7819C92.3693 30.2375 93.4424 24.6914 94.5173 19.1456C94.5382 19.0376 94.5694 18.9316 94.6019 18.8002C95.0952 18.8002 95.5761 18.8002 96.0569 18.8002C97.1337 18.8003 98.2105 18.8064 99.2872 18.7955C99.5196 18.7931 99.6112 18.853 99.6575 19.0967C100.542 23.7553 101.439 28.4118 102.333 33.0687C102.508 33.9802 102.685 34.8915 102.858 35.8033C102.89 35.97 102.892 36.1277 103.143 36.1301C103.382 36.1323 103.413 35.992 103.455 35.8217C104.514 31.4868 105.575 27.1524 106.635 22.8178C106.938 21.5797 107.244 20.3422 107.537 19.1017C107.589 18.8805 107.673 18.7893 107.917 18.7941C108.744 18.8104 109.572 18.8003 110.443 18.8003C110.411 18.9561 110.391 19.0732 110.363 19.1885C108.82 25.5696 107.277 31.9509 105.73 38.3311C105.596 38.8858 105.706 38.8101 105.129 38.8115C103.727 38.8151 102.324 38.8055 100.923 38.8193C100.666 38.8218 100.576 38.7381 100.53 38.4968C99.4703 32.9379 98.4045 27.3802 97.3374 21.8227C97.3101 21.6807 97.3211 21.4592 97.0863 21.5236C96.9895 21.5501 96.881 21.7005 96.8596 21.8104C95.787 27.3338 94.7234 32.859 93.6584 38.3838C93.6331 38.5149 93.603 38.6451 93.5716 38.7925H88.6197C87.0603 32.154 85.4991 25.5077 83.9238 18.8018V18.8018Z" fill="white"/>
<path d="M36.4416 31.6529H39.052C39.1022 31.9468 39.146 32.2416 39.2035 32.5337C39.665 34.8802 41.0547 36.0977 43.4428 36.2219C44.4106 36.2723 45.3775 36.2225 46.2911 35.8578C47.3192 35.4475 48.0278 34.7503 48.1328 33.5917C48.2361 32.4529 47.957 31.4715 46.9635 30.7664C46.0491 30.1175 45.0105 29.7795 43.9529 29.4771C42.8975 29.1754 41.8342 28.9001 40.7855 28.5772C40.3714 28.4497 39.9746 28.2484 39.5921 28.0402C37.8241 27.0779 37.024 25.5775 37.1555 23.5803C37.3053 21.3063 38.4588 19.7501 40.6084 19.009C42.6117 18.3184 44.65 18.3264 46.6358 19.0984C48.7693 19.9278 50.1448 21.7882 50.1869 24.4857H47.5654C47.5147 24.2872 47.4634 24.0831 47.4103 23.8795C47.0123 22.3542 46.0216 21.4951 44.4629 21.2907C43.3544 21.1453 42.2674 21.2159 41.2387 21.7004C40.4766 22.0592 39.9855 22.6302 39.8943 23.4923C39.7984 24.3994 40.0745 25.1636 40.9155 25.5785C41.7452 25.9877 42.6099 26.3397 43.4863 26.6378C44.5562 27.0018 45.6632 27.2567 46.7364 27.6119C47.2851 27.7935 47.8168 28.0537 48.3188 28.343C50.2689 29.4668 51.1543 31.2951 50.8253 33.5185C50.7308 34.1567 50.6289 34.8127 50.3954 35.4077C49.7263 37.112 48.4104 38.1737 46.6787 38.6331C44.5575 39.1957 42.421 39.1114 40.3736 38.273C37.9247 37.2702 36.6737 35.3686 36.446 32.7687C36.4143 32.4061 36.4416 32.0384 36.4416 31.6529V31.6529Z" fill="white"/>
<path d="M72.3837 26.109C73.5087 24.9621 74.8753 24.6434 76.3114 24.6274C77.2349 24.6172 78.1786 24.696 79.081 24.8869C81.0092 25.2947 82.2339 26.5552 82.793 28.3996C83.4402 30.5349 83.4534 32.7218 82.8367 34.8597C82.1892 37.1043 80.6709 38.4119 78.2914 38.6988C76.6172 38.9006 74.9975 38.8593 73.4865 38.0149C73.0882 37.7924 72.7154 37.5247 72.2774 37.2433L71.9817 38.7887H69.7082C69.7023 38.6569 69.6923 38.5368 69.6923 38.4168C69.6915 32.0046 69.6943 25.5925 69.6841 19.1803C69.6835 18.8402 69.7699 18.7373 70.1142 18.753C70.7522 18.782 71.3929 18.775 72.0315 18.7551C72.3169 18.7462 72.3902 18.8427 72.389 19.1171C72.3793 21.288 72.3836 23.4589 72.3837 25.6299C72.3837 25.7611 72.3837 25.8923 72.3837 26.109V26.109ZM76.4652 27.2442L76.4595 27.2786C76.0901 27.2996 75.7197 27.3088 75.3516 27.3437C73.6543 27.5048 72.8455 28.2263 72.6391 29.9039C72.5265 30.8193 72.5201 31.7558 72.5583 32.6789C72.5829 33.2723 72.7221 33.8761 72.9057 34.4444C73.2003 35.3558 73.8781 35.9147 74.8302 35.9957C75.7973 36.078 76.7779 36.0965 77.7467 36.0411C79.0521 35.9665 79.7604 35.3414 80.1084 34.0755C80.4118 32.9721 80.4402 31.8398 80.3334 30.7115C80.2761 30.1055 80.1579 29.4926 79.9688 28.9148C79.7057 28.1113 79.1007 27.6167 78.2629 27.4665C77.6695 27.3601 77.0648 27.3161 76.4652 27.2442H76.4652Z" fill="white"/>
<path d="M123.892 36.1228V38.8127H123.175C122.132 38.8127 121.089 38.7988 120.047 38.8213C119.739 38.8279 119.639 38.7189 119.602 38.4395C119.551 38.0654 119.463 37.6963 119.387 37.3046C119.108 37.5578 118.876 37.8136 118.601 38.0069C117.955 38.4606 117.216 38.6856 116.436 38.771C115.357 38.8891 114.284 38.8781 113.24 38.5414C110.105 37.5311 109.66 34.1917 110.491 32.3496C111.03 31.1557 112.057 30.5493 113.247 30.1614C114.206 29.8484 115.201 29.7806 116.201 29.7732C117.099 29.7666 117.996 29.7717 118.893 29.7717C119.014 29.7717 119.135 29.7717 119.307 29.7717C119.307 29.5182 119.312 29.2986 119.306 29.0792C119.293 28.513 119.275 27.9468 119.258 27.3807C118.69 27.368 118.121 27.3458 117.552 27.3444C115.702 27.3397 113.851 27.3426 112.001 27.3426H111.588V24.6545H122V25.0877C122 28.2878 121.998 31.488 122.002 34.6881C122.003 35.1533 122.034 35.6185 122.052 36.0837C122.508 36.0967 122.965 36.1107 123.422 36.1223C123.566 36.1259 123.71 36.1228 123.892 36.1228V36.1228ZM119.248 32.1707C117.978 32.2088 116.703 32.2244 115.43 32.2952C114.832 32.3285 114.273 32.5595 113.783 32.9155C112.773 33.6502 112.735 35.0149 113.716 35.7833C113.966 35.9793 114.265 36.1492 114.569 36.2355C115.742 36.569 116.884 36.4537 117.944 35.8377C118.592 35.4609 119.131 34.9366 119.232 34.1645C119.313 33.5414 119.248 32.8994 119.248 32.1707H119.248Z" fill="white"/>
<path d="M140.452 33.1197C140.29 34.5723 141.087 35.7497 142.491 36.1119C143.716 36.4281 144.961 36.4096 146.193 36.146C146.919 35.9906 147.537 35.6441 147.82 34.8857C147.843 34.823 147.948 34.7509 148.016 34.7504C148.845 34.7445 149.675 34.751 150.505 34.7562C150.522 34.7563 150.539 34.7804 150.582 34.8124C150.379 35.6778 149.991 36.4552 149.372 37.1143C148.593 37.9447 147.611 38.4182 146.518 38.6605C145.099 38.9751 143.67 38.9801 142.243 38.6942C140.107 38.2661 138.713 37.0012 138.11 34.9229C137.547 32.9814 137.509 31.0138 138.079 29.062C138.799 26.596 140.768 25.0128 143.333 24.7758C144.369 24.6801 145.398 24.6894 146.409 24.9377C148.636 25.4839 149.979 26.9355 150.601 29.0935C150.945 30.289 151.014 31.5146 150.958 32.753C150.945 33.0409 150.855 33.1274 150.561 33.1264C147.342 33.1157 144.123 33.1197 140.904 33.1197H140.452ZM148.22 30.5797C148.231 30.5155 148.245 30.482 148.24 30.4512C148.209 30.2413 148.181 30.0308 148.14 29.8227C147.871 28.4463 147.026 27.608 145.676 27.3004C144.782 27.0966 143.859 27.0856 142.984 27.3676C142.454 27.5386 141.933 27.8237 141.494 28.1674C140.737 28.7597 140.44 29.6051 140.426 30.5797H148.22Z" fill="white"/>
<path d="M63.144 24.6514H65.8116V38.7942H54.2339V24.6609H56.8952V25.083C56.8952 28.6185 56.8951 32.154 56.8953 35.6895C56.8953 35.9781 57.0422 36.1225 57.3359 36.1228C59.1188 36.1229 60.9018 36.1229 62.6847 36.1228C62.9906 36.1228 63.1437 35.9744 63.1439 35.6778C63.144 32.1534 63.144 28.6291 63.144 25.1048V24.6514Z" fill="white"/>
<path d="M163.628 36.1229V38.7855H155.079V27.3241C154.479 27.3241 153.923 27.3242 153.366 27.3241C153.198 27.3241 153.027 27.3402 152.863 27.3155C152.79 27.3046 152.674 27.2112 152.673 27.1538C152.661 26.3294 152.665 25.5047 152.665 24.6433H155.051V18.8291H157.767V24.6301H162.527V27.3259H157.786C157.778 27.4657 157.766 27.5739 157.766 27.6821C157.765 30.3673 157.77 33.0525 157.758 35.7376C157.757 36.044 157.839 36.1331 158.151 36.1302C159.833 36.1147 161.515 36.1229 163.197 36.1229H163.628Z" fill="white"/>
<path d="M129.863 38.7939H127.193C127.186 38.6819 127.172 38.565 127.172 38.4481C127.171 32.0265 127.173 25.6049 127.164 19.1832C127.164 18.8706 127.253 18.7836 127.559 18.7937C128.22 18.8156 128.882 18.8109 129.544 18.7952C129.796 18.7892 129.87 18.8702 129.868 19.1195C129.857 20.3612 129.863 21.6031 129.863 22.8449C129.863 28.0135 129.863 33.1822 129.863 38.3508V38.7939H129.863Z" fill="white"/>
<path d="M135.41 38.8127C134.548 38.8127 133.753 38.8131 132.958 38.8119C132.893 38.8118 132.829 38.8009 132.744 38.7932V18.8021C133.584 18.8021 134.401 18.7973 135.217 18.8111C135.282 18.8122 135.368 18.9322 135.402 19.0142C135.433 19.0909 135.41 19.1905 135.41 19.28C135.41 25.6341 135.41 31.9882 135.41 38.3424V38.8127L135.41 38.8127Z" fill="white"/>
<path fill-rule="evenodd" clip-rule="evenodd" d="M6.02977 7L28.2906 18.6858L28.2905 25.0695L22.2609 28.0102L8.43348 20.7519V22.4683L28.2903 32.9221V39.2011L3.69727 50.1958V50.184L0 48.2431V34.0977L4.74417 32.0222L8.43384 33.9524L8.43348 37.4873L14.3442 34.9475L0 27.4176V22.9176V16.3246V9.94087L6.02977 7Z" fill="white"/>
<path d="M22.2607 21.6267V28.0104L28.2905 25.0695V18.6858L22.2607 21.6267Z" fill="#CFCFCF"/>
<path d="M3.69763 36.0387L0 34.0977V48.2431L3.69763 50.1841V36.0387Z" fill="#E8E8E8"/>
<path d="M22.2609 28.0104V21.6266L0 9.94092V16.3246V22.9177V27.4176L14.3444 34.9476L19.0582 32.9221L3.69763 24.8587V18.2657L22.2609 28.0104Z" fill="#E8E8E8"/>
<path d="M3.69775 18.2656V24.8586L8.43396 22.4683V20.7519L3.69775 18.2656Z" fill="#CFCFCF"/>
<path d="M8.43396 41.7994V33.9525L3.69775 36.0388V43.9168V47.3478V50.1959L28.2908 39.2012V32.9221L8.43396 41.7994Z" fill="#CFCFCF"/>
</svg>
