<svg width="183" height="60" viewBox="0 0 183 60" fill="none" xmlns="http://www.w3.org/2000/svg">
<g clip-path="url(#clip0_1951_8384)">
<path fill-rule="evenodd" clip-rule="evenodd" d="M31.4937 30.6561C30.8875 31.2623 29.8342 30.9871 29.4765 30.2081C29.406 30.0546 29.3677 29.8899 29.3677 29.7209V16.2904C29.3677 14.6662 28.051 13.3496 26.4268 13.3496C24.8026 13.3496 23.4859 14.6662 23.4859 16.2904V23.088C23.4859 23.6725 22.8872 24.0693 22.3298 23.8931C21.977 23.7817 21.7222 23.4605 21.7222 23.0906V12.1733C21.7222 10.5491 20.4056 9.23242 18.7813 9.23242C17.1572 9.23242 15.8405 10.5491 15.8405 12.1733V23.0898C15.8405 23.4599 15.5855 23.7813 15.2325 23.8929C14.6748 24.0691 14.0757 23.6721 14.0757 23.0872V16.2904C14.0757 14.6662 12.759 13.3496 11.1348 13.3496C9.5106 13.3496 8.19399 14.6662 8.19399 16.2904V29.7255C8.19399 29.8913 8.15635 30.0528 8.08712 30.2034C7.73681 30.9653 6.7074 31.232 6.11441 30.6391L5.02035 29.545C3.87187 28.3966 2.00983 28.3966 0.861353 29.545C-0.28712 30.6935 -0.287117 32.5555 0.861359 33.704L9.5069 42.3495C11.6599 45.1043 15.0135 46.8751 18.7807 46.8751C22.3913 46.8751 25.6219 45.2485 27.7798 42.688L36.7638 33.704C37.9123 32.5555 37.9123 30.6935 36.7638 29.545C35.6154 28.3965 33.7533 28.3965 32.6049 29.545L31.4937 30.6561ZM18.7801 42.1699C23.9775 42.1699 28.1908 36.2882 28.1908 36.2882C28.1908 36.2882 23.9775 30.4065 18.7801 30.4065C13.5827 30.4065 9.36932 36.2882 9.36932 36.2882C9.36932 36.2882 13.5827 42.1699 18.7801 42.1699ZM94.6487 19.8691H90.1592V15.5868H94.6487V19.8691ZM94.5105 39.7955H90.3316V22.5973H94.5105V39.7955ZM54.6685 39.7955H50.179V19.4891H41.7871V15.6213H63.1988V19.4891H54.6685V39.7955ZM66.0869 40.3136C62.7714 40.3136 60.5617 38.4143 60.5617 35.3752C60.5617 33.1995 61.5286 31.5764 63.4966 30.5749C65.4652 29.5389 68.0902 28.8827 71.371 28.5719V27.9848C71.371 26.2236 70.4035 25.2911 68.2278 25.2911C65.8799 25.2911 64.6018 26.3963 64.153 28.1575L60.3199 27.156C60.6652 24.5659 63.566 22.0794 68.2278 22.0794C72.9591 22.0794 75.5493 24.3241 75.5493 28.5028V35.4443C75.5493 36.3076 75.6876 36.4803 76.5857 36.4803H78.2084V39.7956H76.4128C73.5807 39.7956 72.9249 38.8977 72.8555 36.2041H71.371C70.6452 38.656 68.8842 40.3136 66.0869 40.3136ZM67.4338 37.1365C69.5747 37.1365 71.371 35.6515 71.371 32.716V31.3347C67.2609 31.7836 64.8435 32.7506 64.8435 34.9608C64.8435 36.3422 65.7764 37.1365 67.4338 37.1365ZM80.9561 39.7955H85.1691V15.6213H80.9561V39.7955ZM98.0864 35.3752C98.8464 38.4143 102.092 40.2791 105.96 40.2791C110.691 40.2791 113.558 38.1034 113.558 34.7536C113.558 33.165 112.971 31.9563 111.831 31.1275C110.691 30.2986 109.31 29.7116 107.687 29.4007L105.443 28.9863C103.371 28.5719 102.818 28.0539 102.818 27.0524C102.818 25.9127 103.819 25.1185 105.65 25.1185C107.618 25.1185 108.861 26.2581 109.414 27.7431L112.971 26.2236C112.177 24.1169 109.897 22.0794 105.788 22.0794C101.678 22.0794 98.8117 24.2551 98.8117 27.4322C98.8117 30.6785 100.884 31.8872 104.372 32.6125L106.651 33.0268C108.585 33.4067 109.207 34.0974 109.207 35.168C109.207 36.3767 108.102 37.1365 106.133 37.1365C103.405 37.1365 102.299 35.6169 101.989 34.0974L98.0864 35.3752ZM121.525 39.7956H117.312V22.5974H121.042C121.042 23.5989 120.42 25.1185 119.695 26.1199H121.663C122.32 23.7716 123.804 22.0794 126.326 22.0794C128.639 22.0794 130.469 23.5299 131.057 26.1199H132.541C133.267 23.7371 135.166 22.0794 137.514 22.0794C140.83 22.0794 143.247 24.3933 143.247 28.5719V39.7956H139.069V29.2972C139.069 26.7761 137.929 25.6019 135.96 25.6019C134.89 25.6019 134.061 25.9127 133.543 26.5344C132.473 27.7776 132.369 29.3317 132.369 31.3002V39.7956H128.225V29.2972C128.225 26.8452 127.188 25.6019 125.117 25.6019C124.046 25.6019 123.252 25.9127 122.734 26.5344C121.663 27.7776 121.525 29.3662 121.525 31.3002V39.7956ZM147.134 35.3752C147.134 38.4143 149.345 40.3136 152.66 40.3136C155.457 40.3136 157.219 38.656 157.944 36.2041H159.429C159.498 38.8977 160.154 39.7956 162.986 39.7956H164.782V36.4803H163.158C162.26 36.4803 162.122 36.3076 162.122 35.4443V28.5028C162.122 24.3241 159.532 22.0794 154.801 22.0794C150.139 22.0794 147.238 24.5659 146.893 27.156L150.726 28.1575C151.175 26.3963 152.453 25.2911 154.801 25.2911C156.977 25.2911 157.944 26.2236 157.944 27.9848V28.5719C154.663 28.8827 152.039 29.5389 150.07 30.5749C148.101 31.5764 147.134 33.1995 147.134 35.3752ZM157.944 32.716C157.944 35.6515 156.148 37.1365 154.007 37.1365C152.349 37.1365 151.417 36.3422 151.417 34.9608C151.417 32.7506 153.834 31.7836 157.944 31.3347V32.716ZM171.742 39.7956H167.528V22.5974H171.431C171.396 23.5989 170.706 25.153 169.739 26.5689H171.707C172.467 24.2551 174.263 22.0794 177.094 22.0794C180.963 22.0794 183 24.4968 183 28.4683V39.7956H178.787V29.2972C178.787 26.8106 177.647 25.6019 175.679 25.6019C174.505 25.6019 173.606 25.9473 173.019 26.6725C171.88 28.0539 171.742 29.8497 171.742 31.9218V39.7956ZM18.7802 39.8173C20.7293 39.8173 22.3093 38.2373 22.3093 36.2883C22.3093 34.3393 20.7293 32.7592 18.7802 32.7592C16.8312 32.7592 15.2512 34.3393 15.2512 36.2883C15.2512 38.2373 16.8312 39.8173 18.7802 39.8173Z" fill="white"/>
</g>
<defs>
<clipPath id="clip0_1951_8384">
<rect width="183" height="60" fill="white"/>
</clipPath>
</defs>
</svg>
