<svg width="96" height="96" viewBox="0 0 96 96" fill="none" xmlns="http://www.w3.org/2000/svg">
<path d="M82.5 13.5L78 17L73.5 13.5" stroke="#1B2B38" stroke-linecap="square"/>
<path d="M82.5 16.5L78 20L73.5 16.5" stroke="#1B2B38" stroke-linecap="square"/>
<path d="M18 81C18 81.7956 17.6839 82.5587 17.1213 83.1213C16.5587 83.6839 15.7956 84 15 84C14.2044 84 13.4413 83.6839 12.8787 83.1213C12.3161 82.5587 12 81.7956 12 81L15 81H18Z" fill="#1B2B38"/>
<path d="M12 78C12 77.2043 12.3161 76.4413 12.8787 75.8787C13.4413 75.3161 14.2044 75 15 75C15.7956 75 16.5587 75.3161 17.1213 75.8787C17.6839 76.4413 18 77.2044 18 78L15 78L12 78Z" fill="#1B2B38"/>
<circle cx="48" cy="48" r="32.5" stroke="#3C5061" stroke-linejoin="bevel" stroke-dasharray="2 2"/>
<circle cx="48" cy="48" r="23.5" stroke="#1B2B38" stroke-linejoin="bevel"/>
<path d="M41.0409 18.4807C41.0409 15.7193 43.2795 13.4807 46.0409 13.4807H49.9592C52.7207 13.4807 54.9592 15.7193 54.9592 18.4807V40.8868C54.9592 42.0983 55.2737 43.289 55.8718 44.3426L68.9814 67.4353C70.8737 70.7685 68.4661 74.9038 64.6332 74.9038H31.3669C27.534 74.9038 25.1264 70.7685 27.0187 67.4353L40.1283 44.3426C40.7264 43.289 41.0409 42.0983 41.0409 40.8868V18.4807Z" fill="#111B24"/>
<path d="M41.0409 18.4807C41.0409 15.7193 43.2795 13.4807 46.0409 13.4807H49.9592C52.7207 13.4807 54.9592 15.7193 54.9592 18.4807V40.8868C54.9592 42.0983 55.2737 43.289 55.8718 44.3426L68.9814 67.4353C70.8737 70.7685 68.4661 74.9038 64.6332 74.9038H31.3669C27.534 74.9038 25.1264 70.7685 27.0187 67.4353L40.1283 44.3426C40.7264 43.289 41.0409 42.0983 41.0409 40.8868V18.4807Z" fill="#00EAC7" fill-opacity="0.06"/>
<path d="M41.0409 18.4807C41.0409 15.7193 43.2795 13.4807 46.0409 13.4807H49.9592C52.7207 13.4807 54.9592 15.7193 54.9592 18.4807V40.8868C54.9592 42.0983 55.2737 43.289 55.8718 44.3426L68.9814 67.4353C70.8737 70.7685 68.4661 74.9038 64.6332 74.9038H31.3669C27.534 74.9038 25.1264 70.7685 27.0187 67.4353L40.1283 44.3426C40.7264 43.289 41.0409 42.0983 41.0409 40.8868V18.4807Z" stroke="#00FFD9" stroke-width="2"/>
<path d="M41 19H37V13H59V19H55V35.1013C55 38.294 55.9551 41.4136 57.7426 44.059L71.5683 64.5211C75.1582 69.8341 71.3517 77 64.9396 77H31.0604C24.6483 77 20.8418 69.8341 24.4317 64.5211L38.2574 44.059C40.0449 41.4136 41 38.294 41 35.1013V19Z" fill="#111B24"/>
<path d="M41 19H37V13H59V19H55V35.1013C55 38.294 55.9551 41.4136 57.7426 44.059L71.5683 64.5211C75.1582 69.8341 71.3517 77 64.9396 77H31.0604C24.6483 77 20.8418 69.8341 24.4317 64.5211L38.2574 44.059C40.0449 41.4136 41 38.294 41 35.1013V19Z" fill="#00EAC7" fill-opacity="0.06"/>
<path d="M41 19H37V13H59V19H55V35.1013C55 38.294 55.9551 41.4136 57.7426 44.059L71.5683 64.5211C75.1582 69.8341 71.3517 77 64.9396 77H31.0604C24.6483 77 20.8418 69.8341 24.4317 64.5211L38.2574 44.059C40.0449 41.4136 41 38.294 41 35.1013V19Z" stroke="#00FFD9" stroke-width="2" stroke-linejoin="bevel"/>
<path fill-rule="evenodd" clip-rule="evenodd" d="M25 19.5H22V26H15.5V29H22V35.5H25V29H31.5V26H25V19.5Z" fill="#111B24"/>
<path d="M22 19.5V19L21.5 19.5H22ZM25 19.5H25.5L25 19V19.5ZM22 26V26.5L22.5 26H22ZM15.5 26V25.5L15 26H15.5ZM15.5 29H15L15.5 29.5V29ZM22 29H22.5L22 28.5V29ZM22 35.5H21.5L22 36V35.5ZM25 35.5V36L25.5 35.5H25ZM25 29V28.5L24.5 29H25ZM31.5 29V29.5L32 29H31.5ZM31.5 26H32L31.5 25.5V26ZM25 26H24.5L25 26.5V26ZM22 20H25V19H22V20ZM22.5 26V19.5H21.5V26H22.5ZM15.5 26.5H22V25.5H15.5V26.5ZM16 29V26H15V29H16ZM22 28.5H15.5V29.5H22V28.5ZM22.5 35.5V29H21.5V35.5H22.5ZM25 35H22V36H25V35ZM24.5 29V35.5H25.5V29H24.5ZM31.5 28.5H25V29.5H31.5V28.5ZM31 26V29H32V26H31ZM25 26.5H31.5V25.5H25V26.5ZM24.5 19.5V26H25.5V19.5H24.5Z" fill="white"/>
<mask id="path-11-outside-1_1943_12209" maskUnits="userSpaceOnUse" x="64" y="37" width="18" height="5" fill="black">
<rect fill="white" x="64" y="37" width="18" height="5"/>
<path d="M81 38V41H65L65 38L81 38Z"/>
</mask>
<path d="M81 38V41H65L65 38L81 38Z" fill="#111B24"/>
<path d="M81 38L82 38L81 37V38ZM81 41V42L82 41H81ZM65 41H64L65 42L65 41ZM65 38L65 37L64 38L65 38ZM80 38V41H82V38L80 38ZM81 40H65L65 42H81V40ZM66 41L66 38L64 38L64 41H66ZM65 39L81 39L81 37L65 37L65 39Z" fill="white" mask="url(#path-11-outside-1_1943_12209)"/>
<path d="M41 18.5H51" stroke="#00FFD9"/>
<circle cx="47" cy="46" r="2.5" stroke="#00EAC7"/>
<circle cx="53.5" cy="54.5" r="4" stroke="#00EAC7"/>
<circle cx="45.5" cy="65.5" r="6" stroke="#00EAC7"/>
</svg>
