<svg width="1174" height="542" viewBox="0 0 1174 542" fill="none" xmlns="http://www.w3.org/2000/svg">
<path d="M586 0H1174V159H792L586 271V0Z" fill="url(#paint0_radial_2149_8689)"/>
<path d="M586 542H1174V383H792L586 271V542Z" fill="url(#paint1_radial_2149_8689)"/>
<path d="M0 384L384 384L588 279L384 159L-1.96701e-05 159L0 384Z" fill="url(#paint2_radial_2149_8689)"/>
<circle cx="587" cy="271" r="111.591" fill="#111B24" stroke="#1B2B38" stroke-width="0.818182"/>
<g clip-path="url(#clip0_2149_8689)">
<path d="M625.415 272.762H643.885C644.104 272.763 644.321 272.72 644.523 272.636C644.725 272.553 644.909 272.43 645.063 272.276C645.218 272.121 645.341 271.937 645.424 271.735C645.508 271.533 645.55 271.316 645.55 271.097V257.777C645.55 257.336 645.375 256.912 645.062 256.6C644.75 256.288 644.327 256.112 643.885 256.112H618.004L597.613 210.317C597.439 209.927 597.157 209.596 596.8 209.362C596.443 209.129 596.027 209.003 595.6 209H578.95C578.521 209 578.101 209.125 577.741 209.358C577.381 209.592 577.097 209.925 576.922 210.317L556.547 256.112H530.665C530.223 256.112 529.8 256.288 529.488 256.6C529.175 256.912 529 257.336 529 257.777V271.097C529 271.316 529.042 271.533 529.126 271.735C529.209 271.937 529.332 272.121 529.487 272.276C529.641 272.43 529.825 272.553 530.027 272.636C530.229 272.72 530.446 272.763 530.665 272.762H549.135L529.155 317.658C529.043 317.911 528.995 318.188 529.016 318.464C529.038 318.74 529.128 319.006 529.278 319.239C529.428 319.471 529.634 319.663 529.877 319.795C530.12 319.928 530.392 319.999 530.669 320H545.532C545.961 320 546.381 319.875 546.74 319.642C547.1 319.408 547.385 319.075 547.559 318.683L587.275 229.48L626.991 318.683C627.165 319.075 627.45 319.408 627.81 319.642C628.169 319.875 628.589 320 629.018 320H643.881C644.159 320.001 644.433 319.932 644.677 319.799C644.921 319.667 645.129 319.476 645.28 319.243C645.432 319.01 645.522 318.743 645.544 318.467C645.566 318.19 645.519 317.912 645.406 317.658L625.415 272.762Z" fill="white"/>
</g>
<defs>
<radialGradient id="paint0_radial_2149_8689" cx="0" cy="0" r="1" gradientUnits="userSpaceOnUse" gradientTransform="translate(586 271) scale(588 271)">
<stop stop-color="#16232E"/>
<stop offset="1" stop-color="#16232E" stop-opacity="0"/>
</radialGradient>
<radialGradient id="paint1_radial_2149_8689" cx="0" cy="0" r="1" gradientUnits="userSpaceOnUse" gradientTransform="translate(586 271) scale(588 271)">
<stop stop-color="#16232E"/>
<stop offset="1" stop-color="#16232E" stop-opacity="0"/>
</radialGradient>
<radialGradient id="paint2_radial_2149_8689" cx="0" cy="0" r="1" gradientUnits="userSpaceOnUse" gradientTransform="translate(588 271) rotate(180) scale(588 225)">
<stop stop-color="#16232E"/>
<stop offset="1" stop-color="#16232E" stop-opacity="0"/>
</radialGradient>
<clipPath id="clip0_2149_8689">
<rect width="116.55" height="111" fill="white" transform="translate(529 209)"/>
</clipPath>
</defs>
</svg>
