<svg width="105" height="62" viewBox="0 0 105 62" fill="none" xmlns="http://www.w3.org/2000/svg">
<g clip-path="url(#clip0_2010_17702)">
<path d="M27.5648 58.2315C27.5648 58.2315 21.7992 61.0495 17.0302 58.9996C12.2605 56.9473 10.2942 50.8034 10.2942 50.8034C10.2936 50.8034 13.4199 49.2751 16.9735 49.288C18.2456 49.293 19.5717 49.4957 20.8289 50.0365C25.5985 52.0881 27.5648 58.2315 27.5648 58.2315Z" stroke="#00EAC7" stroke-miterlimit="10"/>
<path d="M8.52738 45.7411C5.6907 42.7764 4.83704 38.4536 4.83704 38.4536C4.83704 38.4536 10.8877 36.324 15.3901 38.916C17.8165 40.3126 19.2977 42.7949 20.1491 44.7873" stroke="#00EAC7" stroke-miterlimit="10"/>
<path d="M3.10799 33.4106C1.12111 29.8167 1 24.831 1 24.831C1 24.831 7.38964 24.3272 11.0867 27.9895C12.5634 29.4539 13.3871 31.3617 13.8439 33.1252" stroke="#00EAC7" stroke-miterlimit="10"/>
<path d="M4.96933 20.1674C4.209 17.0693 4.59189 13.7547 4.59189 13.7547C4.59189 13.7547 11.0017 13.7793 14.3886 17.7344C16.8611 20.6224 17.0396 24.8075 16.9552 26.8564" stroke="#00EAC7" stroke-miterlimit="10"/>
<path d="M8.74242 9.77889C7.91049 5.44883 10.048 1 10.0474 1C10.0474 1 16.1503 2.97609 18.1906 7.77701C19.1765 10.098 19.0348 12.6546 18.623 14.6773" stroke="#00EAC7" stroke-miterlimit="10"/>
<path d="M27.6577 58.2993L33.8112 61.2165" stroke="#00EAC7" stroke-miterlimit="10" stroke-linecap="round"/>
<path d="M77.0575 58.2315C77.0575 58.2315 82.8231 61.0495 87.5921 58.9996C92.3618 56.9473 94.3281 50.8034 94.3281 50.8034C94.3287 50.8034 91.2024 49.2751 87.6488 49.288C86.3767 49.293 85.0506 49.4957 83.7934 50.0365C79.0238 52.0881 77.0575 58.2315 77.0575 58.2315Z" stroke="#00EAC7" stroke-miterlimit="10"/>
<path d="M96.095 45.7411C98.9315 42.7764 99.7852 38.4536 99.7852 38.4536C99.7852 38.4536 93.7345 36.324 89.2323 38.916C86.8057 40.3126 85.3246 42.7949 84.4731 44.7873" stroke="#00EAC7" stroke-miterlimit="10"/>
<path d="M101.514 33.4106C103.501 29.8167 103.622 24.831 103.622 24.831C103.622 24.831 97.2326 24.3272 93.5356 27.9895C92.0589 29.4539 91.2352 31.3617 90.7784 33.1252" stroke="#00EAC7" stroke-miterlimit="10"/>
<path d="M99.6529 20.1674C100.413 17.0693 100.03 13.7547 100.03 13.7547C100.03 13.7547 93.6205 13.7793 90.2336 17.7344C87.7611 20.6224 87.5826 24.8075 87.6672 26.8564" stroke="#00EAC7" stroke-miterlimit="10"/>
<path d="M95.8799 9.77889C96.7118 5.44883 94.5743 1 94.5749 1C94.5749 1 88.472 2.97609 86.4317 7.77701C85.4458 10.098 85.5875 12.6546 85.9993 14.6773" stroke="#00EAC7" stroke-miterlimit="10"/>
<path d="M76.9646 58.2993L70.8112 61.2165" stroke="#00EAC7" stroke-miterlimit="10" stroke-linecap="round"/>
<path d="M33.24 24.754H25V26.866H28.008V35.954H30.216V26.866H33.24V24.754Z" fill="white"/>
<path d="M40.088 36.178C43.32 36.178 45.912 33.618 45.912 30.354C45.912 27.074 43.32 24.53 40.088 24.53C36.856 24.53 34.28 27.074 34.28 30.354C34.28 33.618 36.856 36.178 40.088 36.178ZM40.088 34.018C38.056 34.018 36.472 32.498 36.472 30.354C36.472 28.194 38.056 26.674 40.088 26.674C42.12 26.674 43.704 28.194 43.704 30.354C43.704 32.498 42.12 34.018 40.088 34.018Z" fill="white"/>
<path d="M52.5999 24.754H48.4239V35.954H50.6319V32.274H52.5999C54.7599 32.274 56.4239 30.61 56.4239 28.514C56.4239 26.418 54.7599 24.754 52.5999 24.754ZM52.5999 30.21H50.6319V26.818H52.5999C53.5439 26.818 54.2319 27.538 54.2319 28.514C54.2319 29.474 53.5439 30.21 52.5999 30.21Z" fill="white"/>
<path d="M63.1734 35.954H70.6614V33.826H66.4534L68.6454 31.634C69.7014 30.578 70.4854 29.41 70.4854 28.05C70.4854 25.81 68.7094 24.53 66.7894 24.53C65.2694 24.53 63.8134 25.298 63.0934 26.898L64.9494 27.986C65.3174 27.186 65.9574 26.674 66.8214 26.674C67.6694 26.674 68.2774 27.234 68.2774 28.13C68.2774 28.882 67.7174 29.618 66.9974 30.37L63.1734 34.306V35.954Z" fill="white"/>
<path d="M76.4783 28.834H75.3263L75.4703 26.818H79.7743V24.754H73.4223L72.9743 30.978H76.3663C77.4543 30.978 78.0943 31.602 78.0943 32.498C78.0943 33.41 77.4543 34.018 76.3023 34.018C75.1823 34.018 74.5583 33.538 74.2863 32.674L72.3983 33.778C73.0383 35.41 74.5583 36.178 76.3023 36.178C78.4143 36.178 80.3023 34.898 80.3023 32.498C80.3023 30.098 78.5263 28.834 76.4783 28.834Z" fill="white"/>
</g>
<defs>
<clipPath id="clip0_2010_17702">
<rect width="105" height="62" fill="white"/>
</clipPath>
</defs>
</svg>
