<svg width="96" height="96" viewBox="0 0 96 96" fill="none" xmlns="http://www.w3.org/2000/svg">
<circle cx="48" cy="48" r="32.5" stroke="white" stroke-opacity="0.2" stroke-dasharray="2 2"/>
<circle cx="48" cy="48" r="23.5" stroke="white" stroke-opacity="0.1"/>
<path fill-rule="evenodd" clip-rule="evenodd" d="M33.8791 34C37.1566 32.8203 39.5 29.6838 39.5 26C39.5 21.3056 35.6944 17.5 31 17.5C26.3056 17.5 22.5 21.3056 22.5 26C22.5 29.6838 24.8434 32.8203 28.1209 34H27C20.3726 34 15 39.3726 15 46V61H47V46C47 39.3726 41.6274 34 35 34H33.8791Z" fill="#111B24"/>
<path fill-rule="evenodd" clip-rule="evenodd" d="M23 26C23 21.5817 26.5817 18 31 18C35.4183 18 39 21.5817 39 26C39 30.4183 35.4183 34 31 34C26.5817 34 23 30.4183 23 26ZM35.1272 34C38.0216 32.5038 40 29.4829 40 26C40 21.0294 35.9706 17 31 17C26.0294 17 22 21.0294 22 26C22 29.4829 23.9784 32.5038 26.8728 34H26.5C20.1487 34 15 39.1487 15 45.5V61H16V45.5C16 41.2285 18.5506 37.5527 22.2119 35.9126L30.6692 43.3749C30.8582 43.5417 31.1418 43.5417 31.3308 43.3749L39.7881 35.9126C43.4494 37.5527 46 41.2285 46 45.5V61H47V45.5C47 39.1487 41.8513 34 35.5 34H35.1272ZM31 42.3332L23.2647 35.5079C24.2838 35.1782 25.3711 35 26.5 35H31H35.5C36.6289 35 37.7162 35.1782 38.7353 35.5079L31 42.3332ZM22 60.5V61H23V60.5V48.5V48H22V48.5V60.5Z" fill="white"/>
<path fill-rule="evenodd" clip-rule="evenodd" d="M67.8791 34C71.1566 32.8203 73.5 29.6838 73.5 26C73.5 21.3056 69.6944 17.5 65 17.5C60.3056 17.5 56.5 21.3056 56.5 26C56.5 29.6838 58.8434 32.8203 62.1209 34H61C54.3726 34 49 39.3726 49 46V61H81V46C81 39.3726 75.6274 34 69 34H67.8791Z" fill="#111B24"/>
<path fill-rule="evenodd" clip-rule="evenodd" d="M57 26C57 21.5817 60.5817 18 65 18C69.4183 18 73 21.5817 73 26C73 30.4183 69.4183 34 65 34C60.5817 34 57 30.4183 57 26ZM69.1272 34C72.0216 32.5038 74 29.4829 74 26C74 21.0294 69.9706 17 65 17C60.0294 17 56 21.0294 56 26C56 29.4829 57.9784 32.5038 60.8728 34H60.5C54.1487 34 49 39.1487 49 45.5V61H50V45.5C50 41.2285 52.5506 37.5527 56.2119 35.9126L64.6692 43.3749C64.8582 43.5417 65.1418 43.5417 65.3308 43.3749L73.7881 35.9126C77.4494 37.5527 80 41.2285 80 45.5V61H81V45.5C81 39.1487 75.8513 34 69.5 34H69.1272ZM65 42.3332L57.2647 35.5079C58.2838 35.1782 59.3711 35 60.5 35H65H69.5C70.6289 35 71.7162 35.1782 72.7353 35.5079L65 42.3332ZM73 60.5V61H74V60.5V48.5V48H73V48.5V60.5Z" fill="white"/>
<path fill-rule="evenodd" clip-rule="evenodd" d="M47.9999 51C53.5228 51 57.9999 46.5228 57.9999 41C57.9999 35.4772 53.5228 31 47.9999 31C42.4771 31 37.9999 35.4772 37.9999 41C37.9999 46.5228 42.4771 51 47.9999 51ZM47.9999 51H41.9999C35.3725 51 29.9999 56.3726 29.9999 63V77L38.4999 82V86.5H57.4999V82L65.9999 77V63C65.9999 56.3726 60.6274 51 53.9999 51H47.9999Z" fill="#111B24"/>
<path fill-rule="evenodd" clip-rule="evenodd" d="M47.9999 51C53.5228 51 57.9999 46.5228 57.9999 41C57.9999 35.4772 53.5228 31 47.9999 31C42.4771 31 37.9999 35.4772 37.9999 41C37.9999 46.5228 42.4771 51 47.9999 51ZM47.9999 51H41.9999C35.3725 51 29.9999 56.3726 29.9999 63V77L38.4999 82V86.5H57.4999V82L65.9999 77V63C65.9999 56.3726 60.6274 51 53.9999 51H47.9999Z" fill="#00EAC7" fill-opacity="0.06"/>
<path fill-rule="evenodd" clip-rule="evenodd" d="M48 32C43.0294 32 39 36.0294 39 41C39 45.9706 43.0294 50 48 50C52.9706 50 57 45.9706 57 41C57 36.0294 52.9706 32 48 32ZM59 41C59 44.7227 57.1507 48.0135 54.3206 50.0039C61.3522 50.1741 67 55.9275 67 63V66.0801V77C67 77.3544 66.8125 77.6823 66.507 77.8619L58.007 82.8619L56.993 81.1381L65 76.4281V66.0801V63C65 57.8786 61.5001 53.5747 56.7616 52.3495L48.3201 59.3841C48.1347 59.5386 47.8653 59.5386 47.6799 59.3841L39.2384 52.3495C34.4999 53.5747 31 57.8786 31 63V66.0801V76.4281L39.007 81.1381L37.993 82.8619L29.493 77.8619C29.1875 77.6823 29 77.3544 29 77V66.0801V63C29 55.9275 34.6478 50.1741 41.6794 50.0039C38.8493 48.0135 37 44.7227 37 41C37 34.9249 41.9249 30 48 30C54.0751 30 59 34.9249 59 41ZM40.5023 52.1011L48 58.3491L55.4977 52.1011C55.008 52.0344 54.508 52 54 52H48H42C41.492 52 40.992 52.0344 40.5023 52.1011ZM38.9961 72.6318L35.4961 70.6318L34.5039 72.3682L38.0039 74.3682L38.9961 72.6318ZM61.4961 72.3682L57.9961 74.3682L57.0039 72.6318L60.5039 70.6318L61.4961 72.3682Z" fill="#00EAC7"/>
<path d="M38.5 67.5H57.5V86.5H38.5V67.5Z" stroke="#00EAC7" stroke-linejoin="round"/>
<path d="M44 78L47 80.5L53 73.5" stroke="#00EAC7" stroke-width="2" stroke-linecap="square" stroke-linejoin="round"/>
<path d="M83.5 16.5V12.5H79.5" stroke="white" stroke-opacity="0.07" stroke-linecap="square"/>
<path d="M81.5 18.5V14.5H77.5" stroke="white" stroke-opacity="0.07" stroke-linecap="square"/>
<path d="M15 78L18 81L15 84L12 81L15 78Z" fill="white" fill-opacity="0.07"/>
</svg>
