<svg width="210" height="60" viewBox="0 0 210 60" fill="none" xmlns="http://www.w3.org/2000/svg">
<path d="M30.9348 32.3875C30.3049 32.7725 29.5701 32.8425 29.0102 32.5275C28.3103 32.1076 27.8904 31.1628 27.8904 29.868V25.9136C27.8904 24.0239 27.1555 22.6592 25.8957 22.3092C23.761 21.6793 22.1513 24.3039 21.5564 25.2837L17.777 31.3377V23.884C17.742 22.1692 17.1821 21.1544 16.1323 20.8395C15.4324 20.6295 14.3826 20.7345 13.3678 22.2742L4.93418 35.782C3.81436 33.6473 3.21946 31.2677 3.21946 28.8531C3.21946 20.6995 9.76337 14.0856 17.777 14.0856C25.7907 14.0856 32.3346 20.6995 32.3346 28.8531V28.8881V28.9231C32.4046 30.4979 31.9147 31.7577 30.9348 32.3875ZM35.5541 28.8531V28.8181V28.7831C35.5191 18.8798 27.5404 10.7961 17.777 10.7961C7.97867 10.7961 0 18.8798 0 28.8531C0 38.7915 7.97867 46.9101 17.777 46.9101C22.2913 46.9101 26.5606 45.1954 29.85 42.0809C30.5149 41.451 30.5499 40.4362 29.92 39.7713C29.3251 39.1064 28.3103 39.0714 27.6454 39.6663C27.6454 39.6663 27.6454 39.6663 27.6104 39.7013C24.9508 42.2209 21.3814 43.6557 17.7071 43.6557C13.4028 43.6557 9.55341 41.766 6.89385 38.7565L14.4876 26.5785V32.2126C14.4876 34.9071 15.5374 35.782 16.4123 36.0269C17.2871 36.2719 18.6169 36.0969 20.0517 33.8223L24.216 27.0684C24.3559 26.8585 24.4609 26.6485 24.6009 26.5085V29.938C24.6009 32.4575 25.6157 34.4872 27.3654 35.467C28.9402 36.3769 30.9348 36.2719 32.5796 35.2571C34.6092 33.9273 35.6941 31.6177 35.5541 28.8531ZM60.33 22.6942C60.7499 22.9391 61.1348 23.534 61.1348 24.0589C61.1348 24.8988 60.4349 25.5987 59.6301 25.5987C59.4201 25.5987 59.2451 25.5287 59.0702 25.4937C58.1253 24.7938 56.9355 24.3389 55.6757 24.3389C52.7012 24.3389 50.6716 26.7535 50.6716 29.763C50.6716 32.7725 52.7362 35.1521 55.6757 35.1521C57.1455 35.1521 58.4753 34.5572 59.4551 33.6123C59.7001 33.4374 60.015 33.3324 60.33 33.3324C61.1348 33.3324 61.7647 33.9623 61.7647 34.7672C61.7647 35.2921 61.4498 35.747 61.0648 35.9919C59.6301 37.2167 57.7054 38.0216 55.7107 38.0216C51.1615 38.0216 47.4521 34.2772 47.4521 29.658C47.4521 25.0388 51.1615 21.2944 55.7107 21.2944C57.3904 21.2594 59.0002 21.7843 60.33 22.6942ZM68.6586 26.1936C71.773 26.1936 74.3626 28.8181 74.3626 32.0726C74.3626 35.2921 71.738 38.0566 68.6586 38.0566C65.4041 38.0566 62.7096 35.3271 62.7096 32.0726C62.7096 28.8181 65.4041 26.1936 68.6586 26.1936ZM68.6236 35.1521C69.9883 35.1521 71.1431 33.8573 71.1431 32.1076C71.1431 30.3579 69.9883 29.2381 68.6236 29.2381C67.1538 29.2381 65.929 30.3229 65.929 32.1076C65.929 33.8223 67.1538 35.1521 68.6236 35.1521ZM76.3223 36.2369V27.9783C76.3223 27.0684 77.0222 26.3336 77.932 26.3336C78.8069 26.3336 79.5417 27.0684 79.5417 27.9783V36.2369C79.5417 37.1468 78.8069 37.8816 77.932 37.8816C77.0572 37.8816 76.3223 37.1118 76.3223 36.2369ZM76.0773 23.2191C76.0773 22.1343 76.9172 21.2944 77.932 21.2944C78.9818 21.2944 79.8217 22.1692 79.8217 23.2191C79.8217 24.2689 78.9818 25.1088 77.932 25.1088C76.8822 25.0738 76.0773 24.2339 76.0773 23.2191ZM85.7007 31.7577V36.2369C85.7007 37.1468 84.9658 37.8816 84.091 37.8816C83.2161 37.8816 82.4813 37.1468 82.4813 36.2369V27.5933C82.4813 26.8935 83.0412 26.3336 83.7411 26.3336C84.4409 26.3336 84.9658 26.9285 84.9658 27.5933C86.2606 26.3685 87.4154 26.1936 88.5003 26.1936C91.7197 26.1936 93.1545 28.6082 93.1545 31.3727V36.2369C93.1545 37.1468 92.4196 37.8816 91.5447 37.8816C90.6699 37.8816 89.935 37.1468 89.935 36.2369V31.7577C89.935 30.3579 89.76 29.1681 87.7304 29.1681C86.2956 29.1681 85.7007 30.3579 85.7007 31.7577ZM103.583 33.4724C103.198 33.4724 102.953 33.2974 102.743 33.0524L98.9985 28.9931V36.2369C98.9985 37.1468 98.2636 37.8816 97.3888 37.8816C96.5139 37.8816 95.779 37.1468 95.779 36.2369V21.8893C95.884 21.6443 96.129 21.4694 96.3739 21.4694C96.6539 21.4694 96.8989 21.7143 97.0738 21.8893L103.058 28.6082C103.233 28.8181 103.443 28.9231 103.583 28.9231C103.688 28.9231 103.933 28.8181 104.108 28.6082L110.092 21.8893C110.267 21.7143 110.477 21.4694 110.792 21.4694C111.071 21.4694 111.316 21.6443 111.386 21.8893V36.2369C111.386 37.1468 110.687 37.8816 109.777 37.8816C108.902 37.8816 108.167 37.1468 108.167 36.2369V28.9931L104.423 33.0524C104.143 33.2974 103.898 33.4724 103.583 33.4724ZM119.05 35.1521C120.485 35.1521 121.71 33.8573 121.71 32.1076C121.71 30.3579 120.45 29.2031 119.05 29.2031C117.65 29.2031 116.496 30.3929 116.496 32.1076C116.496 33.7873 117.615 35.1521 119.05 35.1521ZM122.48 36.6218L122.41 36.2369C121.78 37.4617 119.785 38.0216 118.525 38.0216C115.516 38.0216 113.276 35.2921 113.276 32.0376C113.276 28.8181 115.551 26.1586 118.7 26.1586C119.225 26.1586 121.045 26.2986 122.445 27.9433L122.515 27.5584C122.515 26.8585 123.039 26.2986 123.739 26.2986C124.439 26.2986 124.999 26.8935 124.999 27.5584V36.5868C124.999 37.2867 124.439 37.8466 123.739 37.8466C123.004 37.8816 122.48 37.2867 122.48 36.6218ZM133.853 29.1681H133.503C131.473 29.2731 131.088 30.4279 131.088 31.7577V36.2369C131.088 37.1468 130.353 37.8816 129.478 37.8816C128.604 37.8816 127.869 37.1468 127.869 36.2369V27.5933C127.869 26.8935 128.429 26.3336 129.128 26.3336C129.828 26.3336 130.353 26.9285 130.353 27.5933C131.543 26.4735 132.523 26.2286 133.503 26.1936H133.818C134.588 26.1936 135.287 26.8585 135.287 27.6983C135.322 28.4682 134.623 29.1681 133.853 29.1681ZM146.276 35.467C146.416 35.712 146.521 35.957 146.521 36.2369C146.521 37.0768 145.751 37.8466 144.911 37.8466C144.351 37.8466 143.861 37.4267 143.476 36.9368L139.767 32.6325V36.2019C139.767 37.1118 139.032 37.8466 138.157 37.8466C137.282 37.8466 136.547 37.1118 136.547 36.2019V23.0791C136.547 22.1692 137.247 21.4344 138.157 21.4344C139.067 21.4344 139.767 22.1692 139.767 23.0791V31.2677L143.476 27.1734C143.861 26.7535 144.316 26.2986 144.876 26.2986C145.681 26.2986 146.416 27.0334 146.416 27.8733C146.416 28.1183 146.346 28.3982 146.206 28.6082L143.266 31.8276L146.276 35.467ZM152.575 29.2031C151.7 29.2031 150.265 29.658 150.265 31.0228H154.919C154.884 29.658 153.414 29.2031 152.575 29.2031ZM156.774 33.0874H150.265C150.265 35.0121 152.12 35.3271 152.925 35.3271C153.519 35.3271 154.359 35.2221 155.024 34.9071C155.234 34.7672 155.549 34.6622 155.864 34.6622C156.564 34.6622 157.159 35.2571 157.159 35.9919C157.159 36.4819 156.844 36.9018 156.459 37.1468C155.479 37.8816 154.184 38.0566 152.96 38.0566C149.705 38.0566 147.01 36.3069 147.01 32.2126C147.01 28.9931 148.655 26.1936 152.505 26.1936C155.619 26.1936 157.964 28.2232 158.034 31.8276C158.034 32.4925 157.474 33.0874 156.774 33.0874ZM165.732 38.0216H164.858C162.408 38.0216 160.973 36.9368 160.973 33.1224V29.1681H160.133C159.363 29.1681 158.699 28.4682 158.699 27.6983C158.699 26.8585 159.398 26.1936 160.133 26.1936H160.973V23.1491C160.973 22.2392 161.673 21.5044 162.583 21.5044C163.458 21.5044 164.193 22.2392 164.193 23.1491V26.1936H165.522C166.292 26.1936 166.957 26.8585 166.957 27.6983C166.957 28.4682 166.257 29.1681 165.522 29.1681H164.193V32.4925C164.193 34.6972 164.298 35.1521 165.277 35.1521H165.732C166.502 35.1521 167.167 35.782 167.167 36.5868C167.167 37.3567 166.502 38.0216 165.732 38.0216ZM181.305 22.6942C181.725 22.9391 182.11 23.534 182.11 24.0589C182.11 24.8988 181.41 25.5987 180.605 25.5987C180.395 25.5987 180.22 25.5287 180.045 25.4937C179.1 24.7938 177.91 24.3389 176.651 24.3389C173.676 24.3389 171.646 26.7535 171.646 29.763C171.646 32.7725 173.711 35.1521 176.651 35.1521C178.12 35.1521 179.45 34.5572 180.43 33.6123C180.675 33.4374 180.99 33.3324 181.305 33.3324C182.11 33.3324 182.74 33.9623 182.74 34.7672C182.74 35.2921 182.425 35.747 182.04 35.9919C180.605 37.2167 178.68 38.0216 176.686 38.0216C172.136 38.0216 168.427 34.2772 168.427 29.658C168.427 25.0388 172.136 21.2944 176.686 21.2944C178.365 21.2594 180.01 21.7843 181.305 22.6942ZM189.458 35.1521C190.893 35.1521 192.118 33.8573 192.118 32.1076C192.118 30.3579 190.858 29.2031 189.458 29.2031C188.024 29.2031 186.904 30.3929 186.904 32.1076C186.904 33.7873 188.059 35.1521 189.458 35.1521ZM192.888 36.6218L192.818 36.2369C192.188 37.4617 190.193 38.0216 188.934 38.0216C185.924 38.0216 183.684 35.2921 183.684 32.0376C183.684 28.8181 185.959 26.1586 189.108 26.1586C189.633 26.1586 191.453 26.2986 192.853 27.9433L192.923 27.5584C192.923 26.8585 193.448 26.2986 194.148 26.2986C194.848 26.2986 195.407 26.8935 195.407 27.5584V36.5868C195.407 37.2867 194.848 37.8466 194.148 37.8466C193.413 37.8816 192.888 37.2867 192.888 36.6218ZM204.191 35.1521C205.626 35.1521 206.746 33.7873 206.746 32.1076C206.746 30.3579 205.591 29.2031 204.191 29.2031C202.756 29.2031 201.531 30.3579 201.531 32.1076C201.531 33.8573 202.756 35.1521 204.191 35.1521ZM201.531 37.0768V41.1711C201.531 42.0809 200.797 42.8158 199.922 42.8158C199.047 42.8158 198.312 42.0809 198.312 41.1711V27.5933C198.312 26.8935 198.872 26.3336 199.572 26.3336C200.272 26.3336 200.797 26.9285 200.797 27.7333C201.986 26.5085 203.456 26.1936 204.576 26.1936C207.69 26.1936 210 28.8181 210 32.0726C210 35.2921 207.795 38.0566 204.751 38.0566C203.806 38.0216 202.406 37.7417 201.531 37.0768Z" fill="white"/>
</svg>
