<svg width="170" height="60" viewBox="0 0 170 60" fill="none" xmlns="http://www.w3.org/2000/svg">
<path d="M10.2054 41.5617V39.0916L0 44.9743V47.4769L2.14509 48.712L12.3505 42.8292L10.2054 41.5942V41.5617Z" fill="white"/>
<path d="M31.4289 28.7562V5.58264L21.9709 11.0429V34.2164L31.4289 28.7562Z" fill="white"/>
<path d="M20.7358 34.9314V11.7579L11.3429 17.1857V40.3592L20.7358 34.9314Z" fill="white"/>
<path d="M41.4069 47.607L21.3535 36.004L11.9606 41.4318L32.0464 53.0348L41.4069 47.607Z" fill="white"/>
<path d="M52.7498 17.9008L33.2815 29.1137L52.7498 40.3592V17.9008Z" fill="white"/>
<path d="M32.6641 5.58264V28.0411L52.0999 16.8281L32.6641 5.58264Z" fill="white"/>
<path d="M52.1323 41.4317L32.0464 29.8287L22.5885 35.289L42.6744 46.892L52.1323 41.4317Z" fill="white"/>
<path d="M64.9142 19.4804H62.9335C62.0979 19.4804 61.448 19.2401 60.9838 18.7894C60.5196 18.3387 60.303 17.7078 60.303 16.8965V11.4283C60.303 10.617 60.5196 9.98607 60.9838 9.53539C61.448 9.08471 62.0979 8.87439 62.9335 8.87439H64.9142C65.7498 8.87439 66.3997 9.08471 66.8639 9.53539C67.3281 9.98607 67.5757 10.617 67.5757 11.4283V12.2094C67.5757 12.4198 67.4829 12.5099 67.2662 12.5099H66.1831C65.9974 12.5099 65.9045 12.4198 65.9045 12.2094V11.4883C65.9045 10.6771 65.5022 10.2565 64.6666 10.2565H63.1811C62.3765 10.2565 61.9432 10.6771 61.9432 11.4883V16.8665C61.9432 17.6777 62.3455 18.0984 63.1811 18.0984H64.6666C65.4713 18.0984 65.9045 17.6777 65.9045 16.8665V16.1454C65.9045 15.9351 65.9974 15.8449 66.1831 15.8449H67.2662C67.4829 15.8449 67.5757 15.9351 67.5757 16.1454V16.9266C67.5757 17.7378 67.3281 18.3688 66.8639 18.8194C66.3687 19.2701 65.7498 19.4804 64.9142 19.4804Z" fill="white"/>
<path d="M70.6992 19.4505H69.661C69.483 19.4505 69.394 19.3606 69.394 19.1808V9.14403C69.394 8.96427 69.483 8.87439 69.661 8.87439H73.4875C74.2884 8.87439 74.9113 9.11407 75.3563 9.56348C75.8012 10.0129 76.0385 10.6421 76.0385 11.451V12.8292C76.0385 14.0875 75.5342 14.8965 74.496 15.226V15.286L76.3055 19.1509C76.4241 19.3606 76.3648 19.4804 76.0978 19.4804H75.0893C74.8223 19.4804 74.674 19.3906 74.585 19.2108L72.8349 15.3758H71.1738C71.0552 15.3758 70.9662 15.4358 70.9662 15.5256V19.1509C70.9958 19.3606 70.8772 19.4505 70.6992 19.4505ZM71.1738 14.0576H73.2502C74.0511 14.0576 74.4664 13.6681 74.4664 12.8592V11.481C74.4664 10.672 74.0511 10.2526 73.2502 10.2526H71.1738C71.0552 10.2526 70.9958 10.3125 70.9958 10.4323V13.9078C70.9958 13.9977 71.0552 14.0576 71.1738 14.0576Z" fill="white"/>
<path d="M81.553 19.4804H80.539C80.3652 19.4804 80.2783 19.3906 80.2783 19.2108V15.5556L77.2943 9.174C77.2653 9.08411 77.2653 9.02419 77.2943 8.96427C77.3233 8.90435 77.3812 8.87439 77.4681 8.87439H78.7428C78.8877 8.87439 78.9746 8.96427 79.0615 9.14404L81.0315 13.6681H81.1184L83.0594 9.14404C83.1174 8.96427 83.2332 8.87439 83.3781 8.87439H84.6528C84.7397 8.87439 84.7976 8.90435 84.8266 8.96427C84.8556 9.02419 84.8556 9.08411 84.8266 9.174L81.8427 15.5556V19.2108C81.8427 19.3906 81.7557 19.4804 81.553 19.4804Z" fill="white"/>
<path d="M87.7207 19.4804H86.6413C86.4563 19.4804 86.3638 19.3903 86.3638 19.21V9.1448C86.3638 8.96452 86.4563 8.87439 86.6413 8.87439H90.6813C91.5139 8.87439 92.1616 9.08471 92.6242 9.53539C93.0868 9.98607 93.3335 10.617 93.3335 11.4283V13.1408C93.3335 13.9521 93.0868 14.583 92.6242 15.0337C92.1616 15.4844 91.5139 15.7248 90.6813 15.7248H88.2141C88.0908 15.7248 87.9983 15.7849 87.9983 15.875V19.21C87.9983 19.3903 87.9057 19.4804 87.7207 19.4804ZM88.1833 14.2826H90.4346C91.2364 14.2826 91.6373 13.8619 91.6373 13.0507V11.4883C91.6373 10.6771 91.2364 10.2565 90.4346 10.2565H88.1833C88.0599 10.2565 87.9983 10.3166 87.9983 10.4368V14.1324C87.9983 14.2225 88.0599 14.2826 88.1833 14.2826Z" fill="white"/>
<path d="M98.4145 19.4804H97.3728C97.1645 19.4804 97.0752 19.3903 97.0752 19.21V10.4368C97.0752 10.3166 97.0156 10.2565 96.8966 10.2565H94.843C94.6347 10.2565 94.5454 10.1663 94.5454 9.98607V9.1448C94.5454 8.96452 94.6347 8.87439 94.843 8.87439H100.914C101.123 8.87439 101.212 8.96452 101.212 9.1448V9.98607C101.212 10.1663 101.123 10.2565 100.914 10.2565H98.8609C98.7418 10.2565 98.6823 10.3166 98.6823 10.4368V19.21C98.6823 19.3903 98.593 19.4804 98.4145 19.4804Z" fill="white"/>
<path d="M106.843 19.4804H104.945C104.144 19.4804 103.522 19.2401 103.077 18.7894C102.632 18.3387 102.424 17.7078 102.424 16.8965V11.4283C102.424 10.617 102.632 9.98607 103.077 9.53539C103.522 9.08471 104.144 8.87439 104.945 8.87439H106.843C107.644 8.87439 108.267 9.08471 108.712 9.53539C109.157 9.98607 109.394 10.617 109.394 11.4283V16.9266C109.394 17.7378 109.157 18.3688 108.712 18.8194C108.297 19.2701 107.674 19.4804 106.843 19.4804ZM105.182 18.0683H106.606C107.407 18.0683 107.792 17.6477 107.792 16.8364V11.4883C107.792 10.6771 107.407 10.2565 106.606 10.2565H105.182C104.411 10.2565 103.996 10.6771 103.996 11.4883V16.8665C104.026 17.6777 104.411 18.0683 105.182 18.0683Z" fill="white"/>
<path d="M119.874 19.4804H117.976C117.175 19.4804 116.552 19.2401 116.107 18.7894C115.662 18.3387 115.455 17.7078 115.455 16.8965V11.4283C115.455 10.617 115.662 9.98607 116.107 9.53539C116.552 9.08471 117.175 8.87439 117.976 8.87439H119.874C120.674 8.87439 121.297 9.08471 121.742 9.53539C122.187 9.98607 122.424 10.617 122.424 11.4283V12.2094C122.424 12.4198 122.335 12.5099 122.128 12.5099H121.09C120.912 12.5099 120.823 12.4198 120.823 12.2094V11.4883C120.823 10.6771 120.437 10.2565 119.636 10.2565H118.213C117.442 10.2565 117.026 10.6771 117.026 11.4883V16.8665C117.026 17.6777 117.412 18.0984 118.213 18.0984H119.636C120.408 18.0984 120.823 17.6777 120.823 16.8665V16.1454C120.823 15.9351 120.912 15.8449 121.09 15.8449H122.128C122.335 15.8449 122.424 15.9351 122.424 16.1454V16.9266C122.424 17.7378 122.187 18.3688 121.742 18.8194C121.297 19.2701 120.674 19.4804 119.874 19.4804Z" fill="white"/>
<path d="M130.011 19.4804H124.808C124.633 19.4804 124.545 19.3903 124.545 19.21V9.1448C124.545 8.96452 124.633 8.87439 124.808 8.87439H125.831C126.007 8.87439 126.094 8.96452 126.094 9.1448V17.888C126.094 18.0082 126.153 18.0383 126.299 18.0383H130.04C130.215 18.0383 130.303 18.1284 130.303 18.3387V19.21C130.274 19.3903 130.186 19.4804 130.011 19.4804Z" fill="white"/>
<path d="M133.636 9.14928V19.2102C133.636 19.3904 133.55 19.4804 133.379 19.4804H132.378C132.207 19.4804 132.121 19.3904 132.121 19.2102V9.14928C132.121 8.96908 132.207 8.87899 132.378 8.87899H133.379C133.55 8.84896 133.636 8.96908 133.636 9.14928Z" fill="white"/>
<path d="M143.324 8.87439H145.185C145.365 8.87439 145.455 8.96453 145.455 9.1448V19.21C145.455 19.3903 145.365 19.4805 145.185 19.4805H144.164C143.984 19.4805 143.894 19.3903 143.894 19.21V10.8874H143.804L141.643 16.9266C141.583 17.1069 141.463 17.197 141.283 17.197H140.233C140.082 17.197 139.962 17.1069 139.872 16.9266L137.681 10.8574H137.621V19.21C137.621 19.3302 137.591 19.3903 137.561 19.4204C137.531 19.4504 137.441 19.4805 137.351 19.4805H136.331C136.151 19.4805 136.061 19.3903 136.061 19.21V9.17484C136.061 8.99457 136.151 8.90444 136.331 8.90444H138.192C138.312 8.90444 138.402 8.96453 138.462 9.08471L140.713 15.4544H140.803L143.084 9.08471C143.084 8.93448 143.174 8.87439 143.324 8.87439Z" fill="white"/>
<path d="M148.286 19.4804H147.136C146.992 19.4804 146.934 19.3903 146.992 19.21L149.752 9.1448C149.81 8.96452 149.925 8.87439 150.126 8.87439H151.707C151.909 8.87439 152.052 8.96452 152.081 9.1448L154.841 19.21C154.87 19.3903 154.813 19.4804 154.669 19.4804H153.547C153.461 19.4804 153.375 19.4504 153.346 19.4204C153.317 19.3903 153.289 19.3002 153.26 19.21L152.656 17.0468H149.177L148.573 19.21C148.544 19.3903 148.458 19.4804 148.286 19.4804ZM150.902 10.4368L149.522 15.7248H152.397L150.988 10.4368H150.902Z" fill="white"/>
<path d="M159.771 19.4804H158.682C158.464 19.4804 158.371 19.3903 158.371 19.21V10.4368C158.371 10.3166 158.309 10.2565 158.216 10.2565H156.069C155.851 10.2565 155.757 10.1663 155.757 9.98607V9.1448C155.757 8.96452 155.851 8.87439 156.069 8.87439H162.416C162.634 8.87439 162.727 8.96452 162.727 9.1448V9.98607C162.727 10.1663 162.634 10.2565 162.416 10.2565H160.269C160.145 10.2565 160.082 10.3166 160.082 10.4368V19.21C160.082 19.3903 159.989 19.4804 159.771 19.4804Z" fill="white"/>
<path d="M169.719 19.4804H164.221C164.033 19.4804 163.939 19.3903 163.939 19.21V9.1448C163.939 8.96452 164.033 8.87439 164.221 8.87439H169.719C169.906 8.87439 170 8.96452 170 9.1448V9.98607C170 10.1663 169.906 10.2565 169.719 10.2565H165.814C165.689 10.2565 165.595 10.3166 165.595 10.4368V13.231C165.595 13.3512 165.658 13.3812 165.814 13.3812H169.125C169.344 13.3812 169.438 13.4713 169.438 13.6516V14.4929C169.438 14.6732 169.344 14.7633 169.125 14.7633H165.814C165.689 14.7633 165.595 14.8234 165.595 14.9135V17.858C165.595 17.9782 165.658 18.0383 165.814 18.0383H169.719C169.906 18.0383 170 18.1284 170 18.3087V19.1499C169.969 19.3903 169.906 19.4804 169.719 19.4804Z" fill="white"/>
<path d="M66.8326 48.2021H64.5688C64.2858 48.2021 64.1726 48.0323 64.2858 47.6927L69.719 28.7331C69.8322 28.3935 70.0586 28.2238 70.4547 28.2238H73.5675C73.9637 28.2238 74.2466 28.3935 74.3032 28.7331L79.7365 47.6927C79.7931 48.0323 79.6798 48.2021 79.3969 48.2021H77.1896C77.0199 48.2021 76.8501 48.1455 76.7935 48.0889C76.7369 48.0323 76.6803 47.8625 76.6237 47.6927L75.4352 43.6178H68.5871L67.3986 47.6927C67.342 48.0323 67.1722 48.2021 66.8326 48.2021ZM71.9828 31.1667L69.2662 41.1276H74.9258L72.1526 31.1667H71.9828Z" fill="white"/>
<path d="M91.2123 48.2021H87.5902C86.0621 48.2021 84.8736 47.7493 84.0246 46.9004C83.1757 46.0514 82.7795 44.8629 82.7795 43.3348V33.0344C82.7795 31.5063 83.1757 30.3178 84.0246 29.4689C84.8736 28.6199 86.0621 28.2238 87.5902 28.2238H91.2123C92.7404 28.2238 93.9289 28.6199 94.7778 29.4689C95.6268 30.3178 96.0796 31.5063 96.0796 33.0344V34.5059C96.0796 34.9021 95.9098 35.0718 95.5136 35.0718H93.5327C93.1932 35.0718 93.0234 34.9021 93.0234 34.5059V33.1476C93.0234 31.6195 92.2876 30.8272 90.7595 30.8272H88.0429C86.5715 30.8272 85.7791 31.6195 85.7791 33.1476V43.2782C85.7791 44.8063 86.5149 45.5987 88.0429 45.5987H90.7595C92.231 45.5987 93.0234 44.8063 93.0234 43.2782V41.9199C93.0234 41.5238 93.1932 41.354 93.5327 41.354H95.5136C95.9098 41.354 96.0796 41.5238 96.0796 41.9199V43.3914C96.0796 44.9195 95.6268 46.108 94.7778 46.957C93.9289 47.8059 92.7404 48.2021 91.2123 48.2021Z" fill="white"/>
<path d="M108.594 48.2021H104.972C103.444 48.2021 102.256 47.7493 101.407 46.9004C100.558 46.0514 100.161 44.8629 100.161 43.3348V33.0344C100.161 31.5063 100.558 30.3178 101.407 29.4689C102.256 28.6199 103.444 28.2238 104.972 28.2238H108.594C110.122 28.2238 111.311 28.6199 112.16 29.4689C113.009 30.3178 113.462 31.5063 113.462 33.0344V34.5059C113.462 34.9021 113.292 35.0718 112.896 35.0718H110.915C110.575 35.0718 110.405 34.9021 110.405 34.5059V33.1476C110.405 31.6195 109.67 30.8272 108.141 30.8272H105.425C103.953 30.8272 103.161 31.6195 103.161 33.1476V43.2782C103.161 44.8063 103.897 45.5987 105.425 45.5987H108.141C109.613 45.5987 110.405 44.8063 110.405 43.2782V41.9199C110.405 41.5238 110.575 41.354 110.915 41.354H112.896C113.292 41.354 113.462 41.5238 113.462 41.9199V43.3914C113.462 44.9195 113.009 46.108 112.16 46.957C111.311 47.8059 110.122 48.2021 108.594 48.2021Z" fill="white"/>
<path d="M125.37 48.2021H121.748C120.22 48.2021 119.032 47.7493 118.183 46.9004C117.334 46.0514 116.938 44.8629 116.938 43.3348V33.0344C116.938 31.5063 117.334 30.3178 118.183 29.4689C119.032 28.6199 120.22 28.2238 121.748 28.2238H125.37C126.899 28.2238 128.087 28.6199 128.936 29.4689C129.785 30.3178 130.238 31.5063 130.238 33.0344V43.3914C130.238 44.9195 129.785 46.108 128.936 46.957C128.087 47.8059 126.899 48.2021 125.37 48.2021ZM122.201 45.5421H124.918C126.446 45.5421 127.182 44.7497 127.182 43.2216V33.1476C127.182 31.6195 126.446 30.8272 124.918 30.8272H122.201C120.73 30.8272 119.937 31.6195 119.937 33.1476V43.2782C119.937 44.8063 120.73 45.5421 122.201 45.5421Z" fill="white"/>
<path d="M137.489 48.2021H135.508C135.169 48.2021 134.999 48.0323 134.999 47.6927V28.7331C134.999 28.3935 135.169 28.2238 135.508 28.2238H142.809C144.337 28.2238 145.526 28.6765 146.375 29.5255C147.224 30.3744 147.676 31.5629 147.676 33.091V35.6944C147.676 38.0714 146.714 39.5995 144.733 40.2221V40.3353L148.186 47.6361C148.412 48.0323 148.299 48.2587 147.79 48.2587H145.865C145.356 48.2587 145.073 48.0889 144.903 47.7493L141.564 40.505H138.395C138.168 40.505 137.999 40.6182 137.999 40.788V47.6361C138.055 48.0323 137.829 48.2021 137.489 48.2021ZM138.395 38.0148H142.356C143.884 38.0148 144.677 37.2791 144.677 35.751V33.1476C144.677 31.6195 143.884 30.8272 142.356 30.8272H138.395C138.168 30.8272 138.055 30.9404 138.055 31.1667V37.7318C138.055 37.9016 138.168 38.0148 138.395 38.0148Z" fill="white"/>
<path d="M152.438 47.6927V28.7331C152.438 28.3935 152.607 28.2238 152.947 28.2238H160.587C162.115 28.2238 163.304 28.6199 164.153 29.4689C165.002 30.3178 165.455 31.5063 165.455 33.0344V43.3914C165.455 44.9195 165.002 46.108 164.153 46.957C163.304 47.8059 162.115 48.2587 160.587 48.2587H152.947C152.607 48.2021 152.438 48.0323 152.438 47.6927ZM155.833 45.5421H160.248C161.719 45.5421 162.512 44.7497 162.512 43.2216V33.1476C162.512 31.6195 161.776 30.8272 160.248 30.8272H155.833C155.607 30.8272 155.494 30.9404 155.494 31.1667V45.2591C155.494 45.4289 155.607 45.5421 155.833 45.5421Z" fill="white"/>
</svg>
