<svg width="209" height="61" viewBox="0 0 209 61" fill="none" xmlns="http://www.w3.org/2000/svg">
<path fill-rule="evenodd" clip-rule="evenodd" d="M87.8756 13.2692C86.7779 13.3072 83.9849 14.7209 83.5334 15.4611C84.3306 15.5727 85.1491 15.7105 85.818 15.1747C86.5391 14.5986 87.1783 13.9226 87.8756 13.2692M104.676 38.4145C104.036 37.7873 103.424 37.1291 102.751 36.5422C101.002 35.0204 99.0013 33.9049 96.8522 33.0495C96.7714 33.0162 96.6657 33.0079 96.6158 32.9509C96.5148 32.8345 96.4435 32.6919 96.3604 32.5588C96.4887 32.5315 96.6205 32.4686 96.7441 32.4816C101.18 32.933 105.43 34.4954 109.102 37.0246C110.804 38.1888 112.547 39.3032 114.191 40.5446C115.63 41.6281 116.858 42.948 117.698 44.572C119.376 47.8176 119.245 51.0335 117.449 54.1818C116.743 55.4208 115.657 56.2489 114.164 56.7597C114.223 56.5174 114.208 56.3012 114.309 56.2014C115.418 55.1143 115.777 53.779 115.671 52.2726C115.6 51.2438 115.598 50.2067 115.472 49.1838C115.329 48.0148 114.657 47.081 113.913 46.177C113.889 47.2058 113.569 48.1099 112.907 48.9866C112.852 48.5589 112.821 48.2096 112.763 47.8663C112.521 46.4609 111.832 45.3644 110.645 44.5244C108.53 43.0276 106.164 42.7876 103.692 42.999C103.182 43.0418 102.652 43.1143 102.184 43.302C101.204 43.6988 100.719 44.7276 101.016 45.6043C101.248 46.2851 101.618 46.569 102.347 46.626C103.084 46.6819 103.728 46.4443 104.305 45.9869C104.657 47.1155 103.897 48.2298 102.706 48.2619C101.999 48.2809 101.288 48.1538 100.564 48.0897C101.496 48.8512 102.601 49.2349 103.788 49.3596C104.95 49.4808 106.12 49.5188 107.39 49.6008C107.24 49.7077 107.175 49.7873 107.095 49.8051C104.256 50.4336 101.405 50.5892 98.5534 49.8895C97.0423 49.5188 95.9457 48.5494 95.0666 47.308C94.7958 46.9254 94.5368 46.5346 94.3384 46.2435L91.7675 47.2759C92.3568 47.7392 93.0268 48.2263 93.6505 48.7656C95.3256 50.2055 96.7393 51.8438 97.47 53.9774C97.8811 55.1765 97.9944 56.4575 97.8002 57.7101C97.786 57.8016 97.7527 57.8895 97.723 58C94.6579 52.357 89.597 49.5628 83.7271 47.8996L83.6059 48.0493C84.2332 48.5756 84.8652 49.0971 85.483 49.6329C85.6184 49.7493 85.7063 49.918 85.7562 50.12C82.8028 49.0484 80.2332 47.3258 77.5768 45.6234C77.2037 48.2845 76.1773 50.5488 74.5034 52.5174C73.7217 53.4381 72.6359 54.3243 71.8696 54.676C71.6938 54.2958 71.7377 53.9323 71.9456 53.5878C73.3594 51.2569 73.8417 48.7122 73.6302 46.0308C73.509 44.5078 73.1372 43.0347 72.4256 41.6661C72.3638 41.5473 72.2854 41.4356 72.1832 41.2669L71.3374 44.6932L71.2257 44.705C71.1402 44.5031 71.0499 44.3035 70.9726 44.0991C70.5117 42.8814 69.9628 41.6863 69.6124 40.4365C68.934 38.0177 69.3783 35.6572 70.2503 33.3608C71.4882 30.1009 73.8975 27.9601 76.9745 26.5036C78.5635 25.7598 80.2641 25.2822 82.008 25.0899C82.1777 25.0734 82.3408 25.0159 82.4833 24.9223C82.4179 24.9045 82.3395 24.9045 82.2896 24.8665C81.4461 24.2262 80.6003 23.5882 79.7687 22.9324C79.436 22.6711 79.3255 22.3147 79.4574 21.868C80.0906 22.0105 80.7119 22.1614 81.338 22.2897C84.0288 22.835 86.728 22.7602 89.445 22.4846C91.5905 22.2672 93.546 21.5437 95.4242 20.5469C95.7153 20.3925 95.9909 20.2083 96.2689 20.0313C98.0236 18.9217 97.7266 16.6586 96.592 15.5561C95.9956 14.9776 95.2377 14.7316 94.4298 14.5071C94.6591 15.0108 94.9122 15.4575 95.0666 15.9351C95.2199 16.4103 95.2745 16.9188 95.2923 17.4201L93.9737 15.9624L93.8418 16.0539C94.159 17.2692 94.5902 18.4715 94.3015 19.8436C94.0639 19.2876 93.8929 18.7863 93.6434 18.3289C93.3499 17.7919 92.9995 17.2835 92.649 16.7798C92.5385 16.6217 92.3556 16.5053 92.1881 16.3984C91.4776 15.9446 91.3089 16.0289 91.2234 16.8605C91.0452 18.614 89.6279 19.9363 87.7734 19.9327C86.4856 19.9303 85.1967 19.77 83.91 19.6619C83.1949 19.6025 82.4821 19.505 81.7693 19.4243C80.7167 19.3031 79.8447 19.6607 79.1497 20.44C78.5795 21.0768 77.9462 21.6268 77.1847 22.02C75.7306 22.7685 73.926 21.9642 73.6112 20.421C73.4188 19.4765 73.7989 18.7376 74.4951 18.1341C75.196 17.5282 76.049 17.2169 76.9115 16.9401C77.5946 16.7215 78.2884 16.535 78.9798 16.3461C79.2768 16.2653 79.4313 16.1263 79.4515 15.7878C79.4847 15.2294 79.8114 14.8255 80.2985 14.5724C80.5634 14.4346 80.8521 14.3325 81.142 14.2564C82.4488 13.9155 83.5346 13.2395 84.3912 12.1905C84.9056 11.5608 85.0672 11.4706 85.7218 11.3292C85.7134 10.4204 85.0113 9.88456 84.1001 10.0996C83.3113 10.2837 82.6555 10.7209 82.0306 11.2128L81.5483 11.5929C81.591 11.284 81.5887 11.0797 81.6516 10.8967C82.1862 9.3856 83.2638 8.52905 84.8474 8.32115C85.9378 8.17159 87.0482 8.3455 88.0407 8.8213C88.3995 8.99238 88.5991 8.95317 88.8759 8.66092C91.7319 5.64814 95.0619 3.32558 98.9633 1.85721C99.7687 1.55308 100.597 1.31191 101.418 1.04699C101.536 1.00778 101.664 0.999467 101.791 0.975708C101.951 1.34874 101.773 1.57684 101.532 1.78355C100.581 2.5914 99.6191 3.38736 98.6829 4.2154C97.8596 4.94484 97.0672 5.70754 96.2594 6.45598L96.3212 6.55577C96.8914 6.58429 97.4616 6.6128 98.0319 6.63893L98.0675 6.77912C97.9404 6.86822 97.8228 6.98583 97.6814 7.04286C97.0957 7.28046 96.4827 7.45866 95.9196 7.73665C95.3993 7.99326 94.9217 8.34254 94.4381 8.67043C94.3229 8.74884 94.2576 8.89971 94.1697 9.01851L94.2421 9.11593C94.3894 9.05653 94.5391 9.00188 94.6841 8.93535C96.554 8.07642 98.519 7.56558 100.556 7.30778C100.891 7.2662 100.94 7.42183 100.863 7.68082C100.794 7.91248 100.699 8.13582 100.578 8.4649C103.423 7.3066 106.328 6.78387 109.306 6.63537C112.252 6.48687 115.201 6.23739 118.121 6.86584L118.152 6.99534C118.013 7.06662 117.878 7.15097 117.73 7.2068C115.772 7.95049 113.711 8.28195 111.665 8.66805C109.914 8.99594 108.17 9.34521 106.52 10.0473C106.397 10.0996 106.279 10.1673 106.111 10.2528C109.193 10.3158 112.218 10.1733 115.184 10.816L115.2 10.9585C115.125 11.0025 115.054 11.0678 114.974 11.088C114.344 11.2341 113.715 11.3731 113.085 11.5121C111.673 11.8246 110.261 12.1346 108.85 12.4447L108.836 12.5897C109.481 13.0197 110.145 13.4248 110.765 13.8858C113.028 15.5692 115.099 17.413 115.766 20.3295C115.854 20.7216 115.846 21.1362 115.826 21.5651C113.232 18.4727 109.949 16.4162 106.266 14.9181C106.328 14.9823 106.381 15.0548 106.449 15.1106C108.168 16.5433 109.526 18.2493 110.595 20.2238C112.299 23.3756 112.299 26.5761 110.892 29.7659C110.207 31.3186 109.116 32.6432 107.403 33.2586C107.351 33.2764 107.296 33.2859 107.189 33.3121C107.189 33.0246 107.127 32.7466 107.199 32.5078C108.025 29.7255 107.602 27.0643 106.455 24.4685C106.343 24.2155 106.197 23.9755 106.051 23.694C105.584 24.2773 105.184 24.8178 104.742 25.3227C102.01 28.4472 98.5201 30.2743 94.5118 31.1249C92.8605 31.4742 91.1604 31.593 89.4794 31.8021C89.3487 31.8175 89.2026 31.7035 89.0636 31.65C89.1598 31.5122 89.2299 31.334 89.3594 31.2461C89.7087 31.0121 90.0829 30.8161 90.4476 30.6046L90.4001 30.4644C89.5388 30.5499 88.6751 30.6141 87.8174 30.7258C86.6579 30.8755 85.534 31.1689 84.4957 31.7261C83.3184 32.3581 82.4785 33.2788 81.913 34.506C81.4081 35.6002 81.6469 36.5042 82.3656 37.3537C82.6329 37.6685 82.9786 37.9168 83.2626 38.2185C83.3909 38.3551 83.4574 38.55 83.5513 38.7175L83.4384 38.8791C83.0582 38.7959 82.646 38.7816 82.3038 38.6201C80.8984 37.9631 79.7223 37.0198 78.8871 35.6904C78.8277 35.5966 78.7588 35.5111 78.6816 35.4053C78.2729 36.6622 78.8764 38.2506 80.0514 39.0489C81.2299 39.8485 82.5795 40.149 83.9611 40.2476C85.3784 40.3486 86.804 40.332 88.2237 40.3759C88.3532 40.3795 88.4803 40.4377 88.6074 40.471C88.5433 40.6183 88.5195 40.8298 88.4066 40.8999C87.998 41.1541 87.5798 41.4285 87.1248 41.5675C86.4143 41.7837 85.6778 41.9417 84.94 42.0415C84.2225 42.1366 83.4907 42.1283 82.6674 42.1698C82.9228 42.3908 83.1307 42.6213 83.3814 42.7793C84.1227 43.2462 84.9733 43.346 85.8203 43.3911C87.5786 43.4861 89.3297 43.3911 91.0357 42.9408C92.2831 42.6118 93.0779 41.7695 93.2656 40.4793C93.4462 39.239 92.9234 38.2755 91.8994 37.5723C91.8305 37.5247 91.7366 37.482 91.7022 37.4131C91.6401 37.3067 91.6111 37.1843 91.619 37.0614C91.6261 37.0139 91.8067 36.9592 91.9041 36.9652C94.0604 37.1077 95.7521 38.0225 96.8379 39.9376L97.0886 40.3854C97.0945 40.3961 97.1124 40.3985 97.1611 40.4247C98.2695 39.8865 99.3921 39.2996 100.703 39.3103L100.748 39.1856C99.96 38.7995 99.1735 38.4134 98.3847 38.0296C98.2421 37.9619 98.0818 37.9275 97.9499 37.8443C97.8549 37.7849 97.7955 37.6685 97.7206 37.5782C97.8228 37.5271 97.9285 37.4249 98.0259 37.4333C99.17 37.52 100.319 37.5829 101.455 37.7362C102.318 37.8526 103.168 38.0807 104.019 38.2767C104.21 38.3207 104.385 38.4347 104.567 38.5167L104.676 38.4146" fill="white"/>
<path d="M208.548 39.6389L204.845 39.6261L198.042 30.2389V39.5893H194.292V23.8895L198.007 23.9029L204.822 33.3488V23.917H208.548V39.6389Z" fill="white"/>
<path d="M173.321 26.8356C172.378 27.5566 171.471 28.2499 170.567 28.9406C168.798 27.0976 166.971 26.6908 165.035 27.6866C163.226 28.6165 162.333 30.7093 162.794 32.9362C163.204 34.9199 164.546 36.1688 166.454 36.3425C168.3 36.5106 169.96 35.6111 170.558 34.0584H165.804V30.586C165.804 30.586 171.757 30.586 174.733 30.5864C175.021 34.0484 173.442 38.3742 169.22 39.5736C165.223 40.7089 161.028 38.7471 159.551 34.9806C157.967 30.939 159.555 26.4015 163.195 24.6002C166.615 22.9073 170.932 23.4112 173.321 26.8356V26.8356Z" fill="white"/>
<path d="M184.037 39.8662C179.488 39.8406 175.957 36.2404 175.99 31.6628C176.022 27.2095 179.659 23.6313 184.123 23.6601C188.666 23.6894 192.232 27.3 192.209 31.8471C192.186 36.3399 188.566 39.8916 184.037 39.8662V39.8662ZM184.105 27.1923C181.617 27.195 179.714 29.1864 179.725 31.7783C179.735 34.3847 181.641 36.3694 184.12 36.3541C186.575 36.339 188.45 34.3685 188.458 31.7961C188.465 29.1797 186.584 27.1897 184.105 27.1923V27.1923Z" fill="white"/>
<path d="M134.232 39.6154H130.503V23.8802C130.503 23.8802 135.483 23.8174 137.366 23.9366C139.953 24.1005 141.917 25.7141 142.532 27.9833C143.188 30.4028 142.362 32.5978 140.207 34.1691C140.119 34.2332 139.908 34.3931 139.908 34.3931L142.912 39.6374L138.716 39.6242L136.127 35.1444L134.232 35.1156V39.6154V39.6154ZM134.232 31.4872C134.232 31.4872 136.441 31.576 137.496 31.4605C138.424 31.3589 139.008 30.4237 138.979 29.4132C138.951 28.4631 138.315 27.5957 137.392 27.5093C136.354 27.412 134.232 27.4869 134.232 27.4869V31.4872V31.4872Z" fill="white"/>
<path d="M0 39.63V23.9386C0.184727 23.9178 0.33557 23.8847 0.486078 23.8862C2.39694 23.9047 4.31316 23.8477 6.21692 23.9754C7.80988 24.0822 9.16545 24.7882 9.96189 26.2671C10.8572 27.9297 10.5966 29.4787 9.17223 31.1801C9.57168 31.5571 10.0137 31.9017 10.3678 32.3207C12.1509 34.4313 11.4291 37.7697 8.8836 38.9269C8.04538 39.308 7.08474 39.5547 6.1673 39.5992C4.13003 39.698 2.08467 39.63 1.351e-06 39.63H0ZM3.76526 36.0606C4.63633 36.0606 5.4663 36.1322 6.27795 36.0409C7.12293 35.9458 7.57203 35.3814 7.57241 34.6586C7.57278 33.9804 7.13293 33.4154 6.32972 33.2972C5.49861 33.1748 4.64634 33.1961 3.76526 33.1527V36.0606L3.76526 36.0606ZM3.75235 29.6993C4.48679 29.6586 5.15994 29.6767 5.81207 29.5683C6.36619 29.4762 6.73214 29.0989 6.69635 28.4766C6.66272 27.892 6.28037 27.5543 5.75638 27.4972C5.10046 27.4257 4.43082 27.48 3.75235 27.48V29.6993V29.6993Z" fill="white"/>
<path d="M115.559 39.6247V23.8677C115.559 23.8677 119.928 23.797 121.988 23.9373C125.71 24.1908 128.362 26.7232 128.965 30.4021C129.534 33.8678 128.05 37.152 125.043 38.7279C124.116 39.2136 123.011 39.521 121.968 39.5857C119.862 39.7164 115.559 39.6247 115.559 39.6247V39.6247ZM119.295 36.0996H121.637C122.884 36.0996 124.169 35.3432 124.8 34.1973C125.653 32.6474 125.477 30.0556 124.405 28.7504C123.58 27.7452 122.313 27.4381 121.515 27.4381L119.295 27.4712V36.0996V36.0996Z" fill="white"/>
<path d="M54.595 23.9213H58.3227V29.6126L63.3827 23.88H68.2109C68.2109 23.88 66.1243 26.2656 65.1367 27.3925C64.1435 28.5257 62.1217 30.8282 62.1217 30.8282L68.2009 39.6388L63.7995 39.6269L59.6397 33.715L58.3066 35.1064L58.3323 39.5854H54.595V23.9213V23.9213Z" fill="white"/>
<path d="M40.625 39.6396L34.9333 23.8952L30.648 23.879L24.9875 39.6377L28.8433 39.6401L29.9261 36.6816C31.1332 36.6852 35.6913 36.6795 35.6913 36.6795L36.7611 39.6322L40.625 39.6396V39.6396ZM31.2292 33.1211C31.7456 31.6774 32.805 28.716 32.805 28.716L34.3826 33.1211H31.2292Z" fill="white"/>
<path d="M159.35 39.6396L153.658 23.8952L149.373 23.879L143.713 39.6377L147.568 39.6401L148.651 36.6816C149.858 36.6852 154.416 36.6795 154.416 36.6795L155.486 39.6322L159.35 39.6396V39.6396ZM149.954 33.1211C150.471 31.6774 151.53 28.716 151.53 28.716L153.108 33.1211H149.954Z" fill="white"/>
<path d="M52.7157 28.7791C50.0888 26.7134 46.9868 26.6951 45.1694 28.6234C43.6442 30.2417 43.6076 33.1486 45.0699 34.8104C46.672 36.6311 49.9627 37.0489 52.7167 34.7671V38.3747C52.7167 38.3747 52.7189 38.6297 51.2421 39.2605C46.5126 41.2807 41.1326 38.2875 40.3569 33.2044C39.6891 28.8289 42.1441 24.8849 46.1701 23.914C48.239 23.415 50.2272 23.6325 52.0998 24.7081C52.5329 24.9569 52.7235 25.099 52.7235 25.099L52.7157 28.7791V28.7791Z" fill="white"/>
<path d="M13.1885 39.595V23.9381H16.8922V36.1186H23.3231V39.595H13.1885V39.595Z" fill="white"/>
</svg>
