<svg width="60" height="60" viewBox="0 0 60 60" fill="none" xmlns="http://www.w3.org/2000/svg">
<g clip-path="url(#clip0_619_1624)">
<path d="M26.0722 30.471H16.5751L16.1019 33.491C16.5387 33.4427 16.9389 33.4003 17.3027 33.3637C17.6665 33.3271 18.0425 33.3089 18.4307 33.309C19.7515 33.2974 21.0618 33.5446 22.2876 34.0368C23.4332 34.4865 24.4737 35.1678 25.344 36.0381C26.2143 36.9083 26.8956 37.9488 27.3453 39.0945C27.8304 40.2833 28.0729 41.5811 28.073 42.9878C28.073 44.4677 27.8002 45.8018 27.2544 46.9903C26.7208 48.1629 25.9313 49.201 24.9439 50.0285C23.9491 50.8655 22.7362 51.5083 21.3053 51.9571C19.8744 52.4058 18.2855 52.6302 16.5387 52.6302C14.9485 52.6378 13.3642 52.436 11.8266 52.0298C10.3412 51.6325 8.92425 51.0129 7.6239 50.1922L8.67921 43.4969C9.89182 44.5402 11.1289 45.3346 12.3905 45.8802C13.6522 46.4258 14.8529 46.6986 15.9927 46.6989C17.4482 46.6989 18.6004 46.3047 19.4494 45.5163C20.2985 44.7279 20.7229 43.7515 20.7229 42.5872C20.7229 41.2289 20.1528 40.1313 19.0127 39.2942C17.8726 38.4571 16.3808 38.0387 14.5372 38.0389C13.6811 38.0423 12.8277 38.1337 11.9903 38.3117C11.1 38.4995 10.2335 38.7863 9.40695 39.1669L11.6993 24.4304H26.0722V30.471Z" fill="white"/>
<path d="M49.3593 40.7683H52.6703V46.2262H49.3593V51.8661H42.7368V46.2262H29.4921V41.6415L39.9714 24.4306H49.3593V40.7683ZM42.7369 40.7683V29.9615L36.442 40.7683H42.7369Z" fill="white"/>
<path d="M4.63078 4.63078H55.3692V55.3692H4.63078V4.63078ZM0 60H60V0H0V60Z" fill="white"/>
</g>
<defs>
<clipPath id="clip0_619_1624">
<rect width="60" height="60" fill="white"/>
</clipPath>
</defs>
</svg>
