<svg width="145" height="60" viewBox="0 0 145 60" fill="none" xmlns="http://www.w3.org/2000/svg">
<path d="M17.9929 21.4435C15.7706 19.411 12.9222 18.3801 9.52874 18.3801H0.114799L0 18.4881V39.7106L0.114799 39.8186H9.52874C12.9239 39.8186 15.7706 38.7877 17.9929 36.7556C20.2131 34.7245 21.34 32.1486 21.34 29.0992C21.34 26.0505 20.2131 23.475 17.9929 21.4435V21.4435ZM15.3356 34.7013C13.7303 36.1802 11.5578 36.929 8.87668 36.929H3.50182L3.42072 36.853V21.3461L3.50182 21.2704H8.87668C11.5561 21.2704 13.729 22.0192 15.3356 23.4978C16.9409 24.9773 17.7551 26.8613 17.7551 29.0992C17.7551 31.3381 16.9409 33.2227 15.3356 34.7013H15.3356Z" fill="white"/>
<path d="M44.1459 19.7621C43.4046 19.2933 42.5743 18.9424 41.6801 18.7186C40.7871 18.4947 39.8261 18.3806 38.8235 18.3806H25.0117L24.8969 18.4886V39.7108L25.0117 39.8184H28.2029L28.3177 39.7108V34.2793L28.4291 34.2088L45.2381 39.8184L45.3945 39.7234V36.442L45.3243 36.3415L28.5258 30.5384L28.5561 30.3919H38.8235C39.8247 30.3919 40.7858 30.2781 41.6801 30.0549C42.5791 29.8298 43.408 29.4785 44.1459 29.0108C44.8984 28.5362 45.4943 27.8974 45.9167 27.1118C46.3439 26.3279 46.5606 25.4118 46.5606 24.3868C46.5606 23.362 46.3439 22.4449 45.9167 21.661C45.4943 20.8767 44.8984 20.238 44.1459 19.7621V19.7621ZM41.7135 26.7401C40.8621 27.2467 39.7242 27.5022 38.3343 27.5022H28.3991L28.3177 27.4266V21.3455L28.3991 21.2696H38.3343C39.7225 21.2696 40.8604 21.5261 41.7135 22.034C42.5648 22.5406 42.9791 23.3099 42.9791 24.3868C42.9791 25.4616 42.5648 26.2315 41.7135 26.7401Z" fill="white"/>
<path d="M91.1643 18.3806L91.0543 18.4515L83.3168 36.8808L83.2405 36.9288H80.6438L80.5689 36.8821L72.5051 18.4505L72.395 18.3806H70.2913H68.8802H66.9325L66.8273 18.4385L61.5781 27.3111L61.5066 27.3507H53.3739L53.2928 27.2747V18.4886L53.178 18.3806H49.9869L49.8721 18.4886V39.7108L49.9869 39.8184H53.178L53.2928 39.7108V30.3169L53.3739 30.241H61.4936L61.5686 30.2876L65.7705 39.7493L65.8819 39.8184H69.4031L69.505 39.6764L64.8779 28.6493L64.881 28.5866L69.4961 20.1583L78.1014 39.7493L78.2131 39.8184H85.445L85.5547 39.7486L94.6184 18.5227L94.5166 18.3806H91.1643Z" fill="white"/>
<path d="M138.48 29.1507C137.143 28.0892 135.088 27.4787 132.372 27.3359L129.213 27.1536C127.692 27.0756 126.578 26.7653 125.902 26.2321C125.229 25.701 124.903 25.0674 124.903 24.2954C124.903 23.304 125.333 22.533 126.219 21.9406C127.109 21.3441 128.553 21.0419 130.507 21.0419C132.369 21.0419 133.802 21.4286 134.766 22.191C135.724 22.95 136.231 23.9458 136.274 25.1515L136.437 25.2987H139.695L139.857 25.1416C139.792 22.981 139.028 21.2323 137.591 19.9435C136.155 18.6538 133.857 18 130.765 18C127.595 18 125.177 18.5996 123.578 19.7828C121.97 20.9727 121.155 22.5525 121.155 24.4776C121.155 26.0982 121.826 27.4569 123.149 28.5164C124.464 29.567 126.321 30.1727 128.672 30.3162L131.962 30.4974C133.826 30.5972 135.107 30.9416 135.77 31.5211C136.437 32.1047 136.762 32.815 136.762 33.6912C136.762 36.0232 134.694 37.1566 130.442 37.1566C128.4 37.1566 126.788 36.7625 125.65 35.9861C124.509 35.2073 123.935 34.2462 123.892 33.0474L123.729 32.8999H120.471L120.309 33.0569C120.374 35.1827 121.289 36.9246 123.025 38.2335C124.749 39.5373 127.3 40.1985 130.604 40.1985C133.536 40.1985 135.939 39.6214 137.748 38.4842C139.582 37.3345 140.509 35.6498 140.509 33.478C140.509 31.6772 139.827 30.2208 138.48 29.1507V29.1507Z" fill="white"/>
<path d="M115.88 19.7621C115.139 19.2933 114.309 18.9424 113.415 18.7186C112.522 18.4947 111.561 18.3806 110.558 18.3806H96.7465L96.6317 18.4886V39.7108L96.7465 39.8184H99.9376L100.052 39.7108V34.2793L100.164 34.2088L116.973 39.8184L117.129 39.7234V36.442L117.059 36.3415L100.261 30.5384L100.291 30.3919H110.558C111.559 30.3919 112.52 30.2781 113.415 30.0549C114.314 29.8298 115.142 29.4785 115.88 29.0108C116.633 28.5362 117.229 27.8974 117.652 27.1118C118.079 26.3279 118.295 25.4118 118.295 24.3868C118.295 23.362 118.079 22.4449 117.652 21.661C117.229 20.8767 116.633 20.238 115.88 19.7621V19.7621ZM113.448 26.7401C112.597 27.2467 111.459 27.5022 110.069 27.5022H100.134L100.052 27.4266V21.3455L100.134 21.2696H110.069C111.457 21.2696 112.595 21.5261 113.448 22.034C114.299 22.5406 114.714 23.3099 114.714 24.3868C114.714 25.4616 114.299 26.2315 113.448 26.7401Z" fill="white"/>
<path d="M143.193 18.8597L143.673 20.0752H144.097L144.549 18.8866V20.0752H145V18.4015H144.336L143.885 19.6487L143.406 18.4015H142.742V20.0752H143.193V18.8597Z" fill="white"/>
<path d="M141.2 20.0752H141.652V18.7541H142.343V18.4015H140.509V18.7541H141.2V20.0752Z" fill="white"/>
</svg>
