<svg width="132" height="60" viewBox="0 0 132 60" fill="none" xmlns="http://www.w3.org/2000/svg">
<path d="M75.1148 34.3116L74.902 34.6975C74.3099 35.797 73.426 36.7119 72.3475 37.3415C71.3138 37.9356 70.1415 38.2459 68.9493 38.241C67.0036 38.241 65.3251 37.5205 63.8915 36.0004L63.8901 35.999L63.8886 35.9975C62.4433 34.495 61.7258 32.3938 61.7258 29.6075C61.7258 26.8534 62.4433 24.7507 63.8886 23.2482L63.8915 23.2453C65.3265 21.7223 67.008 20.974 68.9493 20.974C71.1854 20.974 72.977 21.8939 74.3811 23.7369L74.6276 24.0597L76.9416 22.0774L76.698 21.7868C75.7544 20.6511 74.5647 19.7449 73.2191 19.1369H73.2146C71.8733 18.5335 70.4201 18.2185 68.9493 18.2125C66.1453 18.2125 63.7492 19.2396 61.717 21.2381L61.7155 21.2395C59.6643 23.2908 58.6577 26.0962 58.6577 29.6075C58.6577 31.424 58.9394 33.0981 59.5117 34.561C60.081 36.0444 60.8762 37.2623 61.8784 38.1676C62.8223 39.0756 63.9355 39.7891 65.1549 40.2673C66.3727 40.7794 67.6184 41.0009 68.9493 41.0009C70.6058 41.0009 72.1993 40.6194 73.6945 39.855C75.1999 39.0861 76.4456 37.9343 77.4008 36.4714L77.596 36.1721L75.1163 34.3116H75.1148ZM84.9705 18.4898H81.9024V40.7251H94.1646L95.0141 37.9651H84.9705V18.4898ZM97.488 34.2338L97.5276 34.5874C97.7535 36.6196 98.6647 38.2263 100.296 39.337C101.869 40.4595 103.665 41.0009 105.67 41.0009C107.642 41.0009 109.349 40.4903 110.805 39.4236C112.258 38.3672 113.016 36.8382 113.016 34.944C113.016 33.4767 112.558 32.2236 111.7 31.2024L111.696 31.1965L111.691 31.1907C110.821 30.2292 109.747 29.4734 108.548 28.978C107.375 28.4835 106.202 28.0521 105.039 27.6237L105.036 27.6222C103.894 27.2011 102.923 26.6978 102.169 26.0889L102.161 26.0845L102.155 26.0786C101.422 25.5357 101.084 24.8505 101.084 24.0244C101.084 23.0751 101.454 22.3635 102.211 21.8235C102.996 21.263 103.957 20.974 105.087 20.974C106.18 20.974 107.124 21.2601 107.988 21.778C108.817 22.2754 109.267 22.946 109.401 23.8088L109.464 24.2108L112.465 23.5534L112.397 23.1881C112.101 21.6108 111.272 20.3856 109.895 19.5008H109.892L109.889 19.4979C108.54 18.6615 106.997 18.214 105.27 18.214C103.325 18.214 101.618 18.7569 100.198 19.7899C98.7425 20.8492 98.0162 22.3488 98.0162 24.2401C98.0162 25.279 98.2436 26.1769 98.7146 26.9517C99.1797 27.7484 99.8107 28.3427 100.563 28.8005C101.32 29.259 102.121 29.6391 102.955 29.9347C103.788 30.2736 104.62 30.5817 105.479 30.8884C106.322 31.1892 107.072 31.5193 107.762 31.8788C108.427 32.2266 108.959 32.6506 109.347 33.1744C109.732 33.7261 109.948 34.3541 109.948 35.0672C109.948 36.0459 109.549 36.8133 108.739 37.3547L108.736 37.3562L108.732 37.3591C107.888 37.9504 106.864 38.2395 105.639 38.2395C104.301 38.2395 103.156 37.8932 102.155 37.1508L102.152 37.1493L102.15 37.1464C101.181 36.4553 100.647 35.4619 100.562 34.0915L100.534 33.6586L97.488 34.2353V34.2338ZM131.15 21.2498L132 18.4898H115.33V21.2498H121.926V40.7251H124.992V21.2498H131.15Z" fill="white"/>
<path fill-rule="evenodd" clip-rule="evenodd" d="M17.6074 38.4111C19.9423 38.4111 22.1816 37.4836 23.8326 35.8326C25.4836 34.1816 26.4111 31.9423 26.4111 29.6074C26.4111 27.2725 25.4836 25.0333 23.8326 23.3823C22.1816 21.7312 19.9423 20.8037 17.6074 20.8037C15.2725 20.8037 13.0333 21.7312 11.3823 23.3823C9.73124 25.0333 8.80371 27.2725 8.80371 29.6074C8.80371 31.9423 9.73124 34.1816 11.3823 35.8326C13.0333 37.4836 15.2725 38.4111 17.6074 38.4111V38.4111ZM17.6074 47.2148C27.3326 47.2148 35.2148 39.3311 35.2148 29.6074C35.2148 19.8837 27.3326 12 17.6074 12C7.88519 12 0 19.8837 0 29.6074C0 39.3311 7.88372 47.2148 17.6074 47.2148Z" fill="white"/>
</svg>
