<svg width="115" height="60" viewBox="0 0 115 60" fill="none" xmlns="http://www.w3.org/2000/svg">
<g clip-path="url(#clip0_615_33)">
<path fill-rule="evenodd" clip-rule="evenodd" d="M0 30.1192C0 22.5017 0 18.6954 1.98697 16.0412C2.57776 15.2515 3.28468 14.5517 4.0825 13.9669C6.76377 12 10.6089 12 18.3043 12C25.9997 12 29.8449 12 32.5262 13.9669C33.324 14.5517 34.0309 15.2515 34.6217 16.0412C36.6087 18.6929 36.6087 22.5017 36.6087 30.1192C36.6087 37.7368 36.6087 41.5431 34.6217 44.1973C34.0309 44.987 33.324 45.6868 32.5262 46.2716C29.8474 48.2385 25.9997 48.2385 18.3043 48.2385C10.6089 48.2385 6.76377 48.2385 4.0825 46.2716C3.28468 45.6868 2.57776 44.987 1.98697 44.1973C0 41.5431 0 37.7368 0 30.1192ZM18.5518 18.203L20.006 26.4129C20.1878 27.4451 21.0058 28.2548 22.0485 28.4348L30.3423 29.8743C30.62 29.9218 30.62 30.3167 30.3423 30.3642L22.0485 31.8037C21.0058 31.9836 20.1878 32.7934 20.006 33.8256L18.5518 42.0355C18.5038 42.3104 18.1049 42.3104 18.0569 42.0355L16.6027 33.8256C16.4209 32.7934 15.6029 31.9836 14.5602 31.8037L6.2664 30.3642C5.98867 30.3167 5.98867 29.9218 6.2664 29.8743L14.5602 28.4348C15.6029 28.2548 16.4209 27.4451 16.6027 26.4129L18.0569 18.203C18.1049 17.9281 18.5038 17.9281 18.5518 18.203ZM74.0707 39.0664C72.2857 39.0664 70.7406 38.7165 69.4328 38.0142C68.1351 37.312 67.1302 36.3073 66.4157 35.0002C65.7113 33.6906 65.3578 32.1311 65.3578 30.3192C65.3578 28.5073 65.7138 26.9303 66.4283 25.6132C67.1504 24.2886 68.1654 23.2714 69.4732 22.5616C70.7785 21.8519 72.311 21.497 74.0707 21.497C75.8304 21.497 77.3453 21.8519 78.643 22.5616C79.9407 23.2714 80.943 24.2886 81.6474 25.6132C82.3619 26.9303 82.7179 28.4973 82.7179 30.3192C82.7179 32.1411 82.3645 33.6806 81.6601 34.9902C80.9632 36.2998 79.966 37.307 78.6683 38.0167C77.3705 38.719 75.838 39.0689 74.0707 39.0689V39.0664ZM74.0707 36.2298C75.4467 36.2298 76.5399 35.7774 77.3503 34.8702C78.1683 33.9555 78.5774 32.4535 78.5774 30.3667C78.5774 28.2798 78.1683 26.6928 77.3503 25.7556C76.5323 24.8109 75.4391 24.3361 74.0707 24.3361C72.7023 24.3361 71.5939 24.8084 70.7658 25.7556C69.9478 26.7003 69.5388 28.2373 69.5388 30.3667C69.5388 32.496 69.9478 33.958 70.7658 34.8702C71.5939 35.7774 72.6947 36.2298 74.0707 36.2298ZM46.7076 38.0742C46.7076 38.3491 46.9348 38.5741 47.2126 38.5741H49.8257C50.1034 38.5741 50.3306 38.3491 50.3306 38.0742V27.7575C50.3306 27.5151 50.6437 27.4151 50.7876 27.61L58.5789 38.1642C58.7683 38.4216 59.0713 38.5741 59.3944 38.5741H61.649C61.9267 38.5741 62.1539 38.3491 62.1539 38.0742V22.2442C62.1539 21.9693 61.9267 21.7444 61.649 21.7444H59.0233C58.7456 21.7444 58.5183 21.9693 58.5183 22.2442V32.1161C58.5183 32.3585 58.2053 32.4585 58.0614 32.2636L50.6058 22.1543C50.4165 21.8969 50.1135 21.7444 49.7903 21.7444H47.2126C46.9348 21.7444 46.7076 21.9693 46.7076 22.2442V38.0742ZM89.5221 37.9193C89.6685 38.3141 90.0472 38.5741 90.4714 38.5741H93.1804C93.6046 38.5741 93.9833 38.3116 94.1297 37.9193L99.8609 22.4167C99.9821 22.0893 99.7372 21.7444 99.3862 21.7444H97.1518C96.8337 21.7444 96.551 21.9393 96.4399 22.2342L92.067 33.993C91.9862 34.2104 91.6757 34.2104 91.5924 33.993L87.2574 22.3967C87.111 22.0043 86.7323 21.7444 86.3106 21.7444H84.2631C83.9121 21.7444 83.6698 22.0893 83.7884 22.4167L89.5196 37.9193H89.5221ZM98.7677 37.8993C98.644 38.2267 98.8863 38.5766 99.2398 38.5766H101.633C101.949 38.5766 102.229 38.3841 102.343 38.0917L103.466 35.1601C103.577 34.8677 103.86 34.6753 104.173 34.6753H109.609C109.924 34.6753 110.207 34.8702 110.318 35.1626L111.419 38.0867C111.53 38.3791 111.813 38.5741 112.129 38.5741H114.494C114.848 38.5741 115.093 38.2242 114.966 37.8968L108.915 22.0668C108.841 21.8719 108.652 21.7444 108.442 21.7444H105.294C105.085 21.7444 104.895 21.8719 104.822 22.0668L98.7702 37.8968L98.7677 37.8993ZM105.186 31.7087C104.837 31.7087 104.592 31.3663 104.711 31.0414L106.635 25.6832C106.716 25.4607 107.031 25.4607 107.112 25.6832L109.016 31.0439C109.132 31.3688 108.887 31.7087 108.538 31.7087H105.188H105.186Z" fill="white"/>
</g>
<defs>
<clipPath id="clip0_615_33">
<rect width="115" height="60" fill="white"/>
</clipPath>
</defs>
</svg>
