<svg width="260" height="60" viewBox="0 0 260 60" fill="none" xmlns="http://www.w3.org/2000/svg">
<path d="M67.4123 22.4385C68.7398 23.545 69.4037 25.0804 69.4037 27.0454C69.4037 28.9929 68.7398 30.5199 67.4123 31.6257C66.0845 32.7324 64.2524 33.2853 61.9156 33.2853H56.605V39.3663H55.2509V20.7789H61.9156C64.2524 20.7789 66.0845 21.3323 67.4123 22.4385ZM66.4563 30.763C67.5006 29.8958 68.023 28.6564 68.023 27.0454C68.023 25.4348 67.5006 24.191 66.4563 23.3147C65.4116 22.4385 63.898 22.0003 61.9156 22.0003H56.605V32.0639H61.9156C63.898 32.0639 65.4116 31.6306 66.4563 30.763V30.763Z" fill="white"/>
<path d="M85.256 32.7544H73.3337C73.3689 33.8343 73.6432 34.795 74.1567 35.6354C74.6701 36.4766 75.3649 37.127 76.2413 37.5872C77.1175 38.0478 78.1041 38.2777 79.2018 38.2777C80.1048 38.2777 80.9412 38.1142 81.7112 37.7863C82.4812 37.4589 83.1226 36.9763 83.6362 36.339L84.4062 37.2154C83.8043 37.9414 83.0475 38.4992 82.136 38.8881C81.2242 39.278 80.2375 39.4723 79.1754 39.4723C77.7945 39.4723 76.5641 39.1716 75.4845 38.5695C74.4044 37.9678 73.5594 37.1358 72.9485 36.0735C72.3378 35.0117 72.0326 33.7991 72.0326 32.4358C72.0326 31.0909 72.32 29.8824 72.8956 28.8112C73.4707 27.7403 74.2631 26.9039 75.272 26.302C76.2811 25.7003 77.4137 25.399 78.6709 25.399C79.9277 25.399 81.0561 25.6957 82.0564 26.2886C83.0563 26.8819 83.8441 27.7093 84.4196 28.7714C84.9947 29.8334 85.2826 31.0377 85.2826 32.3826L85.256 32.7544V32.7544ZM76.042 27.2179C75.263 27.652 74.6389 28.2627 74.1701 29.0502C73.7007 29.8381 73.4307 30.7278 73.3601 31.7189H83.9814C83.9285 30.7278 83.6628 29.8427 83.1848 29.0634C82.7069 28.2846 82.0784 27.6739 81.2996 27.2314C80.5203 26.789 79.6442 26.5675 78.6709 26.5675C77.6972 26.5675 76.8208 26.7844 76.042 27.2179H76.042Z" fill="white"/>
<path d="M96.355 38.4899C96.0186 38.8085 95.5982 39.052 95.0937 39.2199C94.5891 39.3883 94.0624 39.4722 93.5139 39.4722C92.3098 39.4722 91.3805 39.1404 90.7256 38.4767C90.0706 37.8126 89.7433 36.8879 89.7433 35.7017V26.647H87.1942V25.5054H89.7433V22.4783H91.0709V25.5054H95.4787V26.647H91.0709V35.569C91.0709 36.4717 91.2876 37.1582 91.7213 37.6272C92.1549 38.0961 92.7968 38.3308 93.6466 38.3308C94.5137 38.3308 95.2306 38.0741 95.7973 37.5604L96.3551 38.4899L96.355 38.4899Z" fill="white"/>
<path d="M113.455 39.3663L109.021 33.1526C108.366 33.2413 107.764 33.2853 107.215 33.2853H101.904V39.3663H100.55V20.7789H107.215C109.552 20.7789 111.384 21.3323 112.712 22.4385C114.039 23.545 114.703 25.0804 114.703 27.0454C114.703 28.5149 114.327 29.7497 113.575 30.7498C112.822 31.7501 111.747 32.4537 110.348 32.8607L114.995 39.3663H113.455L113.455 39.3663ZM107.215 32.0907C109.197 32.0907 110.711 31.6525 111.756 30.7761C112.8 29.8998 113.322 28.6564 113.322 27.0454C113.322 25.4348 112.8 24.191 111.756 23.3147C110.711 22.4385 109.197 22.0003 107.215 22.0003H101.904V32.0907H107.215Z" fill="white"/>
<path d="M121.195 38.5695C120.142 37.9678 119.314 37.1314 118.712 36.0604C118.11 34.9893 117.81 33.7815 117.81 32.4358C117.81 31.0909 118.11 29.8824 118.712 28.8112C119.314 27.7403 120.142 26.9039 121.195 26.302C122.248 25.7003 123.43 25.399 124.74 25.399C126.05 25.399 127.231 25.7003 128.285 26.302C129.338 26.9039 130.165 27.7403 130.768 28.8112C131.369 29.8824 131.67 31.0909 131.67 32.4358C131.67 33.7815 131.369 34.9893 130.768 36.0604C130.165 37.1314 129.338 37.9678 128.285 38.5695C127.231 39.1716 126.05 39.4723 124.74 39.4723C123.43 39.4723 122.248 39.1716 121.195 38.5695ZM127.594 37.534C128.435 37.0387 129.099 36.3482 129.586 35.4631C130.072 34.5779 130.316 33.5688 130.316 32.4358C130.316 31.3032 130.072 30.2941 129.586 29.4087C129.099 28.5237 128.435 27.8333 127.594 27.3375C126.753 26.8422 125.802 26.5941 124.74 26.5941C123.678 26.5941 122.726 26.8422 121.885 27.3375C121.045 27.8333 120.381 28.5237 119.894 29.4087C119.407 30.2941 119.164 31.3032 119.164 32.4358C119.164 33.5688 119.407 34.5779 119.894 35.4631C120.381 36.3482 121.045 37.0387 121.885 37.534C122.726 38.0298 123.678 38.2777 124.74 38.2777C125.802 38.2777 126.753 38.0298 127.594 37.534Z" fill="white"/>
<path d="M137.751 38.5695C136.689 37.9678 135.856 37.1314 135.255 36.0604C134.653 34.9893 134.352 33.7815 134.352 32.4358C134.352 31.0728 134.653 29.8559 135.255 28.7846C135.856 27.7139 136.689 26.8819 137.751 26.2886C138.813 25.6957 140.017 25.399 141.362 25.399C142.477 25.399 143.491 25.6162 144.402 26.0497C145.314 26.4838 146.053 27.1164 146.619 27.9482L145.637 28.6652C145.141 27.9748 144.526 27.457 143.792 27.1118C143.057 26.7666 142.247 26.5941 141.362 26.5941C140.282 26.5941 139.313 26.8376 138.454 27.3243C137.595 27.8113 136.923 28.4971 136.436 29.3821C135.949 30.2677 135.706 31.2851 135.706 32.4358C135.706 33.5868 135.949 34.6043 136.436 35.4894C136.923 36.3751 137.595 37.0607 138.454 37.5472C139.313 38.0346 140.282 38.2777 141.362 38.2777C142.247 38.2777 143.057 38.105 143.792 37.7599C144.526 37.4145 145.141 36.8968 145.637 36.2063L146.619 36.9231C146.053 37.7555 145.314 38.3884 144.402 38.8218C143.491 39.256 142.477 39.4723 141.362 39.4723C140.017 39.4723 138.813 39.1716 137.751 38.5695V38.5695Z" fill="white"/>
<path d="M155.382 31.958L151.771 35.2503V39.3663H150.443V19.6637H151.771V33.6039L160.64 25.5054H162.339L156.365 31.108L162.923 39.3663H161.277L155.382 31.958Z" fill="white"/>
<path d="M176.398 38.2777C174.938 37.4637 173.787 36.339 172.947 34.9053C172.106 33.4712 171.686 31.8609 171.686 30.0725C171.686 28.2846 172.106 26.6736 172.947 25.2397C173.787 23.8058 174.938 22.682 176.398 21.8676C177.859 21.0534 179.501 20.646 181.324 20.646C182.669 20.646 183.909 20.8631 185.042 21.2967C186.174 21.7307 187.139 22.3722 187.936 23.2217L187.086 24.0981C185.599 22.6288 183.696 21.8942 181.377 21.8942C179.82 21.8942 178.404 22.2484 177.129 22.9563C175.854 23.6645 174.854 24.6424 174.128 25.8904C173.402 27.1384 173.04 28.5325 173.04 30.0725C173.04 31.6125 173.402 33.0067 174.128 34.2549C174.854 35.5026 175.854 36.481 177.129 37.189C178.404 37.897 179.82 38.2508 181.377 38.2508C183.678 38.2508 185.582 37.5076 187.086 36.0204L187.936 36.8967C187.139 37.7463 186.17 38.3928 185.029 38.8349C183.887 39.278 182.652 39.499 181.324 39.499C179.501 39.499 177.859 39.0921 176.398 38.2777V38.2777Z" fill="white"/>
<path d="M200.522 26.7136C201.442 27.5898 201.903 28.8775 201.903 30.5771V39.3663H200.628V36.8967C200.186 37.7111 199.54 38.344 198.69 38.7954C197.84 39.2468 196.822 39.4723 195.637 39.4723C194.097 39.4723 192.879 39.1097 191.986 38.3836C191.091 37.658 190.645 36.702 190.645 35.5158C190.645 34.3656 191.056 33.4317 191.879 32.7148C192.702 31.9976 194.017 31.6394 195.822 31.6394H200.575V30.5239C200.575 29.232 200.225 28.2495 199.527 27.5766C198.827 26.9039 197.805 26.5675 196.46 26.5675C195.539 26.5675 194.658 26.7268 193.817 27.0454C192.977 27.3641 192.264 27.7889 191.68 28.32L191.016 27.3641C191.706 26.7446 192.538 26.262 193.512 25.917C194.485 25.5718 195.504 25.399 196.566 25.399C198.283 25.399 199.602 25.8372 200.522 26.7136H200.522ZM198.757 37.5872C199.562 37.0563 200.168 36.2858 200.575 35.2772V32.6748H195.849C194.485 32.6748 193.499 32.9227 192.888 33.4185C192.277 33.9142 191.972 34.5959 191.972 35.4631C191.972 36.3658 192.308 37.0787 192.981 37.6004C193.654 38.123 194.601 38.3836 195.822 38.3836C196.973 38.3836 197.951 38.1181 198.757 37.5872L198.757 37.5872Z" fill="white"/>
<path d="M217.914 26.302C218.959 26.9039 219.777 27.7359 220.37 28.798C220.963 29.86 221.26 31.0728 221.26 32.4358C221.26 33.7991 220.963 35.0161 220.37 36.0867C219.777 37.1582 218.959 37.9902 217.914 38.5827C216.87 39.176 215.701 39.4722 214.409 39.4722C213.188 39.4722 212.081 39.1848 211.09 38.6095C210.099 38.0346 209.329 37.2334 208.78 36.2063V44.5173H207.452V25.5054H208.727V28.7714C209.275 27.7093 210.05 26.8819 211.05 26.2886C212.05 25.6957 213.17 25.399 214.409 25.399C215.701 25.399 216.87 25.7003 217.914 26.302V26.302ZM217.197 37.534C218.047 37.0387 218.715 36.3482 219.202 35.4631C219.689 34.5779 219.932 33.5688 219.932 32.4358C219.932 31.3031 219.689 30.294 219.202 29.4087C218.715 28.5237 218.047 27.8333 217.197 27.3375C216.347 26.8422 215.392 26.5941 214.33 26.5941C213.267 26.5941 212.316 26.8422 211.475 27.3375C210.634 27.8333 209.97 28.5237 209.484 29.4087C208.997 30.294 208.753 31.3031 208.753 32.4358C208.753 33.5688 208.997 34.5779 209.484 35.4631C209.97 36.3482 210.634 37.0387 211.475 37.534C212.316 38.0298 213.267 38.2777 214.33 38.2777C215.392 38.2777 216.347 38.0298 217.197 37.534Z" fill="white"/>
<path d="M225.349 21.8276C225.137 21.6243 225.03 21.372 225.03 21.071C225.03 20.7701 225.137 20.5132 225.349 20.3009C225.562 20.0884 225.818 19.9823 226.119 19.9823C226.42 19.9823 226.677 20.0843 226.889 20.2875C227.102 20.4912 227.208 20.7435 227.208 21.0444C227.208 21.3456 227.102 21.6019 226.889 21.8144C226.677 22.0269 226.42 22.133 226.119 22.133C225.818 22.133 225.562 22.0313 225.349 21.8276ZM225.455 25.5054H226.783V39.3663H225.455V25.5054V25.5054Z" fill="white"/>
<path d="M239.342 38.4899C239.006 38.8085 238.586 39.052 238.081 39.2199C237.576 39.3883 237.049 39.4722 236.501 39.4722C235.297 39.4722 234.368 39.1404 233.713 38.4767C233.058 37.8126 232.73 36.8879 232.73 35.7017V26.647H230.181V25.5054H232.73V22.4783H234.058V25.5054H238.466V26.647H234.058V35.569C234.058 36.4717 234.275 37.1582 234.709 37.6272C235.142 38.0961 235.784 38.3308 236.634 38.3308C237.501 38.3308 238.218 38.0741 238.785 37.5604L239.342 38.4899V38.4899Z" fill="white"/>
<path d="M251.742 26.7136C252.663 27.5898 253.123 28.8775 253.123 30.5771V39.3663H251.849V36.8967C251.406 37.7111 250.76 38.344 249.91 38.7954C249.06 39.2468 248.042 39.4723 246.857 39.4723C245.317 39.4723 244.099 39.1097 243.206 38.3836C242.311 37.658 241.865 36.702 241.865 35.5158C241.865 34.3656 242.276 33.4317 243.099 32.7148C243.923 31.9976 245.237 31.6394 247.043 31.6394H251.795V30.5239C251.795 29.232 251.446 28.2495 250.747 27.5766C250.047 26.9039 249.025 26.5675 247.68 26.5675C246.759 26.5675 245.878 26.7268 245.038 27.0454C244.197 27.3641 243.484 27.7889 242.9 28.32L242.236 27.3641C242.927 26.7446 243.759 26.262 244.732 25.917C245.706 25.5718 246.724 25.399 247.786 25.399C249.503 25.399 250.822 25.8372 251.742 26.7136V26.7136ZM249.977 37.5872C250.782 37.0563 251.388 36.2858 251.795 35.2772V32.6748H247.069C245.706 32.6748 244.719 32.9227 244.108 33.4185C243.498 33.9142 243.192 34.5959 243.192 35.4631C243.192 36.3658 243.528 37.0787 244.201 37.6004C244.874 38.123 245.821 38.3836 247.043 38.3836C248.193 38.3836 249.171 38.1181 249.977 37.5872V37.5872Z" fill="white"/>
<path d="M258.672 19.6637H260V39.3663H258.672V19.6637Z" fill="white"/>
<path d="M40.1814 40.934H40.8192V18.3087C40.8188 10.9583 34.861 5.00041 27.5105 5H13.3087C5.95827 5.00041 0.00041405 10.9583 0 18.3087V39.8081C0.000742589 47.0021 5.70764 52.8584 12.8422 53.1052L13.5021 53.128V25.7996L39.9123 25.7996C25.3045 25.9451 13.5069 37.8256 13.5065 52.4677V53.1056H28.6477V52.4677C28.648 49.2807 29.9376 46.4013 32.0258 44.3122C34.115 42.2239 36.9944 40.9343 40.1814 40.934V40.934ZM39.5435 24.5239H12.2263V51.7882C6.08902 51.2409 1.27501 46.0882 1.27572 39.8081V18.3087C1.27605 14.9839 2.62157 11.9797 4.80011 9.80012C6.97968 7.62157 9.98387 6.27605 13.3087 6.27572H27.5105C30.8353 6.27605 33.8396 7.62157 36.0191 9.80011C38.1977 11.9797 39.5432 14.9839 39.5435 18.3087V24.5239V24.5239ZM27.3881 51.8298H14.7984C14.9657 45.0686 17.7643 38.9659 22.2215 34.5078C26.6796 30.0507 32.7822 27.252 39.5435 27.0847V39.6744C32.9766 39.9968 27.7105 45.2629 27.3881 51.8298V51.8298Z" fill="white"/>
<path d="M40.9592 43.3633C35.9307 43.3637 31.8552 47.4392 31.8548 52.4676V53.1055H50.0635V52.4676C50.0631 47.4392 45.9876 43.3637 40.9592 43.3633V43.3633ZM35.4235 46.932C36.8422 45.5143 38.7953 44.6393 40.9592 44.639C43.123 44.6393 45.0761 45.5143 46.4948 46.932C47.7714 48.2095 48.6014 49.922 48.7556 51.8298H33.1627C33.3169 49.922 34.1469 48.2094 35.4235 46.932H35.4235Z" fill="white"/>
</svg>
