<svg width="240" height="60" viewBox="0 0 240 60" fill="none" xmlns="http://www.w3.org/2000/svg">
<g clip-path="url(#clip0_615_1263)">
<path d="M93.9847 31.5786L88.0146 22.2233H85.7988V36.3793H88.63V27.024L94.5387 36.3793H96.816V22.2233H93.9847V31.5786Z" fill="white"/>
<path d="M108.818 22.2853C108.079 22.2853 107.218 22.2238 106.294 22.2238C105.925 22.2238 105.556 22.2853 105.187 22.3469C104.817 22.4699 104.448 22.593 104.14 22.8392C103.833 23.0854 103.525 23.4547 103.402 23.824C103.217 24.3164 103.094 24.8703 103.094 25.3627V33.2409C103.094 33.9795 103.217 34.5334 103.463 34.9642C103.648 35.3335 103.956 35.6413 104.386 35.8874C104.756 36.0721 105.125 36.1952 105.494 36.2567C105.864 36.3183 106.171 36.3183 106.541 36.3183C107.156 36.3183 107.833 36.3183 108.51 36.3183C109.187 36.3183 109.926 36.2567 110.603 36.1952C111.28 36.1336 111.895 36.0721 112.449 36.0105V33.6717H107.095C106.91 33.6717 106.725 33.6102 106.479 33.5486C106.294 33.4871 106.11 33.364 106.048 33.1793C105.925 32.9331 105.864 32.6869 105.864 32.3792V30.4097L111.464 30.225V28.0093L105.864 28.0708V26.0397C105.864 25.6705 105.987 25.3627 106.171 25.1781C106.418 24.9934 106.787 24.8703 107.095 24.8703H112.388V22.4699C111.895 22.4084 111.341 22.4084 110.787 22.3469C110.172 22.3469 109.556 22.2853 108.818 22.2853Z" fill="white"/>
<path d="M117.373 24.7472H121.251V36.3798H124.082V24.7472H128.021V22.2238H117.373V24.7472Z" fill="white"/>
<path d="M141.561 28.1324H136.207V22.2238H133.376V36.3798H136.207V30.6559H141.561V36.3798H144.454V22.2238H141.561V28.1324Z" fill="white"/>
<path d="M154.179 33.7332C153.994 33.6717 153.81 33.5486 153.748 33.3639C153.625 33.1177 153.563 32.8715 153.563 32.5638V30.5943L159.164 30.4096V28.1939L153.563 28.0092V25.9782C153.563 25.6089 153.686 25.3011 153.871 25.1165C154.117 24.9318 154.487 24.8087 154.794 24.8087H160.087V22.4084C159.595 22.3468 159.041 22.3468 158.487 22.2853C157.872 22.2237 157.256 22.2237 156.518 22.2237C155.779 22.2237 154.917 22.1622 153.994 22.1622C153.625 22.1622 153.256 22.2237 152.886 22.2853C152.517 22.4084 152.148 22.5315 151.84 22.7777C151.532 23.0238 151.225 23.3931 151.101 23.7624C150.917 24.2548 150.794 24.8087 150.855 25.3011V33.1793C150.855 33.9179 150.978 34.4718 151.225 34.9026C151.409 35.2719 151.717 35.5797 152.148 35.8259C152.517 36.0105 152.886 36.1336 153.256 36.1951C153.625 36.2567 153.933 36.2567 154.302 36.2567C154.917 36.2567 155.594 36.2567 156.271 36.2567C156.949 36.2567 157.687 36.1951 158.364 36.1336C159.041 36.072 159.657 36.0105 160.211 35.949V33.6101H154.856C154.548 33.7948 154.363 33.7948 154.179 33.7332Z" fill="white"/>
<path d="M174.49 30.2865C174.797 30.1019 175.044 29.8557 175.228 29.6095C175.475 29.2402 175.659 28.8709 175.721 28.5016C175.844 27.9477 175.905 27.3937 175.905 26.8398C175.905 26.1012 175.844 25.3011 175.598 24.5625C175.413 24.0086 175.105 23.5778 174.736 23.2085C174.367 22.9007 173.936 22.6545 173.443 22.5314C172.951 22.4083 172.397 22.3468 171.843 22.3468H165.996V36.5029H168.827V31.2097C169.012 31.2097 169.197 31.2097 169.381 31.2097H169.997C170.181 31.2097 170.428 31.2097 170.612 31.2097C170.797 31.2097 170.981 31.2097 171.166 31.2097L173.443 36.4413H176.336L173.69 30.7789C173.936 30.5943 174.244 30.4096 174.49 30.2865ZM172.951 27.763C172.889 28.0092 172.766 28.1939 172.582 28.3785C172.459 28.5632 172.274 28.6247 172.028 28.6863C171.782 28.7478 171.597 28.8094 171.351 28.8094H168.827V24.7472H171.351C171.597 24.7472 171.843 24.7472 172.028 24.8087C172.212 24.8703 172.397 24.9934 172.582 25.1165C172.766 25.3011 172.889 25.4858 172.951 25.7319C173.074 26.0397 173.074 26.409 173.074 26.7167C173.074 27.086 173.013 27.4553 172.951 27.763Z" fill="white"/>
<path d="M192.339 22.2238L189.077 33.0562L185.815 22.2238H183.106L181.445 36.3798H184.214L185.261 27.2707L187.722 36.3798H190.431L192.893 27.1476L194 36.3798H196.709L195.047 22.2238H192.339Z" fill="white"/>
<path d="M205.448 22.2238H202.617V36.3798H205.448V22.2238Z" fill="white"/>
<path d="M220.097 31.5791L214.127 22.2238H211.849V36.3798H214.681V27.0245L220.651 36.3798H222.928V22.2238H220.097V31.5791Z" fill="white"/>
<path d="M239.792 26.4706C239.669 25.6704 239.423 24.9318 238.992 24.2548C238.623 23.6393 238.13 23.147 237.453 22.7777C236.838 22.4699 236.038 22.2853 235.053 22.2853H229.021V36.4414H234.992C236.099 36.4414 237.023 36.1952 237.761 35.6412C238.5 35.1488 239.054 34.3487 239.423 33.3024C239.792 32.2561 239.977 30.9636 239.977 29.3633C240.038 28.317 239.977 27.3938 239.792 26.4706ZM236.961 31.8252C236.776 32.5023 236.53 32.9947 236.222 33.3639C236.038 33.5486 235.792 33.6717 235.545 33.7332C235.299 33.7948 235.053 33.8563 234.807 33.8563H231.914V24.7472H234.807C235.176 24.7472 235.545 24.8088 235.853 24.9318C236.161 25.0549 236.407 25.3011 236.592 25.6089C236.838 26.0397 236.961 26.5321 237.023 27.0245C237.146 27.7631 237.207 28.5016 237.146 29.3018C237.207 30.1634 237.146 30.9636 236.961 31.8252Z" fill="white"/>
<path d="M13.4798 22.9008C14.7723 22.1006 16.3725 21.6082 17.9728 21.6082C19.2653 21.6082 20.5578 21.916 21.7272 22.5315C23.2044 23.27 24.4353 24.501 25.1739 25.9782L32.6212 20.4388C31.021 17.9154 28.8668 15.7612 26.3433 14.284L21.8503 22.593L21.6041 22.4699L26.0971 14.1609C23.0813 12.4991 19.6346 11.7605 16.1879 12.0683C12.8027 12.376 9.54069 13.607 6.77103 15.7612L13.4798 22.9008Z" fill="white"/>
<path d="M10.1562 32.1946C9.90997 31.3944 9.78688 30.5328 9.78688 29.7326C9.78688 28.4401 10.0946 27.1476 10.7101 25.9782C11.3256 24.8703 12.2488 23.8856 13.2336 23.147L6.52482 16.0074L6.70947 15.8228L6.64792 15.8843C3.87825 18.0385 1.84717 20.9928 0.800848 24.3164C-0.245471 27.5784 -0.245471 31.0867 0.677751 34.4718L10.1562 32.1946Z" fill="white"/>
<path d="M17.9727 37.857C16.2494 37.857 14.5876 37.3031 13.172 36.3183C11.7564 35.3335 10.7716 33.9795 10.2177 32.3177V32.2561L10.2792 32.5023L0.800812 34.718C1.60094 37.4261 3.13964 39.8881 5.10918 41.9192C7.14027 43.9503 9.66375 45.489 12.4334 46.3506C15.2031 47.2123 18.1574 47.3354 20.9886 46.843C23.8198 46.2891 26.5279 45.0581 28.7437 43.2117L23.2043 36.0105C21.7272 37.18 19.8807 37.857 17.9727 37.857Z" fill="white"/>
<path d="M69.8579 26.2244C69.2424 23.3316 67.9499 20.6235 66.0419 18.3462C64.1339 16.0689 61.672 14.284 58.9023 13.2377C56.1326 12.1914 53.1168 11.8221 50.1625 12.2529C47.2082 12.6838 44.4385 13.7917 42.0381 15.5765L47.8236 23.147C49.2392 22.1622 50.8395 21.6698 52.5013 21.6698C54.4093 21.6698 56.3173 22.3468 57.7944 23.5778C59.21 24.7472 60.1948 26.4706 60.5026 28.317L69.7963 26.1628L69.8579 26.4706L60.6257 28.6248C60.6257 29.0556 60.6872 29.4249 60.6872 29.7942C60.6872 31.0251 60.3795 32.2561 59.8255 33.364C59.2716 34.4718 58.4099 35.4566 57.4252 36.1952L57.5482 36.1336L63.4569 43.3963C65.488 41.7345 67.2113 39.7034 68.4423 37.3646C69.6732 34.9642 70.2272 32.3176 70.2272 29.6711C70.1656 28.4401 70.0425 27.3322 69.8579 26.2244Z" fill="white"/>
<path d="M57.2405 36.2567L57.3636 36.1952C56.0096 37.3646 54.2862 37.9185 52.4398 37.9185C51.6396 37.9185 50.778 37.7954 50.0394 37.5492C48.0699 36.9338 46.4696 35.6413 45.4233 33.9179L37.976 39.5803C40.1917 42.7193 43.3306 45.1197 46.962 46.2891L49.9163 37.4877L50.224 37.6108L47.2697 46.4122C49.9163 47.2123 52.8091 47.4585 55.5787 46.9661C58.3484 46.4737 60.9334 45.3659 63.2107 43.581L57.2405 36.2567Z" fill="white"/>
</g>
<defs>
<clipPath id="clip0_615_1263">
<rect width="240" height="60" fill="white"/>
</clipPath>
</defs>
</svg>
