<svg width="179" height="60" viewBox="0 0 179 60" fill="none" xmlns="http://www.w3.org/2000/svg">
<path fill-rule="evenodd" clip-rule="evenodd" d="M10.0961 27.3737L22.6048 40.107L34.9801 27.5095L45.1268 37.8384L33.3377 49.8391L30.3049 46.8341L39.142 37.8384L34.9801 33.6018L22.6048 46.1992L10.0961 33.4658L5.98479 37.6509L14.9564 46.7835L11.9235 49.7885L0 37.6509L10.0961 27.3737Z" fill="white"/>
<path fill-rule="evenodd" clip-rule="evenodd" d="M35.0307 33.4654L22.522 20.732L10.1467 33.3294L0 23.0006L11.7891 10.9999L14.8219 14.0049L5.98478 23.0006L10.1467 27.2373L22.522 14.6398L35.0307 27.3732L39.142 23.1881L30.1705 14.0555L33.2033 11.0505L45.1268 23.1881L35.0307 33.4654Z" fill="white"/>
<path fill-rule="evenodd" clip-rule="evenodd" d="M20.6553 49.5398V41.5173H24.74V49.5398H20.6553Z" fill="white"/>
<path fill-rule="evenodd" clip-rule="evenodd" d="M20.6553 19.3216V11.2991H24.74V19.3216H20.6553Z" fill="white"/>
<path d="M56.9531 20.4716H52.8828V40.9654H56.9531V20.4716Z" fill="white"/>
<path d="M77.5997 25.8796C75.7497 25.8796 73.985 26.6766 73.1025 28.4129C72.1917 26.6766 70.4839 25.8796 68.4914 25.8796C66.6983 25.8796 65.332 26.5627 64.6204 27.7867L64.1934 26.1642H60.4932V40.9654H64.4781V32.6824C64.4781 30.4907 65.6166 29.4376 67.296 29.4376C68.8899 29.4376 69.9715 30.4338 69.9715 32.8532V40.9654H73.8142V32.7678C73.8711 30.4623 75.0665 29.4376 76.6321 29.4376C78.2544 29.4376 79.3077 30.4338 79.3077 32.654V40.9938H83.3208V31.857C83.3208 27.7582 80.5603 25.8796 77.5997 25.8796V25.8796Z" fill="white"/>
<path d="M103.589 25.8796C101.739 25.8796 99.9738 26.6766 99.0919 28.4129C98.1806 26.6766 96.4734 25.8796 94.4808 25.8796C92.6875 25.8796 91.3208 26.5627 90.6096 27.7867L90.1822 26.1642H86.4824V40.9654H90.4669V32.6824C90.4669 30.4907 91.6055 29.4376 93.2847 29.4376C94.8787 29.4376 95.9607 30.4338 95.9607 32.8532V40.9654H99.8032V32.7678C99.8598 30.4623 101.056 29.4376 102.621 29.4376C104.244 29.4376 105.297 30.4338 105.297 32.654V40.9938H109.31V31.857C109.31 27.7582 106.549 25.8796 103.589 25.8796V25.8796Z" fill="white"/>
<path d="M122.178 26.1642V34.2763C122.178 36.468 121.154 37.7774 119.19 37.8059C117.311 37.8628 116.116 36.7527 116.116 34.4471V26.1642H112.33V34.9595C112.33 38.7452 114.522 41.25 118.307 41.25C120.072 41.25 121.353 40.453 122.122 39.3429L122.321 40.9653H125.964V26.1642H122.178Z" fill="white"/>
<path d="M137.659 25.8796C135.438 25.8796 133.958 26.7051 133.19 27.929L132.962 26.1642H129.262V40.9654H133.247V33.1378C133.247 30.7469 134.386 29.2952 136.491 29.2952C138.427 29.2952 139.594 30.5477 139.594 32.9956V40.9654H143.608V32.17C143.608 28.3844 141.445 25.8796 137.659 25.8796V25.8796Z" fill="white"/>
<path d="M161.035 33.3371C161.035 28.8114 158.104 25.8796 153.692 25.8796C149.28 25.8796 146.319 28.9537 146.319 33.5648C146.319 38.2044 149.28 41.2785 153.72 41.2785C157.449 41.2785 160.267 39.2006 160.921 36.1266H156.908C156.452 37.4074 155.286 38.0621 153.834 38.0621C151.927 38.0621 150.39 36.8381 150.333 34.6464H161.035V33.3371ZM153.692 28.9822C155.428 28.9822 156.88 29.9784 157.05 32.0278H150.361C150.532 29.9784 151.984 28.9822 153.692 28.9822V28.9822Z" fill="white"/>
<path d="M162.59 26.1642V29.6368H164.867V40.9654H168.881V29.6368H172.268V26.1642H168.881V24.6557C168.881 23.6025 169.166 22.8055 170.788 22.8055H172.268V19.5607H169.906C166.176 19.5607 164.867 21.3823 164.867 24.2571V26.1642H162.59Z" fill="white"/>
<path d="M174.9 23.8871H178.942L179 19.5607H174.958L174.9 23.8871ZM174.958 40.9654H178.942V26.1642H174.958V40.9654Z" fill="white"/>
</svg>
