<svg width="120" height="60" viewBox="0 0 120 60" fill="none" xmlns="http://www.w3.org/2000/svg">
<path d="M79.2118 40.7389V36.932H66.8879V30.6234H75.4445V26.8514H66.8879V21.4857H79.2118V17.6847H62.6601V40.7389H79.2118ZM54.3842 40.7389V17.6847H49.0374L42.9854 33.4231L36.9677 17.6847H31.33V40.7389H35.3764V24.0867L41.306 39.7665H44.3787L50.3373 24.28V40.7389H54.3842ZM17.7121 17.6847L11.6583 33.4189L5.6335 17.6847H0V40.7389H4.04749V24.0908L9.97241 39.7612H13.0463L19.0061 24.2841V40.7389H23.0542V17.6847H17.7121ZM120 17.6847H118.227V40.7389H120V17.6847ZM101.675 17.6847H99.9015V40.7389H101.675V17.6847ZM111.133 10H109.36V48.4236H111.133V10Z" fill="white"/>
</svg>
