<svg width="279" height="60" viewBox="0 0 279 60" fill="none" xmlns="http://www.w3.org/2000/svg">
<g clip-path="url(#clip0_615_49)">
<path d="M57.7896 27.3965C58.7511 27.3965 59.5615 27.2463 60.2213 26.9463C60.8809 26.6463 61.3701 26.2406 61.6887 25.7289C62.0074 25.2171 62.1667 24.6497 62.1667 24.026C62.1667 23.2732 61.9823 22.6761 61.6133 22.2349C61.2443 21.7939 60.7942 21.4646 60.2633 21.2466C59.7321 21.0291 59.036 20.8085 58.1752 20.585C57.4484 20.397 56.8698 20.2234 56.4396 20.0644C56.009 19.9056 55.6513 19.6764 55.3662 19.3764C55.0811 19.0764 54.9386 18.6793 54.9386 18.1853C54.9386 17.5265 55.1985 16.9884 55.7183 16.5706C56.2383 16.1531 57.0123 15.944 58.0411 15.944C58.5777 15.944 59.1255 16.0296 59.6847 16.1999C60.2435 16.3706 60.769 16.6265 61.261 16.9675L61.6804 15.9265C61.2108 15.5855 60.6545 15.3176 60.0116 15.1236C59.3686 14.9294 58.712 14.8325 58.0411 14.8325C57.0794 14.8325 56.2744 14.9855 55.6262 15.2913C54.9776 15.5973 54.4967 16.0059 54.1838 16.5176C53.8708 17.0294 53.7143 17.597 53.7143 18.2205C53.7143 18.9853 53.9014 19.591 54.2761 20.038C54.6506 20.4853 55.1005 20.8174 55.6262 21.0349C56.1515 21.2529 56.856 21.4792 57.7393 21.7142C58.4771 21.9027 59.0529 22.0761 59.4666 22.2349C59.8801 22.3936 60.2298 22.6202 60.5148 22.9142C60.7999 23.2085 60.9424 23.6025 60.9424 24.0965C60.9424 24.7437 60.6797 25.2701 60.1542 25.6759C59.6286 26.0816 58.8404 26.2847 57.7896 26.2847C57.0403 26.2847 56.3138 26.1466 55.6094 25.8698C54.905 25.5936 54.3403 25.232 53.9156 24.7847L53.4292 25.7905C53.8652 26.273 54.4828 26.6612 55.2823 26.9552C56.0816 27.2495 56.9175 27.3965 57.7896 27.3965L57.7896 27.3965Z" fill="white"/>
<path d="M76.0363 27.2904L79.5478 18.0087H78.4008L75.4539 25.8964L72.4894 18.0087H71.4131L68.4308 25.8964L65.5193 18.0087H64.3193L67.8133 27.2904H68.9956L71.9248 19.6849L74.8541 27.2904H76.0363Z" fill="white"/>
<path d="M91.9496 25.8876C91.5786 26.1523 91.006 26.2847 90.2319 26.2847C89.6512 26.2847 89.0921 26.1876 88.5546 25.9936C88.0168 25.7993 87.5706 25.5495 87.2159 25.2435L86.6997 26.2317C87.0546 26.5612 87.5465 26.8346 88.1755 27.0523C88.8045 27.2701 89.463 27.3787 90.1512 27.3787C91.248 27.3787 92.1053 27.1406 92.7238 26.6641C93.3419 26.1876 93.6511 25.5435 93.6511 24.7317C93.6511 24.1317 93.5059 23.6615 93.2156 23.3202C92.9253 22.979 92.5758 22.7377 92.1673 22.5967C91.7586 22.4555 91.2157 22.3142 90.5383 22.1732C89.99 22.0672 89.5597 21.9644 89.2481 21.8644C88.936 21.7646 88.6754 21.6085 88.4658 21.3967C88.2561 21.185 88.1513 20.9027 88.1513 20.5497C88.1513 20.091 88.3368 19.7202 88.7078 19.438C89.0787 19.1557 89.6295 19.0145 90.361 19.0145C91.3287 19.0145 92.1618 19.2792 92.8609 19.8085L93.3608 18.8027C93.006 18.5443 92.5543 18.3351 92.0061 18.1764C91.4577 18.0176 90.9093 17.938 90.361 17.938C89.307 17.938 88.4845 18.1852 87.8933 18.6792C87.3018 19.1732 87.0063 19.8085 87.0063 20.585C87.0063 21.2087 87.1539 21.6967 87.4498 22.0497C87.7453 22.4025 88.1029 22.6526 88.5222 22.7996C88.9416 22.9469 89.4953 23.0907 90.1835 23.232C90.6996 23.3262 91.1134 23.4234 91.4254 23.5231C91.7371 23.6231 91.9952 23.7701 92.1996 23.9641C92.4036 24.1583 92.506 24.426 92.506 24.767C92.506 25.2495 92.3205 25.6228 91.9496 25.8876V25.8876Z" fill="white"/>
<path d="M101.214 25.8876C100.843 26.1523 100.27 26.2847 99.496 26.2847C98.9154 26.2847 98.3563 26.1876 97.8187 25.9936C97.2809 25.7993 96.8348 25.5495 96.4801 25.2435L95.9639 26.2317C96.3187 26.5612 96.8107 26.8346 97.4396 27.0523C98.0687 27.2701 98.7271 27.3787 99.4154 27.3787C100.512 27.3787 101.369 27.1406 101.988 26.6641C102.606 26.1876 102.915 25.5435 102.915 24.7317C102.915 24.1317 102.77 23.6615 102.48 23.3202C102.189 22.979 101.84 22.7377 101.431 22.5967C101.023 22.4555 100.48 22.3142 99.8024 22.1732C99.2542 22.0672 98.8239 21.9644 98.5122 21.8644C98.2002 21.7646 97.9396 21.6085 97.7299 21.3967C97.5203 21.185 97.4154 20.9027 97.4154 20.5497C97.4154 20.091 97.601 19.7202 97.9719 19.438C98.3429 19.1557 98.8937 19.0145 99.6251 19.0145C100.593 19.0145 101.426 19.2792 102.125 19.8085L102.625 18.8027C102.27 18.5443 101.819 18.3351 101.27 18.1764C100.722 18.0176 100.173 17.938 99.6251 17.938C98.5712 17.938 97.7487 18.1852 97.1574 18.6792C96.566 19.1732 96.2704 19.8085 96.2704 20.585C96.2704 21.2087 96.418 21.6967 96.7139 22.0497C97.0095 22.4025 97.3671 22.6526 97.7864 22.7996C98.2058 22.9469 98.7594 23.0907 99.4477 23.232C99.9638 23.3262 100.378 23.4234 100.69 23.5231C101.001 23.6231 101.259 23.7701 101.464 23.9641C101.668 24.1583 101.77 24.426 101.77 24.767C101.77 25.2495 101.585 25.6228 101.214 25.8876V25.8876Z" fill="white"/>
<path d="M109.513 21.4268H105.293V22.5208H109.513V21.4268Z" fill="white"/>
<path d="M123.292 19.1732C123.292 17.856 122.845 16.8207 121.951 16.0677C121.057 15.315 119.822 14.9382 118.245 14.9382H113.622V27.2904H114.928V23.3907H118.245C119.822 23.3907 121.057 23.0173 121.951 22.2701C122.845 21.5233 123.292 20.491 123.292 19.1732ZM121.016 21.4408C120.369 21.9763 119.433 22.2437 118.21 22.2437H114.928V16.0677H118.21C119.433 16.0677 120.369 16.3354 121.016 16.8706C121.663 17.4059 121.986 18.1735 121.986 19.1732C121.986 20.15 121.663 20.9056 121.016 21.4408V21.4408Z" fill="white"/>
<path d="M134.329 25.0847C134.735 24.3672 134.938 23.5555 134.938 22.6495C134.938 21.7437 134.735 20.9322 134.329 20.2145C133.923 19.497 133.362 18.9382 132.644 18.538C131.926 18.1382 131.121 17.938 130.227 17.938C129.333 17.938 128.527 18.1382 127.809 18.538C127.091 18.9382 126.527 19.497 126.115 20.2145C125.703 20.9322 125.498 21.7437 125.498 22.6495C125.498 23.5555 125.703 24.3672 126.115 25.0847C126.527 25.8025 127.091 26.3641 127.809 26.7698C128.527 27.1758 129.333 27.3787 130.227 27.3787C131.121 27.3787 131.926 27.1758 132.644 26.7698C133.362 26.3641 133.923 25.8025 134.329 25.0847V25.0847ZM130.227 26.267C129.568 26.267 128.977 26.1171 128.453 25.8171C127.93 25.5171 127.518 25.0907 127.218 24.5377C126.918 23.985 126.768 23.3555 126.768 22.6495C126.768 21.9437 126.918 21.3145 127.218 20.7615C127.518 20.2087 127.93 19.7821 128.453 19.4821C128.977 19.1821 129.568 19.0322 130.227 19.0322C130.885 19.0322 131.476 19.1821 132 19.4821C132.523 19.7821 132.932 20.2087 133.226 20.7615C133.52 21.3145 133.668 21.9437 133.668 22.6495C133.668 23.3555 133.52 23.985 133.226 24.5377C132.932 25.0907 132.523 25.5171 132 25.8171C131.476 26.1171 130.885 26.267 130.227 26.267Z" fill="white"/>
<path d="M139.652 14.1973H138.399V27.2905H139.652V14.1973Z" fill="white"/>
<path d="M144.684 16.2468C144.943 16.2468 145.161 16.1586 145.337 15.9821C145.513 15.8056 145.602 15.5881 145.602 15.3291C145.602 15.0941 145.513 14.891 145.337 14.7205C145.161 14.55 144.943 14.4646 144.684 14.4646C144.425 14.4646 144.208 14.5529 144.031 14.7291C143.855 14.9056 143.767 15.1116 143.767 15.3468C143.767 15.5938 143.855 15.8056 144.031 15.9821C144.208 16.1586 144.425 16.2468 144.684 16.2468V16.2468Z" fill="white"/>
<path d="M145.302 18.0087H144.049V27.2904H145.302V18.0087Z" fill="white"/>
<path d="M83.3426 18.0087H82.0898V27.2904H83.3426V18.0087Z" fill="white"/>
<path d="M82.7246 14.4646C82.4656 14.4646 82.2484 14.5529 82.0718 14.7291C81.8954 14.9056 81.8071 15.1116 81.8071 15.3468C81.8071 15.5938 81.8954 15.8056 82.0718 15.9821C82.2484 16.1586 82.4656 16.2468 82.7246 16.2468C82.9831 16.2468 83.2014 16.1586 83.3774 15.9821C83.5539 15.8056 83.6421 15.5881 83.6421 15.3291C83.6421 15.0941 83.5539 14.891 83.3774 14.7205C83.2014 14.55 82.9831 14.4646 82.7246 14.4646V14.4646Z" fill="white"/>
<path d="M154.702 26.6641C155.32 26.1876 155.629 25.5435 155.629 24.7317C155.629 24.1317 155.484 23.6615 155.194 23.3202C154.903 22.979 154.554 22.7377 154.145 22.5967C153.736 22.4555 153.194 22.3142 152.516 22.1732C151.968 22.0672 151.538 21.9644 151.226 21.8644C150.914 21.7646 150.653 21.6085 150.444 21.3967C150.234 21.185 150.129 20.9027 150.129 20.5497C150.129 20.091 150.315 19.7202 150.686 19.438C151.057 19.1557 151.608 19.0145 152.339 19.0145C153.307 19.0145 154.14 19.2792 154.839 19.8085L155.339 18.8027C154.984 18.5443 154.532 18.3351 153.984 18.1764C153.436 18.0176 152.887 17.938 152.339 17.938C151.285 17.938 150.463 18.1852 149.871 18.6792C149.28 19.1732 148.984 19.8085 148.984 20.585C148.984 21.2087 149.132 21.6967 149.428 22.0497C149.723 22.4025 150.081 22.6526 150.5 22.7996C150.92 22.9469 151.473 23.0907 152.161 23.232C152.678 23.3262 153.091 23.4234 153.403 23.5231C153.715 23.6231 153.973 23.7701 154.178 23.9641C154.382 24.1583 154.484 24.426 154.484 24.767C154.484 25.2495 154.298 25.6228 153.928 25.8876C153.557 26.1523 152.984 26.2847 152.21 26.2847C151.629 26.2847 151.07 26.1876 150.532 25.9936C149.995 25.7993 149.549 25.5495 149.194 25.2435L148.678 26.2317C149.033 26.5612 149.524 26.8346 150.153 27.0523C150.783 27.2701 151.441 27.3787 152.129 27.3787C153.226 27.3787 154.083 27.1406 154.702 26.6641V26.6641Z" fill="white"/>
<path d="M167.503 27.2905V21.9085C167.503 20.6145 167.159 19.6294 166.471 18.9529C165.782 18.2764 164.856 17.938 163.691 17.938C162.915 17.938 162.227 18.0853 161.627 18.3792C161.027 18.6735 160.556 19.0913 160.215 19.6322V14.1973H158.962V27.2905H160.215V22.4202C160.215 21.3732 160.506 20.5529 161.089 19.9586C161.671 19.3646 162.462 19.0675 163.462 19.0675C164.356 19.0675 165.044 19.3205 165.527 19.8262C166.009 20.3322 166.25 21.0675 166.25 22.032V27.2905H167.503Z" fill="white"/>
<path d="M62.3323 39.3152C62.85 39.0447 63.2527 38.6742 63.5411 38.2037C63.8292 37.7332 63.9735 37.1977 63.9735 36.5977C63.9735 35.6097 63.5703 34.8275 62.7647 34.251C61.9588 33.6747 60.803 33.3862 59.2972 33.3862H54.0645V45.7384H59.6502C61.2617 45.7384 62.4882 45.4473 63.3293 44.8651C64.1703 44.2826 64.5911 43.4505 64.5911 42.3679C64.5911 41.6035 64.3908 40.9593 63.9911 40.4358C63.5911 39.9126 63.0382 39.539 62.3323 39.3152V39.3152ZM56.9054 35.539H58.9443C59.6502 35.539 60.1853 35.6599 60.5501 35.9009C60.9146 36.1421 61.0972 36.5037 61.0972 36.986C61.0972 37.4685 60.9146 37.833 60.5501 38.0802C60.1853 38.3272 59.6502 38.4507 58.9443 38.4507H56.9054V35.539ZM61.1412 43.2149C60.7588 43.4622 60.1912 43.5857 59.4385 43.5857H56.9054V40.533H59.4385C60.956 40.533 61.7147 41.0447 61.7147 42.0682C61.7147 42.586 61.5235 42.9679 61.1412 43.2149Z" fill="white"/>
<path d="M70.223 32.6453H67.4702V45.7385H70.223V32.6453Z" fill="white"/>
<path d="M80.8835 36.7301C80.0951 36.3129 79.201 36.1038 78.2013 36.1038C77.2013 36.1038 76.3044 36.3129 75.5103 36.7301C74.7161 37.1479 74.0955 37.7273 73.6487 38.4682C73.2014 39.2095 72.978 40.0508 72.978 40.9917C72.978 41.933 73.2014 42.774 73.6487 43.515C74.0955 44.2562 74.7161 44.8359 75.5103 45.2531C76.3044 45.6709 77.2013 45.8797 78.2013 45.8797C79.201 45.8797 80.0951 45.6709 80.8835 45.2531C81.6715 44.8359 82.2891 44.2562 82.7362 43.515C83.1832 42.774 83.4069 41.933 83.4069 40.9917C83.4069 40.0508 83.1832 39.2095 82.7362 38.4682C82.2891 37.7273 81.6715 37.1479 80.8835 36.7301ZM79.9394 42.9064C79.4864 43.3829 78.9071 43.621 78.2013 43.621C77.4954 43.621 76.9131 43.3829 76.4543 42.9064C75.9955 42.4299 75.7661 41.7917 75.7661 40.9917C75.7661 40.1917 75.9955 39.5536 76.4543 39.0771C76.9131 38.6006 77.4954 38.3625 78.2013 38.3625C78.9071 38.3625 79.4864 38.6006 79.9394 39.0771C80.3921 39.5536 80.6188 40.1917 80.6188 40.9917C80.6188 41.7917 80.3921 42.4299 79.9394 42.9064Z" fill="white"/>
<path d="M106.236 36.245H103.38L99.8909 39.7891V32.6453H97.1382V45.7385H99.8909V42.8939L101.048 41.6818L103.679 45.7385H106.48L102.707 39.9435L106.236 36.245Z" fill="white"/>
<path d="M125.398 36.1037C124.786 36.1037 124.221 36.2009 123.704 36.3949C123.186 36.5891 122.745 36.8685 122.38 37.2333V32.6453H119.627V45.7385H122.38V41.0447C122.38 40.1977 122.586 39.5596 122.998 39.1301C123.409 38.7009 123.962 38.486 124.657 38.486C125.28 38.486 125.756 38.6714 126.086 39.0419C126.415 39.4124 126.58 39.9742 126.58 40.727V45.7385H129.333V40.3035C129.333 38.9155 128.971 37.8685 128.248 37.1625C127.524 36.4567 126.574 36.1037 125.398 36.1037V36.1037Z" fill="white"/>
<path d="M136.486 36.1038C134.464 36.1038 132.787 36.9956 132.27 37.3601L133.234 38.9929C135.012 37.6213 138.146 37.6772 138.146 40.1622H135.716C134.328 40.1622 133.301 40.4155 132.637 40.9212C131.972 41.427 131.64 42.121 131.64 43.0032C131.64 43.5565 131.781 44.0505 132.063 44.4857C132.346 44.921 132.754 45.262 133.29 45.509C133.825 45.7562 134.457 45.8797 135.187 45.8797C136.598 45.8797 137.563 45.4385 138.081 44.5562V45.7385H140.421V39.4866C140.421 37.2295 138.507 36.1038 136.486 36.1038V36.1038ZM137.904 42.7387C137.751 43.1622 137.492 43.4829 137.128 43.7004C136.763 43.9181 136.345 44.0267 135.875 44.0267C135.392 44.0267 135.013 43.9239 134.737 43.7181C134.46 43.5124 134.322 43.2327 134.322 42.8797C134.322 42.1387 134.887 41.7682 136.016 41.7682H137.904V42.7387V42.7387Z" fill="white"/>
<path d="M235.552 36.1038C233.53 36.1038 231.854 36.9956 231.336 37.3601L232.3 38.9929C234.078 37.6213 237.212 37.6772 237.212 40.1622H234.782C233.394 40.1622 232.368 40.4155 231.703 40.9212C231.038 41.427 230.706 42.121 230.706 43.0032C230.706 43.5565 230.847 44.0505 231.13 44.4857C231.412 44.921 231.821 45.262 232.356 45.509C232.891 45.7562 233.523 45.8797 234.253 45.8797C235.665 45.8797 236.629 45.4385 237.147 44.5562V45.7385H239.488V39.4866C239.488 37.2295 237.574 36.1038 235.552 36.1038V36.1038ZM236.97 42.7387C236.817 43.1622 236.559 43.4829 236.194 43.7004C235.829 43.9181 235.412 44.0267 234.941 44.0267C234.459 44.0267 234.079 43.9239 233.803 43.7181C233.526 43.5124 233.388 43.2327 233.388 42.8797C233.388 42.1387 233.953 41.7682 235.082 41.7682H236.97V42.7387V42.7387Z" fill="white"/>
<path d="M146.751 36.245H143.998V45.7385H146.751V36.245Z" fill="white"/>
<path d="M144.363 32.5905C144.12 32.8514 143.998 33.1748 143.998 33.5604C143.998 33.9465 144.12 34.2699 144.363 34.5303C144.606 34.7911 144.921 34.9215 145.309 34.9215C145.696 34.9215 146.011 34.7886 146.254 34.5226C146.498 34.2567 146.619 33.9203 146.619 33.5134C146.619 33.1379 146.498 32.8252 146.254 32.5748C146.011 32.3246 145.696 32.1993 145.309 32.1993C144.921 32.1993 144.606 32.3299 144.363 32.5905V32.5905Z" fill="white"/>
<path d="M227.494 36.245H224.741V45.7385H227.494V36.245Z" fill="white"/>
<path d="M226.052 34.9215C226.439 34.9215 226.754 34.7886 226.998 34.5226C227.241 34.2567 227.362 33.9203 227.362 33.5134C227.362 33.138 227.241 32.8252 226.998 32.5748C226.754 32.3246 226.439 32.1993 226.052 32.1993C225.664 32.1993 225.349 32.3299 225.106 32.5905C224.863 32.8514 224.741 33.1748 224.741 33.5604C224.741 33.9465 224.863 34.2698 225.106 34.5303C225.349 34.7911 225.664 34.9214 226.052 34.9214V34.9215Z" fill="white"/>
<path d="M254.154 36.245H251.401V45.7385H254.154V36.245Z" fill="white"/>
<path d="M252.712 34.9215C253.099 34.9215 253.415 34.7886 253.658 34.5226C253.901 34.2567 254.023 33.9203 254.023 33.5134C254.023 33.138 253.901 32.8252 253.658 32.5748C253.415 32.3246 253.099 32.1993 252.712 32.1993C252.325 32.1993 252.009 32.3299 251.766 32.5905C251.523 32.8514 251.401 33.1748 251.401 33.5604C251.401 33.9465 251.523 34.2698 251.766 34.5303C252.009 34.7911 252.325 34.9214 252.712 34.9214V34.9215Z" fill="white"/>
<path d="M155.808 36.1038C153.851 36.1038 153.031 37.271 152.667 37.671V36.245H150.305V45.7385H152.79V41.0447C152.79 40.1978 152.996 39.5596 153.408 39.1301C153.819 38.7009 154.372 38.486 155.066 38.486C155.69 38.486 156.166 38.6714 156.496 39.0419C156.825 39.4124 156.99 39.9743 156.99 40.727V45.7385H159.475V40.3035C159.475 38.9155 159.381 37.8685 158.657 37.1625C157.934 36.4568 156.984 36.1038 155.808 36.1038V36.1038Z" fill="white"/>
<path d="M278.182 37.1625C277.459 36.4568 276.509 36.1038 275.332 36.1038C273.376 36.1038 272.556 37.271 272.191 37.671V36.245H269.83V45.7385H272.315V41.0447C272.315 40.1978 272.521 39.5596 272.933 39.1301C273.344 38.7009 273.897 38.486 274.591 38.486C275.215 38.486 275.691 38.6714 276.021 39.0419C276.35 39.4124 276.515 39.9743 276.515 40.727V45.7385H279V40.3035C279 38.9155 278.906 37.8685 278.182 37.1625V37.1625Z" fill="white"/>
<path d="M172.303 33.3862L166.798 45.7384H169.727L170.821 43.0914H176.556L177.65 45.7384H180.65L175.127 33.3862H172.303V33.3862ZM171.739 40.9212L173.697 36.192L175.656 40.9212H171.739V40.9212Z" fill="white"/>
<path d="M187.852 40.4359C187.418 40.2889 186.859 40.1508 186.176 40.0213C185.566 39.9152 185.121 39.8038 184.841 39.686C184.562 39.5685 184.422 39.3625 184.422 39.0683C184.422 38.8098 184.552 38.598 184.81 38.433C185.069 38.2685 185.457 38.186 185.975 38.186C186.843 38.186 187.645 38.4215 188.38 38.8917L189.187 36.9333C188.804 36.6745 188.32 36.4716 187.736 36.3244C187.151 36.1774 186.564 36.1038 185.975 36.1038C185.178 36.1038 184.487 36.2333 183.902 36.492C183.318 36.751 182.873 37.1126 182.568 37.5771C182.262 38.0421 182.11 38.5743 182.11 39.1743C182.11 39.892 182.273 40.4447 182.599 40.833C182.925 41.221 183.31 41.4917 183.755 41.6447C184.2 41.7977 184.764 41.933 185.447 42.0505C186.026 42.133 186.456 42.233 186.735 42.3505C187.014 42.4682 187.154 42.6622 187.154 42.9327C187.154 43.5092 186.642 43.7975 185.617 43.7975C185.11 43.7975 184.593 43.7121 184.065 43.5416C183.538 43.3711 183.088 43.1505 182.715 42.8797L181.908 44.8562C182.301 45.1505 182.829 45.3944 183.491 45.5886C184.153 45.7826 184.831 45.8797 185.524 45.8797C186.342 45.8797 187.048 45.7531 187.643 45.5004C188.238 45.2474 188.691 44.8915 189.001 44.4327C189.311 43.974 189.467 43.4505 189.467 42.8622C189.467 42.1682 189.306 41.627 188.985 41.2387C188.665 40.8505 188.287 40.5831 187.852 40.4359L187.852 40.4359Z" fill="white"/>
<path d="M197.403 40.4359C196.968 40.2889 196.409 40.1508 195.726 40.0213C195.116 39.9152 194.671 39.8038 194.392 39.686C194.113 39.5685 193.973 39.3625 193.973 39.0683C193.973 38.8098 194.102 38.598 194.361 38.433C194.619 38.2685 195.007 38.186 195.525 38.186C196.394 38.186 197.196 38.4215 197.93 38.8917L198.738 36.9333C198.355 36.6745 197.871 36.4716 197.286 36.3244C196.702 36.1774 196.115 36.1038 195.525 36.1038C194.728 36.1038 194.037 36.2333 193.453 36.492C192.868 36.751 192.423 37.1126 192.118 37.5771C191.813 38.0421 191.66 38.5743 191.66 39.1743C191.66 39.892 191.823 40.4447 192.149 40.833C192.475 41.221 192.86 41.4917 193.305 41.6447C193.75 41.7977 194.314 41.933 194.997 42.0505C195.576 42.133 196.006 42.233 196.285 42.3505C196.565 42.4682 196.704 42.6622 196.704 42.9327C196.704 43.5092 196.192 43.7975 195.168 43.7975C194.661 43.7975 194.143 43.7121 193.616 43.5416C193.088 43.3711 192.638 43.1505 192.265 42.8797L191.458 44.8562C191.851 45.1505 192.379 45.3944 193.041 45.5886C193.704 45.7826 194.381 45.8797 195.075 45.8797C195.892 45.8797 196.598 45.7531 197.193 45.5004C197.788 45.2474 198.241 44.8915 198.551 44.4327C198.862 43.974 199.017 43.4505 199.017 42.8622C199.017 42.1682 198.856 41.627 198.536 41.2387C198.215 40.8505 197.837 40.5831 197.403 40.4359L197.403 40.4359Z" fill="white"/>
<path d="M208.86 36.7301C208.072 36.3129 207.178 36.1038 206.178 36.1038C205.178 36.1038 204.281 36.3129 203.487 36.7301C202.693 37.1479 202.073 37.7273 201.626 38.4682C201.178 39.2095 200.955 40.0508 200.955 40.9917C200.955 41.933 201.178 42.774 201.626 43.515C202.073 44.2562 202.693 44.8359 203.487 45.2531C204.281 45.6709 205.178 45.8797 206.178 45.8797C207.178 45.8797 208.072 45.6709 208.86 45.2531C209.648 44.8359 210.266 44.2562 210.713 43.515C211.16 42.774 211.384 41.933 211.384 40.9917C211.384 40.0508 211.16 39.2095 210.713 38.4682C210.266 37.7273 209.648 37.1479 208.86 36.7301ZM207.916 42.9064C207.463 43.3829 206.884 43.621 206.178 43.621C205.472 43.621 204.89 43.3829 204.431 42.9064C203.973 42.4299 203.743 41.7917 203.743 40.9917C203.743 40.1917 203.973 39.5536 204.431 39.0771C204.89 38.6006 205.472 38.3625 206.178 38.3625C206.884 38.3625 207.463 38.6006 207.916 39.0771C208.369 39.5536 208.596 40.1917 208.596 40.9917C208.596 41.7917 208.369 42.4299 207.916 42.9064Z" fill="white"/>
<path d="M245.58 42.4387V38.3069H248.212V36.7241H245.58V34.145H243.362V36.7241H241.897V38.3069H243.362V43.2532C243.362 45.0812 244.748 45.8797 246.11 45.8797C247.471 45.8797 248.208 45.3385 248.479 45.1385L247.956 43.441C246.632 44.1312 245.58 43.8514 245.58 42.4387V42.4387Z" fill="white"/>
<path d="M264.484 36.7301C263.696 36.3129 262.802 36.1038 261.802 36.1038C260.802 36.1038 259.905 36.3129 259.111 36.7301C258.317 37.1479 257.697 37.7273 257.25 38.4682C256.802 39.2095 256.579 40.0508 256.579 40.9917C256.579 41.933 256.802 42.774 257.25 43.515C257.697 44.2562 258.317 44.8359 259.111 45.2531C259.905 45.6709 260.802 45.8797 261.802 45.8797C262.802 45.8797 263.696 45.6709 264.484 45.2531C265.272 44.8359 265.89 44.2562 266.337 43.515C266.784 42.774 267.008 41.933 267.008 40.9917C267.008 40.0508 266.784 39.2095 266.337 38.4682C265.89 37.7273 265.272 37.1479 264.484 36.7301ZM263.54 42.9064C263.087 43.3829 262.508 43.621 261.802 43.621C261.096 43.621 260.514 43.3829 260.055 42.9064C259.597 42.4299 259.367 41.7917 259.367 40.9917C259.367 40.1917 259.597 39.5536 260.055 39.0771C260.514 38.6006 261.096 38.3625 261.802 38.3625C262.508 38.3625 263.087 38.6006 263.54 39.0771C263.993 39.5536 264.22 40.1917 264.22 40.9917C264.22 41.7917 263.993 42.4299 263.54 42.9064Z" fill="white"/>
<path d="M90.4476 43.621C89.7299 43.621 89.1357 43.3857 88.6654 42.9152C88.1946 42.4447 87.9595 41.8035 87.9595 40.9917C87.9595 40.18 88.1946 39.539 88.6654 39.0683C89.1357 38.598 89.7299 38.3625 90.4476 38.3625C91.3213 38.3625 92.0003 38.7524 92.4893 39.522L94.2913 37.7844C93.976 37.3564 93.5753 37.004 93.0856 36.7301C92.3385 36.3129 91.465 36.1038 90.4652 36.1038C89.4534 36.1038 88.5446 36.3129 87.7389 36.7301C86.933 37.1479 86.3035 37.7273 85.8508 38.4682C85.3978 39.2095 85.1714 40.0508 85.1714 40.9917C85.1714 41.933 85.3978 42.774 85.8508 43.515C86.3035 44.2562 86.933 44.8359 87.7389 45.2531C88.5446 45.6709 89.4534 45.8797 90.4652 45.8797C91.465 45.8797 92.3385 45.668 93.0856 45.2445C93.6576 44.9202 94.1095 44.4985 94.4435 43.9811L92.4691 42.4967C91.9909 43.2431 91.3189 43.621 90.4476 43.621V43.621Z" fill="white"/>
<path d="M218.365 43.621C217.647 43.621 217.053 43.3857 216.583 42.9152C216.112 42.4447 215.877 41.8035 215.877 40.9917C215.877 40.18 216.112 39.539 216.583 39.0683C217.053 38.598 217.647 38.3625 218.365 38.3625C219.239 38.3625 219.918 38.7524 220.407 39.522L222.209 37.7844C221.894 37.3564 221.493 37.004 221.003 36.7301C220.256 36.3129 219.382 36.1038 218.383 36.1038C217.371 36.1038 216.462 36.3129 215.656 36.7301C214.85 37.1479 214.221 37.7273 213.768 38.4682C213.315 39.2095 213.089 40.0508 213.089 40.9917C213.089 41.933 213.315 42.774 213.768 43.515C214.221 44.2562 214.85 44.8359 215.656 45.2531C216.462 45.6709 217.371 45.8797 218.383 45.8797C219.382 45.8797 220.256 45.668 221.003 45.2445C221.575 44.9202 222.027 44.4985 222.361 43.9811L220.387 42.4967C219.908 43.2431 219.236 43.621 218.365 43.621V43.621Z" fill="white"/>
<path d="M112.881 43.621C112.163 43.621 111.569 43.3857 111.099 42.9152C110.628 42.4447 110.393 41.8035 110.393 40.9917C110.393 40.18 110.628 39.539 111.099 39.0683C111.569 38.598 112.163 38.3625 112.881 38.3625C113.755 38.3625 114.434 38.7524 114.923 39.522L116.725 37.7844C116.41 37.3564 116.009 37.004 115.519 36.7301C114.772 36.3129 113.899 36.1038 112.899 36.1038C111.887 36.1038 110.978 36.3129 110.172 36.7301C109.367 37.1479 108.737 37.7273 108.284 38.4682C107.831 39.2095 107.605 40.0508 107.605 40.9917C107.605 41.933 107.831 42.774 108.284 43.515C108.737 44.2562 109.367 44.8359 110.172 45.2531C110.978 45.6709 111.887 45.8797 112.899 45.8797C113.899 45.8797 114.772 45.668 115.519 45.2445C116.091 44.9202 116.543 44.4985 116.877 43.9811L114.903 42.4967C114.425 43.2431 113.752 43.621 112.881 43.621V43.621Z" fill="white"/>
<path d="M44.8794 42.5162H14.1763V47.4701H44.8794V42.5162Z" fill="white"/>
<path d="M8.65507 42.5162H0V47.4701H8.65507V42.5162Z" fill="white"/>
<path d="M8.65507 48.4991H0V52.8795H8.65507V48.4991Z" fill="white"/>
<path d="M8.65507 8H0V36.9949H8.65507V8Z" fill="white"/>
<path d="M44.8794 48.4991H14.1763V52.8795H44.8794V48.4991Z" fill="white"/>
<path d="M23.4025 27.328C23.5958 27.1969 23.6925 27.0037 23.6925 26.7478C23.6925 26.4921 23.5958 26.3002 23.4025 26.1722C23.2091 26.0446 22.9253 25.9805 22.5509 25.9805H21.5791V27.5245H22.5509C22.9253 27.5245 23.2091 27.4589 23.4025 27.328V27.328Z" fill="white"/>
<path d="M22.8129 28.6287H21.5791V30.2476H22.8129C23.2121 30.2476 23.5132 30.1821 23.716 30.0512C23.9187 29.9202 24.0201 29.7176 24.0201 29.4429C24.0201 28.9001 23.6177 28.6287 22.8129 28.6287V28.6287Z" fill="white"/>
<path d="M37.6281 16.5566C37.8651 16.3601 37.9837 16.081 37.9837 15.7192C37.9837 15.3511 37.8651 15.0688 37.6281 14.8723C37.3909 14.6757 37.0447 14.5775 36.5893 14.5775H35.6216V16.8514H36.5893C37.0447 16.8514 37.3909 16.7531 37.6281 16.5566Z" fill="white"/>
<path d="M14.1763 36.9949H44.8794V8H14.1763V36.9949ZM34.1057 13.3423H36.6737C37.254 13.3423 37.7577 13.439 38.1851 13.6324C38.6122 13.8258 38.9415 14.1002 39.1723 14.4559C39.403 14.8115 39.5185 15.2325 39.5185 15.7192C39.5185 16.1996 39.403 16.619 39.1723 16.9778C38.9415 17.3365 38.6122 17.6109 38.1851 17.8013C37.7577 17.9916 37.254 18.0867 36.6737 18.0867H35.6218V19.8927H34.1057V13.3423V13.3423ZM36.0276 24.8389H37.5249L40.4539 31.3894H38.863L38.2829 29.9857H35.2416L34.6614 31.3894H33.1081L36.0276 24.8389V24.8389ZM25.2271 28.5772C25.4391 28.8549 25.5453 29.1964 25.5453 29.6019C25.5453 30.1761 25.3222 30.6173 24.8762 30.9262C24.4301 31.2348 23.7797 31.3894 22.9252 31.3894H20.0723V24.8389H22.738C23.5364 24.8389 24.1493 24.9919 24.5767 25.2974C25.004 25.6031 25.2177 26.018 25.2177 26.542C25.2177 26.8601 25.1412 27.1441 24.9885 27.3936C24.8356 27.643 24.6219 27.8396 24.3475 27.983C24.7218 28.1017 25.015 28.2997 25.2271 28.5772V28.5772ZM23.2402 17.6983C23.1209 17.5954 22.968 17.5128 22.7816 17.4504C22.5949 17.388 22.3427 17.3193 22.0249 17.2445C21.5356 17.126 21.1352 17.0074 20.8234 16.8889C20.5116 16.7705 20.244 16.58 20.0209 16.318C19.7976 16.056 19.6861 15.7068 19.6861 15.2699C19.6861 14.8895 19.787 14.5448 19.9888 14.2359C20.1905 13.9271 20.4947 13.6824 20.9013 13.5014C21.308 13.3205 21.8048 13.23 22.3917 13.23C22.8013 13.23 23.2019 13.28 23.5932 13.3797C23.9845 13.4796 24.327 13.623 24.6204 13.8102L24.1618 14.9612C23.5688 14.6181 22.9756 14.4465 22.3825 14.4465C21.9667 14.4465 21.6594 14.5152 21.4609 14.6523C21.262 14.7897 21.1627 14.9705 21.1627 15.1951C21.1627 15.4197 21.2774 15.5867 21.5067 15.6958C21.736 15.8049 22.0859 15.9125 22.5568 16.0185C23.0459 16.1372 23.4464 16.2557 23.7582 16.3741C24.0702 16.4928 24.3376 16.6799 24.5608 16.9356C24.7839 17.1915 24.8956 17.5377 24.8956 17.9744C24.8956 18.3487 24.7931 18.6902 24.5884 18.9991C24.3834 19.3078 24.0762 19.5527 23.6666 19.7335C23.2569 19.9145 22.7586 20.0049 22.1716 20.0049C21.664 20.0049 21.1733 19.9348 20.6995 19.7944C20.2256 19.654 19.8451 19.4715 19.5577 19.247L20.0621 18.1053C20.3373 18.3112 20.6644 18.4766 21.0435 18.6013C21.4226 18.7262 21.8016 18.7885 22.1809 18.7885C22.6027 18.7885 22.9145 18.7245 23.1163 18.5966C23.3181 18.4688 23.4189 18.2988 23.4189 18.0867C23.4189 17.9308 23.3593 17.8013 23.2402 17.6983H23.2402Z" fill="white"/>
<path d="M36.7673 26.3267L35.7285 28.8345H37.8059L36.7673 26.3267Z" fill="white"/>
</g>
<defs>
<clipPath id="clip0_615_49">
<rect width="279" height="60" fill="white"/>
</clipPath>
</defs>
</svg>
