<svg width="183" height="60" viewBox="0 0 183 60" fill="none" xmlns="http://www.w3.org/2000/svg">
<g clip-path="url(#clip0_615_36)">
<path fill-rule="evenodd" clip-rule="evenodd" d="M31.4937 30.6562C30.8875 31.2624 29.8342 30.9873 29.4765 30.2082C29.406 30.0547 29.3677 29.89 29.3677 29.721V16.2905C29.3677 14.6664 28.051 13.3497 26.4268 13.3497C24.8026 13.3497 23.4859 14.6664 23.4859 16.2905V23.0881C23.4859 23.6726 22.8872 24.0694 22.3298 23.8933C21.977 23.7818 21.7222 23.4606 21.7222 23.0907V12.1734C21.7222 10.5492 20.4056 9.23254 18.7813 9.23254C17.1572 9.23254 15.8405 10.5492 15.8405 12.1734V23.0899C15.8405 23.4601 15.5855 23.7814 15.2325 23.893C14.6748 24.0692 14.0757 23.6722 14.0757 23.0873V16.2905C14.0757 14.6664 12.759 13.3497 11.1348 13.3497C9.5106 13.3497 8.19399 14.6664 8.19399 16.2905V29.7256C8.19399 29.8914 8.15635 30.0529 8.08712 30.2035C7.73681 30.9654 6.7074 31.2322 6.11441 30.6392L5.02035 29.5451C3.87187 28.3967 2.00983 28.3967 0.861353 29.5451C-0.28712 30.6936 -0.287117 32.5557 0.861359 33.7041L9.5069 42.3496C11.6599 45.1044 15.0135 46.8752 18.7807 46.8752C22.3913 46.8752 25.6219 45.2486 27.7798 42.6881L36.7638 33.7041C37.9123 32.5556 37.9123 30.6936 36.7638 29.5451C35.6154 28.3966 33.7533 28.3966 32.6049 29.5451L31.4937 30.6562ZM18.7801 42.17C23.9775 42.17 28.1908 36.2883 28.1908 36.2883C28.1908 36.2883 23.9775 30.4066 18.7801 30.4066C13.5827 30.4066 9.36932 36.2883 9.36932 36.2883C9.36932 36.2883 13.5827 42.17 18.7801 42.17ZM94.6487 19.8692H90.1592V15.5869H94.6487V19.8692ZM94.5105 39.7957H90.3316V22.5974H94.5105V39.7957ZM54.6685 39.7956H50.179V19.4892H41.7871V15.6214H63.1988V19.4892H54.6685V39.7956ZM66.0869 40.3138C62.7714 40.3138 60.5617 38.4144 60.5617 35.3753C60.5617 33.1996 61.5286 31.5765 63.4966 30.575C65.4652 29.539 68.0902 28.8829 71.371 28.572V27.985C71.371 26.2237 70.4035 25.2913 68.2278 25.2913C65.8799 25.2913 64.6018 26.3964 64.153 28.1576L60.3199 27.1561C60.6652 24.566 63.566 22.0795 68.2278 22.0795C72.9591 22.0795 75.5493 24.3243 75.5493 28.503V35.4444C75.5493 36.3078 75.6876 36.4804 76.5857 36.4804H78.2084V39.7958H76.4128C73.5807 39.7958 72.9249 38.8979 72.8555 36.2042H71.371C70.6452 38.6561 68.8842 40.3138 66.0869 40.3138ZM67.4338 37.1366C69.5747 37.1366 71.371 35.6516 71.371 32.7162V31.3348C67.2609 31.7837 64.8435 32.7507 64.8435 34.9609C64.8435 36.3423 65.7764 37.1366 67.4338 37.1366ZM80.9561 39.7956H85.1691V15.6214H80.9561V39.7956ZM98.0864 35.3753C98.8464 38.4144 102.092 40.2792 105.96 40.2792C110.691 40.2792 113.558 38.1035 113.558 34.7537C113.558 33.1651 112.971 31.9564 111.831 31.1276C110.691 30.2987 109.31 29.7117 107.687 29.4009L105.443 28.9864C103.371 28.572 102.818 28.054 102.818 27.0525C102.818 25.9128 103.819 25.1186 105.65 25.1186C107.618 25.1186 108.861 26.2582 109.414 27.7432L112.971 26.2237C112.177 24.1171 109.897 22.0795 105.788 22.0795C101.678 22.0795 98.8117 24.2552 98.8117 27.4324C98.8117 30.6786 100.884 31.8873 104.372 32.6126L106.651 33.027C108.585 33.4069 109.207 34.0975 109.207 35.1681C109.207 36.3769 108.102 37.1366 106.133 37.1366C103.405 37.1366 102.299 35.6171 101.989 34.0975L98.0864 35.3753ZM121.525 39.7958H117.312V22.5975H121.042C121.042 23.5991 120.42 25.1186 119.695 26.1201H121.663C122.32 23.7717 123.804 22.0795 126.326 22.0795C128.639 22.0795 130.469 23.53 131.057 26.1201H132.541C133.267 23.7372 135.166 22.0795 137.514 22.0795C140.83 22.0795 143.247 24.3934 143.247 28.572V39.7958H139.069V29.2973C139.069 26.7762 137.929 25.6021 135.96 25.6021C134.89 25.6021 134.061 25.9128 133.543 26.5345C132.473 27.7777 132.369 29.3318 132.369 31.3003V39.7958H128.225V29.2973C128.225 26.8453 127.188 25.6021 125.117 25.6021C124.046 25.6021 123.252 25.9128 122.734 26.5345C121.663 27.7777 121.525 29.3663 121.525 31.3003V39.7958ZM147.134 35.3753C147.134 38.4144 149.345 40.3138 152.66 40.3138C155.457 40.3138 157.219 38.6561 157.944 36.2042H159.429C159.498 38.8979 160.154 39.7958 162.986 39.7958H164.782V36.4804H163.158C162.26 36.4804 162.122 36.3078 162.122 35.4444V28.503C162.122 24.3243 159.532 22.0795 154.801 22.0795C150.139 22.0795 147.238 24.566 146.893 27.1561L150.726 28.1576C151.175 26.3964 152.453 25.2913 154.801 25.2913C156.977 25.2913 157.944 26.2237 157.944 27.985V28.572C154.663 28.8829 152.039 29.539 150.07 30.575C148.101 31.5765 147.134 33.1996 147.134 35.3753ZM157.944 32.7162C157.944 35.6516 156.148 37.1366 154.007 37.1366C152.349 37.1366 151.417 36.3423 151.417 34.9609C151.417 32.7507 153.834 31.7837 157.944 31.3348V32.7162ZM171.742 39.7958H167.528V22.5975H171.431C171.396 23.5991 170.706 25.1531 169.739 26.569H171.707C172.467 24.2552 174.263 22.0795 177.094 22.0795C180.963 22.0795 183 24.497 183 28.4684V39.7958H178.787V29.2973C178.787 26.8107 177.647 25.6021 175.679 25.6021C174.505 25.6021 173.606 25.9474 173.019 26.6726C171.88 28.054 171.742 29.8498 171.742 31.9219V39.7958ZM18.7802 39.8174C20.7293 39.8174 22.3093 38.2374 22.3093 36.2884C22.3093 34.3394 20.7293 32.7594 18.7802 32.7594C16.8312 32.7594 15.2512 34.3394 15.2512 36.2884C15.2512 38.2374 16.8312 39.8174 18.7802 39.8174Z" fill="white"/>
</g>
<defs>
<clipPath id="clip0_615_36">
<rect width="183" height="60" fill="white"/>
</clipPath>
</defs>
</svg>
