<svg width="132" height="60" viewBox="0 0 132 60" fill="none" xmlns="http://www.w3.org/2000/svg">
<path d="M19.4026 30.9269C19.4026 34.2472 18.6486 36.9064 17.1418 38.9052C15.6342 40.904 13.5989 41.9031 11.036 41.9031C8.85785 41.9031 7.09809 41.1461 5.75702 39.6321V49.7916H0V19.9507H5.3387L5.5379 22.0622C6.93233 20.3889 8.75149 19.5522 10.9961 19.5522C13.6519 19.5522 15.7173 20.5351 17.1914 22.5005C18.6655 24.4662 19.4026 27.1754 19.4026 30.628V30.9268L19.4026 30.9269ZM13.6455 30.5085C13.6455 28.5033 13.29 26.9563 12.5796 25.867C11.8692 24.7782 10.8367 24.2336 9.48215 24.2336C7.67577 24.2336 6.43432 24.9244 5.75701 26.3053V35.1301C6.46062 36.5512 7.71561 37.2616 9.52199 37.2616C12.271 37.2616 13.6455 35.0106 13.6455 30.5085H13.6455Z" fill="white"/>
<path d="M34.252 25.3491C33.4684 25.2431 32.7779 25.1897 32.1803 25.1897C30.0022 25.1897 28.5747 25.9268 27.8974 27.4009V41.5046H22.1404V19.9507H27.5787L27.738 22.5204C28.8934 20.5419 30.4935 19.5522 32.5389 19.5522C33.1763 19.5522 33.774 19.6387 34.3317 19.8112L34.252 25.3491V25.3491Z" fill="white"/>
<path d="M48.691 41.5046C48.4252 40.9867 48.2328 40.3429 48.1133 39.5723C46.7188 41.1261 44.9061 41.903 42.675 41.903C40.5634 41.903 38.8134 41.2923 37.4257 40.0704C36.0381 38.8488 35.3442 37.3082 35.3442 35.4488C35.3442 33.1647 36.1907 31.4117 37.8843 30.1898C39.5772 28.9683 42.024 28.3507 45.2248 28.3372H47.8742V27.1021C47.8742 26.1061 47.6183 25.3093 47.1071 24.7117C46.5959 24.114 45.789 23.8152 44.6869 23.8152C43.7172 23.8152 42.9569 24.0479 42.4059 24.5124C41.8549 24.9774 41.5793 25.6148 41.5793 26.4248H35.8223C35.8223 25.1766 36.2072 24.0212 36.9777 22.9586C37.7479 21.8965 38.8367 21.0632 40.2447 20.4588C41.6523 19.8544 43.2328 19.5522 44.9858 19.5522C47.6416 19.5522 49.7498 20.2198 51.3107 21.5541C52.8709 22.8891 53.6512 24.765 53.6512 27.1818V36.5245C53.6643 38.5699 53.95 40.117 54.5078 41.166V41.5046H48.691V41.5046ZM43.93 37.5006C44.7798 37.5006 45.5635 37.3116 46.2806 36.9327C46.9977 36.5546 47.5288 36.0464 47.8742 35.409V31.7037H45.7228C42.8407 31.7037 41.3069 32.6998 41.1212 34.6918L41.1013 35.0305C41.1013 35.7476 41.3535 36.3388 41.8582 36.8034C42.3626 37.2683 43.0535 37.5006 43.93 37.5006Z" fill="white"/>
<path d="M56.1311 30.5683C56.1311 27.2615 56.9178 24.5989 58.4919 22.5802C60.0652 20.5618 62.1869 19.5522 64.8563 19.5522C67.2201 19.5522 69.0595 20.3626 70.3743 21.9825L70.6133 19.9507H75.8325V40.7875C75.8325 42.6732 75.404 44.3134 74.5478 45.7079C73.6908 47.1023 72.4858 48.1645 70.932 48.8951C69.3782 49.6254 67.5587 49.9908 65.4738 49.9908C63.8933 49.9908 62.3527 49.675 60.8523 49.0443C59.3515 48.4136 58.216 47.6003 57.4459 46.6043L59.9957 43.0983C61.43 44.7051 63.1694 45.5086 65.2149 45.5086C66.742 45.5086 67.9304 45.1001 68.7806 44.2837C69.6304 43.4666 70.0555 42.3078 70.0555 40.8074V39.652C68.7272 41.1528 66.981 41.903 64.8164 41.903C62.2268 41.903 60.1317 40.8905 58.5317 38.8653C56.9309 36.8402 56.1311 34.154 56.1311 30.8073V30.5683L56.1311 30.5683ZM61.8881 30.9968C61.8881 32.9524 62.2798 34.4851 63.0634 35.5958C63.8467 36.7064 64.9224 37.2616 66.2906 37.2616C68.0436 37.2616 69.2986 36.6034 70.0555 35.2864V26.2087C69.285 24.8921 68.0436 24.2336 66.3304 24.2336C64.9491 24.2336 63.8633 24.7992 63.0736 25.9294C62.2831 27.06 61.8881 28.7491 61.8881 30.9967L61.8881 30.9968Z" fill="white"/>
<path d="M84.8012 19.9507L84.9801 22.361C86.5076 20.4885 88.5725 19.5522 91.1757 19.5522C93.9511 19.5522 95.8567 20.6479 96.8925 22.8391C98.4065 20.6479 100.565 19.5522 103.367 19.5522C105.704 19.5522 107.444 20.2329 108.586 21.5939C109.728 22.9556 110.299 25.0041 110.299 27.7396V41.5046H104.522V27.7595C104.522 26.538 104.283 25.6449 103.805 25.0804C103.327 24.5158 102.484 24.2336 101.275 24.2336C99.5484 24.2336 98.3531 25.0571 97.6894 26.7037L97.7097 41.5046H91.9523V27.7794C91.9523 26.5312 91.7064 25.628 91.2156 25.0702C90.724 24.5125 89.8873 24.2336 88.7056 24.2336C87.0721 24.2336 85.8897 24.9109 85.1597 26.2655V41.5046H79.4023V19.9507H84.8012H84.8012Z" fill="white"/>
<path d="M126.183 41.5046C125.918 40.9867 125.725 40.3429 125.606 39.5723C124.211 41.1261 122.398 41.903 120.167 41.903C118.056 41.903 116.306 41.2923 114.918 40.0704C113.53 38.8488 112.836 37.3082 112.836 35.4488C112.836 33.1647 113.683 31.4117 115.376 30.1898C117.069 28.9683 119.516 28.3507 122.717 28.3372H125.367V27.1021C125.367 26.1061 125.11 25.3093 124.599 24.7117C124.088 24.114 123.282 23.8152 122.18 23.8152C121.21 23.8152 120.449 24.0479 119.898 24.5124C119.347 24.9774 119.072 25.6148 119.072 26.4248H113.315C113.315 25.1766 113.699 24.0212 114.47 22.9586C115.24 21.8965 116.329 21.0632 117.737 20.4588C119.145 19.8544 120.725 19.5522 122.478 19.5522C125.134 19.5522 127.242 20.2198 128.803 21.5541C130.363 22.8891 131.144 24.765 131.144 27.1818V36.5245C131.157 38.5699 131.442 40.117 132 41.166V41.5046H126.183V41.5046ZM121.423 37.5006C122.272 37.5006 123.056 37.3116 123.773 36.9327C124.49 36.5546 125.021 36.0464 125.367 35.409V31.7037H123.215C120.333 31.7037 118.799 32.6998 118.613 34.6918L118.594 35.0305C118.594 35.7476 118.846 36.3388 119.351 36.8034C119.855 37.2683 120.546 37.5006 121.423 37.5006Z" fill="white"/>
</svg>
