<svg width="164" height="60" viewBox="0 0 164 60" fill="none" xmlns="http://www.w3.org/2000/svg">
<path d="M83.9238 18.802C84.8539 18.802 85.7158 18.7939 86.577 18.8157C86.6553 18.8177 86.7699 19.0021 86.7981 19.1185C87.317 21.2599 87.8256 23.4038 88.3359 25.5473C89.1491 28.9636 89.9612 32.3802 90.7774 35.7958C90.8129 35.9442 90.8071 36.1869 91.0563 36.1085C91.1595 36.0759 91.2633 35.9053 91.2873 35.7821C92.3693 30.2377 93.4424 24.6916 94.5173 19.1459C94.5382 19.0379 94.5694 18.9319 94.6019 18.8005C95.0952 18.8005 95.5761 18.8005 96.0569 18.8005C97.1337 18.8005 98.2105 18.8067 99.2872 18.7957C99.5196 18.7933 99.6112 18.8533 99.6575 19.0969C100.542 23.7556 101.439 28.412 102.333 33.0689C102.508 33.9805 102.685 34.8917 102.858 35.8036C102.89 35.9703 102.892 36.1279 103.143 36.1303C103.382 36.1326 103.413 35.9923 103.455 35.8219C104.514 31.4871 105.575 27.1527 106.635 22.8181C106.938 21.5799 107.244 20.3424 107.537 19.1019C107.589 18.8808 107.673 18.7896 107.917 18.7944C108.744 18.8106 109.572 18.8006 110.443 18.8006C110.411 18.9563 110.391 19.0735 110.363 19.1887C108.82 25.5698 107.277 31.9511 105.73 38.3313C105.596 38.886 105.706 38.8103 105.129 38.8118C103.727 38.8154 102.324 38.8057 100.923 38.8195C100.666 38.8221 100.576 38.7383 100.53 38.497C99.4703 32.9381 98.4045 27.3804 97.3374 21.823C97.3101 21.681 97.3211 21.4594 97.0863 21.5238C96.9895 21.5503 96.881 21.7008 96.8596 21.8107C95.787 27.3341 94.7234 32.8592 93.6584 38.3841C93.6331 38.5152 93.603 38.6453 93.5716 38.7928H88.6197C87.0603 32.1542 85.4991 25.508 83.9238 18.802V18.802Z" fill="white"/>
<path d="M36.4416 31.6531H39.052C39.1022 31.9469 39.146 32.2417 39.2035 32.5338C39.665 34.8803 41.0547 36.0978 43.4428 36.222C44.4106 36.2724 45.3775 36.2226 46.2911 35.858C47.3192 35.4476 48.0278 34.7505 48.1328 33.5918C48.2361 32.453 47.957 31.4716 46.9635 30.7666C46.0491 30.1176 45.0105 29.7796 43.9529 29.4773C42.8975 29.1755 41.8342 28.9002 40.7855 28.5773C40.3714 28.4498 39.9746 28.2485 39.5921 28.0403C37.8241 27.078 37.024 25.5776 37.1555 23.5804C37.3053 21.3064 38.4588 19.7502 40.6084 19.0092C42.6117 18.3186 44.65 18.3266 46.6358 19.0985C48.7693 19.9279 50.1448 21.7884 50.1869 24.4858H47.5654C47.5147 24.2873 47.4634 24.0832 47.4103 23.8796C47.0123 22.3543 46.0216 21.4952 44.4629 21.2908C43.3544 21.1454 42.2674 21.2161 41.2387 21.7005C40.4766 22.0594 39.9855 22.6303 39.8943 23.4924C39.7984 24.3996 40.0745 25.1638 40.9155 25.5786C41.7452 25.9879 42.6099 26.3398 43.4863 26.638C44.5562 27.0019 45.6632 27.2568 46.7364 27.6121C47.2851 27.7937 47.8168 28.0539 48.3188 28.3431C50.2689 29.467 51.1543 31.2952 50.8253 33.5186C50.7308 34.1568 50.6289 34.8128 50.3954 35.4079C49.7263 37.1121 48.4104 38.1739 46.6787 38.6332C44.5575 39.1958 42.421 39.1115 40.3736 38.2731C37.9247 37.2703 36.6737 35.3687 36.446 32.7688C36.4143 32.4062 36.4416 32.0385 36.4416 31.653V31.6531Z" fill="white"/>
<path d="M72.3842 26.1092C73.5092 24.9623 74.8758 24.6437 76.3119 24.6277C77.2354 24.6174 78.1791 24.6963 79.0815 24.8871C81.0097 25.2949 82.2344 26.5554 82.7935 28.3999C83.4407 30.5351 83.4539 32.7221 82.8372 34.8599C82.1897 37.1046 80.6714 38.4121 78.2919 38.699C76.6176 38.9009 74.998 38.8595 73.487 38.0152C73.0887 37.7927 72.7159 37.5249 72.2778 37.2435L71.9821 38.789H69.7087C69.7028 38.6572 69.6928 38.5371 69.6928 38.417C69.692 32.0049 69.6948 25.5927 69.6846 19.1806C69.684 18.8404 69.7704 18.7376 70.1147 18.7532C70.7527 18.7823 71.3934 18.7753 72.032 18.7553C72.3174 18.7464 72.3907 18.843 72.3895 19.1173C72.3798 21.2882 72.3841 23.4592 72.3842 25.6301C72.3842 25.7613 72.3842 25.8925 72.3842 26.1092V26.1092ZM76.4657 27.2444L76.46 27.2788C76.0906 27.2999 75.7202 27.309 75.3521 27.344C73.6548 27.505 72.846 28.2266 72.6396 29.9041C72.527 30.8196 72.5205 31.756 72.5588 32.6791C72.5834 33.2726 72.7226 33.8763 72.9062 34.4446C73.2008 35.356 73.8786 35.915 74.8307 35.996C75.7978 36.0783 76.7784 36.0967 77.7472 36.0413C79.0526 35.9667 79.7608 35.3416 80.1089 34.0757C80.4123 32.9724 80.4407 31.84 80.3339 30.7117C80.2766 30.1058 80.1584 29.4928 79.9693 28.9151C79.7062 28.1116 79.1012 27.617 78.2634 27.4668C77.67 27.3604 77.0653 27.3163 76.4657 27.2444H76.4657Z" fill="white"/>
<path d="M123.893 36.1231V38.8129H123.176C122.133 38.8129 121.09 38.799 120.047 38.8215C119.74 38.8281 119.64 38.7191 119.602 38.4397C119.551 38.0656 119.464 37.6965 119.388 37.3049C119.108 37.558 118.877 37.8139 118.602 38.0072C117.955 38.4609 117.217 38.6859 116.436 38.7713C115.358 38.8894 114.285 38.8784 113.24 38.5417C110.106 37.5313 109.661 34.1919 110.492 32.3499C111.031 31.1559 112.058 30.5496 113.247 30.1617C114.207 29.8486 115.201 29.7808 116.202 29.7734C117.099 29.7668 117.996 29.7719 118.893 29.7719C119.015 29.7719 119.136 29.7719 119.308 29.7719C119.308 29.5185 119.312 29.2988 119.307 29.0794C119.293 28.5132 119.275 27.9471 119.259 27.3809C118.69 27.3682 118.121 27.346 117.552 27.3446C115.702 27.3399 113.852 27.3429 112.001 27.3429H111.588V24.6548H122V25.0879C122 28.2881 121.998 31.4882 122.003 34.6884C122.003 35.1536 122.035 35.6187 122.052 36.0839C122.509 36.097 122.966 36.111 123.422 36.1225C123.566 36.1261 123.71 36.1231 123.893 36.1231V36.1231ZM119.249 32.1709C117.978 32.209 116.703 32.2247 115.431 32.2954C114.833 32.3287 114.273 32.5597 113.784 32.9158C112.773 33.6505 112.735 35.0151 113.716 35.7835C113.967 35.9795 114.266 36.1494 114.569 36.2358C115.742 36.5693 116.884 36.4539 117.944 35.8379C118.593 35.4612 119.132 34.9369 119.232 34.1647C119.313 33.5416 119.249 32.8996 119.249 32.1709H119.249Z" fill="white"/>
<path d="M140.452 33.1197C140.29 34.5723 141.087 35.7497 142.491 36.1119C143.716 36.4281 144.961 36.4096 146.193 36.146C146.919 35.9906 147.537 35.6441 147.82 34.8857C147.843 34.823 147.948 34.7509 148.016 34.7504C148.845 34.7445 149.675 34.751 150.505 34.7562C150.522 34.7563 150.539 34.7804 150.582 34.8124C150.379 35.6778 149.991 36.4552 149.372 37.1143C148.593 37.9447 147.611 38.4182 146.518 38.6605C145.099 38.9751 143.67 38.9801 142.243 38.6942C140.107 38.2661 138.713 37.0012 138.11 34.9229C137.547 32.9814 137.509 31.0138 138.079 29.062C138.799 26.596 140.768 25.0128 143.333 24.7758C144.369 24.6801 145.398 24.6894 146.409 24.9377C148.636 25.4839 149.979 26.9355 150.601 29.0935C150.945 30.289 151.014 31.5146 150.958 32.753C150.945 33.0409 150.855 33.1274 150.561 33.1264C147.342 33.1157 144.123 33.1197 140.904 33.1197H140.452V33.1197ZM148.22 30.5797C148.231 30.5155 148.245 30.482 148.24 30.4512C148.209 30.2413 148.181 30.0308 148.14 29.8227C147.871 28.4463 147.026 27.608 145.676 27.3004C144.782 27.0966 143.859 27.0856 142.984 27.3676C142.454 27.5386 141.933 27.8237 141.494 28.1674C140.737 28.7597 140.44 29.6051 140.426 30.5797H148.22V30.5797Z" fill="white"/>
<path d="M63.1445 24.6516H65.8121V38.7945H54.2344V24.6612H56.8957V25.0832C56.8957 28.6188 56.8956 32.1543 56.8958 35.6898C56.8958 35.9783 57.0427 36.1227 57.3364 36.123C59.1193 36.1232 60.9023 36.1232 62.6852 36.1231C62.9911 36.123 63.1442 35.9747 63.1444 35.678C63.1445 32.1537 63.1445 28.6293 63.1445 25.105V24.6516V24.6516Z" fill="white"/>
<path d="M163.628 36.123V38.7856H155.079V27.3243C154.479 27.3243 153.923 27.3243 153.366 27.3242C153.198 27.3242 153.027 27.3403 152.863 27.3156C152.79 27.3047 152.674 27.2113 152.673 27.1539C152.661 26.3295 152.665 25.5048 152.665 24.6434H155.051V18.8292H157.767V24.6302H162.527V27.3261H157.786C157.778 27.4659 157.766 27.5741 157.766 27.6823C157.765 30.3674 157.77 33.0526 157.758 35.7378C157.757 36.0441 157.839 36.1332 158.151 36.1303C159.833 36.1148 161.515 36.123 163.197 36.123H163.628V36.123Z" fill="white"/>
<path d="M129.863 38.7939H127.193C127.186 38.6819 127.172 38.565 127.172 38.4481C127.171 32.0265 127.173 25.6049 127.164 19.1832C127.164 18.8706 127.253 18.7836 127.559 18.7937C128.22 18.8156 128.882 18.8109 129.544 18.7952C129.796 18.7892 129.87 18.8702 129.868 19.1195C129.857 20.3612 129.863 21.6031 129.863 22.8449C129.863 28.0135 129.863 33.1822 129.863 38.3508V38.7939H129.863Z" fill="white"/>
<path d="M135.409 38.8128C134.547 38.8128 133.753 38.8132 132.958 38.812C132.893 38.8119 132.828 38.801 132.743 38.7933V18.8022C133.584 18.8022 134.4 18.7974 135.217 18.8112C135.282 18.8123 135.367 18.9324 135.401 19.0144C135.433 19.091 135.409 19.1906 135.409 19.2801C135.409 25.6342 135.409 31.9883 135.409 38.3425V38.8128L135.409 38.8128Z" fill="white"/>
<path fill-rule="evenodd" clip-rule="evenodd" d="M6.02977 7L28.2906 18.6858L28.2905 25.0695L22.2609 28.0102L8.43348 20.7519V22.4683L28.2903 32.9221V39.2011L3.69727 50.1958V50.184L0 48.2431V34.0977L4.74417 32.0222L8.43384 33.9524L8.43348 37.4873L14.3442 34.9475L0 27.4176V22.9176V16.3246V9.94087L6.02977 7Z" fill="white"/>
<path d="M22.2607 21.6267V28.0104L28.2905 25.0695V18.6858L22.2607 21.6267Z" fill="#EDF0F3"/>
<path d="M3.69763 36.0387L0 34.0977V48.2431L3.69763 50.1841V36.0387Z" fill="#CFDAE3"/>
<path d="M22.2609 28.0104V21.6266L0 9.94092V16.3246V22.9177V27.4176L14.3444 34.9476L19.0582 32.9221L3.69763 24.8587V18.2657L22.2609 28.0104Z" fill="#CFDAE3"/>
<path d="M3.69727 18.2656V24.8586L8.43348 22.4683V20.7519L3.69727 18.2656Z" fill="#EDF0F3"/>
<path d="M8.43348 41.7994V33.9525L3.69727 36.0388V43.9168V47.3478V50.1959L28.2903 39.2012V32.9221L8.43348 41.7994Z" fill="#EDF0F3"/>
</svg>
