<svg width="150" height="60" viewBox="0 0 150 60" fill="none" xmlns="http://www.w3.org/2000/svg">
<path d="M45.4587 19.652C45.4568 19.5655 45.4726 19.4795 45.5053 19.399C45.538 19.3185 45.5869 19.245 45.6494 19.1829C45.7184 19.1174 45.8008 19.0663 45.8913 19.0327C45.9817 18.9991 46.0782 18.9837 46.1751 18.9875H49.3582C49.7856 18.9875 50.0167 19.2109 50.0455 19.652V37.309H59.1789C59.3593 37.3071 59.5334 37.3732 59.6641 37.4933C59.7318 37.5602 59.7848 37.6398 59.8194 37.7272C59.8542 37.8146 59.8703 37.9079 59.8662 38.0014V40.7656C59.8662 41.1733 59.6353 41.3967 59.1789 41.4245H46.1404C46.0468 41.4431 45.9499 41.4388 45.8585 41.4121C45.767 41.3857 45.6836 41.3375 45.6161 41.2723C45.5486 41.207 45.4989 41.1265 45.4715 41.0381C45.4438 40.9497 45.4396 40.8561 45.4587 40.7656V19.652Z" fill="white"/>
<path d="M61.0507 30.2452C61.0385 27.1819 62.2852 24.2393 64.5168 22.0644C65.2364 21.3632 66.0483 20.7568 66.9315 20.2607C67.8268 19.7596 68.7837 19.3694 69.7797 19.0992C71.8593 18.5472 74.0546 18.5472 76.1342 19.0992C77.1321 19.3694 78.0908 19.7596 78.9881 20.2607C79.8721 20.7582 80.6859 21.3644 81.4085 22.0644C82.1341 22.7638 82.7615 23.5523 83.2746 24.4097C83.7919 25.2795 84.1955 26.208 84.4761 27.1739C85.0461 29.1843 85.0461 31.306 84.4761 33.3164C84.1977 34.2777 83.7938 35.2009 83.2746 36.0638C82.7597 36.9133 82.1324 37.6942 81.4085 38.3868C80.6829 39.0834 79.8696 39.6893 78.9881 40.1904C77.1599 41.2239 75.0803 41.7685 72.9626 41.7685C70.8449 41.7685 68.7653 41.2239 66.9373 40.1904C65.172 39.1875 63.6991 37.7676 62.6567 36.0638C62.1326 35.2032 61.7286 34.2794 61.4551 33.3164C61.1791 32.3147 61.0432 31.2818 61.0507 30.2452ZM65.6723 30.2452C65.665 31.2223 65.8472 32.192 66.2096 33.1042C66.5502 33.9697 67.0623 34.7626 67.7173 35.4384C68.3731 36.1033 69.1585 36.6366 70.028 37.0075C71.3855 37.5897 72.8961 37.7515 74.3526 37.4705C75.8089 37.1895 77.1396 36.4797 78.1619 35.4384C78.8168 34.7614 79.3306 33.969 79.6754 33.1042C80.0446 32.1935 80.2309 31.2232 80.2243 30.2452C80.2309 29.2598 80.0446 28.2822 79.6754 27.3638C79.332 26.4967 78.8181 25.7021 78.1619 25.024C77.5073 24.3549 76.7219 23.8178 75.8512 23.4437C74.9297 23.0605 73.937 22.8629 72.9338 22.8629C71.9307 22.8629 70.938 23.0605 70.0164 23.4437C69.1463 23.8187 68.3611 24.3557 67.7057 25.024C67.0495 25.7009 66.5372 26.4959 66.198 27.3638C65.8447 28.2853 65.6723 29.2625 65.6895 30.2452H65.6723Z" fill="white"/>
<path d="M92.344 32.5849C92.3405 33.2646 92.4618 33.9396 92.702 34.5784C92.9298 35.1816 93.2748 35.737 93.7189 36.2146C94.4109 36.9403 95.3208 37.4384 96.3206 37.6387C97.3205 37.839 98.3602 37.7315 99.2935 37.3314C99.8855 37.0637 100.416 36.6839 100.853 36.2146C101.295 35.7365 101.638 35.1812 101.864 34.5784C102.109 33.9406 102.233 33.2652 102.228 32.5849V19.68C102.228 19.5922 102.246 19.5053 102.282 19.4246C102.318 19.3439 102.37 19.2712 102.436 19.2109C102.578 19.0813 102.767 19.011 102.962 19.0155H106.041C106.234 19.0182 106.421 19.0831 106.572 19.1997C106.652 19.2532 106.717 19.3251 106.76 19.4091C106.804 19.493 106.825 19.5862 106.821 19.68V32.5849C106.83 33.8154 106.574 35.0344 106.07 36.1643C105.586 37.2592 104.89 38.2544 104.019 39.096C103.146 39.9386 102.114 40.6134 100.98 41.0839C99.8124 41.5671 98.5538 41.8123 97.2832 41.8043C96.4282 41.8063 95.5768 41.6955 94.753 41.4748C93.9442 41.2594 93.1675 40.9441 92.4421 40.5366C91.7379 40.1357 91.0877 39.6518 90.5069 39.096C89.9258 38.5402 89.4228 37.9132 89.0106 37.2309C88.5915 36.5405 88.2653 35.8011 88.0402 35.0307C87.8125 34.2341 87.6978 33.4113 87.6992 32.5849V19.68C87.7065 19.5151 87.7717 19.3575 87.8841 19.2332C87.9392 19.1642 88.0102 19.1085 88.0914 19.0706C88.1726 19.0328 88.262 19.0139 88.3521 19.0155H91.5871C91.7613 19.0281 91.9261 19.0969 92.0551 19.2109C92.1311 19.2652 92.1932 19.3358 92.2363 19.4172C92.2794 19.4986 92.3024 19.5886 92.3034 19.68L92.344 32.5849Z" fill="white"/>
<path d="M130.882 30.2453C130.886 31.2717 130.744 32.2938 130.46 33.283C130.187 34.2283 129.783 35.1336 129.259 35.9746C128.737 36.7927 128.11 37.5433 127.393 38.2082C126.67 38.8771 125.862 39.455 124.99 39.9282C123.146 40.9074 121.074 41.4147 118.97 41.4023H111.772C111.687 41.4079 111.602 41.4079 111.518 41.4023C111.433 41.389 111.351 41.3627 111.275 41.3242C111.197 41.2826 111.133 41.2207 111.09 41.1455C111.039 41.041 111.015 40.926 111.021 40.8105V19.7415C111.021 19.2389 111.269 18.9877 111.772 18.9877H118.953C120.02 18.9948 121.081 19.1318 122.113 19.3953C123.106 19.6468 124.062 20.0222 124.955 20.5121C125.83 20.9911 126.639 21.5746 127.364 22.2488C128.088 22.9076 128.716 23.6591 129.23 24.4824C129.753 25.3278 130.157 26.2367 130.431 27.1852C130.732 28.1792 130.884 29.2097 130.882 30.2453ZM115.625 23.092V37.3259H118.606C119.614 37.3327 120.613 37.1545 121.552 36.801C122.443 36.4695 123.261 35.9768 123.961 35.3492C124.679 34.6976 125.248 33.9088 125.633 33.033C126.018 32.1572 126.21 31.2135 126.197 30.262C126.214 29.2768 126.017 28.299 125.619 27.3918C125.228 26.5524 124.673 25.7939 123.984 25.1581C123.286 24.5196 122.469 24.0155 121.576 23.6727C120.638 23.3105 119.639 23.1211 118.629 23.1143L115.625 23.092Z" fill="white"/>
<path d="M146.479 24.9906C146.348 24.9935 146.218 24.9606 146.104 24.8956C145.968 24.815 145.837 24.7274 145.711 24.6332C145.468 24.4064 145.212 24.1938 144.943 23.9966C144.612 23.7546 144.263 23.5381 143.897 23.3489C143.499 23.1432 143.084 22.9713 142.655 22.8351C142.221 22.6955 141.767 22.6238 141.309 22.6229C140.787 22.6172 140.266 22.6811 139.761 22.8128C139.359 22.919 138.98 23.0929 138.64 23.3265C138.351 23.5251 138.116 23.7873 137.953 24.0915C137.797 24.3792 137.716 24.6993 137.716 25.0241C137.709 25.3716 137.834 25.7094 138.068 25.9734C138.334 26.2747 138.658 26.5232 139.022 26.7049C139.463 26.94 139.925 27.1381 140.402 27.2968C140.922 27.47 141.471 27.643 142.043 27.7994C143.017 28.0935 143.98 28.4192 144.931 28.7766C145.835 29.109 146.692 29.5479 147.485 30.0833C148.216 30.5729 148.835 31.2019 149.304 31.9317C149.786 32.7181 150.026 33.6205 149.998 34.5339C150.013 35.5625 149.777 36.5802 149.31 37.5046C148.856 38.3857 148.21 39.1612 147.415 39.7774C146.568 40.4245 145.605 40.9147 144.573 41.2236C143.439 41.5702 142.256 41.7415 141.066 41.7318C140.263 41.7324 139.462 41.6405 138.681 41.4582C137.894 41.2812 137.129 41.023 136.399 40.6877C135.669 40.3558 134.976 39.9535 134.331 39.4871C133.69 39.0312 133.108 38.5025 132.598 37.9123L132.563 37.8508C132.368 37.6661 132.248 37.4209 132.222 37.1584C132.236 37.0307 132.276 36.907 132.341 36.7948C132.405 36.6825 132.493 36.584 132.598 36.5051L132.817 36.2817L133.112 36.0081C133.268 35.8797 133.435 35.7345 133.609 35.5725C133.782 35.4106 133.967 35.2654 134.14 35.137C134.298 35.017 134.461 34.9051 134.631 34.8019C134.74 34.7271 134.868 34.6809 135.001 34.6679C135.147 34.6678 135.29 34.715 135.405 34.8019C135.516 34.8796 135.62 34.9654 135.717 35.0588L135.781 35.1202C136.164 35.4652 136.574 35.7825 137.005 36.0695C137.454 36.3667 137.921 36.6371 138.403 36.8792C138.864 37.1049 139.343 37.2917 139.836 37.4376C140.269 37.5656 140.718 37.6333 141.171 37.6386C141.714 37.6445 142.255 37.573 142.777 37.4264C143.241 37.3051 143.679 37.1047 144.071 36.8345C144.425 36.5884 144.719 36.2701 144.931 35.902C145.141 35.5326 145.249 35.1171 145.243 34.6958C145.248 34.2892 145.105 33.8938 144.839 33.579C144.542 33.2409 144.181 32.9604 143.776 32.7525C143.307 32.5017 142.813 32.296 142.303 32.1383C141.754 31.9652 141.205 31.8088 140.656 31.658C139.516 31.3334 138.402 30.9284 137.323 30.4463C136.462 30.0723 135.659 29.5836 134.937 28.9944C134.334 28.4938 133.848 27.8752 133.51 27.1796C133.188 26.4767 133.026 25.7148 133.037 24.9459C133.018 24.0729 133.212 23.2079 133.603 22.4205C133.993 21.633 134.569 20.945 135.284 20.4116C136.059 19.8351 136.936 19.3998 137.872 19.1273C138.972 18.8116 140.115 18.6573 141.263 18.6694C142.242 18.6753 143.216 18.8201 144.151 19.0993C145.107 19.3755 146.02 19.7736 146.867 20.2831C147.115 20.4339 147.369 20.607 147.635 20.7969C147.901 20.9868 148.132 21.1822 148.351 21.3553C148.55 21.523 148.73 21.7101 148.888 21.9137C149.007 22.0479 149.081 22.2132 149.102 22.3884C149.101 22.5171 149.068 22.6437 149.004 22.7569C148.941 22.8786 148.863 22.9929 148.773 23.0976L148.305 23.5778L147.82 24.0748C147.663 24.2376 147.495 24.3906 147.317 24.5327C147.174 24.655 147.024 24.7687 146.867 24.8733C146.754 24.9519 146.618 24.993 146.479 24.9906Z" fill="white"/>
<path d="M28.723 38.6049C28.7924 38.5491 28.8562 38.4874 28.9198 38.4258C28.8562 38.4874 28.7924 38.5491 28.723 38.6049Z" fill="white"/>
<path d="M26.5394 38.4484C25.819 37.7528 25.192 36.9724 24.6733 36.1254C24.1513 35.2639 23.7473 34.3403 23.4717 33.378C22.9093 31.3666 22.9093 29.2469 23.4717 27.2354C24.1548 24.8317 25.6215 22.705 27.6543 21.1711C28.8317 22.0387 29.8343 23.1082 30.6121 24.3261C30.2967 24.5537 30.0029 24.8079 29.7339 25.0856C29.0777 25.7625 28.5654 26.5574 28.2262 27.4253C27.5099 29.2762 27.5099 31.3149 28.2262 33.1658C28.567 34.0296 29.0791 34.8206 29.7339 35.4944C30.0136 35.7843 30.3213 36.048 30.6526 36.2817C31.4967 34.9573 32.0541 33.4811 32.291 31.9425C32.5277 30.4038 32.4392 28.8346 32.0305 27.33C31.6217 25.8254 30.9013 24.4166 29.913 23.1889C28.9246 21.9612 27.6887 20.9402 26.2802 20.1876C24.8717 19.435 23.3201 18.9666 21.7188 18.8105C20.1176 18.6545 18.5002 18.8142 16.9647 19.2799C15.4292 19.7457 14.0074 20.5078 12.7855 21.5201C11.5635 22.5324 10.5668 23.7738 9.8556 25.1693V19.6801C9.86254 19.5888 9.84614 19.4972 9.80785 19.4135C9.76957 19.3298 9.71059 19.2564 9.63607 19.1999C9.48893 19.0765 9.29935 19.0107 9.1046 19.0156H5.26294C4.92921 19.0131 4.5956 19.0281 4.26354 19.0603C3.9782 19.1033 3.70607 19.2062 3.46632 19.3618L0.693411 21.0036C0.497016 21.0793 0.327262 21.208 0.204362 21.3743C0.081463 21.5406 0.0105874 21.7375 0.000174664 21.9417V26.1298C-0.0036464 26.3107 0.0553221 26.4877 0.167693 26.6324C0.220758 26.7017 0.290708 26.7574 0.371316 26.7944C0.451924 26.8314 0.540734 26.8486 0.629874 26.8445C0.722796 26.8351 0.812967 26.8086 0.895588 26.7664L3.68584 25.0911V40.8216C3.68627 40.9769 3.73899 41.1279 3.83605 41.2517C3.90198 41.3248 3.98536 41.3813 4.07896 41.4163C4.17256 41.4513 4.27359 41.4638 4.37331 41.4526H9.12191C9.61294 41.4526 9.8556 41.2349 9.8556 40.7881V35.4776C10.6421 36.9907 11.7649 38.3171 13.1435 39.362C14.5221 40.4067 16.1226 41.1442 17.8304 41.5213C19.5382 41.8986 21.3111 41.9063 23.0225 41.5439C24.7336 41.1817 26.341 40.4584 27.7294 39.4256C27.312 39.1241 26.9146 38.7979 26.5394 38.4484Z" fill="white"/>
<path d="M27.8622 39.3419L28.0995 39.1517L27.8622 39.3419Z" fill="white"/>
<path d="M29.1507 38.1695L29.2954 38.0184L29.1507 38.1695Z" fill="white"/>
<path d="M28.5212 38.7943L28.2957 38.9901L28.5212 38.7943Z" fill="white"/>
<path d="M29.578 37.7293L29.6602 37.6328L29.578 37.7293Z" fill="white"/>
<path d="M30.6122 24.326C31.0512 24.003 31.526 23.7277 32.0275 23.5051C32.9386 23.1233 33.9232 22.9329 34.9159 22.9467C35.7314 22.9433 36.5418 23.0717 37.3134 23.3265C38.0634 23.5743 38.7703 23.9301 39.4104 24.3819C39.5772 24.4992 39.7829 24.5528 39.9881 24.5326C40.1829 24.4768 40.3494 24.3535 40.4559 24.1864L41.9697 21.6959C42.0213 21.6125 42.0522 21.5188 42.0604 21.4219C42.0683 21.325 42.053 21.2277 42.0159 21.1375C41.9296 20.9731 41.7948 20.837 41.6287 20.7466C40.6588 20.1179 39.6004 19.6271 38.4862 19.2891C37.3446 18.9497 36.1563 18.7803 34.9621 18.7865C33.8884 18.7809 32.8191 18.92 31.785 19.1998C30.2784 19.5983 28.8686 20.2815 27.637 21.2101C28.8158 22.0661 29.8238 23.1219 30.6122 24.326Z" fill="white"/>
<path d="M42.0502 38.8894L40.5021 36.3709C40.4526 36.2894 40.3866 36.2182 40.3083 36.1616C40.2298 36.1051 40.1406 36.0642 40.0457 36.0415C39.8397 36.0312 39.6363 36.0883 39.468 36.2034C38.1583 37.1422 36.5694 37.6458 34.9388 37.6385C33.9459 37.6523 32.9613 37.462 32.0504 37.0801C31.5625 36.8715 31.1011 36.6092 30.6754 36.2983C29.9086 37.5186 28.9157 38.5919 27.7466 39.4645C29.8225 41.004 32.3688 41.8329 34.985 41.8211C36.1936 41.8251 37.3957 41.6501 38.5494 41.3018C39.6711 40.9608 40.7355 40.4644 41.7095 39.8275C41.8752 39.7399 42.0116 39.608 42.1023 39.4477C42.1415 39.3578 42.1572 39.2597 42.1481 39.1622C42.1392 39.065 42.1055 38.9712 42.0502 38.8894Z" fill="white"/>
</svg>
