<svg width="150" height="60" viewBox="0 0 150 60" fill="none" xmlns="http://www.w3.org/2000/svg">
<g clip-path="url(#clip0_615_47)">
<path d="M107.965 19.8869C106.221 20.6247 104.743 21.8529 103.697 23.4007C102.651 24.9474 102.038 26.8234 102.039 28.8273V28.8273C102.038 30.1624 102.31 31.4431 102.802 32.6049C103.54 34.3485 104.768 35.8267 106.316 36.8727C107.862 37.9188 109.738 38.5316 111.742 38.5309H121.831V35.1523H111.742C110.864 35.1521 110.037 34.9754 109.281 34.656C108.148 34.1772 107.179 33.3729 106.496 32.3625C105.814 31.351 105.418 30.1431 105.417 28.8273V28.8273C105.417 27.9493 105.594 27.1216 105.914 26.3658C106.392 25.2329 107.197 24.2638 108.207 23.5815C109.219 22.8993 110.426 22.5029 111.742 22.5023H121.831V19.1237H111.742C110.407 19.1234 109.126 19.3952 107.965 19.8869V19.8869Z" fill="white"/>
<path d="M73.289 32.5988V32.5958L73.289 32.5893C73.2847 31.7813 73.1161 31.0036 72.8145 30.2995C72.362 29.2426 71.615 28.3493 70.6747 27.7168C69.7356 27.0841 68.5936 26.713 67.3805 26.7137H58.0698C57.7743 26.7134 57.5016 26.6548 57.2506 26.5489C56.8749 26.3904 56.55 26.1211 56.3227 25.7841C56.0954 25.446 55.9647 25.0499 55.964 24.608V24.608C55.9643 24.3126 56.023 24.0398 56.1288 23.7889C56.2874 23.4131 56.5566 23.0882 56.8936 22.8609C57.2317 22.6336 57.6278 22.5029 58.0698 22.5023H72.3777V19.1237H58.0698C57.3172 19.1234 56.5915 19.2771 55.9345 19.5553C54.9481 19.9729 54.1141 20.666 53.5231 21.5405C52.932 22.4137 52.5848 23.478 52.5855 24.608V24.608C52.5852 25.3606 52.7389 26.0862 53.0171 26.7433C53.4347 27.7297 54.1278 28.5636 55.0022 29.1547C55.8755 29.7458 56.9398 30.093 58.0698 30.0923H67.3805C67.733 30.0925 68.0604 30.1626 68.3613 30.289C68.8119 30.4784 69.201 30.7993 69.4745 31.2017C69.7479 31.6051 69.9068 32.0804 69.9105 32.608L69.9105 32.6228C69.9103 32.9763 69.8398 33.3046 69.7125 33.6063C69.5218 34.0581 69.1988 34.4479 68.7941 34.7211C68.3883 34.9942 67.9107 35.1517 67.3805 35.1523H53.0962V38.5309H67.3805C68.192 38.5312 68.9737 38.3655 69.6816 38.0657C70.7443 37.6156 71.6429 36.8685 72.2794 35.9264C72.9161 34.9855 73.2898 33.8401 73.2891 32.6228L73.289 32.5901L73.289 32.5988V32.5988Z" fill="white"/>
<path d="M88.1571 18.9793C87.5645 18.9764 87.0185 19.2805 86.7088 19.7857L75.2251 38.5191H79.188L88.1335 23.9263L92.2712 30.823H87.4718C85.979 30.823 84.7689 32.0331 84.7689 33.5259H93.8928L96.8885 38.5191H100.828L89.5976 19.7995C89.2927 19.2913 88.7497 18.9821 88.1571 18.9793V18.9793Z" fill="white"/>
<path d="M138.769 19.7995C138.464 19.2913 137.921 18.9821 137.328 18.9793C136.736 18.9764 136.19 19.2805 135.88 19.7857L124.396 38.5191H128.359L137.305 23.9263L141.443 30.823H136.643C135.15 30.823 133.94 32.0331 133.94 33.5259H143.064L146.06 38.5191H150L138.769 19.7995V19.7995Z" fill="white"/>
<path d="M37.5012 20.4425C36.7707 20.4425 36.0704 20.571 35.4214 20.8067C33.6837 21.4376 32.6898 20.6733 32.4993 20.5694C32.3088 20.4655 31.618 19.8828 31.618 18.1659C31.618 15.4612 29.4255 13.2686 26.7208 13.2686C26.2731 13.2686 25.8396 13.3287 25.4277 13.4413C24.2598 13.7605 23.5274 13.2429 23.3369 13.113C23.1464 12.9831 22.4362 12.4462 22.3903 11.6333C22.2651 9.60573 20.581 8 18.5218 8C16.3812 8 14.6459 9.73532 14.6459 11.8759C14.6459 11.9982 14.6515 12.1191 14.6626 12.2384C14.7597 13.2843 14.6067 13.7686 14.1676 14.3155C13.7284 14.8623 12.8159 15.2979 11.8348 15.095C11.5803 15.0424 11.3167 15.0147 11.0466 15.0147C8.90592 15.0147 7.1706 16.75 7.1706 18.8907C7.1706 19.1526 7.19661 19.4084 7.24617 19.6558C7.44481 20.6467 7.03849 21.5133 6.68775 21.929C6.33701 22.3447 5.0942 22.549 3.87596 22.549C1.73533 22.549 0 24.2844 0 26.425C0 28.5656 1.73533 30.301 3.87596 30.301C4.66929 30.301 5.25883 30.7494 5.54461 31.1781C5.8304 31.6067 5.94552 32.1272 5.63748 32.9867C5.45268 33.5024 5.35197 34.0581 5.35197 34.6374C5.35197 37.3421 7.54454 39.5347 10.2492 39.5347C11.2993 39.5347 11.962 40.3613 12.016 40.4505C12.0701 40.5397 12.6892 41.4663 12.4708 42.5442C12.3969 42.9139 12.3581 43.2963 12.3581 43.6877C12.3581 46.891 14.9548 49.4878 18.1581 49.4878C21.1612 49.4878 23.6312 47.2054 23.9282 44.2808C24.0903 43.181 24.6792 42.2111 25.2421 41.83C25.805 41.449 26.2249 41.1603 28.3545 41.1603C31.249 41.1603 33.619 38.9147 33.8173 36.0705C33.8262 35.9429 33.8416 34.2004 34.6124 33.5596C35.4871 32.8235 35.8681 32.6388 37.5012 32.6388C40.8691 32.6388 43.5994 29.9085 43.5994 26.5406C43.5994 23.1727 40.8691 20.4425 37.5012 20.4425L37.5012 20.4425ZM29.0829 28.5259C29.0829 29.1943 28.541 29.7361 27.8726 29.7361H23.2395C22.571 29.7361 22.0292 30.278 22.0292 30.9464V35.5796C22.0292 36.248 21.4873 36.7898 20.8189 36.7898H16.2247C15.5563 36.7898 15.0145 36.248 15.0145 35.5796V30.9464C15.0145 30.278 14.4726 29.7361 13.8042 29.7361H9.17105C8.50265 29.7361 7.9608 29.1943 7.9608 28.5259V23.9317C7.9608 23.2633 8.50265 22.7214 9.17105 22.7214H13.8042C14.4726 22.7214 15.0145 22.1796 15.0145 21.5112V16.878C15.0145 16.2096 15.5563 15.6677 16.2247 15.6677H20.8189C21.4873 15.6677 22.0292 16.2096 22.0292 16.878V21.5112C22.0292 22.1796 22.571 22.7214 23.2395 22.7214H27.8726C28.541 22.7214 29.0829 23.2633 29.0829 23.9317V28.5259V28.5259Z" fill="white"/>
</g>
<defs>
<clipPath id="clip0_615_47">
<rect width="150" height="60" fill="white"/>
</clipPath>
</defs>
</svg>
