<svg width="198" height="60" viewBox="0 0 198 60" fill="none" xmlns="http://www.w3.org/2000/svg">
<g clip-path="url(#clip0_615_1017)">
<path d="M13.3635 23.7455C14.8077 24.9532 15.7675 26.6416 16.0664 28.5004H10.6323C10.5047 27.7849 10.1248 27.1389 9.56155 26.6796C8.96173 26.2255 8.22367 25.9923 7.47188 26.0192C6.93917 25.9818 6.41017 26.132 5.97656 26.4437C5.80469 26.5924 5.66934 26.7787 5.581 26.9881C5.49266 27.1975 5.45369 27.4244 5.46711 27.6513C5.46987 27.9416 5.56187 28.2241 5.73064 28.4604C5.89941 28.6966 6.13677 28.8753 6.41053 28.9721C7.35693 29.3682 8.34175 29.6654 9.34928 29.8589C10.5584 30.1285 11.7494 30.4735 12.9154 30.8919C13.8516 31.2504 14.6811 31.8413 15.3258 32.6089C16.0438 33.5166 16.4031 34.6565 16.3353 35.8118C16.3526 36.843 16.0439 37.8533 15.4532 38.6987C14.8048 39.5797 13.9223 40.2611 12.906 40.6657C11.6528 41.1652 10.3111 41.4044 8.96248 41.3686C6.39952 41.3686 4.35545 40.8025 2.83026 39.6704C2.0554 39.0942 1.4052 38.3671 0.918792 37.5329C0.432388 36.6987 0.119849 35.7747 0 34.8165H5.60391C5.62569 35.1884 5.73015 35.5508 5.90967 35.8772C6.0892 36.2036 6.33927 36.4858 6.64167 36.7034C7.3298 37.1519 8.14209 37.3715 8.96248 37.3308C9.50235 37.3659 10.0358 37.1976 10.4578 36.859C10.6258 36.7082 10.7585 36.5223 10.8466 36.3144C10.9346 36.1065 10.9758 35.8818 10.9672 35.6562C10.9786 35.3511 10.8936 35.0502 10.7242 34.7961C10.5549 34.5421 10.3098 34.3479 10.0238 34.2411C9.03982 33.8469 8.02125 33.5453 6.9813 33.3401C5.8054 33.1119 4.64809 32.7965 3.51895 32.3967C2.60481 32.0565 1.79288 31.4882 1.16041 30.7457C0.474967 29.8653 0.134468 28.7649 0.202835 27.6513C0.184977 26.8636 0.35089 26.0827 0.687415 25.3703C1.02394 24.658 1.52182 24.0338 2.14156 23.5474C3.42776 22.4971 5.25013 21.9703 7.60867 21.9672C9.96722 21.964 11.8855 22.5568 13.3635 23.7455Z" fill="white"/>
<path d="M38.8548 22.1794V41.1327H33.0198V37.6987C32.4848 38.7984 31.6405 39.7181 30.5905 40.345C29.4578 41.0192 28.1582 41.3609 26.8404 41.3308C24.6674 41.3308 22.9378 40.606 21.6516 39.1563C20.3654 37.7065 19.7254 35.7159 19.7317 33.1844V22.1794H25.5055V32.4721C25.4366 33.5663 25.797 34.6443 26.5102 35.4769C26.8579 35.8371 27.2784 36.1189 27.7437 36.3035C28.209 36.4882 28.7083 36.5714 29.2084 36.5477C29.726 36.5744 30.2433 36.4877 30.7239 36.2938C31.2046 36.0999 31.6372 35.8034 31.9915 35.425C32.6707 34.6797 33.0198 33.6137 33.0198 32.2363V22.1794H38.8548Z" fill="white"/>
<path d="M59.6194 23.1134C60.89 23.9385 61.9033 25.1038 62.544 26.4767C63.2911 28.1021 63.6558 29.8771 63.6101 31.6655C63.655 33.4537 63.2903 35.2286 62.544 36.8543C61.9077 38.2337 60.8937 39.4047 59.6194 40.2317C58.3644 41.0195 56.9076 41.4259 55.4259 41.4016C54.1124 41.4384 52.8159 41.0979 51.69 40.4204C50.6636 39.7761 49.8677 38.8233 49.4164 37.6986V41.128H43.6096V16H49.4164V25.6134C49.8731 24.5019 50.6687 23.5627 51.69 22.9294C52.8154 22.2503 54.112 21.9081 55.4259 21.9435C56.9073 21.9213 58.3635 22.3276 59.6194 23.1134V23.1134ZM50.5532 28.2644C49.7353 29.1932 49.3151 30.4062 49.3833 31.6419C49.3189 32.8728 49.7388 34.08 50.5532 35.0052C50.9453 35.4024 51.412 35.7184 51.9264 35.9351C52.4408 36.1518 52.9929 36.2649 53.5511 36.268C54.1093 36.2711 54.6626 36.164 55.1794 35.953C55.6962 35.742 56.1663 35.4311 56.5628 35.0382C57.3681 34.0963 57.7772 32.879 57.7043 31.6419C57.7772 30.4048 57.3681 29.1875 56.5628 28.2456C56.1789 27.8383 55.7118 27.5184 55.1934 27.3076C54.6749 27.0968 54.1171 27 53.558 27.0238C52.9978 27.0061 52.4403 27.1075 51.9223 27.3214C51.4043 27.5353 50.9376 27.8567 50.5532 28.2644V28.2644Z" fill="white"/>
<path d="M79.4877 23.7455C80.9319 24.9532 81.8917 26.6416 82.1906 28.5004H76.7565C76.6309 27.7841 76.2506 27.1375 75.6857 26.6796C75.0859 26.2255 74.3479 25.9923 73.5961 26.0192C73.0634 25.9818 72.5344 26.132 72.1007 26.4437C71.9289 26.5924 71.7935 26.7787 71.7052 26.9881C71.6168 27.1975 71.5779 27.4244 71.5913 27.6513C71.5941 27.9416 71.6861 28.2241 71.8548 28.4604C72.0236 28.6966 72.261 28.8753 72.5347 28.9721C73.4811 29.3682 74.4659 29.6654 75.4735 29.8589C76.6826 30.1285 77.8736 30.4735 79.0396 30.8919C79.9758 31.2504 80.8053 31.8413 81.45 32.6089C82.168 33.5166 82.5273 34.6565 82.4595 35.8118C82.4768 36.843 82.1681 37.8533 81.5774 38.6987C80.9289 39.5797 80.0465 40.2611 79.0302 40.6657C77.7794 41.1687 76.4391 41.4111 75.0914 41.378C72.5347 41.378 70.4906 40.812 68.9592 39.6799C68.1843 39.1036 67.5341 38.3765 67.0477 37.5423C66.5613 36.7081 66.2488 35.7841 66.1289 34.826H71.7328C71.7556 35.1976 71.8605 35.5596 72.0399 35.8859C72.2193 36.2121 72.4689 36.4946 72.7706 36.7128C73.4578 37.1689 74.2721 37.3952 75.0961 37.3591C75.636 37.3942 76.1694 37.2259 76.5914 36.8873C76.7594 36.7365 76.8922 36.5506 76.9802 36.3427C77.0683 36.1348 77.1095 35.9101 77.1009 35.6845C77.1122 35.3794 77.0272 35.0785 76.8579 34.8244C76.6885 34.5704 76.4434 34.3762 76.1574 34.2694C75.1739 33.8704 74.1553 33.564 73.1149 33.3542C71.939 33.126 70.7817 32.8107 69.6526 32.4108C68.7384 32.0707 67.9265 31.5023 67.294 30.7598C66.5963 29.8809 66.2455 28.7764 66.3082 27.656C66.2918 26.866 66.4603 26.0831 66.8001 25.3697C67.14 24.6564 67.6419 24.0324 68.2657 23.5474C69.5519 22.4971 71.3743 21.9703 73.7329 21.9672C76.0914 21.964 78.0097 22.5568 79.4877 23.7455Z" fill="white"/>
<path d="M96.8937 36.142V41.1327H94.2805C92.0634 41.1327 90.3323 40.5855 89.0917 39.4864C87.8511 38.3873 87.2661 36.5712 87.2661 34.0334V27.071H84.7236V22.1794H87.2661V17.5283H93.0776V22.1794H96.8796V27.071H93.0776V34.1466C93.0494 34.4251 93.0766 34.7065 93.1575 34.9744C93.2385 35.2424 93.3716 35.4917 93.5493 35.708C93.9907 36.0457 94.5433 36.204 95.0965 36.1514L96.8937 36.142Z" fill="white"/>
<path d="M109.852 22.9954C110.974 22.3216 112.26 21.9691 113.569 21.9766V28.1937H111.908C110.366 28.1937 109.172 28.5192 108.323 29.1796C107.474 29.84 107.05 30.9438 107.05 32.5051V41.1327H101.243V22.1794H107.05V25.7455C107.75 24.6181 108.711 23.6751 109.852 22.9954V22.9954Z" fill="white"/>
<path d="M127.022 22.9294C128.046 23.568 128.851 24.5045 129.329 25.6134V22.1794H135.102V41.1327H129.329V37.6986C128.85 38.8068 128.045 39.743 127.022 40.3827C125.896 41.0601 124.599 41.4006 123.286 41.3638C121.803 41.3883 120.344 40.9819 119.088 40.194C117.814 39.3673 116.802 38.1961 116.168 36.8165C115.42 35.1912 115.054 33.4164 115.097 31.6277C115.053 29.839 115.419 28.064 116.168 26.4389C116.807 25.0664 117.819 23.9011 119.088 23.0756C120.345 22.29 121.803 21.8838 123.286 21.9058C124.604 21.8818 125.9 22.2371 127.022 22.9294V22.9294ZM122.144 28.2645C121.343 29.2081 120.935 30.4245 121.008 31.6608C120.935 32.897 121.343 34.1134 122.144 35.0571C122.948 35.8463 124.032 36.2857 125.158 36.2795C126.285 36.2733 127.363 35.822 128.159 35.024C128.97 34.0973 129.39 32.8912 129.329 31.6608C129.402 30.4187 128.981 29.198 128.159 28.2645C127.774 27.8567 127.308 27.5353 126.79 27.3214C126.272 27.1075 125.714 27.0061 125.154 27.0239C124.593 27.003 124.034 27.103 123.514 27.317C122.995 27.531 122.528 27.8541 122.144 28.2645V28.2645Z" fill="white"/>
<path d="M150.386 36.142V41.1327H147.772C145.552 41.1327 143.823 40.5839 142.584 39.4864C141.345 38.3889 140.727 36.5712 140.73 34.0334V27.071H138.211V22.1794H140.758V17.5283H146.57V22.1794H150.372V27.071H146.57V34.1466C146.541 34.4251 146.569 34.7065 146.65 34.9744C146.73 35.2424 146.864 35.4917 147.041 35.708C147.481 36.0449 148.032 36.2033 148.584 36.1514L150.386 36.142Z" fill="white"/>
<path d="M171.816 32.708H158.674C158.74 34.1388 159.101 35.164 159.759 35.7835C160.095 36.0983 160.49 36.3437 160.922 36.5056C161.353 36.6674 161.812 36.7427 162.273 36.7269C163.039 36.7551 163.792 36.5278 164.414 36.0807C164.971 35.6656 165.366 35.0704 165.532 34.3967H171.665C171.428 35.7083 170.869 36.9405 170.037 37.9817C169.181 39.0469 168.087 39.8967 166.844 40.4629C165.375 41.0974 163.785 41.4018 162.186 41.3545C160.587 41.3072 159.017 40.9095 157.589 40.1893C156.173 39.4133 155.013 38.2433 154.249 36.8213C153.4 35.2263 152.977 33.4389 153.023 31.6325C152.977 29.8283 153.393 28.0425 154.23 26.4437C155.002 25.0159 156.177 23.8463 157.608 23.0804C159.147 22.3179 160.842 21.9211 162.561 21.9211C164.279 21.9211 165.974 22.3179 167.514 23.0804C168.903 23.8201 170.05 24.9454 170.815 26.321C171.614 27.7952 172.017 29.4513 171.985 31.1277C171.981 31.6588 171.924 32.1881 171.816 32.708V32.708ZM165.098 27.4626C164.397 26.8313 163.48 26.4936 162.537 26.5191C161.565 26.4801 160.615 26.8181 159.886 27.4626C159.138 28.1967 158.71 29.1973 158.697 30.2456H166.103C166.131 29.0192 165.801 28.0852 165.098 27.4626Z" fill="white"/>
<path d="M198 37.7411V43.4016H176.981V37.7411H198Z" fill="white"/>
</g>
<defs>
<clipPath id="clip0_615_1017">
<rect width="198" height="60" fill="white"/>
</clipPath>
</defs>
</svg>
