<svg width="150" height="60" viewBox="0 0 150 60" fill="none" xmlns="http://www.w3.org/2000/svg">
<path d="M62.1061 21.1283H59.1055C58.8555 21.1283 58.7304 21.2533 58.7304 21.5034V33.5059C57.8552 34.6311 56.2299 35.7563 54.3545 35.7563C52.2291 35.7563 50.8538 34.8811 50.8538 32.1306V21.5034C50.8538 21.2533 50.7288 21.1283 50.4787 21.1283H47.4781C47.2281 21.1283 47.103 21.2533 47.103 21.5034V33.5059C47.103 37.0066 48.9784 39.007 52.6042 39.007C55.2297 39.007 57.3551 37.6317 58.6054 36.2564V38.2568C58.6054 38.5069 58.7304 38.6319 58.9805 38.6319H61.9811C62.2312 38.6319 62.3562 38.5069 62.3562 38.2568V21.5034C62.4812 21.2533 62.2312 21.1283 62.1061 21.1283Z" fill="white"/>
<path d="M33.3506 17.2525C33.3506 17.1275 33.3506 17.1275 33.3506 17.2525C31.1002 9.87601 24.4738 5 17.0973 5C9.59573 5 3.09439 9.87601 0.843924 17.2525C-0.656386 21.8785 -0.156282 28.0048 2.34423 33.7559C5.71993 41.6326 11.7212 47.0087 17.0973 47.0087C17.0973 47.0087 17.0973 47.0087 17.2223 47.0087C17.2223 47.0087 17.2223 47.0087 17.3473 47.0087C22.7234 47.0087 28.7247 41.6326 32.1004 33.7559C34.3508 28.0048 34.851 21.7535 33.3506 17.2525ZM17.0973 7.75057C20.2229 7.75057 23.0985 8.75078 25.474 10.5011C22.7234 10.3761 19.8479 11.6264 17.0973 14.0019C14.3467 11.6264 11.3461 10.3761 8.72055 10.5011C11.096 8.75078 13.9716 7.75057 17.0973 7.75057ZM8.59553 39.007C7.09522 37.1316 5.71993 35.0062 4.71973 32.5057C2.59429 27.5047 2.09418 22.0035 3.34444 18.1277C4.0946 16.0023 5.21983 14.502 6.72014 13.7518C9.09563 12.6266 12.2213 13.3767 15.0969 15.8772C13.2215 18.0027 11.5961 20.6282 10.3459 23.5038C8.09542 29.005 7.59532 34.6311 8.59553 39.007ZM19.3477 43.758C18.7226 44.1331 17.9725 44.2581 17.0973 44.2581C16.3471 44.2581 15.597 44.1331 14.8468 43.758C10.2209 41.6326 9.34568 32.8808 12.8464 24.6291C13.9716 22.0035 15.3469 19.753 17.0973 17.8777C18.7226 19.753 20.2229 22.1285 21.3482 24.6291C24.8489 32.7557 23.8487 41.5075 19.3477 43.758ZM29.4748 32.6307C28.4746 35.1312 27.0993 37.2567 25.599 39.1321C26.7243 34.7562 26.0991 29.13 23.8487 23.6289C22.5984 20.7533 20.9731 18.1277 19.0977 16.0023C22.0983 13.5018 25.0989 12.7516 27.4744 13.8768C28.9747 14.627 30.225 16.1273 30.8501 18.1277C32.1004 22.0035 31.6003 27.5047 29.4748 32.6307Z" fill="white"/>
<path d="M21.5979 51.0095C20.0976 51.5096 18.5973 51.6346 17.222 51.6346H16.9719C15.4716 51.6346 14.0963 51.3845 12.596 50.8844C11.7209 50.6344 10.8457 51.1345 10.5956 52.0097C10.3456 52.8848 10.8457 53.76 11.7209 54.1351C13.4712 54.6352 15.3466 55.0103 17.097 55.0103H17.347C19.0974 55.0103 20.8477 54.7602 22.5981 54.1351C23.4733 53.8851 23.9734 53.0099 23.7233 52.1347C23.3483 51.2595 22.4731 50.7594 21.5979 51.0095Z" fill="white"/>
<path d="M114.117 20.6282C108.741 20.6282 105.365 24.754 105.365 29.7551C105.365 34.7561 108.616 39.007 114.117 39.007C119.493 39.007 122.869 34.7561 122.869 29.7551C122.869 24.754 119.493 20.6282 114.117 20.6282ZM114.117 35.6313C110.991 35.6313 109.241 32.8807 109.241 29.7551C109.241 26.6294 110.991 24.0039 114.117 24.0039C117.243 24.0039 118.993 26.7544 118.993 29.7551C118.993 33.0057 117.243 35.6313 114.117 35.6313Z" fill="white"/>
<path d="M129.621 14.377H126.62C126.37 14.377 126.245 14.502 126.245 14.752V38.2569C126.245 38.5069 126.37 38.632 126.62 38.632H129.621C129.871 38.632 129.996 38.5069 129.996 38.2569V14.752C129.996 14.627 129.746 14.377 129.621 14.377Z" fill="white"/>
<path d="M149.625 14.377H146.624C146.374 14.377 146.249 14.502 146.249 14.752V23.5038C144.874 21.6285 142.999 20.6282 140.748 20.6282C136.372 20.6282 133.247 24.129 133.247 29.7551C133.247 35.5063 136.497 39.007 140.748 39.007C142.999 39.007 144.874 37.8818 146.249 36.1314V38.1319C146.249 38.3819 146.374 38.5069 146.624 38.5069H149.625C149.875 38.5069 150 38.3819 150 38.1319V14.752C150 14.627 149.875 14.377 149.625 14.377ZM146.249 33.3809C145.499 34.6311 143.624 35.7564 141.873 35.7564C138.873 35.7564 137.122 33.3809 137.122 29.8802C137.122 26.5045 138.998 24.129 141.873 24.129C143.624 24.129 145.374 25.1292 146.249 26.5045V33.3809Z" fill="white"/>
<path d="M75.9843 20.6282C73.7339 20.6282 71.8585 21.7534 70.4832 23.5038V21.5034C70.4832 21.2533 70.3582 21.1283 70.1081 21.1283H67.1075C66.8574 21.1283 66.7324 21.2533 66.7324 21.5034V45.0082C66.7324 45.2583 66.8574 45.3833 67.1075 45.3833H70.1081C70.3582 45.3833 70.4832 45.2583 70.4832 45.0082V36.2564C71.8585 38.1318 73.7339 39.132 75.9843 39.132C80.3602 39.132 83.4859 35.6313 83.4859 29.8801C83.4859 24.1289 80.3602 20.6282 75.9843 20.6282ZM74.8591 35.6313C73.1087 35.6313 71.3584 34.506 70.4832 33.2558V26.3794C71.3584 25.1291 73.1087 24.0039 74.8591 24.0039C77.7347 24.0039 79.6101 26.3794 79.6101 29.7551C79.7351 33.2558 77.8597 35.6313 74.8591 35.6313Z" fill="white"/>
<path d="M96.4888 20.6282C93.8633 20.6282 91.6128 22.0035 90.4876 23.3788V14.752C90.4876 14.502 90.3626 14.377 90.1125 14.377H87.1119C86.8618 14.377 86.7368 14.502 86.7368 14.752V38.2569C86.7368 38.5069 86.8618 38.632 87.1119 38.632H90.1125C90.3626 38.632 90.4876 38.5069 90.4876 38.2569V26.3794C91.3628 25.2542 92.9881 24.0039 94.8635 24.0039C96.9889 24.0039 98.2392 24.7541 98.2392 27.5047V38.1319C98.2392 38.3819 98.3642 38.5069 98.6143 38.5069H101.615C101.865 38.5069 101.99 38.3819 101.99 38.1319V26.2544C101.99 22.6287 100.24 20.6282 96.4888 20.6282Z" fill="white"/>
</svg>
