<svg width="161" height="60" viewBox="0 0 161 60" fill="none" xmlns="http://www.w3.org/2000/svg">
<path d="M64.9347 27.6625V25.338H51.7166V28.4257H60.2858L51.3003 39.805V41.7825H65.1775V38.8683H56.1226L64.9347 27.6625Z" fill="white"/>
<path d="M75.933 24.9911C72.9954 24.9911 70.8329 25.7312 69.4454 27.2115C68.0576 28.6919 67.3638 30.8082 67.3638 33.5603C67.3638 36.313 68.0518 38.4292 69.428 39.9091C70.8038 41.3896 72.9721 42.1297 75.933 42.1295C78.9166 42.1295 81.0965 41.3894 82.4726 39.9091C83.8484 38.4293 84.5365 36.313 84.5368 33.5603C84.5368 30.8082 83.843 28.6919 82.4553 27.2115C81.0675 25.7316 78.8934 24.9915 75.933 24.9911ZM79.6278 37.6714C78.8992 38.516 77.6676 38.9381 75.933 38.9377C74.2211 38.9377 73.001 38.5156 72.2728 37.6714C71.5443 36.8274 71.18 35.457 71.18 33.5603C71.18 31.6641 71.5443 30.2995 72.2728 29.4665C73.0014 28.6339 74.2214 28.2176 75.933 28.2176C77.6676 28.2176 78.8992 28.6339 79.6278 29.4665C80.3564 30.2991 80.7206 31.6637 80.7206 33.5603C80.7206 35.457 80.3564 36.8274 79.6278 37.6714Z" fill="white"/>
<path d="M97.7893 24.9911C96.5404 24.9911 95.4013 25.1935 94.3721 25.5982C93.3426 26.0032 92.4579 26.4946 91.718 27.0727L91.5445 25.338H88.0752V41.7826H91.8568V29.7441C93.0902 28.5611 94.7273 27.8913 96.4363 27.8706C97.8701 27.8706 98.8473 28.125 99.3678 28.6339C99.8882 29.1429 100.148 30.0333 100.148 31.3052V41.7826H103.895V31.1318C103.895 29.0274 103.41 27.4778 102.438 26.4829C101.467 25.4887 99.9172 24.9915 97.7893 24.9911Z" fill="white"/>
<path d="M119.681 26.4135C118.994 25.9426 118.239 25.5799 117.443 25.338C116.668 25.1071 115.783 24.9914 114.789 24.9911C113.285 24.9911 111.938 25.338 110.747 26.0319C109.556 26.7257 108.625 27.7492 107.954 29.1022C107.283 30.4553 106.948 32.1148 106.948 34.0807C106.948 36.0701 107.26 37.6544 107.885 38.8336C108.509 40.0132 109.388 40.8574 110.522 41.3662C111.655 41.8748 112.961 42.1292 114.442 42.1295C115.644 42.1295 116.685 41.9676 117.564 41.6438C118.463 41.3082 119.287 40.8016 119.993 40.152L120.236 41.7826H123.462V18.3994H119.681V26.4135ZM119.681 37.55C118.547 38.7068 117.136 39.2851 115.448 39.2847C113.829 39.2847 112.643 38.9146 111.892 38.1745C111.14 37.4346 110.764 36.0816 110.764 34.1154C110.764 32.0804 111.169 30.5308 111.979 29.4665C112.788 28.403 113.991 27.871 115.587 27.8706C117.229 27.8706 118.593 28.3563 119.681 29.3277V37.55Z" fill="white"/>
<path d="M140.409 26.4483C139.149 25.4768 137.316 24.9911 134.911 24.9911C133.76 24.985 132.611 25.0779 131.476 25.2687C130.412 25.4541 129.51 25.6969 128.77 25.9972V28.8074C130.458 28.2295 132.274 27.9404 134.217 27.9401C135.442 27.9401 136.373 28.0441 137.01 28.2523C137.645 28.4604 138.085 28.7958 138.328 29.2584C138.571 29.7213 138.692 30.3458 138.692 31.1318V31.8604H133.419C131.175 31.8604 129.516 32.3403 128.44 33.3002C127.365 34.2602 126.827 35.5265 126.827 37.099C126.827 38.2092 127.093 39.1402 127.625 39.8918C128.16 40.6461 128.901 41.2303 129.759 41.5744C130.678 41.95 131.663 42.1387 132.656 42.1295C134.135 42.1295 135.367 41.9561 136.35 41.6092C137.333 41.2622 138.16 40.7649 138.831 40.1173L139.074 41.7826H142.3V31.2012C142.3 29.0041 141.67 27.4198 140.409 26.4483ZM138.692 37.3072C138.16 37.955 137.472 38.4696 136.628 38.8511C135.783 39.2327 134.795 39.4235 133.662 39.4235C132.598 39.4235 131.776 39.2385 131.198 38.8684C130.62 38.4987 130.331 37.8858 130.331 37.0296C130.331 36.151 130.58 35.4976 131.077 35.0695C131.574 34.6418 132.378 34.4279 133.488 34.4276H138.692V37.3072Z" fill="white"/>
<path d="M154.755 33.4215L160.757 25.338H156.698L152.673 30.8195L148.649 25.338H144.59L150.627 33.4215L144.347 41.7825H148.441L152.673 36.0582L156.906 41.7825H161L154.755 33.4215Z" fill="white"/>
<path d="M38.2366 49.496V46.1124H28.3633L38.2366 36.1467V30.972L19.8843 49.496H38.2366Z" fill="white"/>
<path d="M13.8123 49.496L38.2364 24.8433V19.6687L8.68555 49.496H13.8123Z" fill="white"/>
<path d="M0 46.9595V49.496H2.61372L38.2364 13.5401V11H35.6263L0 46.9595Z" fill="white"/>
<path d="M24.4277 11L0 35.6562V40.8309L29.5545 11H24.4277Z" fill="white"/>
<path d="M0 11V14.3836H9.87686L0 24.3529V29.5276L18.3559 11H0Z" fill="white"/>
</svg>
